<?xml version="1.0" encoding="UTF-8"?>
<svg id="svg1" xmlns="http://www.w3.org/2000/svg" version="1.1" viewBox="0 0 348.93 488.45">
  <!-- Generator: Adobe Illustrator 30.2.1, SVG Export Plug-In . SVG Version: 2.1.1 Build 1)  -->
  <defs>
    <style>
      .st0 {
        fill: #70777f;
      }
    </style>
  </defs>
  <g id="Third_Floor">
    <g id="Floor-3">
      <path class="st0" d="M127.49,416.83l-3.18-4.99-1.54-2.44,3.75-2.34,3.83-2.37-1.03-1.57-1.02-1.59,1.28-.82,1.28-.79-.95-1.49-.87-1.36h-5.96v.48h-.48v.3h-.27v.06h.57v2h-2.45v-2h.57v-.06h-.24v-.3h-.48v-.48h-1.94v.48h-2.77v-.48h-2.18v-5.58h9.45v-4.56h1.88v-.3h-.8v-3.52h-8.76v-3.58h11.95v7.09h-.63v.3h6.74v3.1h.45v-2.75l2.02-2.04,2.02-2.04h8.73v3.47l.04.86.09,1.19.15.99.1.66.18.68.23.89.05.2-12.81,3.87-.37-.59-.37-.59-.23.02-.24.03,2.44,3.91,2.46,3.91.15-.06.19-.12.06-.05-1.78-2.81-1.75-2.84,12.45-3.8.21.5.28.74.3.74.2.43.16.36.22.46.21.41.14.25.13.23.29.51.26.43.04.06.52.78.15.23.74.96.73.91.32.34.4.43.33.38-8.45,9.9-3.52-5.56-.18.12-.18.12,4.34,6.9-4.09,2.35-.91-1.38-2.52,1.55-2-3.11-2.76,1.77.85,1.35-4.69,2.98-1.53-2.39Z"/>
    </g>
  </g>
</svg>