<?xml version="1.0" encoding="UTF-8"?>
<svg id="svg1" xmlns="http://www.w3.org/2000/svg" version="1.1" viewBox="0 0 348.93 488.45">
  <!-- Generator: Adobe Illustrator 30.2.1, SVG Export Plug-In . SVG Version: 2.1.1 Build 1)  -->
  <defs>
    <style>
      .st0 {
        fill: #70777f;
      }
    </style>
  </defs>
  <g id="Second_Floor">
    <g id="Floor-2">
      <path class="st0" d="M75.17,163.28v-2.34h-1.01v-12.1h-5.33l-.02-.13-.21-2.33-.21-2.3v-.1s10.45,0,10.45,0v16.96h-1.85v1.37h.06v-.77h1.79v4.08h-3.67v-2.34Z"/>
      <path class="st0" d="M274.3,209.92v-7.27h-.24v14.25h-5.25v-.05l.05-.41.05-.36-.02-.51-.02-.51-.08-.36-.08-.36-.24-.58-.24-.58-.61-1.15-.61-1.15-.62-.92-.62-.92-.71-.8-.71-.8-.56-.51-.56-.51-2.53-2-4.19-3.29-1.66-1.29-.45-.42-.45-.41-.32-.4-.32-.4-.29-.52-.28-.52-.17-.51-.17-.51-.18-1.01-.18-1.01.02-1.16.02-1.16.06-.55.31-2.13.25-1.58.27-1.24.56-2.38.29-1.15h5.67s5.67-.01,5.67-.01v1.73h.21v-1.55h1.07v-.24h-12.6l2.11-9.22,2.24-9.77h11.2v19.02h-1.94v.21h2.24v-.2l1.8-2.75h1.57v-.47s0-.88,0-.88h-.09v.29s0,.28,0,.28h-1.97v-2.44h1.97v.54h.09v-.84h4.86v5.04h1.34v-2.41h4.59v-3.61h4.89v-1.55h-.24v-1.31h.83v-.1h-.63s-5.6-.02-5.6-.02h-4.97v-2.89h15.32v4.29h-1.82v1.58h3.99v19.01l-4.54,4.29-4.54,4.29h-3.48s-3.48,0-3.48,0v-1.4h-.18v1.28h-1.43v6.32h1.4v3.55h-1.4v4.41h-3.7v-7.27ZM274.3,200.27v-1.42l-.49-.49-8.42-3.06v-4.96s0-4.96,0-4.96h-.21v10.16l8.58,3.08.31.29v2.77h.24v-1.43ZM279.6,199.95v-.7h4.19l2.09-2.01,2.1-2.04-.58-.69h-2.94v-8.56h-5.19v-1.94h-1.34v.46l-1.11,1.72-1.11,1.72h-3.33l-1.55.78-1.55.78.02,1.65.03,1.65,4.25,1.47,4.44,1.53v3.63h1.4v1.25h.18v-.7Z"/>
      <path class="st0" d="M121.77,238.68l-4.39-4.44v-9.21h-.21v2.09h-2.36v-.18h-.24v2.32h-1.29s-1.19-.02-1.19-.02h.1v-2.39h-.12v-3.93h5.1v.48h.21v-11.51h12.46v3.43h-.09v.18h-3.28l-2.77,2.77-2.77,2.77v11.28l7.84,7.87h11.33l2.77-2.77,2.77-2.77v-3.28h.15v-.12h1.75l1.82.02.07.02v6.32s0,6.32,0,6.32h-11.25s-11.25,0-11.25,0l-5.16-5.22Z"/>
      <path class="st0" d="M193.72,280.95v-6.02h-8.05v-23.94h15.02v11.15h-2.98v6.8h.84v-.15h1.04v.15h1.16v-.15h1.07v.15h3.01v-.33h-1.25v-7.63h9.65l.02.07.02,3.82v3.74h-1.22v.33h2.83v7.48h-2.12v.39h.57v2h-2.41v-2h.54v-.39h-2.15v.15h-1.31v-.15h-1.91v-3.49h-.65v.21h.45v3.96h-8.05v-3.96h3.46v1.79h-.89v.36h2.92v-.36h-1.16v-1.79h.92s.77,0,.77,0v-.21h-6.13v2.94s-.01,2.94-.01,2.94h.27v-.54h5.01v6.14h-5.01v-.48h-.27v3.04h-3.99v-6.02Z"/>
      <path class="st0" d="M134.43,299.91v-3.01h2.74v-1.01h-.27v.74h-3.01v-.77s0-3.13,0-3.13v-2.36s-14.34,0-14.34,0v-.36h-.15v-2.36h.15v-.33h8.97v-.24h-.73l-.19-.19-.18-.19v-2.36l.21-.17.21-.17h3.99v-.21h-2.74v-.36h-3.31v-10.34h-2.91l-.22-.21-.22-.21v-1.33s0-1.33,0-1.33l.25-.21.25-.21h1.42s1.49,0,1.49,0v-7.15l.25-.23.25-.23h23.08v25.01h-3.73v-3.19h-.3v3.19h-4.11v-3.19h-.3v3.19h-4.08v-3.19h-3.04v.21h.68v2.65l-.23.21-.23.21h-4.4v.24h6.26v5.9h.95v1.1h.27v-1.07h3.79v.95h2.83v-.39h5.13v8.5h-5.19v-5.75h-2.62v2.03h-.03l-.03.04v4.28h-6.62v-3.01ZM146.5,298.07v-1.34h-.24v2.68h.24v-1.34Z"/>
      <path class="st0" d="M116.72,328.74v-2.44h.57v-1.37h4.74v1.37h4.86v-1.37h11.95l.39-.41.39-.41v-11.89h1.34v-4.92h-1.34v-3.16h1.19l-.09-.98h2.62v5.07h1.73v5.46s0,5.46,0,5.46l.36.23.36.23v6.79l-2.38,2.38-2.38,2.38h-12.15s-12.15.02-12.15.02v-2.44Z"/>
      <path class="st0" d="M151.12,351.81v-1.04h4.68v-.3h-2v-7.48h1.16v-.21h-3.22v-2.15h.51s.53,0,.53,0l.45-.11h.4s.4,0,.4,0l.57.1h1.68s1.6.02,1.6.02v.1s.07,0,.07,0v5.79s-.01,5.79-.01,5.79h-.06v.54h-6.77v-1.04Z"/>
      <path class="st0" d="M139.34,439.74l-9.35-4.45-22.15-34.98v-20.81h6.81l6.81.02,1.82.02h1.82v-2.58h2.03v7.66h-3.19v-1.52h-.41l-.02.99-.02,1.71v.73l-.57.39,1.09.02h1.09v3.52h-11.86v10.06l6.74,10.63.12-.09-2.15-3.37,7.97-5.06,1.55,2.38.52-.29,6.4,10.08-.49.3,1.76,2.86-7.97,5.03-7.03-11.06-.15.08,11.48,18.18,9.15,4.39,3.17-6.73,1.88-3.99,3.23,1.53-.85,1.78-.04.08.15.06.48-.18,2.95,1.38.03.02.24-.43-1.54-.74,1.37-2.91,4.8,2.26-8.29,17.47-9.36-4.45Z"/>
    </g>
  </g>
</svg>