<?xml version="1.0" encoding="UTF-8"?>
<svg id="svg1" xmlns="http://www.w3.org/2000/svg" version="1.1" viewBox="0 0 348.93 488.45">
  <!-- Generator: Adobe Illustrator 30.2.1, SVG Export Plug-In . SVG Version: 2.1.1 Build 1)  -->
  <defs>
    <style>
      .st0 {
        stroke: #000;
      }

      .st0, .st1 {
        stroke-width: 2px;
      }

      .st0, .st2 {
        fill: none;
      }

      .st3 {
        fill-opacity: .8;
      }

      .st3, .st4 {
        fill: #1a2632;
      }

      .st5 {
        fill: #1f5054;
      }

      .st6 {
        fill: #4a6b96;
      }

      .st7 {
        fill: #70777f;
      }

      .st1 {
        fill: red;
        fill-opacity: .4;
        stroke: red;
        stroke-dasharray: 4 2;
      }

      .st2 {
        stroke: #c4e3c3;
      }

      .st8 {
        fill: #768089;
      }

      .st9 {
        fill: #c6c2c2;
      }
    </style>
  </defs>
  <g id="Ground_Level">
    <g id="Ground">
      <path id="the_ground" class="st9" d="M74.71,12.07v50.16h-17.06v3.97H17.48v106.55l2.44,1.49-1.95,4.68h-4.07v27.88h3.41v62.32h44.75v-12.18h10.1v-14.75h13.26v-24.91h21.13v20.97h6.5v87.88h-7.75l-2.41,4.39v4.99h-7.68v40.81l7.2,25.56,23.48,36.48,13.95,6.52h54.31v4.68l12.91,4.06v6.73h4.97l8.33,5.2h53.06v-30.12h11.98v-37.72l-32.03-4.49-24.12-11.72v-26.54h-30.84v-15.61h-7.45v-34.7h12.39v-12.05h43.66v-28.17h24.55v-21.91h20.29v-11.96h-19.12v-41.49h11.02v-12.33h15.01v-3.12h18.22v-38h-33.24V58.62h-57.58v-25.28h-9.61V12.07H74.71Z"/>
    </g>
    <g id="Tarmac">
      <path class="st8" d="M310.45,8.92v22.53l-.12.85-.3.8-.46.69-.71.56-.81.29h-85.92l-7.31.54-6.29,1.09-7.35,2.17-7.16,3.22-6.19,3.76-5.36,4.09-5.46,5.25-5.32,6.19-3.03,4.81-.34.32-.51.32-.94.22h-12.38v-22.87h-6.31v22.87h-.79v-29.71l-1.7-.51-1.74-.8-1.7-1.05-1.3-1.27h-54.71l-1.48,1.67-1.16,1.05-1.41.9-2.21.58h-2.12s0,22.45,0,22.45h57.5v13.92l.35,1.05.83.9,1.19.4h23.09l1.23.51.94.76.58,1.16.11.75-.21.84-1.01,5.86-.83,7.17-.29,3.76-.22,6.88-.11,6.84v62.96l-.48,1.24-.44.66-.67.5-.73.29-.79.11h-1.75v.23h-13.36v7.05h-64.52v-1.48h62.79v-3.55H42.69l-1.21-.09-.89-.33-.77-.53-.49-.72-.27-.7-.08-.74v-54.75l4.82-3.36v-19.99l-4.82-2.86v-29.34l.14-.71.31-.83.49-.67.71-.51.82-.27.71-.07h21.78v-13.12h-3.04v-22.18h-11.75v22.04h-7.33l-.67-.09-.82-.39-.53-.48-.45-.7-.25-.67-.13-.7V15.93h-5.98v161.53h-5.12v-52.14l-2.8-11.1v-30.16l2.85-19.21V15.89h-5.98v160.23s-.29.88-.29.88l-.51.76-.72.53-.87.36-.9.08H0v22.32h18.77l.84.13.86.33.79.65.49.89.2.9v109.26l-.12.82-.28.75-.48.7-.69.51-.85.33-.93.08h-10.02v4.97h10.14l.97.13.8.31.7.48.44.65.29.71.03.13v90.75h5.94v-212.07h5.12v22.16l2.92,11.32v29.75l-2.94,19.76v129.08h6v-44.39l.39-1.53,1.14-1.19,1.69-.43h46.7v-13.32h-46.63l-1.72-.44-1.13-1.15-.44-1.65v-61.3l4.73-2.77v-20.11l-4.73-3.29v-58.73l.16-.99.47-.96.75-.74.88-.43.94-.14h98.82v-3.62h-62.77v-1.61h64.51v6.97h13.4v.35h1.97l1.16.21.9.64.55.82.28,1.15v146.73l-.29,1.17-.55.88-.69.51-1.08.29h-13.38l-1.08-.24-.86-.64-.52-.88-.17-1.35v-13.76h-43.06v28.42h43.1v-1.67l.24-1.06.66-.96,1.04-.71,1.16-.25h12.74l1.2.27,1.01.71.72,1.12.75,8.89,1.12,7.38.71,3.04,1.4,4.86,2.53,6.12,2.74,4.63,3.37,4.5,3.95,4.39,4.66,4.39,5.19,4.03,6.23,3.76,6.91,3.21,2.08.96.99.82.63,1.1.22,1.21v56.84h13.22v-53.63l.27-1.37.66-1.02,1.02-.66,1.07-.28h86.51l1.17.28,1,.67.63.89.22,1.15v44.69h9.23v-78.95l25.13-33.51-7.33-5.5-27.07,36.1v17.8l-.11.84-.24.65-.54.76-.76.48-.78.3-.8.15h-42.88l-.72-.14-.55-.28-.39-.56-.12-.81,3.96-17.25-10.61-1.53-2.59,18.25-.2.79-.31.5-.44.43-.65.37-.83.22h-30.25l-2.14-.13-4.13-.45-4.1-.84-4.11-1.36-3.89-1.58-3.74-2.07-4.54-2.92-4-3.37-3.95-3.76-3.87-4.62-.94-1.5-.06-.19.15-.21.61.07,2.48.89,2.41.76,2.35.64,2.54.39,2.59.35,1.98.12h1.42v.62h23v-7.09h-22.99v.61h-.7l-4.33-.34-2.68-.52-2.48-.62-3.35-1.16-2.51-1.22-2.7-1.81-2.21-2.1-.21-.75-.99-4.45-.61-4.52-.37-4.71-.06-24.3v-98.49l.36-.68.46-.65.7-.5.89-.35.85-.1h112.68c.53.06,1.21.14,1.21.14l.92.42.71.67.46.75.14.83v4.44h-5.67v35.2h36.91v-35.26h-12.21v27.1h-7.14v-27.1h-5.18v-4.74l.27-.87.6-.72,1-.54,1.87-.33h27.41v-9.23h-117.6l-.3-.21-.19-.37v-3.11l-.56-1.21-1.49-1.33-1.81-1.29-5.34-3.29-2.93-2.25-2.95-3.15-1.93-2.71-1.12-2.59-.7-2.49-.18-3.74.5-4.94,1.25-4.66,2.39-7.47,1.37-6.39.34-6.43-.12-6.39-.16-4.82h-20.83v34.49h3.46v8.68h-3.29l1.65,5.87,1.63,3.58,2.09,3.13,3.39,3.27,3.71,2.25,3.58,1.39,5.04,1.37,1.49.02.48.38,1.61,3.39-.26.66-.4.35h-11.64l-1.95-.28-2.26-.76-2.62-1.21-2.56-1.65-2.4-2.03-2.44-2.93-1.7-2.98-1-3.29-.47-4.11v-116.04l.15-5.01.3-2.98.5-.57h.38s.29.2.29.2l3.24,4.91v55.94h21.11v-4.46l-.16-6.45-.28-6.43-.52-6.37-1.1-6.47-1.79-7.27-2.75-7.03-2.67-4.98-4.14-6.39-2.85-5.08-2.71-6.35-2.96-7.33,1.47-3.3,1.69-2.71,2.52-3.12,3.79-3.92,3.68-3.27.86-.63.63-.02,17.93,12.82,5.42-6.64-11.15-7.88-1.81-1.62-1.55-1.15-.22-.64.23-.53,1.82-.85,4.78-1.71,3.82-1.04,5.32-.66,3.86-.27h83.27l.89.1.83.32.6.39.55.68.28.73.12.82.18,7.45.28,7.26.27,2.88,1,3.67,1.17,2.79,1.65,2.92,1.65,2.27,1.98,2.21,2.57,2.05,2.71,1.79,3.38,1.63,3.57,1.04,3.92.63h16.48v-9.04l-7.57-.05-5.84-.27-4.94-.83-3.9-1.63-2.99-2.25-2.19-3.57-1.34-5.36-.5-8.14V8.92h-9.2ZM232.27,39.27h52.84v3.93h-52.84v-3.93ZM84.42,46.83h15.16v2.57h-15.16v-2.57ZM104.65,46.83h15.02v2.57h-15.02v-2.57ZM124.81,46.83h15.23v2.57h-15.23v-2.57ZM165.87,254.72h3.91v52.87h-3.91v-52.87ZM105.2,351.2h30.83v2.62h-30.83v-2.62Z"/>
    </g>
    <g id="Green">
      <path class="st5" d="M44.51,205.73h21.97v4.96l-21.97,5.52v-10.48Z"/>
      <path class="st5" d="M50.52,227.73v4.75l10.65,2.6v-7.35h-10.65Z"/>
      <path class="st5" d="M61.17,217.29l-10.65,2.61v4.79h10.65v-7.4Z"/>
      <path class="st5" d="M66.46,241.71v5.01h-21.99v-10.51l21.99,5.5Z"/>
      <path class="st5" d="M45.26,306.74v5.92h7.57v-4.03l-7.57-1.89Z"/>
      <path class="st5" d="M65.72,306.74l-7.61,1.91v4.01h7.61v-5.92Z"/>
      <path class="st5" d="M58.11,292.93v3.95l7.61,1.93v-5.89h-7.61Z"/>
      <path class="st5" d="M45.26,292.93v5.85l7.57-1.91v-3.94h-7.57Z"/>
      <path class="st5" d="M45.26,328.34v-8.87h19.7v3.98l-19.7,4.89Z"/>
      <path class="st5" d="M46.01,332.13v4.02h19.73v-8.96l-19.73,4.94Z"/>
      <path class="st5" d="M71.05,328.74v7.45h10.62v-4.79l-10.62-2.66Z"/>
      <path class="st5" d="M71.05,324.17v-4.72h10.6v7.42l-10.6-2.69Z"/>
      <path class="st5" d="M88.13,312.91v9.89l3.07-.85v-8.18l-3.07-.85Z"/>
      <path class="st5" d="M88.26,330.26v6.51h6.47l-.83-3.13h-2.58v-2.52l-3.06-.85Z"/>
      <path class="st5" d="M108.3,369.4v3.38l9.89-2.48v-.9h-9.89Z"/>
      <path class="st5" d="M98.43,369.4v5.85l7.62-1.91v-3.94h-7.62Z"/>
      <path class="st5" d="M144.07,369.38v3.99l7.57,1.91v-5.9h-7.57Z"/>
      <path class="st5" d="M131.96,369.38v.94l9.91,2.49v-3.44h-9.91Z"/>
      <path class="st5" d="M137.78,333.58v2.01h7.04v-2.01h-7.04Z"/>
      <path class="st5" d="M126.38,333.58v2.01h7.06v-2.01h-7.06Z"/>
      <path class="st5" d="M114.61,333.58v2.01h7.04v-2.01h-7.04Z"/>
      <path class="st5" d="M103.24,333.58v2.01h6.99v-2.01h-6.99Z"/>
      <path class="st5" d="M150.85,335.66h7.04v-9.61h-2.05v3.97h-2.95v-1.35h-2.04v6.99Z"/>
      <path class="st5" d="M150.81,312.78v2.03h5.03v2.5h2.04v-7.02h-2.04v2.49h-5.03Z"/>
      <path class="st5" d="M153.06,299.19h2.78v2.21h2.05v-7.06h-4.84v4.85Z"/>
      <path class="st5" d="M150.9,203.38h-1.41v1.41h1.41v-1.41Z"/>
      <path class="st5" d="M146.43,203.16h-7.04v1.49h7.04v-1.49Z"/>
      <path class="st5" d="M134.76,203.37h1.38v1.41h-1.38v-1.41Z"/>
      <path class="st5" d="M127.55,203.38h1.38v1.39h-1.38v-1.39Z"/>
      <path class="st5" d="M122.36,203.16v1.51h-10v-1.51h10Z"/>
      <path class="st5" d="M107.57,203.37h1.4v1.39h-1.4v-1.39Z"/>
      <path class="st5" d="M94.33,203.16h10.01v1.51h-10.01v-1.51Z"/>
      <path class="st5" d="M88.61,203.37h1.4v1.41h-1.4v-1.41Z"/>
      <path class="st5" d="M79.97,203.37h1.39v1.4h-1.39v-1.4Z"/>
      <path class="st5" d="M71.27,203.14h3.96v1.53h-3.96v-1.53Z"/>
      <path class="st5" d="M160.7,364.1h-.79v22.16l.2,1.82.62,1.94.99,1.71,1.31,1.48,1.59,1.21,1.8.82,1.37.32-1.23-2.65-1.49-3.8-1.01-3.23-1.02-3.82-.62-3.6-.69-4.7-.83-9.38-.19-.28Z"/>
      <path class="st5" d="M164,403.82l2.84.76v6.74s-5.07-1.37-5.07-1.37l2.23-6.14Z"/>
      <path class="st5" d="M168.66,428.53v-7.13l.21-.57.43-.45.46-.17h.32l.51.17.43.45.18.57v7.13l-.16.54-.37.44-.57.24h-.3l-.57-.24-.36-.44-.19-.54Z"/>
      <path class="st5" d="M176.86,433.49v-7.13l.21-.57.43-.44.46-.17h.32l.51.17.43.44.18.57v7.13l-.16.54-.37.44-.57.24h-.3l-.57-.24-.36-.44-.19-.54Z"/>
      <path class="st5" d="M185.05,428.53v-7.13l.21-.57.43-.45.46-.17h.32l.51.17.43.45.17.57v7.13l-.16.54-.37.44-.57.24h-.3l-.58-.24-.36-.44-.19-.54Z"/>
      <path class="st5" d="M197.35,449.3v-7.13l.21-.57.43-.44.46-.17h.32l.51.17.43.44.18.57v7.13l-.16.54-.37.44-.57.24h-.3l-.57-.24-.36-.44-.19-.54Z"/>
      <path class="st5" d="M189.24,438.87h7.13l.57.21.44.43.18.46v.32l-.18.51-.44.43-.57.17h-7.13l-.54-.16-.44-.37-.24-.57v-.3l.24-.58.44-.36.54-.19Z"/>
      <path class="st5" d="M203.05,438.11h1.18v15.23h-1.18v-15.23Z"/>
      <path class="st5" d="M193.05,420.35v5.75l.22,1.18.61.9.98.63.98.22h8.57v-1.4l-.19-1.08-.66-1.07-.95-.71s-5.72-2.5-5.78-2.5-3.79-1.91-3.79-1.91Z"/>
      <path class="st5" d="M233.29,428.42h7.76v1.14l-3.87,1.04-3.89-1.04v-1.14Z"/>
      <path class="st5" d="M267.38,428.42h7.76v1.14l-3.87,1.04-3.89-1.04v-1.14Z"/>
      <path class="st5" d="M289.04,428.42h7.76v1.14l-3.87,1.04-3.89-1.04v-1.14Z"/>
      <path class="st5" d="M218.67,459.16v-7.76h1.14l1.04,3.87-1.04,3.89h-1.15Z"/>
      <path class="st5" d="M299.36,413.05h-7.03v-2.1h7.03v2.1Z"/>
      <path class="st5" d="M279.89,409.23h2.7v-3.8h2.01v3.82h.14v4.81h-7.11v-2.1h2.26v-2.73Z"/>
      <path class="st5" d="M282.64,399.97h4.83v-4.86h-4.83v4.86Z"/>
      <path class="st5" d="M236.31,407.62h8.57v-2.15h-3.77v-2.68h-2.74v-2.22h-2.06v7.05Z"/>
      <path class="st5" d="M215.26,405.42v-9.54h-15.85v1.22h14.62v8.31h1.23Z"/>
      <path class="st5" d="M197.5,384.43h22.55v3.26h-22.55v-3.26Z"/>
      <path class="st5" d="M197.52,374.24h21.55v1.24h-21.55v-1.24Z"/>
      <path class="st5" d="M208.56,368.25h15.16v1.36h-15.16v-1.36Z"/>
      <path class="st5" d="M178.14,368.22h19.42v1.43h-19.42v-1.43Z"/>
      <path class="st5" d="M182.57,370.07h6.62v6.57h-6.62v-6.57Z"/>
      <path class="st5" d="M178.31,358.48v-17.75h1.35v17.75h-1.35Z"/>
      <path class="st5" d="M178.29,324.92v-17.7h1.39v17.7h-1.39Z"/>
      <path class="st5" d="M178.29,299.19v-8.46h1.38v8.46h-1.38Z"/>
      <path class="st5" d="M178.28,282.1v-8.42h1.38v8.42h-1.38Z"/>
      <path class="st5" d="M178.28,257.83v-8.45h1.38v8.45h-1.38Z"/>
      <path class="st5" d="M182.09,245.54h8.43v1.42h-8.43v-1.42Z"/>
      <path class="st5" d="M196.81,245.49h26.63v1.45h-26.63v-1.45Z"/>
      <path class="st5" d="M234.24,245.47h27.02v1.4h-27.02v-1.4Z"/>
      <path class="st5" d="M270.84,245.44h8.36v12.52h-1.8v-11.12h-6.55v-1.39Z"/>
      <path class="st5" d="M279.11,267.72v12.59h-1.72v-12.59h1.72Z"/>
      <path class="st5" d="M284.71,284.55h8.79v1.8h-8.79v-1.8Z"/>
      <path class="st5" d="M298.05,284.58h17.88v1.77h-17.88v-1.77Z"/>
      <path class="st5" d="M319.89,284.55h8.84v1.75h-8.84v-1.75Z"/>
      <path class="st5" d="M325.32,278.82h3.64v-30.08h-3.64v30.08Z"/>
      <path class="st5" d="M312.71,248.74v26.86h-3.24v-26.86h3.24Z"/>
      <path class="st5" d="M284.44,248.76h3.58v30.07h-3.58v-30.07Z"/>
      <path class="st5" d="M334.59,228.24h7.04v-2.02h-7.04v2.02Z"/>
      <path class="st5" d="M323.8,228.36h7.04v-2.02h-7.04v2.02Z"/>
      <path class="st5" d="M314.03,228.34h7.04v-2.02h-7.04v2.02Z"/>
      <path class="st5" d="M291.5,228.37h7.04v-2.02h-7.04v2.02Z"/>
      <path class="st5" d="M276.87,228.34h7.04v-2.02h-7.04v2.02Z"/>
      <path class="st5" d="M258.05,221.69v6.76h-12.47v-6.76h12.47Z"/>
      <path class="st5" d="M234.66,221.57v6.81h-4.16l-3.57-.36-4.04-1.07-5.16-1.92-4.82-2.31-3.54-1.94-3.96-2.56-2.54-2.26-2.44-2.68,5.88-3.29,1.87,2.24,2.7,2.31,3.71,2.49,3.49,1.85,4.48,1.46,3.52.73,3.8.37,4.76.12Z"/>
      <path class="st5" d="M204.65,207.08l-5.78,3.43-.6-1.55-.39-2.22.02-3.16.32-3.13.84-3.22,1.71-5.16,1.35-4.59.64-2.4.43-2.36.36-3.24.18-5.72-.05-5.07.25,4.98.32,1.3.71,1.1.94.71,1.12.43,1.23.11,1.17-.28,1.16-.68.85-.96.5-1.35.09-1.44.04-5.39.2,7.66-.02,2.27-.23,1.65-.59,1.69-4.36,10.52-1.64,4.23-.8,2.54-.46,2.08-.23,2.86.11,2.13.64,2.2Z"/>
      <path class="st5" d="M209.14,162.35h-2.51v3.79l.46,7.32.14.45.36.25.3.02.43-.12.27-.23.18-.48.41-6.45-.04-4.53Z"/>
      <path class="st5" d="M212.21,151.09h-8.66v-3.8s-.13-7.79-.13-7.79l-.19-6.45-.24-4.14-.56-4.63-.92-5.16-.74-3.47-.65-2.33,3.73-.96.7,3.12.84,2.75,1.48,3.83,5.07,12.23.21,2.84.07,13.97Z"/>
      <path class="st5" d="M199.24,110.25l-2.45-5.91-2.32-4.73-3.73-5.68-2.5-4.15-1.08-2.05-.84-2.39-.38-1.6-.13-1.09-.03-1.36.24-1.66.9-2.87,1.01-2.03,1.17-1.69,1.43-1.51,6.43,4.6-1.18,2.25-.73,2.25-.34,2.63.3,2.93.81,3.05,1.02,2.91,2.34,5.37,1.43,3.81,1.92,5.32.71,2.45-3.99,1.15Z"/>
      <path class="st5" d="M198.93,62.41l6.77,4.8-.82,1.15-6.77-4.8.82-1.15Z"/>
      <path class="st5" d="M221.07,162.19h-6.68v10.08l.12,1.01.32.44.44.2.37-.11.57-.45,1.67-1.9,1.23-1.6,1.01-1.97.64-1.78.25-2.04.05-1.88Z"/>
      <path class="st5" d="M221.09,150.57h-6.71l.14-10.2.15-.61.45-.34h.42s.51.35.51.35l2.24,2.68,1.26,1.94,1.06,2.45.44,2.03.04,1.69Z"/>
      <path class="st5" d="M247.32,215.73v3.53h12.46l1.68-.65,1.57-1.05.61-.98.02-1.1-.42-1.89-.75-2.15-1.87-2.34-10.77-7.99-.51-.07-.44.3-.47,1.01-.61,2.1-.42,4v2.62l.42.49.75.12,2.36.02,2.36.33,2.01.7,1.45.93-1.54,3.11-1.15-.61-1.66-.35-5.07-.07Z"/>
      <circle class="st5" cx="270.01" cy="223.46" r="1.98"/>
      <path class="st5" d="M279.2,223.55l4.96-.92,4.89-.5,4.52-.06,4.41.4-6.85-3.97-2.62-1.03-2.2-.15-1.74.69-2.62,2.14-2.73,3.4Z"/>
      <path class="st5" d="M236.39,212.66h7.81l.58-.33.26-.56.23-4.95.68-4.54.96-4,1.03-3.3.07-.84-.4-.77-3.86-2.1-.75.02-.59.47-4.39,9.77-1.61,4.39-.73,3.09-.07,2.66.26.7.51.28Z"/>
      <circle class="st5" cx="257.21" cy="194.03" r="2.76"/>
      <path class="st5" d="M233.04,215.68l-.19,1.4-.4,1.03-.89.68-1.26.3-2.34-.09-3.6-.56-4.96-1.5-3.53-1.73-3.95-2.76-2.76-2.48-1.31-1.64-.02-.42.26-.21,1.19-.21,1.24.05,15.52.28,2.64-.16.49.05,2.31.77.65.44.7.89.33,1.12.09.98-1.75.19-3.13.77-2.85.56-2.34.02-2.01-.3-1.73-.49-1.05,3.46,1.47.47,2.15.4,2.43.19,3.01-.3,2.76-.61,2.2-.54.61-.05Z"/>
      <path class="st5" d="M212.66,205.23h-2.22l-.91-.23-1.36-1.05-.87-1.1-.79-1.87-.09-1.15.54-2.2,2.2-5.89,4.6-11.17.68-1.26,1.24-1.94.28-.09.3.12,2.36,1.71,1.47,1.26.07.33-.21.28-1.05.58-1.38,1.1-1.03,1.43-.51,1.52-.07,1.64.02,9.58-.68-.02-.26-2.41v-2.01l.07-1.75-3.9-.28-.09,3.01.19,3.48.51,3.43.77,3.69.12,1.26Z"/>
      <path class="st5" d="M220.12,205.56l1.87.09,3.58.02,5.19-.37,1.75-.3,1.61-1.05,1.33-2.08,5.12-11.22.12-.65-.47-.73-1.87-1.38-2.22-1.89-3.69-3.72-.93-.87-.77-.23h-.93l-1.07.54-1.03.37-1.1.19-1.05.05-2.17-.02-1.8.23-1.57.77-1.19,1.33-.68,1.5-.12,2.22.02,14.96.42,1.31.82.65.84.28Z"/>
      <path class="st5" d="M221.19,179.83l.21.42.37.12,1.17-.14,1.89-.05,1.47.05,1.01-.19,1.03-.47.54-.54.09-.42-.21-.23-2.43.19-3.18.35-1.47.4-.47.28-.02.23Z"/>
      <path class="st5" d="M218.02,176.93l1.61-.91,1.85-.61,2.17-.37,2.57-.26-1.33-2.22-.82-.77s-1.26-.75-1.38-.75-.84-.07-.84-.07l-.56.3-1.5,1.29-2.64,3.23-.12.33.12.33.87.49Z"/>
      <path class="st5" d="M223.37,162.3l-.42,4.37.19,1.05.77.91,1.17.84,1.24,1.15,2.34,3.9,1.85-.14,3.01-.51,2.34-.93,2.15-1.26,2.34-2.55-.7-2.5-.33-2.38-.02-1.92h-.75l-.19,1.78-.59,1.4-.91,1.38-.98,1.01-1.54.96-1.45.56-1.71.23-1.78-.16-1.75-.58-1.31-.84-1.26-1.33-.98-1.52-.54-1.47-.19-1.43Z"/>
      <path class="st5" d="M231.92,178.56l2.27,2.48,2.8,2.8,2.59,2.31,1.54,1.03.61-.02.51-.4,1.24-2.31,1.89-3.9.14-.79-.23-.7-.96-1.03-1.01-1.54-1.38-2.71-.26-.21-.35.14-1.33,1.36-2.59,1.43-2.69,1.03-2.5.49-.35.21.05.35Z"/>
      <path class="st5" d="M247.51,181.11l-3.27,6.68-.12.65.33.65,3.34,1.99.65.05.4-.33,2.1-9.02-.07-.44-.4-.28-2.31-.37-.42.12-.23.3Z"/>
      <path class="st5" d="M249.36,178.73l1.68.28.56-.16.44-.51.87-4.23.35-2.76.19-4.18-.02-1.83-.3-.56-.6-.06-.33.6-.56,4.18-.7,3.34-.93,3.09-.98,2.2.02.37.33.23Z"/>
      <path class="st5" d="M247.14,176.95l1.26-3.15.72-2.9.49-3.25.02-3.11-.16-2.38h-1.8l-.49,2.29-1.12,2.69-1.33,2.31-1.17,1.8-.07.42.35.91,1.12,2.52.77,1.31.61.75.51.07.28-.28Z"/>
      <path class="st5" d="M243.75,162.2h-2.38l.14,2.03.3,1.73.16.26.28-.09.96-2.03.54-1.89Z"/>
      <path class="st5" d="M241.95,155.33h7.04v2.08h-7.04v-2.08Z"/>
      <path class="st5" d="M223.32,150.51l-.16-2.13-.36-1.61.09-.91.41-.66,1.14-.79,1.27-1.14,1.07-1.43,1.66-2.66,1.05-1.61.54-.57.73-.18.75.23,8.04,8.29.3.43-.02.57-.73,4.31h-.73v-1.3l-.32-1.43-.68-1.48-.93-1.07-1.25-.89-1.3-.63-1.66-.54-1.38-.14-1.57.09-1.36.46-1.22.7-1.09.95-.93,1.2-.66,1.11-.45,1.57-.27,1.27Z"/>
      <path class="st5" d="M215.31,155.33h7.04v2.08h-7.04v-2.08Z"/>
      <path class="st5" d="M240.56,143.97l.23-.62-2.8-3.13-5.74-5.77-.46.51,8.78,9.01Z"/>
      <path class="st5" d="M230.34,133.48l.49-.44-4.96-5.12-3.75-4.31-1.69-2.36-1.74-2.99-1.3,2.01,12.95,13.2Z"/>
      <path class="st5" d="M223.51,142.42l.83-.83,2.69-4.19,1.57-2.08.21-.72-.44-.76-11.79-11.93-1.37,2.43-1.2,2.76-1.09,3.03-.07.56.35,1.07.63,1.3,3.03,4.19,2.78,3.4.95,1.39,1,.67,1.11.12.81-.39Z"/>
      <path class="st5" d="M211.49,127.48l1.3-3.1,1.48-2.96,1.85-3.08,1.6-2.29-.49-2.59-.35-2.89-.05-2.46-6.04-.05-1.27.32-1.48,1.07-1.04,1.48-.51,1.64-.05,1.78,1.23,3.59,3.82,9.54Z"/>
      <path class="st5" d="M220.75,108.12v2.01l.26,2.13,2.22-2.15,2.55-2.01-5.03.02Z"/>
      <path class="st5" d="M221.45,115l.3,1.23.93,1.83,1.53,2.27,2.41,2.83,6.72,7.02,3.03-3.1,2.39-2.01,2.13-1.51-5.3-11.72-1.51-1.74-1.39-1.11-.81-.28-1.53.09-1.97.46-1.95,1.16-2.78,2.27-2.2,2.32Z"/>
      <path class="st5" d="M234.95,131.7l5.1,5.26,2.15,2.41,1.27-2.96.9-1.83.53-.65.12-.42-1-3.36-2.22-4.59-2.18,1.55-3.15,2.99-1.53,1.6Z"/>
      <path class="st5" d="M244.38,141.75l1.32,1.9,1.44,2.87.53,3.91h1.62l.26-2.55.05-2.13-.3-2.41-.6-2.71-.9-2.66-.67-1.62-.44-.23-.42.19-.97,1.44-.76,1.62-.49,1.3.02.65.32.44Z"/>
      <path class="st5" d="M241.32,150.6h2.73l-.51-2.41-1.11-2.32-.23-.09-.12.16-.51,2.73-.25,1.92Z"/>
      <path class="st5" d="M242.8,122.33l3.38-1.69,2.99-1.28-.68-3.62-1.44-3.86-1.99-2.91-2.42-2.5-.49-.19-3.51.44-1.77.33-.44.38-.14.65.76,1.77,5.74,12.49Z"/>
      <circle class="st5" cx="257.14" cy="109.09" r="1.93"/>
      <path class="st5" d="M243.81,124.42l3.51,7.43.57.52.6.19,2.45-.24-1.66-10.67-5.47,2.78Z"/>
      <path class="st5" d="M251.17,133.87l-1.86.41-.33.35-.08.35.95,2.29.95,2.78.57,2.48.38,2.97.19.65.54.33.52-.14.35-.6-.08-.84-2.11-11.02Z"/>
      <path class="st5" d="M205.91,74.82l-4.66,4.31-2.45-1.71-.94,1.65-.82,2.68-.08,2.97.94,3.89,1.59,4.08,1.78,4.08,3.32,9.18.75,2.47,1.35-1.34,1.92-.94,1.88-.29,6.24-.11-.08-.86h-10.76v-30.05Z"/>
      <path class="st5" d="M205.61,56.13l11.6,7.83h64.81l3.18.44,3.84,2.05,2.56,3.15,1.02,2.89v2.52l-1.06,3.11-2.6,2.93-3,1.57-3.88,1.02h-4.46v9.84l3.55,2.78,4.76,2.05,6.73,1.39,6.62.59h4.17v-12.15h-4.9v-20.09h4.79v-4.24h-3.29v-7.21h3.33v-2.45l-.22-.77-.59-.48-.92-.37h-46.53v3.7h-8.28v-3.67h-25.5l-3.27.17-4.19.52-4.34,1.22-3.94,1.65Z"/>
      <path class="st5" d="M193.02,227.52h7.03l-4.59-1.23-2.48-.9-2.91-1.4-2.34-1.65-2.18-1.99-1.98-2.53-1.52-2.57-1.14-2.78-1.59-5.64v5.39l.19,2.86.45,2.04.36,1.07.48,1.14.77,1.32,1.19,1.65,1.52,1.6,1.68,1.24,1.72.98,1.74.69,1.85.51,1.78.19Z"/>
      <path class="st5" d="M237.73,231.33h2.61v.73h-2.61v-.73Z"/>
      <path class="st5" d="M175.55,203.23v2.61h-.73v-2.61h.73Z"/>
      <path class="st5" d="M175.55,182.27v2.61h-.73v-2.61h.73Z"/>
      <path class="st5" d="M175.55,166.73v2.61h-.73v-2.61h.73Z"/>
      <path class="st5" d="M175.55,145.91v2.61h-.73v-2.61h.73Z"/>
      <path class="st5" d="M175.55,115.97v2.61h-.73v-2.61h.73Z"/>
      <path class="st5" d="M185.74,65.8l-1.73,1.95-.55-.49,1.73-1.95.55.48Z"/>
      <path class="st5" d="M213.7,49.6l-2.55.53-.15-.72,2.55-.53.15.72Z"/>
      <path class="st5" d="M168.66,428.53v-7.13l.21-.57.43-.45.46-.17h.32l.51.17.43.45.18.57v7.13l-.16.54-.37.44-.57.24h-.3l-.57-.24-.36-.44-.19-.54Z"/>
      <path class="st5" d="M180.28,162.01h4.57v1.32h-4.57v-1.32Z"/>
      <path class="st5" d="M195.23,162.01h4.57v1.32h-4.57v-1.32Z"/>
      <path class="st5" d="M195.23,149.65h4.57v1.32h-4.57v-1.32Z"/>
      <path class="st5" d="M180.26,149.65h4.57v1.32h-4.57v-1.32Z"/>
      <path class="st5" d="M166.21,265.06v32.2h3.22v-32.2h-3.22Z"/>
      <path class="st5" d="M242.66,39.63h32.1v3.18h-32.1v-3.18Z"/>
      <path class="st5" d="M84.71,47.12h14.62v1.99h-14.62v-1.99Z"/>
      <path class="st5" d="M104.86,47.12h14.62v1.99h-14.62v-1.99Z"/>
      <path class="st5" d="M125.15,47.12h14.62v1.99h-14.62v-1.99Z"/>
      <path class="st5" d="M260.96,25.06h-6.98v1.97h6.98v-1.97Z"/>
      <path class="st5" d="M246.45,25.06h-6.98v1.97h6.98v-1.97Z"/>
      <path class="st5" d="M232.63,25.06h-6.98v1.97h6.98v-1.97Z"/>
      <path class="st5" d="M162.73,58.43l1.44-2.35,1.82-2.7,2.23-2.81,2.41-2.74,2.28-2.3,2.1-1.88-1.19-.86-2.1-.89-2.46-.35-2.48.33-2.15.84-1.93,1.31-1.31,1.5-1.08,1.79-.69,2.15-.18,2.52.44,2.32,1.13,2.26,1.73,1.86Z"/>
      <path class="st5" d="M175.4,36.54l13.44-3.6-.36-1.33-13.44,3.6.36,1.33Z"/>
      <path class="st5" d="M189.42,32.78l13.44-3.6-.36-1.33-13.44,3.6.36,1.33Z"/>
      <path class="st5" d="M147.9,42.42h8.25v23.49h-1.25v-22.48h-6.99v-1.01Z"/>
      <path class="st5" d="M125.97,30.83h11.44v2.03h-11.44v-2.03Z"/>
      <path class="st5" d="M107.8,30.83h11.44v2.03h-11.44v-2.03Z"/>
      <path class="st5" d="M75.46,61.07h2.03v-23.38h-2.03v23.38Z"/>
      <path class="st5" d="M134.98,60.27v2.03h-9.63v-2.03h9.63Z"/>
      <path class="st5" d="M119.13,60.24v2.05h-23.16v-2.05h23.16Z"/>
      <path class="st5" d="M92.15,60.24v2.05h-16.86v-.91h2.49v-1.14h14.37Z"/>
      <path class="st5" d="M74.71,72.83v-35.54h-8.04v9.42h-5.39v2.01h5.43v14.17h-8.32v5.28h-4.93v-1.52h-6.5v13.79h1.98v-7.61h25.78Z"/>
      <path class="st5" d="M46.85,48.71h2.02v-22.19h-2.02v22.19Z"/>
      <path class="st5" d="M54.48,81.08h10.53v-2.24h9.69v4.61h-1.5l-2.14.86-1.16,2.14-.07.9h-2.56v-2.37h-7.09v2.37h-5.69v-6.27Z"/>
      <path class="st5" d="M77.68,81.13h7.01v1.64h-7.01v-1.64Z"/>
      <path class="st5" d="M46.97,85.68h1.97v12.03h-1.97v-12.03Z"/>
      <path class="st5" d="M54.86,99.44h7.01v2.01h-7.01v-2.01Z"/>
      <path class="st5" d="M46.96,126.75h1.94v-7.57h5.24v-6.86h-7.18v14.44Z"/>
      <path class="st5" d="M66.6,96.84l-.61,6.69,1.7.15.61-6.69-1.7-.16Z"/>
      <path class="st5" d="M52.07,129.01h4.79v4.81h-4.79v-4.81Z"/>
      <path class="st5" d="M46.96,135.6h2.01v24.66h-2.01v-24.66Z"/>
      <path class="st5" d="M54.88,150.51h7v2.08h-7v-2.08Z"/>
      <path class="st5" d="M54.59,159.71v9.4h20.84v-2.97h-1.79l-2.37-1.1-.96-1.62-.44-1.46h-5.45v-2.26h-9.82Z"/>
      <path class="st5" d="M54.77,174.76h20.52v1.56h-20.52v-1.56Z"/>
      <path class="st5" d="M78.72,172.96v1.37h12.28v-3.84h-4.53v2.47h-7.75Z"/>
      <path class="st5" d="M94.43,174.72h10.08v1.59h-10.08v-1.59Z"/>
      <path class="st5" d="M112.45,174.72h10.08v1.59h-10.08v-1.59Z"/>
      <path class="st5" d="M125.49,174.3h12.34v-4.44h-4.6v2.5h-7.74v1.94Z"/>
      <path class="st5" d="M139.7,174.76h7.05v1.5h-7.05v-1.5Z"/>
      <path class="st5" d="M148.46,174.04h6.9v-6.9h-6.9v6.9Z"/>
      <path class="st5" d="M157.44,141.62v-4.47l.11-.27.2-.22.28-.11h.29l.27.11.21.22.12.27v4.47l-.12.29-.2.19-.3.13h-.26l-.29-.13-.21-.19-.1-.29Z"/>
      <path class="st5" d="M157.44,108.3v-4.47l.11-.27.2-.22.28-.11h.29l.27.11.21.22.12.27v4.47l-.12.29-.2.19-.3.13h-.26l-.29-.13-.21-.19-.1-.29Z"/>
      <circle class="st5" cx="87.6" cy="65.89" r="2.15"/>
      <circle class="st5" cx="116.1" cy="65.89" r="2.15"/>
      <circle class="st5" cx="130.57" cy="65.89" r="2.15"/>
      <circle class="st5" cx="167.77" cy="59.02" r="1.31"/>
      <circle class="st5" cx="176.45" cy="48.82" r="1.31"/>
      <circle class="st5" cx="182.93" cy="43.62" r="1.31"/>
      <circle class="st5" cx="192.2" cy="37.69" r="1.31"/>
      <circle class="st5" cx="202.53" cy="33.48" r="1.31"/>
      <circle class="st5" cx="213" cy="31.42" r="1.31"/>
      <circle class="st5" cx="222.95" cy="30.73" r="1.31"/>
    </g>
    <g id="Fountain">
      <path class="st6" d="M247.29,212.81v1.89c5.53-.04,6.59.25,8.28,1.02v-2c-1.59-.67-2.66-.9-8.28-.91Z"/>
      <path class="st6" d="M218.99,215.45l.59-1.87c6.84,2.04,8.97-.43,13.68-.78v1.93c-3.55.62-8.05,2.64-14.26.73Z"/>
      <path class="st6" d="M213.58,204.65l2.01.06c-.34-3.17-1.74-6.89-1.45-13.84l-1.87-.17c-.44,7.13,1.15,10.82,1.31,13.96Z"/>
      <path class="st6" d="M217.9,178.16l1.65,1.26c1.97-1.4,4.34-1.74,8.54-1.87l-1.42-1.87c-3.99.37-6.51.7-8.76,2.48Z"/>
      <path class="st6" d="M229.35,175.45c4.23-.26,8.2-1.33,11.3-5.19l.75,2.15c-3.08,3.25-6.75,4.52-10.69,4.86l-1.37-1.81Z"/>
      <path class="st6" d="M243.14,170.29l-.78-2.46c1.08-1.83,1.79-2.86,2.4-5.64l1.98.03c-.69,3.25-2.2,5.76-3.6,8.07h0Z"/>
      <path class="st6" d="M242.72,144.39l.78-2.12c1.72,2.42,3.29,5.03,3.29,8.18l-1.9.03c-.01-2.38-.57-3.72-2.18-6.09h0Z"/>
      <path class="st6" d="M241.02,142.35l.75-2.12c-2.11-2.38-4.98-5.19-7.59-7.76l-1.26,1.37c4.92,4.92,7.45,7.6,8.09,8.51Z"/>
      <path class="st6" d="M231.3,132.24l1.28-1.42c-2.51-2.6-10.59-10.13-11.97-14.96l-1.37,1.84c1.57,4.23,9.72,12.24,12.06,14.54Z"/>
      <path class="st6" d="M217.77,108.05l1.95.03c.06,1.74.2,3.43.42,5.11l-1.67,1.93c-.35-2.33-.71-4.65-.7-7.06Z"/>
      <path class="st6" d="M225.26,158.18h11.58v-3.61h-11.58v3.61Z"/>
      <path class="st6" d="M224.99,150.74h11.89l-.24-1.65-.98-1.75-1.29-1.24-1.79-1.01-1.72-.31-1.89.34-1.7.89-1.15,1.32-.79,1.75-.34,1.68Z"/>
      <path class="st6" d="M224.99,162.08h11.89l-.24,1.65-.98,1.75-1.29,1.24-1.79,1.01-1.72.31-1.89-.34-1.7-.89-1.15-1.32-.79-1.75-.34-1.68Z"/>
    </g>
    <g id="Buildings">
      <path class="st4" d="M73.17,83.27c-.74.3-1.49.6-2.23.9-.4.74-.81,1.49-1.21,2.23-.52,5.79-1.03,11.59-1.55,17.38-1.46.69-2.92,1.39-4.37,2.08-.82,1.42-1.64,2.83-2.45,4.25v10.19h6.8v22.94c.51,6.26,1.02,12.51,1.53,18.77.15.51.3,1.01.46,1.52.33.56.66,1.11.99,1.67.82.38,1.64.76,2.46,1.14,4.04,0,8.07,0,12.11-.01,2.77-3.36,5.54-6.72,8.31-10.08,6.59,1.2,13.18,2.4,19.77,3.6h27.44c.93-.44,1.85-.87,2.78-1.31.44-.73.88-1.46,1.31-2.19.82-9.62,1.65-19.24,2.47-28.87,0-1.87,0-3.74,0-5.61-.33-4.17-.66-8.34-.99-12.51h-5.42c-.36-4.09-.73-8.19-1.09-12.28-.29-.43-.57-.86-.86-1.29-.43-.44-.86-.89-1.29-1.33-.59-.19-1.17-.38-1.76-.56h-21.89v-7.22c-.49-.86-.99-1.72-1.48-2.58-.71-.27-1.43-.55-2.14-.82h-37.69Z"/>
      <path class="st4" d="M79.72,211.61v61.53c3.87,3.87,7.74,7.74,11.62,11.62h1.03v18.4h10.13v21.88l1.08,1.08h36.21c.32-.32.64-.64.96-.95v-21.83h8.69v-16.52h-.55v-10.46h.54v-6.71h-.54v-7.42c.22,0,.44,0,.66,0v-31.1h-3.67c-5.31-5.3-10.61-10.59-15.92-15.89v-3.64s-50.23,0-50.23,0h0Z"/>
      <path class="st4" d="M51.13-.05v9.33l11.93,8.21v19.98l16.91.02,2.21-.58,1.41-.9,1.16-1.05,1.48-1.66,7.78-9.28h8.87v2.43h28.86v.28h5.25l8.02,6.76,1.77.82,1.77.36h1.34l13.91-2.75.93,3.52,9.34-2.44.62,2.24,13.94-3.73.03.15,14.07-3.83-1.31-4.45,9.26-2.47,1.13-.54,1-.69.87-.9.69-.98h41.62l5.68,8.05,1.05.93.9.64.95.44,1.41.36,23.77,2.06,1.49-.1,1.31-.44,1.34-.72,1.08-.95.88-1.13.62-1.23.39-1.29.02-1.23V0L51.13-.05Z"/>
      <path class="st4" d="M47.01,287.69h18.62v-25.71h-3.94v-9.97h-7.22v1.03h-9.01v9.71h1.56v24.95Z"/>
      <path class="st4" d="M158.11,340.44h-12.59v12.57h12.59v-12.57Z"/>
      <path class="st4" d="M187.6,488.45v-37.22h10.82v-10.96h-31.45v-28.51l-5.35-1.5.84-2.34-.9-.41-1.64,4.75-10.1-6.19-7.11-11.2-1.3-11.74h5.02v-.81h-71.58v106.12h112.75Z"/>
      <path class="st4" d="M255.38,432.49v7.79l-2.06-.52v8.75h-17.18v13.03h-4.96v4.06h-7.03v1.9h1.04v20.95h34.89l-.95-3.29.57-.19-.89-2.98-2.28.7-3.42-12.17-6.27-3.3,12.29.32-.06.51,3.04.13.19-2.41,12.42.25,11.6-11.72-1.01-3.61,20.6,4.82v-23h-1.86v1.03h-9.84v1.78h-1.26v-1.11h-1.38v1.11h-3.22v-1.11h-1.35v1.11h-1.3v-1.78h-10.05v1.78h-1.26v-1.11h-1.39v1.11h-3.22v-1.11h-1.35v1.11h-1.29v-1.78h-9.81v-1.03h-1.91Z"/>
      <path class="st4" d="M348.92,346.41l-13.99-13.9h-55.44l-.08,66.29-.17,2.49-27.83-3.61-27.65-13.4v-24.39h-29.99v-15.94h-8.17v-84.04h85.96v26.94h7.98v3.1h55.03v-6.5h1.22v-28.62l.34-1.76.73-1.63,1.16-1.46,1.24-.82,1.5-.47,1.63-.26h6.53v97.99Z"/>
      <path class="st4" d="M238.99,188.45l-9.32-4.51-7.95,16.43,9.32,4.51,7.95-16.43Z"/>
      <path class="st4" d="M290.31,406.32h13.01v-15.98h-13.01v15.98Z"/>
      <path class="st4" d="M255.67,162.57h-.37v1.04h9.18l-2.09,11.58-.3,1.86-.17,1.73-.04,2.03v2.85l.26,3.5,1.17,6.18,1.64,4.97,1.73,3.67,2.2,3.5,3.85,4.88,12.22.35,5.92,2.68v.91h10.15v3.4l.68.26,1.43.41,2.03.32h1.94l41.83-7.46v-64.18h-21.18v-43.63l-2.24-2.75-3.78-2.45-7.14.21-20.51,3.31v-6.23h-10.46v-7.82l3.68-1,2.85-1.57,3.85-3.61,2.11-4.14.13-1.96-.46-4.6-2.09-4.51-4.03-3.37-3.35-1.21-2.6-.51h-70.45l-7.44,7.44v36.22h21.92v-.74h21.25l.71.71h11.53v9.98l2.18,5.6,1.27,5.21.45,6.21-.36,5.85-.59,3.67-1.13,4.17-1.63,4.3h-6.11v1.26h.35s0,11.51,0,11.51Z"/>
      <path class="st4" d="M348.92,376.5l-14.62,20.01v4.33h-6.56v9.37h-2.99v45.95h.57v2.17h2.61v9.62h20.99v-91.45Z"/>
      <path class="st4" d="M113.19,62.51v4.52h-13.1v.28h-4.35v-5.05h4.35v.25h13.1Z"/>
      <path class="st4" d="M169.92,264.82h-4.22v-10.27h4.22v10.27Z"/>
      <path class="st4" d="M169.92,307.74h-4.22v-10.27h4.22v10.27Z"/>
      <path class="st4" d="M242.41,39.09v4.22h-10.27v-4.22h10.27Z"/>
      <path class="st4" d="M285.3,39.09v4.22h-10.27v-4.22h10.27Z"/>
      <path class="st4" d="M156.99,216.13h-4.44v2.93h4.44v-2.93Z"/>
      <path class="st4" d="M156.99,244.67h-4.44v2.93h4.44v-2.93Z"/>
      <path class="st4" d="M156.99,264.69h-4.44v2.93h4.44v-2.93Z"/>
      <path class="st4" d="M156.99,284.68h-4.44v2.93h4.44v-2.93Z"/>
      <path class="st4" d="M248.02,409.75v-4.44h-2.93v4.44h2.93Z"/>
      <path class="st4" d="M271.53,410.49v-4.44h-2.93v4.44h2.93Z"/>
    </g>
    <g id="Roofs">
      <path class="st3" d="M79.34,284.83v-73.39h70.42v91.91h-3.36v26.86l-1.58,1.58h-46.48l-1.61-1.61v-26.74h-4.63v-18.61h-12.76Z"/>
      <path class="st3" d="M115.22,160.4h25.9l3.05-1.41,1.56-2.26,2.87-30.25-2.76-34.82-1.61-2.51-2.51-1.16h-26.48v-2.06l-1.41-2.71-3.11-1.06h-37.64l-2.81,1.46-1.36,2.21-1.61,18.29-3.52,1.61-2.71,4.37v19.95l6.73,18.99,1.11,13.97,1.71,2.76,2.66,1.11h37.64l3.11-1.26,1.2-2.87v-2.36Z"/>
      <path class="st3" d="M158.33,340.24h-16.05v12.99h16.05v-12.99Z"/>
      <path class="st3" d="M192.75,488.45v-9.41h3.78v-17.76h-3.78v-10.05h5.67v-10.96h-30.75v-28.79l-5.97-1.51.76-2.04-5.06-2.34-4-3.17-3.55-4.53-2.42-5.36-.98-5.29v-4.99h-2.12v-6.2l-18.36-4.53h-1.89l-18.36,4.61v6.2h-44.05v3.7h-3.17v10.5h3.17v15.41h-1.06v51.91h1.06v15.41h-3.1v9.18h134.19Z"/>
      <path class="st3" d="M224.14,488.45v-22.88h3.42l.51-26.23,9.89.19.06-4.12,3.8,1.01-.19.38,13.75,3.48v-7.79h50.51v23l-20.6-4.82,1.01,3.61-11.6,11.72-12.42-.25-.19,2.41-3.04-.13.06-.51-12.29-.32,6.27,3.3,3.42,12.17,2.28-.7.89,2.98-.57.19.95,3.29h-35.93Z"/>
      <path class="st3" d="M348.92,346.41l-13.99-13.9h-55.44v19.11l2.25,28.04-1.01,6.04-1.24,15.92-23.49,3.49-24.14-6.04-.95-2.43-7.16-12.36v-16.21h-38.16v-116.97h93.94v38.85h55.03v-6.5h1.22v-28.62l.34-1.76.73-1.63,1.16-1.46,1.24-.82,1.5-.47,1.63-.26h6.53v97.99Z"/>
      <path class="st3" d="M238.99,188.45l-9.32-4.51-7.95,16.43,9.32,4.51,7.95-16.43Z"/>
      <path class="st3" d="M203.84,58.86l.85,46.62,39.89,4.72.18.75,2.52.1,2.11,3.22.7,2.96.64,1-1.11,1.21-1.67,4.48,5.92,24.62,2.96.34.05,1.08h-2.21l-.77.77v12.15l.76.76h1.56l.15,1.35.33.13-.33,2.34-.85.26-.05.44-.77.34-4.58,18.52-.75,3.66-.54,4.33.57.1h1.34l2.45,1.16,2.37,2.27,1.52.62,1.91,2.42.26,3.37-1.93,3.22-.21.64,4.61,3.4,2.01,1.9,1.29,2.01.28,1.11-.13.88-.54.8-1.36,1.31-.88,1.37-.57,1.49-.26,1.88.15,1.37.46,1.34.57,1.06.95,1,1.08.9,1.39.62,1.57.31,1.47-.03,1.67-.41,2.27-.88,1.44-.67,1.62-.98,2.19-1.78,3.12-2.55,2.81-2.45,1.44-1.18,1.13-.44,1.55-.08,1.62.1,1.62.26,1.57,1.52,1.7,1.37,1.55,1,1.85.93,1.88.59,1.83.46,2.58.46,3.73.31h3.97l3.97-.28,4.33-.54,4.69-.8,5.28-1.11,6.1-1.37,6.82-1.57,5.4-1.24v-69.99h-14.83v-44.13l-.06-1.88-.64-4.17-1.01-2.55-1.16-1.71-1.04-1.22-1.71-1.45-2.17-1.27-2.61-1.07-2.2-.61-2.58-.2-2.63.12-3.59.49-4.49,1.01-12.79,2.95-.95.29-5.53-.96-2.37-.75-2.81-1.85-1.16-1.42-1.07-1.1,1.42.03,2.32-.17,2.43-.67,2.49-1.13,1.88-1.39,1.97-1.82,1.62-2.43,1.13-2.58.58-2.46v-3.85l-.43-2.17-.95-2.23-1.53-2.29-1.82-2-1.82-1.33-2.72-1.42-2.92-.87-3.39-.23-77.93-.9Z"/>
    </g>
    <g id="Fence">
      <path class="st2" d="M46.76,66.37v102.39"/>
      <path class="st2" d="M46.76,157.09h-9.19v6.2"/>
      <path class="st2" d="M29.44,144.93l-1.3,11.21-2.48,6.6-2.48,10.6-3.26.9"/>
      <path class="st2" d="M72.02,217.23v-12.32"/>
      <path class="st2" d="M72.05,235.05v25.55"/>
    </g>
    <g id="Border">
      <path id="the_ground1" data-name="the_ground" class="st0" d="M74.71,12.07v50.16h-17.06v3.97H17.48v106.55l2.44,1.49-1.95,4.68h-4.07v27.88h3.41v62.32h44.75v-12.18h10.1v-14.75h13.26v-24.91h21.13v20.97h6.5v87.88h-7.75l-2.41,4.39v4.99h-7.68v40.81l7.2,25.56,23.48,36.48,13.95,6.52h54.31v4.68l12.91,4.06v6.73h4.97l8.33,5.2h53.06v-30.12h11.98v-37.72l-32.03-4.49-24.12-11.72v-26.54h-30.84v-15.61h-7.45v-34.7h12.39v-12.05h43.66v-28.17h24.55v-21.91h20.29v-11.96h-19.12v-41.49h11.02v-12.33h15.01v-3.12h18.22v-38h-33.24V58.62h-57.58v-25.28h-9.61V12.07H74.71Z"/>
    </g>
    <g id="Sniper">
      <path class="st1" d="M45.45,253.74h-26.12v22.29h26.12v-22.29Z"/>
      <path class="st1" d="M45.24,148.82l-25.75-.2V46.3l25.75.2v102.32Z"/>
      <path class="st1" d="M272.9,253.04v-32.24h39.66v32.24h-39.66Z"/>
      <path class="st1" d="M254.48,398.08v34.42h52.38v-34.42h-52.38Z"/>
    </g>
  </g>
  <g id="First_Floor" data-keep-with-group="Ground_Level">
    <g id="Floor-1">
      <path class="st7" d="M75.16,163.94v-1.67h1.76v1.34h.12v-2.62h-7.1l-.75-8.56-.74-8.48h2.11s2.09-.01,2.09-.01v-.72h-4.32s0-23.1,0-23.1h-6.8v-7.33h15.1s3.41,3.26,3.41,3.26v6.45s0,6.45,0,6.45h-.57v.89h3.31v-.3h-.78s-.78-.02-.78-.02v-3.79s-.02-3.79-.02-3.79h4.71v.6h3s4.71,0,4.71,0h1.71s0,1.1,0,1.1h.21v-1.1h2.56v-13.12h13.27v.06h18.63v.69h.27v-.69h6.35v1.85h.33v-1.79h9.66v.06l.49,6.2.49,6.14v5.53l-.3,3.27-.31,3.3v.04h-10.06v-1.76h-.27v1.76h-1.01v.18h.69v7.93h-3.96v-7.93h.66v-.18h-2.74v-.63h-.27v.66h-4v9.84h-.66v.27h1.1v3.7h.24v-.69h1.78s1.78-.01,1.78-.01v-.08s.02-.08.02-.08h2.41v-.09h8.84s0,6.56,0,6.56h.39s.4-.03.4-.03l.02-3.21v-3.33s1.83,0,1.83,0h1.82s-.45,4.8-.45,4.8l-.41,4.52-.63,1.05-.63,1.05-1.35.63-1.35.63h-19.54v-2.71h.33v-6.35s4.86,0,4.86,0v-.95h-.36v.52h-4.8s0-1.42,0-1.42h-.24v.83h-2.06v-.45h-.33v-4.08h.33v-.45h1.02s1.02.02,1.02.02v.34s.02.34.02.34h.12s.12-.02.12-.02v-1.07h.16s.54,0,.54,0h.38v-.27h-.57v-9.84h-5.78v-3.94h13.62v.66h.27v-5.25h-6.2s0-7.12,0-7.12h6.2v-5.66h-.27v.68h-14.22v8.14h-3.96v-8.05h-.45s0,.06,0,.06h-8.94v13.62h-6.89v-1.46h-.21v1.28h-9.42v4.59h7.77v2.59s0,2.59,0,2.59h-7.77v2.85h-2.71s-2.71,0-2.71,0v-.53h-.69v4.06s-2.59,0-2.59,0v.72h1.58v1.5s0,7.51,0,7.51v6.01h-3.76v.1h1.87s1.89.03,1.89.03l.02,3.26v3.25s-3.66,0-3.66,0v-1.67ZM130.37,153.89v-.39h-3.25s0,.77,0,.77h3.25s0-.38,0-.38ZM139.19,154.28v-.8h-3.03s-.02-3.1-.02-3.1h-.74v3.22h.57v.72l3.22-.04ZM80.49,136.18h-.68v1.22h.68v-1.22ZM80.49,131.53h-.69v1.04h.69v-1.04Z"/>
      <path class="st7" d="M273.47,173.17v-10.6h-9.57v-3.07h-.3v3.07h-7.93v-11.51h7.93v3.13h.3v-3.12l3.15-.02,4.76-.02h1.6v-.25s.3-48.53.3-48.53h-.36v.89h-.92v.45h-3.94v-.42h.12v-.42h-.72v.42h.12v.42h-52.41v-27.36l-1.26-1.78-1.26-1.78h-3.06s-3.06,0-3.06,0v-2.57s0-2.57,0-2.57l2.69-2.71,2.69-2.71h34.08s34.08-.02,34.08-.02v7.58h-4.27s-6.24,0-6.24,0h-1.98v9.15h-4.29v4.38h2.36v2.44h-2.36v.78s-.01.98-.01.98v3.12s.01,2.93.01,2.93h4.29v3.64h-.12v.42h.72v-.42h-.12v-1.52h3.91v.27h.92v1.13h.42v-1.13h4.56v25.18s0,20.25,0,20.25h10.91v3.16h13.44v1.42s0,10.66,0,10.66v9.23h5.1v-16.87h4.5v19.92s-1.01,0-1.01,0h-8.32v.51h-9.45v3.1h-15.02v1.79h.41l.02.05.02,2.72v2.72s0,2.06,0,2.06v2.02h-5.43v-10.6Z"/>
      <path class="st7" d="M226.68,202.42l-4.18-2,1.94-4,2.03-4.14,1.18-.77,1.18-.77,1.35-2.79,1.35-2.79,3.9,1.9,3.18,1.55v.04s-3.85,7.92-3.85,7.92l-3.87,7.88-4.2-2Z"/>
      <path class="st7" d="M45.97,257.85v-4.26h8.58v.23s.02.25.02.25h.4l.02-.72v-.68h6.05v9.45h-7.54s-7.54,0-7.54,0v-4.26Z"/>
      <path class="st7" d="M185.88,279.52v-19.41h45.43v.05s0,.08,0,.08l-.02.12-.03.21-.02.19-.03.12-.03.21-.03.21v.08s-.02.08-.02.08l-.04.04.02.09v.11s-.04.1-.04.1l-.02.17-.1.66-.14.94-.1.7-.09.58-.05.34-.03.21-.04.22-.02.12-.03.19-.04.28-.02.16-.03.15-.04.24-.03.24-.04.25-.05.36-.04.37-.04.31-.05.3-.04.22-.03.1-.02.12v.17s-.04.13-.04.13v.11s.01.07.01.07h-.07v.1s0,.14,0,.14v.11s.01.07.01.07h-.07l.02.1.02.11h-.07l.02.09.02.09-.03.02-.03.02.02.08.02.08-.03.02-.02.11v.09s-.04.05-.04.05v.05h-.1l-.12-.03-.02-.03-.1.02-.1.02v-.07l-.07.02h-.13s-.29-.05-.29-.05l-.27-.02h-.04s.02-.04.02-.04l.02-.03-.08.02-.08.02-.27-.05-.59-.09-.66-.09-.58-.09-.63-.09-.4-.08h-.02s-.44-.05-.44-.05l-.48-.07-.22-.03-.37-.05-.31-.04-.39-.06-.34-.05h-.05v3.49h.52l.52.02,1.08.02,1.11.02.28.04.57.04.33.04.76.07.76.08.34.08.34.07.28.06.26.06.04.02.34.05.31.07.36.07.36.07.24.06.23.06.23.08.22.07.22.08.21.07.2.07.23.08.2.06.2.07.22.08.22.07.16.06.31.11.19.07.03.03h.03s.03.02.03.02l.1.07.1.06.12.07.12.08.07.04.15.09.13.07.11.06.17.09.11.06.22.14.22.14.04.02.04.03.02.03h.06l.09.06.13.07.15.08.1.06.22.14.26.21.1.07.02.03-.02.03.04-.02.04-.02.03.06.08.06.06.05.14.1.21.13.06.1h.02s.04-.02.04-.02l.32.23.42.33.13.1.03.04.1.08.1.07.06.07.06.06.06.07.12.12.14.15.08.1.06.08.06.04.06.06.06.11.03.03.08.05.22.24.24.26.08.11.06.06.06.04.13.16.13.16.12.13.12.15.06.06.23.31.17.31.04.05.04.06.05.08.07.1.09.15.11.19.09.14.04.08.03.04.03.04.06.09.06.08.13.23.12.22.04.04.05.02-.02.05-.02.05.04.02.09.09.06.18v.1s-.02,0-.02,0v.03s-.03.03-.03.03l-.02.03-.04.08-.07.14-.05.1-.03.06-.02.07-.02.04-.02.09-.05.07v.03s-.03.03-.03.03v.03s-.03.03-.03.03v.03s-.03.03-.03.03l-.02.03v.04s-.05.06-.05.06l-.05.1-.02.08-.03.07-.02.06-.02.02-.02.03v.03s-.03.03-.03.03l-.03.07-.04.09-.05.08-.03.08v.04s-.03.03-.03.03l-.02.07-.04.05-.02.08-.05.07v.03s-.03.03-.03.03l-.02.02-.02.06-.05.11-.03.08-.03.06-.04.05v.04s-.03.03-.03.03v.03s-.03.03-.03.03v.03s-.03.03-.03.03l-.02.03-.03.06-.03.06v.04s-.05.08-.05.08l-.03.06v.03s-.05.05-.05.05l-.05.02.02.04v.05s-.03.03-.03.03l-.03.08-.05.09-.04.09-.04.05.02.04.02.04-.04-.02-.04-.02.02.05.02.05h-.03v.03s-.03.03-.03.03v.03s-.03.03-.03.03v.03s-.03.03-.03.03l-.02.03v.04s-.05.06-.05.06l-.07.13-.07.05-.03-.02-.03-.02-.02-.02-.06-.04-.08-.04-.04.02v-.04l-.02-.02h-.05s-.11-.1-.11-.1l-.11-.06-.36-.18-.54-.32-.23-.16h-.04s-.03-.02-.03-.02l-.1-.06-.1-.06h-.03s-.03-.02-.03-.02l-.07-.05-.07-.02.02-.03.02-.03-.05.02h-.05s-.1-.07-.1-.07l-.12-.08-.07-.04-.47-.25-.55-.32-.14-.1h-.02s-.07-.04-.07-.04l-.09-.04-.02-.02-.03-.02h-.04s-.22-.15-.22-.15l-.22-.14-.14-.07-.13-.08h-.03s-.03-.02-.03-.02l-.1-.06-.1-.06-.1-.06-.1-.06-.12-.07-.12-.08-.1-.06-.1-.06h-.03s-.03-.03-.03-.03l-.03-.02h-.03s-.1-.07-.1-.07l-.1-.06-.14-.09-.46-.25-.33-.2-.13-.07-.11-.07-.1-.06-.1-.07h-.03s-.03-.02-.03-.02l-.1-.06-.1-.06h-.03s-.03-.02-.03-.02l-.1-.07-.13-.06-.14-.1-.11-.06-.14-.08-.22-.12-.08-.06h-.03s-.03-.02-.03-.02l-.21-.14-.22-.11v.04s-.65,1.16-.65,1.16l-.69,1.21-.12.21-.11.13-.64-.35-.71-.42-.23-.14-.13-.08-.21-.12-.22-.12-.45.3-.42.28-.04.03-.65.48-.64.44-.1.07-.95.69-.88.61-.09.07-.16.11-.18.13-.13.08-.17-.08-.15-.1-.04-.02-2.49-1.42-2.5-1.46-.05-.02-.02-.02-.03-.02h-.03s-.07-.06-.07-.06l-.07-.05-.13-.09-.14-.08-.12-.07-.13-.05-.08-.06-.1-.06-.04-.03v-.03l-.04.02-.04.02-.02-.04-.19-.13-.19-.07h0s0-.06,0-.06h-.03s0-.82,0-.82v-.81s.03.02.03.02l.04-.02-.04-.03h-.04v-.22h-.09s-.09-.02-.09-.02l-.02.25v1.97s0,1.72,0,1.72h-5.38v-2.48h3.13v-2.56s0-2.58,0-2.58l.92-.02h.92l.02.08.1.58.08.5h.12s.12-.02.12-.02l.07-.4.09-.49.03-4.71v-4.62s-.13.01-.13.01l-.78.06-.77.06-.34.03-.37.04-.16.02v1.39s0,3.81,0,3.81v2.42s-1.19,0-1.19,0v.15h-1.31v-.15h-2.15v.15h-1.31v-.15h-1.34v-.96s0-2.93,0-2.93v-1.97s.01-.04.01-.04h.03s.04-.02.04-.02h.06s.02-.03.02-.03l.11-.07.13-.03.02-.02.02-.02.14-.06.14-.07.19-.08.18-.08.03-.21.02-.2h-.09s-.28-.01-.28-.01l-.54-.04-.63-.02h-.71s-.43.05-.43.05v.02l-.22-.02-.22-.02v.09l-.43.02h-.47s-.04-.02-.04-.02l.02.04.02.04h-.19s-.43.01-.43.01l-.25.04-.43.05-.63.03-.45.03-.25.04-.45.04-.65.03-.24.04-.02.03-.6.04-.87.05h-.34s-.23.03-.23.03l-.16.02v1.03s.01,1.03.01,1.03h-.14s-.14.02-.14.02v.2h.36v1.34h.18v-.69h7.99v3.93h-7.99v-.63h-.17l-.02.47-.02.88v.41h5.46v.89h1.05s1.62,0,1.62,0h.57s0,4.26,0,4.26h-3.25v1.25h-.06l-.07-.04v-.04s-.02.04-.02.04v.04h-5.25v14.31h-9.06v-.24h-.18v.24h-2.62v-19.41ZM188.68,296.87v-.24h.03l.03-.06-.03-.06h-.03v-2.22s0-2.22,0-2.22h.14v-.27h-.33v5.31h.18v-.24ZM195.39,294.81v-2.72s0-4.94,0-4.94v-4.07l-.04-.02-.04-.02v3.82s0,4.38,0,4.38v.56s-.63,0-.63,0v.27h.63v4.44h-.51v.15h.6v-1.86ZM190.98,296.58l-.03-.06h-.03v-2.22s0-2.22,0-2.22h.23v-.27h-1.16v.27h.74v2.22s0,2.22,0,2.22h-.41v.12h.66v-.06ZM193.22,295.76v-2.28s-.01-1.41-.01-1.41h.28v-.27h-1.16v.27h.68v2.22s0,2.22,0,2.22h-.47v.12h.69v-.87ZM190.23,287.6v-.3h-3.91v.6h3.91v-.3ZM195.42,276.72v-4.23h.36v-.21h-.36v-.96s-.03-1.22-.03-1.22l-.02-.26-2.62-2.67-2.64-2.67-.47.42-.45.42.27.27.24.29.02.02,1.5,1.48,2.64,2.66,1.15,1.2h0s.15.14.15.14l.12.13v4.08s0,4.7,0,4.7v.62h.12v-4.23Z"/>
      <path class="st7" d="M117.22,324.26v-1.68h6.83v-.24h-6.84v-3.84s0-3.84,0-3.84l.06-.02,3.05-.02h2.99v-.24h-3s-3.05-.01-3.05-.01h-.04s0-3.92,0-3.92v-3.91s3.06,0,3.06,0h3.07s0-.68,0-.68v-1.54s0-.86,0-.86h11.51v.68h.3v-.77h.24v-.14l.02-.24.02-.09h-.98v-2.98s0-2.98,0-2.98h1.38s1.38.02,1.38.02v-.5s0-.5,0-.5l-.05-.02h-.13s-.08.02-.08.02v.68h-3.04v-6.23h-4.24s-6.71-.02-6.71-.02h-2.94s-.47-.01-.47-.01v-3.04h4.14v-.33h-.73l-.18-.19-.19-.19v-3.55s0-3.55,0-3.55l.23-.2.23-.2h2.17l.22.21.22.21v5.3h.21v-5.23l.25-.24.25-.24h2.12s2.6,0,2.6,0h.49v-.15h-2.12v-2.68s.02-2.68.02-2.68h-.05v.34s0,.34,0,.34h-2.42v-2.24h2.42v.66h.05l-.02-1.4-.02-1.4h4v9.06s-1.1,0-1.1,0v.15h.43s.42,0,.42,0l.17.17.17.17v4.71h.45v-7.24s0-7.24,0-7.24h-8.08v-1.04s0-2.4,0-2.4v-1.36h-.3v.54h-2.68l-.23-.2-.22-.2v-1.3s0-1.3,0-1.3l.21-.19.21-.19h.79v-.18h-2.52v-.12h-1.38v.12h-1.53v-3.49h.75s.77.02.77.02v.13h1.38v-.13h2.26s2.26-.01,2.26-.01v.15h1.37v-.15h.83v-2.56h-.78v-5.93h.77v-1.32s.02-1.32.02-1.32h.07s.07-.02.07-.02v-1.34h-.15v-1.91h.95v-.33h-1.97l-9.39-9.45v-1.94h-.29v.54s-.01.54-.01.54h-4.95v-4.68s0-4.68,0-4.68h4.94v3.28s-.02,3.28-.02,3.28h.14s.15,0,.15,0l.02-3.26-.02-4.61-.03-1.36h3.46v-.45h-3.46v-9.06h12.34v1.77s0,1.77,0,1.77l8.01,8,8.01,8h3.56v12.34h-18.84v.33h.28s.48,0,.48,0h.2s0,1.91,0,1.91h-.15v.68s-.02.69-.02.69h.16v2.12s-.01,2.12-.01,2.12h-.07s-.07.02-.07.02v1.36h.07s.07.02.07.02v3.32s.01,3.32.01,3.32h-.15v1.37h.15v.95h-4.44v-.12h-.69s-.68-.02-.68-.02v.13h-1.1v.18h1.01v.66h.3v-.66h22.84v7.78h.54v6.35h-.54v10.82h-22.47l-.13-.11-.2-.18-.07-.07v-.92h-.21v.93l-.16.18-.16.18h-.55v.33h4.23s5.59,0,5.59,0h1.36s0,.78,0,.78l.02,2.94.02,2.15h.94v1.13h.25v-.48s-.02-.48-.02-.48h1.94s1.94,0,1.94,0l-.02.36-.02.36h3.95s3.95-.02,3.95-.02v4.13s0,4.13,0,4.13h-5.31v-.13s.02-.14.02-.14h-2.6s-.01.41-.01.41v.42s-.49,0-.49,0h-.5s0,.25,0,.25v.23h.54v21.72l-.43.42-.43.42h-22.49v-1.68ZM132.34,316.36v-6.83s0-.62,0-.62h2.77l.02-.05.02-1.77v-1.73h-.3v3.28h-2.5v-2.72l-.27.02-.63.02h-.35v.25h.45s.45-.01.45-.01v16.13h-5.75v-2.15h-.19v1.07s.02,1.07.02,1.07h-.72v.24h7.01v-6.21ZM126.24,316.01v-1.16h-.22v1.11s-.01,1.16-.01,1.16v.05s.24,0,.24,0v-1.16ZM126.24,307.27v-1.05h1.33v-.22h-1.52v2.33h.19v-1.05ZM138.21,303.2l.02-.24.02-.07h-1.06l.02.09.02.24v.14h.98v-.17ZM121.68,226.49l-.33.35,12.76,12.8.44-.43-12.86-12.71Z"/>
      <path class="st7" d="M151.63,352.53v-.13s-2.76,0-2.76,0h-2.76s0-.83,0-.83h-.27v-1.82h.28l.02-8.73h5.48v-.24h6.11v11.87h-6.12v-.12Z"/>
      <path class="st7" d="M141.46,386.65l-1.43.14-1.42.15h-20.2v3.49h-5.19v.83h-.54v-1.28h-4.89v7.36h.51v.09h.24v.39h-.24v.09h-.51v2.36l14.49,22.9,7.65,12.11,1.07.5,1.09.5.11-.18.1-.19.09.03.05-.11.06-.09.16.07.13.09-.04.11-.04.09.05.03.04.02-.09.2-.09.22,6.34,3.03.24.1,1.07-2.2,1.03-2.21-.57-.27-.56-.26.12-.23.13-.23.36.16.35.17,1.15-2.34,1.1-2.29,3.16,1.48,6.76-14.28,1.82-3.9,1.62-2.59-.56-.34-3.55-2.17-2.99-1.83-3.62-5.68-3.62-5.68-.48-4.15-.49-4.16ZM133.01,391.04v2.33s-.04.67-.04.67l-.25.83-.59,1.15-.74.98-.84.65-.69-1.05.67-.54.56-.73.45-.95.16-.96v-2.36s1.31,0,1.31,0ZM112.69,396.18h.54v.83h2.39v.51h.71v.36h-.54v1.97h2.42v-1.97h-.57v-.36h.69v-.51h2v.51h.68v.04s.01.12.01.12v.08s1.3,0,1.3,0v-.24h.71v-.51h2.29l1.82,2.92-1.52.98,1.58,2.46-.39.24-.14-.16-2.16,1.38-.68.45-.21.23-.23.37-.22.52-.1.29v.43s-.03.43-.03.43l.04.17.12.36.26.5.76,1.22.58.91-.2.14-1.32-2.07-1.36-2.11-1.91,1.19-1.93,1.21.71,1.18.73,1.16-.12.08-6.82-10.76v-2.86h-.48v-.06h-.24v-.39h.24v-.09h.57v-1.16ZM140.32,397.52l.74,1.15-1.1.71-.74-1.15,1.1-.71ZM136.68,399.81l.74,1.15-1.1.71-.74-1.15,1.1-.71ZM133.04,402.12l.74,1.15-1.1.71-.74-1.15,1.1-.71ZM145.65,405.92l.74,1.15-1.1.71-.74-1.15,1.1-.71ZM141.99,408.21l.74,1.15-1.1.71-.74-1.15,1.1-.71ZM138.35,410.52l.74,1.15-1.1.71-.74-1.15,1.1-.71ZM125.56,411.93l1.25,1.96,1.94,3.04.64,1,.45.41.37.21.52.2.25.07h.54s.54,0,.54,0l3.12-1.95-.1-.14.38-.27,1.55,2.5,1.58-.94,1.81,2.81-.99,2.1-.33-.17-.09.02-.15.29-.13.28-.25-.11-.3.61-.26.58.09.06.09.05-.12.3-.15.38.42.2-.83,1.75-.45-.2-.14.31-.16.32-.11-.03-.1-.05-.29.58-.27.59.12.07.12.05-.17.32-.17.32.43.21-1,2.09.41.22.37.19-.12.23-.14.23-.46-.2-.58-.23-.1.23-.1.23-.06-.02-.06-.02-.04.09-.06.09-.14-.06-.13-.07.03-.1.04-.09-.05-.03-.05-.03.1-.21.1-.21-.28-.13-1.29-.61-1.01-.48-2.75-4.35-8.89-14.01.19-.1.76,1.22.78,1.21,1.16-.72,1.22-.75.06.14-1.16.7-1.22.76,4.51,7.1,3.83-2.47-3.23-5.1-1.23-1.93-.27.17-.3.17-.09-.11.29-.18.29-.18-.1-.16-.1-.18.19-.11ZM145.53,415.09l.85.14.62.25,2.08,1.05-.6,1.18-2.11-1.06-.93-.28-1.05-.02-.91.18-.78.36-.64-1.08.96-.46,1.21-.23,1.3-.02Z"/>
      <path class="st7" d="M264.11,459.75v-3.98h.6v-.27l-15.56-.02v6.05h-6.38s-6.38,0-6.38,0v-12.75h12.74v1.79s.02,1.8.02,1.8h3.93s3.99.01,3.99.01v-.18h.69v-.51h-.69v-2.12h2.98v2.12h-.68v.51h.68v.18h8.7s0,1.55,0,1.55v1.55s-1.43,0-1.43,0v.27h.66v7.96h-3.88v-3.98Z"/>
    </g>
  </g>
</svg>