<?xml version="1.0" encoding="UTF-8"?>
<svg id="svg1" xmlns="http://www.w3.org/2000/svg" version="1.1" viewBox="0 0 348.93 488.45">
  <!-- Generator: Adobe Illustrator 30.2.1, SVG Export Plug-In . SVG Version: 2.1.1 Build 1)  -->
  <defs>
    <style>
      .st0 {
        fill: #70777f;
      }

      .st1 {
        fill: #768089;
      }

      .st2 {
        fill: #c6c2c2;
      }
    </style>
  </defs>
  <g id="Underground_Level">
    <g id="Ground-U">
      <path class="st2" d="M163.49,54.97v11.72h-1.1v-4.39h-6.2v16.05h-.69v36.13h1.46v5.66h-1.46v6.29h1.01v1.01l-.03,2.62v1.13h-.98v1.4h1.1v1.55h-1.1v1.88h-.48v11.03h.39v1.4h.15v12.04h-.06v1.43h1.61v6.59h-1.61v5.87h.33v2.42h-13.54v-3.37h-46.63v10.11h10.44v12.25h-10.44v8.79h46.54v-1.04h11.69v-.72h1.91v1.91h-.3v6.2h1.34v5.61h-1.34v43.17h1.37v4.41h-1.37v17.02h-.33v9.99h.33v9.93h-.27v12.04h.27v1.16h24.56v-20.39h-.42v-2.86h.35s0-4.62,0-4.62v-5.63h-1.4v-1.58h1.28v-4.95h-.21v-10.11h-1.61v-4.08h1.64v-25.67h12.73v-8.74h-12.73v-9.57h-1.64v-4.68h1.64v-43.59h-1.64v-4.05h1.64v-15.23h-.87v-2.06h.87v-26.18h-1.25v-5.81h1.25v-15.71h20.81v-11.06h-20.84v-3.37h.71v-4.53h-.27v-.89h.27v-4.56h-.68v-19.38h-16.22Z"/>
    </g>
    <g id="Floor-U">
      <path class="st0" d="M155.5,296.1h-.21v-2.45l-.43.02-3.05.02h-2.63v5.72h-.3v-5.54h-4.98v8.44h4.98v-.33h.3v.3h3.73v-1.82h.87v-.6h1.52v-1.16h.21"/>
      <path class="st0" d="M186.36,267.33v.09h-6.47v.69h-.21v2.65h.24v.69h5.01v2.68h3.81v-2.71h4.95v15.71h-4.89v.69h-.27v-4.53h-2.44v-3.37h-5.46v.86h-.45v5.63h-.18v4.62h.21v1.55h8.32v-2.09h.27v.69h4.89v1.46h4.03v-8.11h5.22v-1.16h.21v-4.08h-.21v-1.16h-5.22v-1.7h.27v.69h7.9v-3.96h-7.9v.69h-.27v-6.5h-11.36Z"/>
      <path class="st0" d="M142.44,167.49v6.11h-.15v1.52h.15v.69h3.88s3.88-.02,3.88-.02v-6.87h-3.49v-1.43h-4.26Z"/>
      <path class="st0" d="M147.01,162.15v6.59h7.9v-1.34h1.64v-.36h.57v-2.98h-.57v-.33h-1.55v-1.58h-7.99Z"/>
      <path class="st0" d="M180.19,146.65v2.92h-.48v9.6h6.02v-12.52h-5.54Z"/>
      <path class="st0" d="M142.41,127v3.43h-5.46v.87h-.24v-1.1h-4.77v3.79h1.07v.27h-.63v7.93h3.94v-7.93h-.69v-.27h1.07v-1.1h.24v1.1h9.66v-3.52h2.62v.29h.54s.79,0,.79,0h.25v-.3h4.59v-.39h1.07l.03-2.62h-1.1v-.45h-13Z"/>
      <path class="st0" d="M154.96,113.87h-3.18s-4.11.02-4.11.02h-.67v2.11h-.18v2.65h.18v1.94h7.96v-1.76h2v-3.07h-2v-1.89Z"/>
    </g>
    <g id="Tarmac-U">
      <path class="st1" d="M154.84,24.01c-.11,0-.22,0-.34.02-.39.04-.77.14-1.15.24-.3.08-.61.18-.9.31-.27.12-.54.27-.79.43-.38.24-.76.49-1.09.78-.3.27-.58.57-.83.89-.24.3-.45.63-.64.97-.27.49-.47,1.02-.71,1.53-.26.55-.45,1.27-.5,1.88v33.05h6.05v-30.77h2.36v21.61h-.16v23.37h-.66v5.49h7.59v31.54h-6.15v3.96h6.15v16.71h-8.1v11.04h8.1v16.5h-6v3.99h6v11.13h-67.42v3.63h59.62v14.88h-59.62v3.81h67.42v11.13h-6.24v3.15h6.24v4.14h-7.62v11.28h7.62v29.22h-6.24v4.02h6.24v17.13h-7.8v10.14h7.8v17.13h-6.51v3.78h6.51v2.13h9.05v-2.13h7.94v-3.96h-7.94v-17.16h7.88v-10.08h-7.88v-1.83h7.76v-4.86h-7.76v-10.32h5.96v-3.54h-5.96v-44.62h5.96v-3.99h-5.96v-44.2h5.93v-3.54h-5.93v-4.89h7.64v-9.57h-7.64v-30.3h6.32v-3.9h-6.32v-18.13h28.37v-7.86h-28.37v-5.04h8.24v-9.96h-8.24l.12-13.85.25-2.1.88-2.83.55-.9h-9.27l-.59,2.49-.57,3.25v6.26h-1.11v-17.77s-.02-17.76-.02-17.76c0-.46-.09-.92-.19-1.22-.13-.39-.25-.78-.41-1.16-.21-.49-.42-.98-.71-1.43-.23-.37-.5-.71-.79-1.02-.27-.29-.56-.57-.88-.81-.3-.24-.63-.44-.97-.62-.47-.25-.96-.47-1.47-.62-.37-.11-.75-.17-1.12-.22-.21-.03-.43-.04-.65-.04-.11,0-.23,0-.34,0h0Z"/>
    </g>
  </g>
</svg>