<?xml version="1.0" encoding="UTF-8"?>
<svg id="svg1" xmlns="http://www.w3.org/2000/svg" version="1.1" viewBox="0 0 827.29 761.16">
  <!-- Generator: Adobe Illustrator 30.2.1, SVG Export Plug-In . SVG Version: 2.1.1 Build 1)  -->
  <defs>
    <style>
      .st0 {
        stroke: #000;
        stroke-width: 2px;
      }

      .st0, .st1, .st2 {
        fill: none;
      }

      .st3 {
        fill: #1f5054;
      }

      .st4 {
        fill: #946d3e;
      }

      .st5 {
        fill: #dcd5b6;
      }

      .st1 {
        stroke: #914833;
        stroke-dasharray: 6;
        stroke-width: 3px;
      }

      .st2 {
        stroke: #c4e3c3;
      }

      .st6 {
        fill: gray;
      }

      .st7 {
        fill: #1a2632;
      }

      .st8 {
        fill: #768089;
      }

      .st9 {
        fill: #144043;
      }

      .st10 {
        fill: #c6c2c2;
      }
    </style>
  </defs>
  <g id="Ground_Level">
    <g id="Terrains">
      <path class="st3" d="M127.26,2.85l297.03,80.75-8.35,30.7,166.1,45.15-4.35,16.01c4.43,1.22,5.61,2.15,7.54,6.28,1.58,3.36,3.15,6.21,3.15,6.21l3.15.86,38.16,14.06,35.38,11.85,16.01,4.35,17.22,2.99,126.3,34.34-52.02,192.12.48,6.43-8.1,33.34,1.63,7.06c.56,2.07,1.17,2.8.62,4.96l-1.28,4.72c-.15.55-.33,1.34-.66,1.79-.83,1.16-5.25,2.96-6.74,3.64-6.71,3.07-12.29,5.48-18.07,10.19l-7.43,5.31-5.15,3.95-5.04,3.42c-7.14,5.08-11.7,9.02-19.77,13.2l-7.17,2.55-6.77,3.14-6.97,2.85-18.69,9.66-13.88,5.45-14.82,6.95c-1.67.91-2.69,2.91-3.52,4.56l-4.23,7.87c-3.84,6.27-8.12,11.71-13.27,16.96-1.74,1.78-3.28,3.51-5.25,5.05-4.7,3.67-9.02,5.44-14.65,7.13-2.12.64-3.82,1.19-6.04,1.5-3.65.51-7.35-.27-10.89.67-2.62.7-7.73,3.74-10.12,5.29-3.46,2.23-7.3,5.03-9.79,8.33l-5.93,10.22-4.73,6.6c-2.43,3.86-2.52,6.18-6.12,9.89-2.66,2.73-6.12,3.55-9.62,4.62-4.41,1.35-8.99,2.9-12.95,5.32-6.92,4.22-13.72,8.77-20.2,13.66-3.43,2.59-6.24,6.03-10.08,8.12-2.45,1.34-5.39,1.77-8,2.78l-7.75,3.62-15.89,3.51-2.65.61c-2.88,1.05-7.81,3.99-10.58,5.59-2.11,1.21-3.81,3.14-6.32,2.51l-53.53-14.55c-.56-.15-1.31-.33-1.8-.63-1.03-.64-3.04-3.48-3.83-4.56-3.1-4.24-6.8-10.13-9.04-14.86-2.12-4.47-2.91-7.15-4.52-11.66l-4.69-12.55-6.8-15.66-3.5-7.15-4.07-6.77-4.12-6.61c-1.39-2.01-3.14-4.43-4.8-6.2l-4.88-4.87c-2.92-3.36-5.61-7.2-9.12-9.98l-9.73-5.67-3.57-1.99c-.52-.53-.72-2.42-.85-3.2-.52-3.13-1.54-5.63-1.54-5.63l20.67-76.36-80.54-22.06-14.48-1.48L13.5,420.25,127.26,2.85Z"/>
    </g>
    <g id="Dirty_roads">
      <path class="st4" d="M235.46,298.28c6.8,1.85,13.61,3.7,20.41,5.56-3.3.77-5.35,4.17-5.33,7.42-.78,5.53-1.7,11.04-2.58,16.55-1,3.14-2.68,6.01-3.97,9.03-1.41,3.17-3.17,6.21-3.88,9.64-1.17,4.21-2.45,8.41-2.9,12.78-.37,2.49-.65,5.01-1.68,7.33-.59,2.63-3.17,4.53-2.69,7.42.15,3.17-.88,6.36-2.76,8.91-.9,2.59.47,5.23.41,7.81-.39,2.68-2.36,4.57-4.32,6.2-1.47,2.44-1.87,5.35-2.87,8-1.1,2.69,1.51,4.39,3.25,5.85,1.28,1.6.99,4.74-.69,5.93-2.32-1-4.08,1.47-5.9,2.66-1.57,1.54-3.84,2.52-5.92,1.33-4.16-1.08-8.38-1.97-12.49-3.2-1.35-.78-3.22-4.24-1.63-4.92,2.68.09,3.8-3.26,3.55-5.47-.45-2.35-3.49-3.97-2.3-6.61,1.13-3.33,5.46-2.94,7.45-5.41,2.04-2.35-2.06-5.29-3.98-3.12-.67,1.29-2.57,5.06-3.91,2.49.29-2.46-1.68-4.18-3.15-5.85-.81-1.66-2.65-2.15-4.36-2.1-2.84-.23-6.31.81-7.24,3.82-.87,2.6-1.08,5.37-1.85,8-1.18,4.93-2.14,9.91-3.26,14.85-1.02,2.38-2.96,4.21-4.42,6.31-1.6,1.97-3.02,4.09-4.5,6.14-2.85,2.87-6.01,5.75-9.96,6.93-2.69.49-4.94-1.4-7.25-2.38-2.93-.69-5.98-.35-8.95-.79-2.6-.52-5.2,0-7.79-.13-2.11-.32-4.39-1.66-4.37-4.06-.49-2.32-1.19-4.62-1.06-7.02-.39-2.25-2.36-3.77-3.96-5.24-1.79-1.53-4.08-2.29-6.39-2.51-2.55-.21-3.58-2.77-2.41-4.86,1.62-6.13-.23-12.49-2.15-18.32-1.23-2.97-.99-6.27-1.59-9.37-.62-2.8-3.69-3.06-5.51-4.24-2.92.14-2.33,3.93-4.72,4.87-1.9,1.19-4.89.48-5.91-1.58-1.08-2.71-1.64-5.62-2.55-8.4-.72-2.68-1.67-5.31-2.19-8.03.32-2.11,1.96-4.57,3.67-5.52.61,1.68.71,5.1,3.49,4.15,2.08-1.19,3.61-3.39,6.31-3.28,3.17-.3,6.53-.03,9.39-1.69,2.34-.94,4.96-3.05,4.18-5.89-.84-2.79.78-5.81-.57-8.5-.87-2.39.22-5.43-1.89-7.31-2.12-2.19-5.06-3.46-6.82-6.02-1.65-1.86-2.74-4.13-4.07-6.19-1.52-1.27-2.39-3.35-4.49-3.81-2.61-.7-5.36-1.85-8.04-.79-2.53.75-5.07,1.7-7.72,1.89-2.02-.15-3.59-1.66-5.38-2.49-1.69-.76-3.19-2.22-5.1-2.24-2.42.08-5.49.03-6.84-2.36-1.2-2.8-1.78-6.05-.73-8.99.62-2.08,1.77-4.17,3.87-5.05,2.04-.95,4.21-1.56,6.23-2.57,2.88-.92,5.95-.26,8.88.04,3.06.95,5.97,2.34,8.97,3.5,2.45.97,4.88,2.23,7.59,2.08,3.96.07,8.49-.13,11.56,2.85,2.05,1.89,3.81,4.07,5.99,5.83,1.7,1.84,3.55,3.76,4.15,6.27.93,2.42,2.38,4.6,3.71,6.81,1.57,2.25,3.47,4.29,4.83,6.67,1.23,3.31,1.03,7.19,3.17,10.13,2.01,2.18,5.1,2.56,7.8,3.35,3.09.38,5.55-2.33,8.63-2.03,2.74-.11,5.55.27,8.19-.65,2.36-.52,4.67-1.37,7.07-1.61,4.56.07,9.14.27,13.65-.59,3.67-.31,5.69-4.06,9.18-4.86,2.53-1.34,4.97.72,7.26,1.5,3.59.62,7.26.16,10.88.1,3.49-.02,6.51-1.9,9.66-3.14,2.49-1.16,5.13-2.08,7.44-3.58,2.01-2,3.05-4.75,4.32-7.23,1.41-3.86,1.82-7.99,2.63-12,.54-2.9.92-6.11-.68-8.77-.03-.08-.07-.16-.1-.24h0ZM222.24,350c-2.44-.55-5.38-1.1-7.2,1.12-2.3,1.75-4.92.08-7.15-.83-2.38-1.4-5.25-.49-6.89,1.59-1.54,2.42,1.07,5.12,1.93,7.39,1.71,2.24,4.44,3.52,6.94,4.71,2.66.72,5.41-.26,8.1-.37,2.6-.33,5.29-1.87,5.96-4.57.99-2.43,2.26-5.51.5-7.9-.56-.63-1.37-.98-2.19-1.14h0ZM190.08,355.34c-5.08-1-10.12-2.29-15.24-3.08-4-.21-8.01.25-11.98.67-2.99.67-5.43,2.66-7.61,4.7-1.16,2.37,1.23,4.72,2.78,6.27,1.77,1.56,3.9,3.06,6.37,2.83,2.89.02,6.02.45,8.16,2.59,2.46,2.1,4.2,5.24,7.34,6.41,4.36.9,8.03-2.2,11.96-3.47,2.27-.78,4.71-1.12,6.9-2.11,2.26-1.57,2.16-4.68,2.39-7.12-.47-2.47-2.95-3.76-4.82-5.13-1.92-1.2-4.03-2.12-6.26-2.55ZM137.12,370.82c-3.26.07-6.6.43-9.62,1.76-1.82,1.49-2.92,3.67-4.09,5.66-2.28,5.38-1.22,11.45.22,16.9.49,2.2,1.89,4.22,4.14,4.79,2.4,1.38,1.21,4.71,3.14,6.3,2.36,1.33,4.31-1.48,6.71-1.01,2.42.29,4.92-.18,6.93-1.62,2.02-1.26,3.87-3.12,4.56-5.46,1.71-2.46,5.5-1.94,7.08-4.58,1.37-2.15,2.71-4.39,3.62-6.78.99-3.6-.98-7.63-4.36-9.16-3.34-1.66-6.84-2.95-10.28-4.38-2.61-1.02-5.29-1.93-8.05-2.42h0ZM181.33,390.61c-2.57.66-4.27,2.89-6.46,4.24-1.83,1.79-5.28,2.75-5.59,5.58.26,2.25,2.17,3.76,3.35,5.55,1.5,1.18,2.1,4.14,4.4,3.82,1.4-1.99,1.73-4.77,1.3-7.19.48-1.77,4.71-1.25,3.83-4.2.21-2.35,1.56-5,.04-7.17-.24-.27-.54-.49-.87-.64h0ZM171.42,407.39c-2.18-.44-4.87-1.69-6.79.07-1.2,2.2.14,4.91.95,7.02,1.85,1.84,4.89.67,6.47-.96.48-1.88.93-4.41-.81-5.55l.11-.31.07-.28ZM170.8,416.95c-3.42.1-.12,5.17,1.81,2.72.77-1.16-.71-2.55-1.81-2.72ZM163.28,416.6c-2.23-.13-5.12-.17-6.45,1.97-.89,2.12.05,5.07,2.12,6.17,2.38.27,4.77-.97,6.93-1.9,2.28-1.55.3-4.75-1.35-5.96-.39-.18-.83-.26-1.26-.27h0Z"/>
      <path class="st4" d="M677.68,336.1c2.86-1.39,6.03-2.59,8-5.22,1.8-2.32,3.48-4.87,4.23-7.72.54-4.14.99-8.31,1.6-12.43.68-1.42.89-2.98.74-4.53,0-2.1-.39-4.27.37-6.29.38-2.78.06-5.64-.43-8.38-.98-3-1.6-6.24-.89-9.37.55-3.14,2.31-5.89,2.97-9,.6-2.4,1.32-5.03,3.56-6.42,2.41-1.49,5.25-2.12,7.99-2.68,3.16-.54,5.35,2.45,8.23,3.13,2.16.22,3.64,1.96,3.61,4.12.41,1.76.64,3.59.13,5.36-.71,4.08-1.65,8.17-3.35,11.96-1.12,2.69-3.84,4.19-5.09,6.79-1.33,2.45-3.14,4.88-3.09,7.81-.04,2.73.06,5.62,1.31,8.11,1.58,1.88,3.87,3.12,6.16,3.95,3.15.72,5.79-1.79,8.86-1.92,2.08-.3,4.18-.48,6.24-.87,2.91-1.53,4.98-4.22,7.05-6.7,1.03-1.45,1.9-3.08,3.46-4.05,2.28-1.78,5.48-2.4,7.05-5.04,1.7-2.4,2.92-5.1,3.76-7.9.66-1.9,2.7-2.86,4.62-2.48,2.15.26,4.39-.12,6.47.59,1.61,1.2,2.57,3.05,3.86,4.57,1.61,2.22,3.5,4.24,4.9,6.61.57,1.45-.33,2.93-.6,4.38-.5,1.56-.7,3.24-1.48,4.68-1.67.4-3.85-.19-5.32,1.39-2.2,1.62-5.05,2.8-7.78,1.86-2.88-.82-5.88.66-8.02,2.51-2.61,2.32-4.87,5.02-7.62,7.18-1.64,1.32-2.76,3.14-4.23,4.63-2.5,2.67-4.66,5.73-7.82,7.69-2.61,1.67-4.38,4.42-5.53,7.24-.33,1.98.49,4.21-.83,5.97-1.29,1.03-2.43,3.1-.47,4.14,1.98,1.21,4.29,1.96,6.6,2.17,4.43.02,8.32-3.45,12.84-2.48-.2,2.03-3.94,2.09-5.78,2.82-3.23,1.13-6.25,3.82-6.48,7.42-.21,2.71.5,5.39.88,8.06.61,2.28,2.52,4.24,4.77,4.91,1.94.08,3.65-1.3,5.62-1.12,2.48-.11,4.98-.08,7.45-.28,2.74-.6,5.52-1.04,8.23-1.75,1.57-.53,3.19-1.2,4.88-.9,3.2.15,6.4.56,9.61.31,1.6-.12,4.28.7,3.47,2.79-.83,2.05-1.86,4.02-2.41,6.18-.75,2.62-1.73,5.18-2.28,7.85-.4,2.55.77,5.29-.68,7.66-1.07,1.9-2.45,4.09-4.73,4.56-2.15.1-4.3-.02-6.45.13-1.9.06-3.8.08-5.66.5-2.17.35-4.32.86-6.53.8-2.39.03-4.76.18-7.12.52-2.33.23-4.65.69-6.99.52-2.03.02-4.07-.18-6.09.01-3.08.64-6.03,1.82-8.99,2.84-2.91.97-3.98,4.19-4.32,6.95-.43,2.72-.74,5.54.13,8.21.54,1.89,1.81,3.53,1.92,5.55.39,2.3-.09,4.61-.76,6.81-.82,2.75,1.27,5.09,2.41,7.39,1.82,3.13,3.39,6.42,4.21,9.96.83,1.71-.1,3.43-1.27,4.7-1,1.82-2.71,2.91-4.82,2.51-4.83,0-9.66.1-14.48.11-2.18-.05-3.22-2.46-3.91-4.2,1.03-.31,3.65-.57,4.3-2.34.82-2.14-.72-4.38.04-6.55.59-2.87,1.1-5.77,2-8.56.93-2.04.02-4.07-1.31-5.68-1.23-1.58-1.29-3.58-1.07-5.47-.21-2.21-.91-4.35-1.33-6.53-.66-3.3-.19-6.72.68-9.94.39-2.02.69-4.18-.12-6.14-2.05-6.67-3.75-13.62-7.76-19.44-1.77-2.13-3.55-4.25-5.32-6.38,2.89.21,5.82.02,8.58-.92,4.13-1.35,8.46-3.46,10.71-7.36,1.51-3.61,1.57-7.65,1.39-11.5-.18-3.34-1.85-6.48-4.48-8.54-4.77-3.99-10.86-5.75-16.59-7.88l-5.63-1.9ZM703.53,326.16c-2.13-.44-3.34,1.72-2.9,3.57.22,2.12.47,4.27.02,6.39-.7,2.43,2.36,3.31,3.65,1.42,2-1.65,4.41-3.07,5.65-5.43.48-1.84-1.4-3.18-2.68-4.14-1.15-.77-2.39-1.45-3.73-1.8ZM718.4,353.53c-1.61.59-.66,2.59-.67,3.85.12,1.79.21,3.6,1,5.24.84,2.26,2.03,4.8,4.56,5.5,1.39.11,1.08-1.58.86-2.45-.41-1.68-.31-3.44-.61-5.14-.83-2.18-2.49-3.91-3.74-5.85-.38-.47-.84-.9-1.4-1.16h0ZM706.16,371.42c-2.46.05-2.93,2.83-2.74,4.76.14,2.49.85,5.64,3.48,6.58,2.16.6,4.16-1.06,5.55-2.52,1.52-1.34,1.31-3.66-.29-4.85-1.66-1.73-3.52-3.6-6-3.96h0ZM751.34,388.69c-3.02-.17-6.07-.09-9.05-.63-3.02-.38-6.02-.89-9.01-1.41-3.03-.48-6,.83-8.31,2.71-1.79,1.44-4.49,2.3-5,4.83-.61,2.48,2.13,3.73,4.15,3.93,2.56.45,5.02-.84,7.59-.63,2.2-.06,4.42.14,6.58-.36,3.27-.58,6.6-.79,9.83-1.61,2.15-.5,4.32-.92,6.52-1.1,1.91-.32,3.99-.15,5.71-1.13,1.68-1.42-.97-2.59-2.22-2.76l-6.77-1.84Z"/>
    </g>
    <g id="Roads">
      <path class="st8" d="M592.97,121.29l11.81,3.21-16.41,60.35-1.33,3.86-10.91,40.15c-.76,2.82-1.43,10.09-1.03,12.96.19,1.38.56,3.41,1.67,4.34.77.64,2.02.49,2.97.47l6.86-.36c9.9-.56,8.19-.13,18.34-2.18,3.47-.7,8.16-1.97,11.15-3.8,1.72-1.06,4.81-4.27,5.95-5.99l3.01-4.8c1.04-1.06,3.18-.63,3.69.79.46,1.24-1.68,4.15-2.42,5.18l-2.82,3.74c-2.23,2.49-6.4,5.6-9.5,6.78l-5.18,1.43c-4.77,1.23-12.19,2.44-17.12,2.86l-10.9.73c-2.94.25-8.05.09-10.13,2.3-.9.95-1.19,2.03-1.53,3.25l-5.21,19.15-.81,4.01-5.42,19.94c-.31,1.2-.51,2.23.26,3.33.67.96,1.63,1.13,2.68,1.41l44.08,11.98,4.01.81,67.43,18.33,3.6,1.26,1.05.29,5.37,2c5.26,1.83,13.79,4.94,16.71,9.95,2.46,4.22,1.86,11.07.57,15.62-.8,2.82-3.22,4.9-5.67,6.35-.92.54-2.34,1.38-3.3,1.77-1.07.44-1.95.56-3.04.82-3.16.74-5.59,1.17-8.83.33l-1.05-.29-4.01-.81-2.36-.64-4.01-.8-3.41-.93-3.22-.6-9.52-2.31-4.53-.95-3.34-1.19-7.92-2.15,2.21-8.14c.14-.51.34-1.52.78-1.83.6-.43,1.83,0,2.49.19l21.3,5.79,4.01.81,9.71,2.64,5.58,1.24c3.11.81,6.18,1.04,8.04-2.04.44-.73.81-1.43.97-2.27.33-1.79,0-4.59-1.13-6.04-2.71-3.51-10.72-5.07-14.93-6.21l-4.53-.95-51.17-13.91-4.01-.81-48.54-13.2-4.53-.95-8.66-2.35c-2.54-.67-3.09-.01-3.74,2.36l-3.21,11.81-1.33,3.86-7.28,26.76c-.61,2.25-2.79,7.73-1.17,9.59.67.77,1.78,1,2.72,1.26l70.06,19.05c1.85.5,7.39,2.78,8.8,3.9,5.19,4.13,6.63,10.8,4.95,17.02l-22.54,82.92c-1.66,6.07-7.38,10.29-13.6,10.64-.96.06-4.62-.67-5.66-.95l-13.12-3.57-4.53-.95-57.99-15.77-4.53-.95-17.84-4.85c-1.05-.27-4.46-1.05-5.3-.47-.71.49-.93,1.6-1.14,2.39l-14.98,55.1c-.33,1.23-1.14,4.6-.58,5.68.73,1.41,2.72,1.58,4.08,2.15l6.43,2.24,5.31,2.24,41.26,18.24c3.22,1.49,6.17,3.64,8.79,6.01,1.45,1.31,2.93,3.04,3.01,5.11.08,2.08-.98,5.14-3,6.04-.84.38-2.47.34-3.42.37l-7.29-.13-14.28-1.39-9.89-.92-2.69-.48-6.31-.62-3.62-.16-2.43-.39-9.92-.81-12.24-.6c-1.66.14-3.01,1.13-3.25,2.85-.25,1.79.78,2.96,2.31,3.69,2.28.97,5.61,1.6,8.14,2.21l4,.85,54.58,14.84c4.32,1.18,8.25,5.08,9.14,9.53.22,1.08.17,2.32.12,3.41-.05,1.21-.12,2.37-.5,3.53-.58,1.74-1.85,2.21-3.52,2.62l-8.84,1.42-12.18.24-18.39.29-9.15.49c-3.96,1.08-9.02,6.41-9.81,10.51l-1.04,7.04c-.11.82-.26,2.85-.78,3.42-.67.74-1.8.72-2.72.74h-5.92c-.94-.02-2.13,0-2.56-1.02l-.12-7.27-.24-20.35,7.94-.17,17.58-.41,15.71-.78,14.67-1.11c1.74-.1,5.32-.1,6.66-1.11,1.59-1.2.71-2.83-.51-3.91-1.42-1.27-3.04-1.54-4.8-2.03l-3.86-1.33-55.1-14.98c-4.29-1.17-9.27-2.22-13.28-4.01-.96-.43-3.54-1.36-3.98-2.23-.3-.61-.17-1.75-.1-2.42l.71-2.62.51-2.96.85-4c.69-1.64,2.93-1.93,4.49-2.16l3.85-.68c1.74-.23,4.87.03,6.74.08l22.39,1.61,13.46,1.27,10.04,1.41,13.57,1.91c1.19.16,4.08.44,3.97-1.53-.09-1.59-1.92-2.14-3.13-2.57l-4.33-1.69-5.42-1.83-17.49-6.14-3.59-1.31c-1.43-.58-1.93-.98-3.55-1.45l-6.69-2.34-4.89-1.71-5.64-2.05-13.91-3.78-4.53-.95-11.02-3-4.01-.81-54.84-14.91-3.86-1.33-26.24-7.13-3.86-1.33-19.94-5.42-.57,2.1c-.69,2.37-2.36,1.89-4.32,1.36l-12.33-3.35-4.53-.95-20.99-5.71-4.01-.81-17.58-4.78-4.01-.81-12.6-3.42-4.53-.95-9.97-2.71-4.53-.95-9.97-2.71-4.53-.95-9.18-2.5-3.21-.62-10.45-1.99-18.74-3.63-10.18-1.95-5.25-1.43-4.53-.95-7.35-2-4.01-.81-5.77-1.57-4.01-.81-3.67-1-4.01-.8-4.2-1.14-3.22-.6-9.78-2.38-4.53-.95-22.92-4.85-32.07-6.41-13.67-2.59c-9.06-1.81-18.33-3.04-27.26-5.46l3.14-11.55,9.65,1.8,16.83,3.4,5.38.95,22.74,4.46,2.36.64,16.56,3.35,19.96,4.32,4.01.81,4.46,1.21,4.27.88,3.93,1.07,4.27.88,3.67,1,4.27.88,3.94,1.07,4.01.81,4.46,1.21,4.01.81,15.95,3.52,10.91,2.35,10.18,1.95,2.36.64,6.96,1.33,8.73,2.09,4.53.94,4.2,1.14,3.22.59,3.94,1.07,3.22.6,10.31,2.52,3.48.67,5.51,1.5,4.53.95,6.3,1.71,4.53.95,7.09,1.93c.78.2,4.22.86,4.85.71,1.15-.28,1.52-1.28,2.96-1.43l5.9,1.07,6.3,1.71,4.01.81,6.04,1.64,4.01.81,15.82,4.02,9.06,1.9,3.67,1,4.27.88,8.92,2.43,4.53.95,71.9,19.55,4.53.95,31.23,8.49c2.44.66,5.54.51,7.22-1.7.61-.79,1.46-3.29,1.74-4.32l13.2-48.54c.47-1.72,2.6-5.79,1.37-7.28-.63-.76-1.81-1.01-2.71-1.26l-87.38-23.75c-1.57-.43-5.84-1.11-6.44-2.64-.31-.79,0-1.66.21-2.44l1.57-5.77c.22-.76.39-1.52,1.15-1.92.85-.45,1.85-.08,2.71.15l46.18,12.55,3.86,1.33,64.29,17.48c1.37.37,5.42,1.86,6.54,1.09.71-.49.93-1.6,1.14-2.39l11.98-44.08,1.33-3.86,9.99-36.74c.85-3.17-.41-3.77-3.27-4.55l-148.78-40.45-3.86-1.33-44.34-12.06-3.86-1.33-89.74-24.4-3.86-1.33-12.6-3.42-4.39-1.48-12.33-3.35-4.39-1.47-40.93-11.13-4.01-.81-39.88-10.84c-5.69-1.55-10.41-6.78-11.77-12.5-.73-3.05-.29-9.47.54-12.53l7.21-26.5,1.33-3.86,4.92-18.1,1.33-3.86,4.85-17.84,1.33-3.86,8.7-32.01c.48-1.69,1.33-3.28,2.32-4.72,1.98-2.89,5.03-5.59,8.39-6.71,2.38-.79,4.21-.63,6.64-.58,3.62.07,11.42,1.24,14.9,2.19l3.94,1.07,3.08,1.11,7.09,1.93,4.13,1.4,6.56,1.78,4.13,1.4,6.56,1.78,4.39,1.48,101.81,27.68,3.86,1.33,18.89,5.14,3.86,1.33,20.73,5.63,3.86,1.33,22.3,6.06,3.86,1.33,7.35,2,4.01.81,134.87,36.67,3.74.74,29.91,8.13c3.27.88,4.83.85,5.79-2.65l11.41-42.86,3.04-11.36,8.78-30.2,1.33-3.86,5.42-19.94ZM151.86,131.05c-4.54-.53-9.36-2.76-13.38.54-.72.6-1.39,1.22-1.89,2.02-.62,1.01-.89,1.93-1.2,3.06l-11.77,43.29-1.33,3.87-15.91,58.51c-.54,2.05-.97,4.5.03,6.46,1.4,2.73,5.17,3.93,7.92,4.72l3.34,1.19,1.05.29,8.25,2.81,90,24.47,4.01.81,8.92,2.42,4.01.81,4.99,1.36c2.82.76,3.34.15,4.08-2.55l2.5-9.18,2.52-7.2,2-7.35.95-4.53,2.21-8.13,1.48-4.39,4.21-15.48,1.48-4.39,8.92-32.8,1.48-4.39,3.85-14.17c.6-2.09,1.62-3.31.95-5.65-.59-2.08-3.28-3.15-5.18-3.67l-78.46-21.33-3.86-1.33-27.03-7.35-2.57-.93-6.56-1.78ZM510.73,230c-2.36-.25-5.32-1.21-7.67-1.84l-13.64-3.71c-1.68-.43-4.73-1.06-6.33-.37-1.55.67-3,2.63-3.76,4.11-1.07,2.09-3.45,7.71-4.04,9.89l-3.28,12.07-.95,4.53-1.57,5.77-.95,4.53-4.64,17.06-.95,4.53-14.12,51.95c-.53,2.03-1.14,4.77.85,6.22.53.39,1.41.59,2.05.77l8.13,2.21,4.39,1.48,57.46,15.62c1.21.33,3.1,1.01,4.3.76,2.01-.42,2.4-1.57,2.87-3.32l1.57-5.77.95-4.53,2.64-9.71.95-4.53,2.64-9.71.95-4.53,4.57-16.79.81-4.01,4.57-16.79.81-4.01,4.57-16.79.95-4.53,3.78-13.91c.18-.68.44-1.46.13-2.13-.51-1.1-3.86-2.26-5.05-2.59l-31.75-8.63-3.61-1.22-7.61-2.07ZM288.42,169.83c-1.57.18-2.08.62-2.54,2.1l-.88,4.27-14.05,51.69-.81,4.01-15.05,55.36c-.24.92-.6,2.67-.24,3.56.45,1.11,1.48,1.29,2.51,1.57l23.09,6.28,3.86,1.33,143.27,38.95c2.14.58,6.78,2.44,8.52.61.55-.57.74-1.52.95-2.27l4.92-18.11.95-4.53,12.2-44.87,1.33-3.86,7.56-27.81,1.33-3.86,2.07-7.61c.7-2.58,1.91-6.14-.93-7.96-.58-.37-1.39-.56-2.05-.74l-12.33-3.35-4.4-1.45-152.97-41.59-6.29-1.71ZM538.37,381.21c-.99.04-1.93.08-2.71.74-1.2,1.01-2.14,5.7-2.59,7.37l-21.26,78.19c-.24.91-.62,2.02-.28,2.93.53,1.4,1.86,1.72,3.14,2.07l75.04,20.4c2.41.62,2.56-.1,3.15-2.24l23.18-85.28c.7-2.59.48-2.96-2.11-3.65l-66.65-18.12-8.92-2.43Z"/>
    </g>
    <g id="Fence_ext">
      <path class="st0" d="M305.67,579.03l20.8-76.52-80.64-21.92-14.81-1.49L13.64,419.99,127.15,2.45l297.12,80.78-8.44,31.06,166,45.13-4.3,15.8c5.41,1.87,9.11,5.43,9.8,12.03l37.42,14.46,53.07,17.16,21.35,3.27,125.68,34.17-52.34,192.51.52,5.99-8.26,33.25,1.52,5.7"/>
    </g>
    <g id="Fences_int">
      <path class="st2" d="M116.47,68.8l15.45-56.1,154.77,42.47"/>
      <path class="st2" d="M291.33,56.23l62.39,16.96"/>
      <path class="st2" d="M360.27,75.18l55.97,15.22"/>
      <path class="st2" d="M415.18,95.03l-13.72,50.46"/>
      <path class="st2" d="M387.46,182.48l9.17,2.49,7.78-28.63M400.15,151.04l-7.38,27.16-4.4-1.2"/>
      <path class="st2" d="M405.38,152.07l10.06-37.01"/>
      <path class="st2" d="M114.78,75.04l-18.46,67.89"/>
      <path class="st2" d="M94.11,151.79l-7.58,27.89"/>
      <path class="st2" d="M85.41,184.5l-21.2,77.99,35.41,9.63"/>
      <path class="st2" d="M234.54,299.93l-3.99,14.68-99.46-27.04M189.45,296.14l33.03,8.98,2.28-7.66M106.05,273.86l79.45,21.6"/>
      <path class="st2" d="M124.72,285.64l-59.64-16.21"/>
      <path class="st2" d="M60.08,268.26l-4.07-1.11"/>
      <path class="st2" d="M233.28,474.18l25.14-92.48-13.76-3.74,5.14-18.9M242.66,367.17l-3.74,13.76,14.13,3.84-23.99,88.26"/>
      <path class="st2" d="M251.01,353.87l11.42-42.02,6.61,1.8M270.22,310.02l-11.19-3.04-15.07,55.42.05-.18"/>
      <path class="st2" d="M322.57,490.77l7.52,2.05"/>
      <path class="st2" d="M334.31,493.96l27.34,7.43,13.07-48.08,2.57.7"/>
      <path class="st2" d="M380.78,454.96l16.88,4.59"/>
      <path class="st2" d="M403.11,461.23l60.74,16.51-6.78,24.96"/>
      <path class="st2" d="M454.52,512.06l-5.04,18.53-14.13-3.84"/>
      <path class="st2" d="M432.05,525.85l-94.13-25.59"/>
      <path class="st2" d="M334.06,499.21l-12.84-3.49"/>
      <path class="st2" d="M258.66,286.58l87.16,23.7"/>
      <path class="st2" d="M352.11,312.09l82.45,22.42"/>
      <path class="st2" d="M435.76,329.37l-84.09-22.86"/>
      <path class="st2" d="M345.36,304.6l-55.21-15.01"/>
      <path class="st2" d="M285.07,288.21l-25.06-6.81"/>
      <path class="st2" d="M450.74,340.27l7.75-28.51"/>
      <path class="st2" d="M540.42,301.66l-2.52,9.26-69.01-18.76-6.57,24.15M459.63,307.58l5.78-21.25,69.38,18.86,1.09-3.99"/>
      <path class="st2" d="M461.14,320.67l-5.68,20.89"/>
      <path class="st2" d="M577.14,175.94l-11.94,43.91"/>
      <path class="st2" d="M564.36,222.93l-2.67,9.81-5.21,13.41"/>
    </g>
    <g id="Trees">
      <path class="st9" d="M316.23,87.89c-.42.61-1.34.69-2.07.82-1.77.32-3.6-.11-5.4-.12-1.36,0-2.73-.15-4.08.03-.51.07-1.02.2-1.49.4-.71.31-1.43.67-1.99,1.21-.68.65-1.23,1.48-1.56,2.36-.34.9-.42,1.89-.4,2.85.02.79.22,1.56.43,2.32.16.62.15,1.39.64,1.81.66.57,1.7.58,2.57.52.97-.07,1.81-.73,2.75-.99.95-.27,1.95-.83,2.91-.59,1.15.29,1.68,1.72,2.73,2.26,1.4.72,2.99,1.04,4.56,1.19,1.29.12,2.74.38,3.87-.26.68-.38,1.04-1.2,1.33-1.92.51-1.27.3-2.72.64-4.04.28-1.08.98-2.05,1.13-3.15.08-.62.09-1.29-.16-1.86-.34-.75-.99-1.37-1.69-1.8-.94-.58-3.17-.93-3.17-.93-.49-.14-1.01-.08-1.52-.12h0s0,0,0,0Z"/>
      <path class="st9" d="M128.51,71.42c.67-1.72,2.86-2.44,3.75-4.06.77-1.4.86-3.09,1.24-4.65.34-1.39.36-2.88.93-4.19.3-.68.77-1.28,1.26-1.83.64-.72,1.37-1.37,2.18-1.88.8-.51,1.67-.99,2.61-1.15,1.25-.22,2.53.18,3.79.27,2.07.16,4.13.44,6.21.49.75.02,1.56.25,2.25-.06.84-.37,1.41-1.23,1.92-2,.57-.89,1.12-1.88,1.2-2.93.08-1.01-.24-2.06-.7-2.97-.44-.88-1.15-1.61-1.88-2.28-.56-.52-1.2-.95-1.87-1.32-.56-.31-1.16-.59-1.79-.71-1.12-.22-2.28-.03-3.42-.01-.77,0-1.54.18-2.3.07-.82-.13-1.54-.62-2.34-.81-1.24-.3-2.53-.44-3.8-.51-1.07-.06-2.2-.28-3.22.04-.73.23-1.52.63-1.91,1.29-1.09,1.83-.17,4.28-.6,6.37-.46,2.23-1.13,4.43-2.09,6.49-.47,1.01-1.11,1.93-1.77,2.83-.38.53-.84.99-1.25,1.5-1.1,1.33-2.42,2.5-3.27,4-.61,1.09-1.28,2.29-1.24,3.54.04,1.19.73,2.3,1.41,3.27.32.46.73.91,1.23,1.15.44.21,1.44.22,1.44.22.67.1,1.34-.12,2.01-.18h0s0,0,0,0Z"/>
      <path class="st9" d="M163.29,362.7c-.32-.41-.82-.73-.97-1.23-.19-.62-.1-1.35.16-1.95.28-.65.82-1.19,1.41-1.58.58-.39,1.29-.54,1.97-.69,1.19-.27,2.41-.35,3.63-.38,2.01-.06,4.14-.44,6.02.26,1.23.46,1.93,1.82,3.08,2.45,1.21.66,2.57,1.07,3.93,1.33,1.15.22,2.34.15,3.52.19,1.52.05,3.05-.01,4.57.06,1.1.05,2.29-.18,3.3.27.69.31,1.34.86,1.64,1.55.37.85.35,1.9.03,2.77-.23.62-.72,1.16-1.29,1.51-.66.4-1.48.43-2.25.53-3.01.39-6.24,1.26-9.09.24-1.16-.41-1.9-1.57-2.79-2.42-.44-.42-.77-.97-1.26-1.33-.74-.56-1.6-.94-2.47-1.26-1.06-.4-2.16-.76-3.29-.81-.9-.04-1.79.27-2.68.42-1.45.23-2.88.65-4.35.72-.66.03-1.7.04-1.98-.13-.28-.17-.55-.33-.83-.5,0,0,0,0,0,0h0Z"/>
      <path class="st9" d="M666.98,387.92c-1,1.35-3.41.68-5.04.27-1.12-.28-2.12-1-2.95-1.79-.36-.35-.7-.77-.83-1.26-.37-1.37-.19-2.9.23-4.26.18-.58.52-1.13.94-1.56.66-.68,1.53-1.16,2.4-1.53,1.34-.57,2.8-.86,4.25-1.01,1.11-.12,2.26-.15,3.35.09.7.15,1.38.46,1.98.85.5.32.8.9,1.31,1.2,1.64.98,3.61,1.24,5.4,1.89,1.12.4,2.36.57,3.34,1.25.74.51,1.26,1.3,1.79,2.03.71.98,1.41,1.99,1.84,3.12.37.98.48,2.04.57,3.08.1,1.18.2,2.4-.04,3.56-.16.75-.47,1.48-.89,2.11-.56.83-1.27,1.62-2.14,2.13-.57.34-1.25.47-1.9.56-.84.12-1.72.13-2.56-.02-.81-.15-1.66-.35-2.32-.84-.38-.28-.68-.7-.85-1.14-.61-1.61-.35-3.43-.45-5.15-.04-.68.28-1.45-.06-2.04-.44-.77-1.4-1.16-2.24-1.44-.91-.3-2.86-.2-2.86-.2-.77-.06-1.52.1-2.29.12h0s0,0,0,0Z"/>
      <path class="st9" d="M662.2,258.88c.18.83-1.64.57-2.33,1.07-1.4,1.01-2.55,2.37-3.53,3.79-.97,1.42-1.39,3.15-2.26,4.63-.62,1.05-1.28,2.1-2.1,3.01-.78.86-1.67,1.64-2.64,2.28-.9.59-1.88,1.06-2.89,1.42-1.74.61-3.62.77-5.41,1.22-2.07.52-4.31.63-6.16,1.69-1.08.62-2,1.57-2.68,2.61-.96,1.48-1.53,3.22-1.82,4.96-.11.65-.14,1.35.04,1.98.34,1.23,1.13,2.3,1.89,3.31.56.74,1.19,1.48,1.96,2,.78.53,1.68.88,2.6,1.08,2.3.5,4.74.64,7.07.24.67-.12,1.31-.4,1.89-.75.67-.4,1.32-.89,1.79-1.52.4-.54.57-1.23.79-1.86.56-1.56.67-3.27,1.38-4.76.37-.76.88-1.45,1.46-2.07.94-1,2.03-1.88,3.22-2.57.77-.45,1.72-.53,2.47-1.01.54-.35,1.1-.75,1.42-1.31.34-.62.29-1.39.4-2.09.14-.99,0-2.03.31-2.99.22-.67.51-1.38,1.05-1.85.52-.45,1.26-.52,1.9-.76,1.74-.65,3.82-.67,5.28-1.82.59-.47.96-1.2,1.2-1.91.4-1.2.56-2.53.32-3.77-.1-.51-.42-.97-.71-1.4-.52-.77-1.03-1.6-1.82-2.09-.84-.52-1.88-.63-2.86-.76-.41-.05-1.23,0-1.23,0h0Z"/>
      <path class="st9" d="M623.96,539.26c-.69.65-1.8.66-2.74.78-4.89.64-10.05-1.6-14.79-.25-1.52.43-2.89,1.44-3.99,2.57-1.02,1.05-1.73,2.4-2.26,3.77-.2.52-.31,1.09-.34,1.65-.1,1.97.07,3.99.58,5.9.13.48.29.98.61,1.35.97,1.12,2.37,1.83,3.74,2.41.86.37,1.81.56,2.74.66.9.1,1.85.25,2.71-.04,1.39-.47,2.4-1.69,3.54-2.61,1.27-1.03,2.4-2.24,3.69-3.25.65-.51,1.32-.99,2.03-1.41.75-.45,1.49-.97,2.34-1.19,2.17-.57,4.56.27,6.73-.28,1.14-.29,2.21-.87,3.17-1.55.61-.43,1.23-.92,1.59-1.57.57-1.04.71-2.3.74-3.49.03-1.16-.01-2.41-.53-3.45-.36-.74-1.08-1.25-1.71-1.77-.49-.4-1-.86-1.61-1.03-.78-.22-1.63-.06-2.43.04-.7.09-1.43.16-2.06.48-.53.27-1.01.66-1.34,1.15-.23.33-.11.86-.4,1.14h0Z"/>
      <path class="st9" d="M484.04,644.41c-.53.31-1.28-.36-1.61-.88-.75-1.17-.66-2.84-.25-4.17.37-1.2,1.32-2.19,2.3-2.98.61-.49,1.35-.86,2.11-1.01,1.76-.33,3.61,0,5.36.37.96.21,1.89.56,2.76,1.02.62.33,1.09.88,1.71,1.21,1.28.68,2.67,1.2,4.08,1.52,1.47.33,2.99.25,4.49.4.86.08,1.75,0,2.57.28.85.29,1.64.81,2.31,1.41.41.36.85.77,1.01,1.3.34,1.11-.02,2.33-.22,3.47-.1.55-.13,1.17-.47,1.62-.78,1.02-2.05,1.7-3.3,2.01-1.41.34-2.93.06-4.34-.29-1.04-.26-1.98-.82-2.92-1.32-.83-.44-1.6-1-2.42-1.48-1.22-.71-2.34-1.67-3.7-2.04-.67-.18-1.39-.08-2.08-.05-1.29.05-2.56.36-3.85.42-.76.03-2.28-.04-2.28-.04-.49,0-.81-.56-1.26-.75h0Z"/>
      <path class="st9" d="M541.12,386.33c-.92.1-1.93.1-2.72.59-.57.35-.98.96-1.25,1.58-.39.9-.32,1.95-.44,2.92-.15,1.22.06,2.52-.37,3.67-.62,1.65-2.12,2.83-3.06,4.33-.4.64-.86,1.26-1.09,1.98-.34,1.08-.22,2.25-.37,3.37-.2,1.5-.35,3.02-.72,4.48-.33,1.3-.83,2.55-1.34,3.79-.39.94-1.01,1.79-1.31,2.77-.38,1.21-.51,2.49-.61,3.76-.2,2.39.47,4.85-.03,7.2-.36,1.69-1.34,3.19-2.08,4.75-.32.67-.63,1.35-1.01,1.99-.42.7-1.13,1.25-1.4,2.02-.29.83-.12,1.74-.15,2.62-.04,1.25.18,2.52-.04,3.75-.23,1.3-.82,2.51-1.3,3.75-.48,1.24-1.08,2.43-1.56,3.68-.55,1.43-1.12,2.87-1.52,4.36-.28,1.02-.25,2.13-.63,3.11-.32.81-.93,1.48-1.35,2.24-.65,1.17-1.62,2.25-1.84,3.58-.16.95.06,1.96.4,2.85.34.89.74,1.97,1.61,2.37.89.42,2.11.27,2.94-.27.85-.55,1.06-1.74,1.49-2.66.31-.66.57-1.35.78-2.06.31-1.08.54-2.19.66-3.3.13-1.24-.26-2.53.07-3.73.52-1.89,1.86-3.47,2.92-5.12.38-.58.91-1.07,1.22-1.69.57-1.17.85-2.47,1.1-3.75.18-.9.09-1.83.28-2.73.29-1.33,1.09-2.52,1.31-3.86.39-2.37-.55-4.88,0-7.22.2-.84.66-1.62,1.15-2.33.72-1.04,1.96-1.69,2.58-2.79.6-1.07.71-2.35,1.01-3.55.32-1.3.69-2.59.83-3.92.16-1.51-.22-3.06.03-4.56.22-1.31.63-2.62,1.29-3.78.67-1.17,1.95-1.91,2.65-3.06.52-.85.92-1.8,1.13-2.78.3-1.34.15-2.74.19-4.11.04-1.32-.3-2.69.04-3.97.36-1.35,1.57-2.34,2.06-3.65.43-1.15.95-2.39.75-3.59-.07-.45-.07-.61-.69-1.17-.62-.56-1.12-1.23-1.64-1.88h0Z"/>
      <path class="st9" d="M464.65,328.71c-.16.63-.96.93-1.22,1.53-.31.73-.4,1.56-.33,2.35.09,1.14.11,2.59,1.02,3.29.58.45,1.47.22,2.19.11.93-.15,1.85-.52,2.64-1.03.69-.44,1.31-1.02,1.75-1.7.67-1.04.96-2.29,1.28-3.48.46-1.7.46-3.5.92-5.21.25-.94.51-1.9,1-2.73.52-.87,1.12-1.77,2-2.27,1.16-.67,2.64-.48,3.94-.81,1-.25,2.02-.48,2.96-.89.78-.35,1.54-.78,2.21-1.31.55-.43,1-.98,1.47-1.5.58-.65,1.18-1.29,1.65-2.01.43-.65.95-1.31,1.08-2.09.14-.8.04-1.7-.34-2.43-.24-.47-.71-.79-1.15-1.08-1.22-.82-2.57-1.5-4-1.85-1.37-.34-2.81-.31-4.22-.25-.71.03-1.44.05-2.1.3-.83.31-1.57.84-2.23,1.43-1.14,1.02-2.02,2.31-2.92,3.55-.75,1.03-1.4,2.12-2.07,3.2-.52.84-.96,1.71-1.49,2.54-.62.97-1.28,1.92-1.97,2.84-.47.62-1.09,1.13-1.48,1.81-.64,1.1-1.27,2.29-1.39,3.55-.13,1.4,1.12,2.78.78,4.15h0Z"/>
      <path class="st9" d="M494.66,512.71c-1.85-.35-3.82.05-5.59.68-.95.34-1.82.93-2.55,1.62-.45.43-.84.95-1.09,1.52-.7,1.55-.95,3.29-1.12,4.98-.08.81-.13,1.64.04,2.43.17.82.57,1.58.98,2.32.63,1.14,1.66,2.05,2.24,3.22.64,1.28,1.01,2.68,1.33,4.08.16.7-.03,1.49.29,2.14.56,1.13,1.61,1.99,2.67,2.67.61.39,1.35.57,2.05.76,1.11.3,2.24.57,3.38.6,1.05.03,2.11-.16,3.14-.39.9-.19,1.79-.45,2.63-.81,1.08-.47,2.12-1.06,3.05-1.78.45-.34.86-.74,1.2-1.2.46-.62.76-1.34,1.08-2.04.26-.58.54-1.16.67-1.78.27-1.26.73-2.68.21-3.87-.56-1.29-2.07-1.9-3.22-2.7-.85-.6-1.87-.94-2.7-1.57-.68-.51-1.39-1.04-1.83-1.76-.46-.77-.52-1.72-.75-2.58-.22-.82-.26-1.69-.59-2.47-.18-.44-.42-.89-.75-1.23-.88-.88-2.09-1.34-3.17-1.96-.52-.3-1-.75-1.6-.86h0Z"/>
      <path class="st9" d="M669.36,471.03c-1.45-.03-2.94-.61-4.33-.21-.55.16-1.05.53-1.42.98-.56.69-.73,1.62-1.04,2.45-.4,1.06-.5,2.25-1.08,3.22-.68,1.13-1.79,1.95-2.73,2.87-1.09,1.07-2.33,1.97-3.37,3.09-.58.62-1.3,1.2-1.59,2.01-.44,1.24-.27,2.64-.06,3.93.12.75.26,1.58.75,2.17.72.88,1.85,1.4,2.94,1.71,1.23.35,2.56.17,3.84.11,1.07-.05,2.18-.06,3.2-.4.85-.29,1.68-.75,2.33-1.38.94-.91,1.66-2.07,2.09-3.3.49-1.41.42-2.97.46-4.46.04-1.31-.46-2.65-.18-3.94.16-.72.68-1.3,1.01-1.96.31-.64.74-1.25.9-1.95.28-1.18.12-3.62.12-3.62.03-.78-1.07-1.05-1.83-1.3h0Z"/>
    </g>
    <g id="Rocks">
      <path class="st5" d="M408.58,628.54l.26.07-.33.19.07-.26Z"/>
      <path class="st5" d="M78.96,534.98l.57,1-.57-1Z"/>
      <path class="st5" d="M502.29,729.53c-2.12-1.44,1.77-4.62,3.33-6.46,1.56-1.99,4.2-2.34,6.44-3.1,3.9-1.08,7.83-2.23,11.34-4.29,1.83-1,3.76-1.8,5.8-2.24,4.26-1.16,8.58-2.15,12.77-3.55,2.63-.73,5.23-2,8.02-1.69,2.28.41,3.69,2.46,5.42,3.81,2.32,1.89,3.68,4.59,5.24,7.08,1.12,1.83,2.98,3.24,5.16,3.41,2.6.5,5.33-.78,6.72-3.02,1.34-1.84,1.67-4.13,2.51-6.18,1.8-3.16,5.5-4.32,8.79-5.24,2.62-.65,5.51-1.76,8.13-.47,2.69,1.05,5.17-.99,7.76-1.37,1.95-.39,3.98.84,5.85-.21,1.62-.88,3.41-1.41,5.26-1.34,1.97-.15,4.16.16,5.94-.88,1.31-1.09,1.68-2.89,2.86-4.11,2.05-2.57,4.77-5.27,8.29-5.31,2.33.09,4.84.73,7.01-.48,2.25-1.29,4.69-2.21,7.22-2.78,3.41-.86,6.82-1.94,10.35-2.02,2.6.35,5.02,1.54,7.36,2.66,2.37,1.29,4.96,3.07,5.38,5.95.42,2.26.09,4.58.57,6.83.46,3.05.84,6.13,1.35,9.17.88,2.68,3.29,4.53,4.07,7.26,1.05,2.43.38,5.12.15,7.65-.26,2.63-1.4,5.04-2.18,7.55-.53,1.63-1.16,3.24-1.63,4.88.11,2.18.35,4.37-.08,6.53-.44,2.66-.58,5.79-2.91,7.59-3.21,2.8-6.84,5.62-11.25,5.98-3.45.31-6.73-1.17-9.79-2.57-2.03-.82-2.62-3.1-3.77-4.75-.71-1.4-2.22-2.92-3.86-1.84-1.79.96-3.79,1.68-5.86,1.31-2.36-.33-4.84-.49-7.02-1.52-1.63-.94-2.56-3.21-4.7-3.12-2.94.15-5.8,1.29-8.77.94-1.48-.1-2.97-.09-4.43-.27-1.31-.53-2.7-1.1-4.14-.64-1.83.39-3.73,1.8-5.59.71-1.16-.87-2.69-1-3.93-.21-1.95.85-3.59,2.42-5.7,2.88-1.73-.14-3.43-.63-5.07-1.2,0,0-19.79-8.91-30.38-10.62-10.4-1.68-21.51,3.51-31.61.48-6.35-1.9-16.45-11.19-16.45-11.19Z"/>
      <path class="st5" d="M414.63,622.85l.26.07-.33.19.07-.26Z"/>
      <path class="st5" d="M155.1,526.49c4.37.65,8.03,3.31,11.8,5.41,2.2,1.3,3.73,3.38,5.5,5.17,1.81,1.89,3.55,3.85,5.4,5.7,1.64,1.42,3.23,2.91,4.9,4.29,1.84,1.26,3.75,2.41,5.32,4.01,2.5,2.32,4.71,5,7.71,6.7,1.59,1.12,3.54,1.68,4.95,3.04,1.12,1.2.58,2.91.19,4.29-.45,2.05,1.24,3.7,2.83,4.67,1.46,1.06,3.55,1.68,4.19,3.54.39,1.74-.88,3.24-1.78,4.6-1.68,2.33-4.34,3.7-7.07,4.39-3.64.91-6.98,2.72-10.66,3.48-2.67.67-5.48-.09-8.14.58-1.99.61-2.83,2.82-4.74,3.58-1.93.87-4.1,1.7-6.24,1.31-1.93-.49-2.76-2.74-4.74-3.15-1.14-.22-2.15-.83-2.9-1.71-1.84-1.65-4.42-1.87-6.68-2.61-4.16-1.17-8.42-2.25-12.77-2.04-3.48.11-7,.28-10.42.99-1.81.32-3.09,2-4.99,2.02-1.53.17-3.09.2-4.61.46-2.54.59-5.07,1.23-7.62,1.79-2.14.28-4.38-.02-6.45.66-3.12,1.58-5.82,4-9.21,5.05-1.63.56-3.43.67-5.06.09-2.1-.72-4.52-.55-6.33-1.98-1.4-1.17-2.08-3.15-1.55-4.92.52-1.36-.65-3.01-2.14-2.69-1.77.2-3.86,1.02-5.39-.31-1.98-1.93-2.83-4.84-2.6-7.56.19-1.57-.7-2.92-1.2-4.33-.65-1.6.74-2.95,2.01-3.66,1.72-1.05,2.8-2.86,4.47-3.98,1.4-.93,2.94-1.92,3.5-3.61,1.07-2.72,2.88-5.06,4.58-7.4,1.8-2.43,5.03-2.69,7.54-4.01,1.92-.9,3.36-2.51,4.42-4.31,1.7-2.54,3.01-5.35,4.96-7.72.96-1.22,2.52-1.77,4.03-1.58,2.15.14,4.31.46,6.37,1.09,1.82.22,2.78-2.04,4.61-1.77,1.61.36,3.34.55,4.9-.12,3.73-1.49,6.6-4.55,10.43-5.86,5.93-2.31,12.44-2.27,18.67-1.6h0Z"/>
      <path class="st5" d="M518.29,622.99c5.08.71,1.65,6.42.02,8.89-1.05,1.6-2.64,3.59-4.45,4.29-1.36.53-3.25.5-4.72.77-1.23.22-2.99.84-4.15.75-1.71-.14-2.59-1.62-3.82-2.55-1.32-1-2.95-.72-3.66-1.75-.59-.86-.05-2.23.21-3.16.19-.65.34-1.2.72-1.78.37-.56,3.17-3.34,3.75-3.77,2.82-2.08,6.52-1.22,9.78-1.27l6.32-.43Z"/>
      <path class="st5" d="M413.7,592.09c2.64.85,2.41,1.88,4.21,3.16,1.49,1.06,3.99,1.14,5.39,1.94,1.39.79,2.03,2.34,3.42,2.96,1.14.51,2.08.28,2.99.41,1.06.16,1.8.78,2.78,1.17,1.07.42,2.76.61,3.58,1.35,1.3,1.19,2.96,5.97-.72,6.78-1.48.29-3.58-.88-4.98-1.35-1.96-.59-2.35-.23-4.12-.39l-2.95-.55c-1.46-.16-2.37,0-3.73-.79-2.46-1.42-3.97-5.28-6.38-4.45-1.43.49-1.42,1.55-2.08,2.65-.62,1.02-1.48,1.74-2.42,2.44-4.06,3.04-5.52,2.2-8.35,3.94-2.9,1.79-2.01,2.68-3.35,3.84-1.13.99-2.94.65-3.57,1.89-1.01,1.96,3.37,3.58,2,6.17-.62,1.18-2,1.96-2.51,3.26-.33.85-.18,1.81-.35,2.72-.26,1.42-.92,1.78-1.08,3.37l.02,3.39c-.17.84-.97,1.7-1.83,1.08-.93-.68-.6-2.47-.68-3.45-.21-2.54-2.27-3.07-1.33-5.72.32-.89.62-1.27.84-2.31.95-4.61-3.8-5.54-2.44-9.4.32-.9,1.95-4.72,2.5-5.23.94-.86,2.34-1.06,3.51-1.53,1.08-.42,2.94-1.47,3.92-2.1,1.7-1.1,2.68-2.89,4.2-4.21,1.55-1.35,3.97-2.57,5.18-3.95.92-1.05.86-1.84,1.42-2.99,1.49-3.08,3.38-4.82,6.9-4.12h0Z"/>
      <path class="st5" d="M381.89,579.53c2.54.46,4.06,4.84,1.11,5.21-.71.09-3.86.03-4.34-.43-1.27-1.2,1.12-3.79,2.12-4.41.51-.32.59-.26,1.12-.37h0Z"/>
      <path class="st5" d="M338.93,564.43c2.99.29,2.6,3.61.36,3.83-1.52.15-3.14-1.58-2.36-2.86.44-.71,1.26-.85,2-.97Z"/>
      <path class="st5" d="M92.59,493.16c1.98.28,6.09,1.52,7.29,3.15,1.28,1.75.4,3.93,1.99,5.25.64.53,1.75.67,2.56.91,2.84.86,3.43,3.79,2.11,6.2-.64,1.17-1.91,2.12-3,2.84-4.01,2.65-6.06,2.03-10.49,1.72-1.41-.1-3.64-.14-4.92-.57-.98-.33-1.83-.91-2.71-1.44-3.89-2.35-7.44-5.44-9.86-9.33-1.67-2.68-1.41-6.66,1.32-8.6,1.75-1.24,3.52-1.08,5.52-1.01l10.19.88Z"/>
      <path class="st5" d="M471.35,595.62l6.05,2.6,2.18,1.31c1.12.42,2.19-.02,3.31.27,1.57.41,2.32,1.8,3.95,2.04,1.36.2,2.46-.51,4.27-.16l4.81,2c2.49.78,5.65,4.55,4.38,7.23-.42.9-1.09,1.7-1.96,2.19-.98.55-1.84.53-2.91.68-2.1.3-3.88.76-5.68-.86-1.57-1.4-2.67-5.09-5.41-4.99-3.08.12-1.38,3.82-4.52,5.18-1.65.72-3.34.12-4.58.3-2.52.39-3.46,2.28-6.51,1.16-1.69-.62-2.59-1.79-4.48-2.17l-11.05.22c-1.57-.14-3.17-1.05-4.61-1.71-1.11-.51-3-.95-3.64-1.93-1.18-1.81.83-4.18,2.28-5.17l2.38-1.36c1.22-.87,1.52-2.05,3.09-2.49,1.8-.51,6.24.58,8.79-.21,2.68-.83,7.43-4.05,9.86-4.15h0Z"/>
      <path class="st5" d="M438.51,585.8c1.12.15,3.58.66,4.41,1.4.93.83,1.38,2.32,2.48,3.32,1.14,1.04,2.9,1.19,3.78,3.15,1.43,3.19-1.67,7.12-4.25,6.9l-2.62-.71c-1.6-.22-3.9.36-5.15-.75-.64-.58-1.25-1.87-1.82-2.63-1.53-2.06-2.86-1.91-3.66-6.46-.16-.89-.35-1.96.21-2.75,1.11-1.54,4.88-1.54,6.63-1.46h0Z"/>
      <path class="st5" d="M381.81,564.34c3.21-.2,3.52,3.1.96,3.63-1.94.4-3.81-2.44-.96-3.63Z"/>
      <path class="st5" d="M376.82,550.54c2.65.62,2.02,4.29-1.24,4.56-1.17.09-2.27-.73-1.82-1.98.42-1.16,1.92-2.32,3.06-2.59h0Z"/>
      <path class="st5" d="M570.67,600.31c1.84.35,5.91,3.01,5.23,5.24-.32,1.06-2.9,2.59-3.87,3.17-3.35,1.99-4.18,1.31-7.65,1.12-1.37-.08-3.09-.02-4.36-.47-3.84-1.34-3.04-3.76-1.89-6.69.62-1.59,1.07-2.85,2.76-3.65,1.7-.8,3.52,0,5.2.46,1.5.41,3.03.6,4.57.8Z"/>
      <path class="st5" d="M423.58,554.7c3.12.35,2.91,1.5,4.9,2.7l2.56.96c.82.38,1.66,1.04,2.39,1.57,2.2,1.59,4.64,3.79,3.94,6.83-.26,1.1-.52,1.59-.15,2.78.52,1.67,2.34,4.1.87,5.86-.88,1.04-2.27.95-3.27.13-1.54-1.26-1.77-3.91-4.36-2.44-1.45.83-3.34,3.12-6.46,3.88-2.59.63-5.36-.59-7.76,1.01-1.64,1.09-.93,2.15-1.15,3.58-.27,1.71-1.58,2.45-2.8,3.47-3.35,2.82-4.89,4.24-9.57,3.9-2.76-.2-5.95-3.78-5.43-6.57.29-1.58,1.73-3.42,1.79-4.02.13-1.41-1.45-2.1-.9-4.76.81-3.95,3.59-5.05,6.49-7.25l4.83-3.76,3.29-2.21c1.33-1.16,2.64-3.87,5.58-5.14,1.44-.62,3.64-.55,5.21-.52h0Z"/>
      <path class="st5" d="M401.07,545.25c3.4,1.26-.14,5.29-2.22,4.04-1.32-.79-.97-2.84.05-3.58.64-.47,1.42-.48,2.17-.46Z"/>
      <path class="st5" d="M388.27,540.74c1.93-.02,1.44,1.26,1.39,2.62-.04,1.08.26,2.43-1.05,2.92-1.19.44-1.88-.8-2.04-1.79-.25-1.49.34-3.06,1.7-3.75h0Z"/>
      <path class="st5" d="M548.9,578.83l1.05.28c2.08.42,4.78,2.39,3.6,4.86-.41.86-1.42,1.38-2.13,2.24-.71.86-.84,1.75-1.9,2.86l-3.06,2.55c-1.19,1.34-1.68,4.61-5.05,5.41-1.69.4-5.81.51-7.14-.68-1.6-1.43-1.8-4.49-3.87-4.37-1.13.07-2.14,1.28-3.37,1.9-1.77.89-2.5.17-4.39.7-1.72.47-2.77,1.48-4.04,1.4-1.41-.09-2.03-1.52-4.06-2.68l-5.96-1.92c-1.37-.63-2.68-2.02-4.21-2.15-1.33-.12-3.53.9-4.86,1.31l-6.2,1.06c-.7.02-1.23-.12-1.89-.29-1.93-.5-4.96-1.09-6.38-2.46-1.04-1-1.6-2.34-2.43-3.5-.81-1.13-2.02-2.32-2.14-3.79-.08-.94.39-1.67,1.24-2.06.98-.45,2.05-.13,3.13-.44,2.63-.75,3.31-2.6,6.67-1.54,1.97.62,3.62,1.94,5.4,2.95l5.82,2.42,4.3,1.8c1.96.43,6.64-1.36,9.43-1.5,1.83-.09,2.31.75,3.88,1.28,1.78.6,7.77-.01,9.92-.21,2.22-.22,5.86-.56,7.71-1.76,1.83-1.19,2.07-2.74,3.89-3.48,1.59-.65,5.27-.3,7.07-.21h0Z"/>
      <path class="st5" d="M470.08,554.68c.65.06,1.28.12,1.84.5,1.51,1.07,2.52,4.85,2.13,6.62-.23,1.06-1.33,3.71-1.98,4.53-.55.7-1.35,1.18-2.18,1.48-.96.35-6.7.95-7.86.93-1.06-.02-2.06-.24-2.82-1.04-.93-.99-1.21-2.35-2.58-2.93l-2.36-.64c-1.01-.36-1.61-.99-2.8-1.11-1.22-.13-3.33.56-5.06-.05-1.15-.41-3.95-2.95-4.86-3.89-.33-.34-.58-.64-.84-1.03-1.83-2.78.23-3.82.54-5.71.29-1.7-.5-3.03,1.55-3.97,2.82-1.29,4.07,1.15,6.2,1.95,1.08.41,1.95.12,3.23,1.58,1.17,1.34,1.36,2.8,2.5,3.26,1.28.53,3.64-.92,5.66-1.15,2.07-.23,2.37.62,3.99.86,1.83.27,3.83-.2,5.68-.18h0Z"/>
      <path class="st5" d="M577.12,577.64c1.86.8,1.99,2.11,3.23,2.64.68.29,1.48.08,2.22.14,1.62.12,3,.95,3.8,2.39,1.76,3.17-1.06,5.27-3.67,6.46-3.34,1.52-5.01.45-8.29.42-2.51-.02-5.67.51-8.09-.3-5.03-1.69-4.87-6.84-1.09-9.84,1.94-1.55,4.88-1.19,7.28-1.53,1.79-.25,2.76-.73,4.61-.38h0Z"/>
      <path class="st5" d="M538.78,562.16c3.32-.01,6.05,1.94,8.5,3.96,1.03.85,2.15,1.51,2.33,2.98.2,1.57-1.02,2.36-1.47,4.13-.18.73-.33,1.67-1,2.12-.7.47-1.63.26-2.38.03-1.4-.43-4.86-2.71-5.64-3.92-.92-1.43-.3-2.3-1.03-4.08-.86-2.1-2.86-4.3.69-5.21h0Z"/>
      <path class="st5" d="M577.01,567.68c1.65.17,5.89,1.38,6.86,2.68,1.52,2.04,1.05,5.03-1.93,5.07l-5.43-.74c-1.35-.04-2.94.33-4.09-.49-1.61-1.15-2.3-3.8-.59-5.18,1.14-.92,3.73-1.31,5.18-1.34Z"/>
      <path class="st5" d="M606.4,568.39c2.58.15,2.8,2.15,3.68,4.18.48,1.12,1.14,2.6.53,3.81-.47.93-1.44,1.3-2.39.87-.96-.42-1.93-1.72-2.72-2.45-.84-.78-2.11-1.39-2.64-2.33-1.36-2.41,1.63-3.78,3.54-4.09h0Z"/>
      <path class="st5" d="M741.55,593.66c.09,1.76-.71,3.38-1.09,5.06-2.26,8.29-4.5,16.59-6.77,24.88-.25,1.05-.89,1.98-1.83,2.52-1.81,1.34-3.42,2.93-5.13,4.4-1.87,1.76-4.08,3.09-6.24,4.46-1.84,1.07-3.8,2.41-6.04,2.14-1.12-.11-2.56-.24-3.25.86-.78,1.38-.14,3.07-.86,4.47-.64,1.62-2.27,2.87-4.05,2.76-1.58.02-3.16-.24-4.72.05-2.18.24-4.36.55-6.55.75-1.95-.06-4.15-.64-5.87.58-2.01,1.32-3.97,2.71-6.01,3.99-1.25.75-2.75,1.23-3.65,2.43-.68,1.18-.44,2.69-1.25,3.83-.99,1.7-2.62,3-4.53,3.5-2.33.61-4.66,1.28-6.95,2.04-1.6.62-3.31,1.25-5.05.82-2.77-.62-5.62-1.34-7.99-2.96-1.47-.96-2.48-2.78-1.98-4.56.44-1.49,1.27-2.85,2.15-4.13.59-.68,1.71-1.46,1.15-2.5-.74-1.21-1.89-2.24-2.08-3.73-.25-1.68.74-3.29.36-4.98-.34-2.3-2.13-4.21-1.97-6.62-.04-1.93,1.37-3.52,1.37-5.43-.23-1.55-.95-2.99-1.2-4.55-.38-1.89-.59-3.87-.02-5.75.3-1.58.05-3.18.05-4.77-.04-.84-.08-1.69.1-2.52.39-2.61.74-5.23,1.17-7.84.96-3.39,3.64-6.11,6.7-7.73,1.56-.78,3.46-1.44,5.14-.6.69.46,2.14.87,2.2-.4-.19-1.44-1.1-2.84-.62-4.33.26-1.43,1.34-2.45,2.31-3.45.83-.98,1.45-2.14,2.27-3.12,2.15-1.93,5.07-2.68,7.85-3.16,1.71-.28,3.64-.37,5.09.75,1.84,1.28,3.58,2.76,4.92,4.56,1.12,1.68,1.91,3.56,2.81,5.37.62,1.29.86,2.78.4,4.16-.91,2.88-.76,5.98-1.76,8.83-.53,1.38-1.85,2.21-2.56,3.47l-1.16,3.28c-.46,1.02-2.01,1.32-2,2.57.18,1.13.78,2.44-.07,3.46-1.35,1.77-4.17,1.18-5.42,3.08-1.01,1.8-1.86,3.72-2.31,5.74-.38,1.32.3,2.62,1.19,3.57.91.89,1.56,2.09,2.7,2.72,1.33.55,1.99-1.12,2.31-2.09.6-1.75,1.17-3.62,2.64-4.85,1.62-1.49,3.49-3.2,5.87-3.06,1.68.05,3.23.74,4.8,1.26,1.27.27,2.22-.91,2.24-2.09.17-1.42,0-3.01.97-4.2,1.43-2.06,4.06-2.51,6.25-3.34,2.38-.85,4.78-2.44,5.52-4.99.35-1.36,1.06-2.75,2.4-3.35,1.84-.87,3.9-1.11,5.82-1.75,2.31-.71,4.71-1.16,7.14-1.14,2.21-.11,4.48,0,6.63-.62,1.14-.26,1.72-1.44,1.42-2.53-.22-1.1-.04-2.48,1.07-3.04,1.86-1.06,3.97-1.53,5.98-2.19h0Z"/>
      <path class="st5" d="M135.64,419.85c2.32.06,2.27,1.11,4.01,1.77.96.36,1.7.12,2.4.47,1.2.61,1.5,2.54.2,3.12-.6.27-1.01.04-1.57-.11-1.7-.48-3.86.2-5.2-.55-1.74-.97-2.64-3.95.16-4.7Z"/>
      <path class="st5" d="M132.82,413.92c1.2.31,1.8,1.36,1.67,2.59-.05.49-.3,1.47-.96,1.42-.87-.07-2.2-3.23-.72-4.01Z"/>
      <path class="st5" d="M130.6,402.15c3.08.38,1.63,3.18,1.49,4.13-.18,1.2.21,2.81-1.52,3.04-1.57.21-2.44-1.05-2.55-2.46-.15-1.97.51-4.14,2.58-4.71h0Z"/>
      <path class="st5" d="M168.52,403.75c.13.05.31-.06.69.19.7.31,2.26,2.61,2.04,3.4-.2.74-1.19,1.15-1.87,1.3-3.36.76-3.53-3.57-.87-4.89h0Z"/>
      <path class="st5" d="M135.05,393.96c1.1.18,2.49.61,3.06,1.68,1.1,2.04-1.15,4-3.13,3.75-2.55-.32-4.55-3.86-2.16-5.19.69-.39,1.48-.29,2.23-.24Z"/>
      <path class="st5" d="M104.74,382.15c3.31.33.29,3.55-1.25,3.54-.92,0-1.26-1.08-1.02-1.83.33-1.03,1.31-1.48,2.26-1.71h0Z"/>
      <path class="st5" d="M145.48,392.95c1.03.39,1.55,1.05,1.64,2.19.1,1.37-1.02,1.81-2.03,1.29-1.49-.77-2.09-3.35.39-3.48h0Z"/>
      <path class="st5" d="M150.12,391.46c2.62-.04,2.72,2.99.94,3.5-2.35.68-3.76-2.33-.94-3.5Z"/>
      <path class="st5" d="M624.16,519.64c2.56.22,4.94,1.76,5.05,4.59.03.71-.27,1.71-.47,2.41-.5,1.77-1.79,4.23-3.95,4.15-3.04-.1-1.87-3.79-2.08-4.95-.37-2.02-2.83-4.71.28-5.98.49-.2.68-.17,1.17-.23h0Z"/>
      <path class="st5" d="M110.17,373.57c2.47.19,1.47,3.33-.47,3.74-1.43.3-2.11-.81-1.6-2.08.4-.99,1.14-1.35,2.07-1.67Z"/>
      <path class="st5" d="M673.04,516.06c2.74.73,3.96,2.84,4.8,5.34.32.95.72,1.92.45,2.94-.27,1.01-1.69,2.55-2.46,3.28-.66.63-2.58,2.26-3.33,2.66-1.51.8-4.39,1.16-6.02.56-1.74-.64-4.32-2.14-4.87-4-.31-1.05.08-1.68-.37-3.2-.73-2.47-1.89-3.39-.97-6.18,1.09-3.26,4.93-3.61,7.76-2.66l2.51,1.12c.78.2,1.69.07,2.5.13h0Z"/>
      <path class="st5" d="M693.4,507.49c1.71.19,4.28,2.16,3.48,4.14-.69,1.72-3.46,2.27-5.07,1.69-.81-.29-3.84-2.05-4.3-2.69-.84-1.17-.78-2.83.67-3.48,1.3-.58,1.98.23,2.94.42.66.13,1.58-.04,2.28-.09h0Z"/>
      <path class="st5" d="M671.52,498.85c1.74.57,2.93,3.67,2.35,5.41-.42,1.27-2.16,2.15-3.4,1.52-2.22-1.13-2.09-6.49,1.04-6.93h0Z"/>
      <path class="st5" d="M691.39,499.38c1.28.12,2.96,1.02,3.28,2.39.37,1.61-1.64,2.85-3.38,2.09-1.73-.76-2.65-3.78.1-4.48Z"/>
      <path class="st5" d="M692.39,488.45c4.13-.17,6.36,7.28.8,6.35-3.21-.54-4.44-4.93-.8-6.35Z"/>
      <path class="st5" d="M688.46,484.22c2.47.4,1.94,2.63.36,2.74-1.4.1-3.11-2.13-.36-2.74Z"/>
      <path class="st5" d="M102.06,319.51c1.31.58,1.42,2.5,1.61,3.8.1.72.06,1.67-.92,1.63-2.21-.1-2.33-4.32-1.6-5.06.37-.38.49-.28.91-.37h0Z"/>
      <path class="st5" d="M108.6,320.17c1.8,1.48-.85,3.7-2.15,2.87-1.39-.88-.6-3.52,2.15-2.87Z"/>
      <path class="st5" d="M187.68,644c1.21-2.5,3.26-3.14,3.99-5.4.47-1.45.35-3.09,1.15-5.04.76-1.83,2.09-2.22,3.16-4.22l1.65-4.91,4.91-8.53c1.23-2.2,4.14-7.95,5.93-9.36,1.87-1.47,6.56-1.58,8.82-.99,1.79.46,4.37,1,5.41,2.68.67,1.07,1.16,3.97,2.11,5.08,1.18,1.38,2.84.13,4.68,2.28.8.93,1.02,1.8,1.35,2.95,1.38,4.84.28,5.75,1.07,8.73.35,1.35.75,1.45,1.47,2.5,3.01,4.43,4.51,4.31,7.63,7.79,1.08,1.2,2.22,3.41,3.74,3.87,1.09.33,2.16-.05,2.93-.86l2.06-3.09c.98-1.23,3.86-4.04,5.09-5.1,1.08-.92,2.6-2.23,3.86-2.8,1.44-.66,8.42-1.71,10.41-2.02,3.08-.48,4.55-1.09,7.67-.21,3.07.87,5.83,2.56,8.38,4.41,1.2.87,2.31,1.57,2.99,2.95,1.4,2.86.01,6.39,2.04,7.59,1.43.85,4-1.48,5.13-2.31,1.27-.92,4.9-3.35,5.66-4.38.81-1.1.86-2.37,1.35-3.58.46-1.14,2.2-3.41,3.11-4.23,1.79-1.62,5.15-1.88,6.01-4.28.46-1.29-.75-2.27-1.49-3.16l-1.69-2.07c-1.39-1.38-2.52-1.41-3.61-3.95-1.55-3.6.61-5.2.24-8.67-.17-1.64-1.03-3.24-1.74-4.7-1.23-2.52-2.44-5.97-5.1-7.3-1.25-.62-2.26-.36-3.54-.45l-3.94-1.07-3.61-1.22c-1.53-.29-2.8-.17-4.2-1.14-1.79-1.34-2.52-3.65-3.3-4.64l-2.91-2.6c-.8-.81-2.02-2.68-2.63-3.69l-1.32-2.53-2.43-4.32c-1.33-2.63-1.85-4.61-3.75-7.1-2.21-2.89-5.92-5.2-9.15-6.76-2.78-1.34-5.76-2.36-8.07-4.49-1.09-1.01-1.59-2.63-2.13-3.99-.8-2-2.35-5.39-3.96-6.8-1.14-1-2.58-.79-4-.82-4.67-.09-6.09,1.03-9.86,1.04-1.46,0-2.76.07-4.01-.8-1.48-1.04-3.42-3.4-4.17-5.04-.85-1.86-.68-2.92-2.11-5.02-.85-1.25-2.54-2.63-3.88-3.36-.88-.48-2-.78-2.65-1.55-1.19-1.4-.94-4.13-.42-5.78l2.73-7.15c.36-.92.87-2.53,1.54-3.23.63-.66,4.15-1.75,5.38-2.33,1.72-.82,3.24-1.81,5.13-2.28,1.28-.32,3.71-.26,5.17-.34,1.63-.09,3.74-.25,5.29.23,1.21.38,2.09,1.12,3.2,1.7l6.22,3.03,7.51,3.49c1.65.53,4.73.49,6.14,1.24,3.05,1.63,2.61,6.08,1.82,8.84-.68,2.39-3.26,5.62-5.39,6.9-.97.58-3.21,1.16-2.99,2.11.2.89,2.09,1.69,2.92,1.74,1.93.13,3.75-2.07,6.46.09,1.94,1.55,3.62,5.7,4.89,7.94,1.97,3.48,4.05,5.62,7.07,8.18,1.06.9,4.85,3.67,6.12,2.41.52-.51.47-1.6.63-2.32.2-.91.52-1.77,1.07-2.53.4-.54.79-.92,1.39-1.25,1.03-.56,2.04-.62,3.11-.16,2.83,1.22,3.44,4.49,4.66,7,.35.73.92,1.81,1.54,2.34,1.44,1.23,3.86-.23,5.88,2.17,1.21,1.45,1.09,2.59,1.31,4.26l1.06,8.82c.27,2.42.23,4.1,2.39,5.73,1.77,1.34,5.02,1.39,7.17,1.59l14.32,1.22c1.03-.05,2.83-.41,3.85-.68,4.64-1.21,7.61-4.1,12.79-2.47,3.13.99,5.17,3.11,6.86,5.85,1.38,2.24.62,3.44,1.56,3.7.8.22,1.41-.91,1.8-1.43.74-.99,1.62-1.84,2.96-1.66,2.41.32,4.88,4,7,4.3,2.1.3,5.39-1.71,6.8-3.16,1.09-1.12,2.14-2.96,4.02-2.45,2.28.62,1.94,3.71,3.07,6.35.34.81.85,2.18,1.93,2.1,1.07-.08,1.99-1.63,3.63-1.85,1.4-.09,2.38.96,3.67,1,1.55-.07,3.3-1.31,4.66-1.58,1.96-.39,10.09,1.86,8.19,6.61-.62,1.55-1.93,2.1-3.75,5.74-1.17,2.48-.57,3.44-1.28,4.72-.56.89-1.51,1.4-2.55,1.4-.77,0-1.46-.29-2.04-.8l-2.32-2.88c-1.35-1.3-3.87-2.34-5.39-.77-1.43,1.47.09,2.97,0,4.78-.06,1.15-.4,1.34-.02,2.81.43,1.68,1.41,2.53,1.7,4.41.29,1.89-.45,2.95.06,4.81.49,1.79,1.95,3.31,1.72,5.26-.3,2.61-3.16,2.9-5.11,5.09-1.54,1.72-1.24,3.38-1.65,5.47-.39,1.96-1.69,2.87-1.97,3.97-.39,1.54.83,3.58,2.47,3.69,1.7.11,3.64-1.14,4.88-1.36,1.66-.3,3.47.85,4.51,2.06,2.28,2.65.41,4.08.07,5.34-.41,1.52.17,4.16,1.28,5.3.83.85,3.91,1.91,5.42,2.84,2.8,1.74,3.16,3.03,4.8,4.11,1.46.97,1.85.78,3.36,1.11,2.07.45,3.92,2.04,4.62,4.05.49,1.39,0,1.93,1.75,4.66,1.13,1.75,4.15,5.08,4.73,6.7.82,2.14-.87,3.82-1.57,5.76-.59,1.53-.33,3.03-.83,4.28-.69,1.74-2.05,2.43-2.73,3.77-1.23,2.39-.03,4.06.94,6.17.29.64.71,1.94,1.15,2.41.56.6,1.13.49,1.74.02l1.73-2.03,2.65-2.1c1.6-1.5,1.33-2.85,2.74-4.33,1.47-1.53,3.67-1.66,5.39-2.77,1.78-1.15,3.2-3.83,6.16-4.9,2.26-.82,4.29.34,6.62-.54.79-.3,1.85-.89,1.98-1.82.27-1.85-2.92-4.33-4.25-5.38-1.57-1.24-5.68-4.16-6.65-5.57-.58-.83-.96-1.86-1.33-2.8-.72-1.84-.91-2.41-.41-4.34.58-2.24,2.24-5.91,4.09-7.34l5.8-3.21c2.18-1.36,4.07-3.26,6.7-3.82,2.95-.62,5.15.54,6.67.34,2.09-.27,3.62-1.9,6.42-1.84,1.32.03,3.37.26,4.59.72,1.64.62,3.1,1.71,4.92,1.58,2.71-.19,6.28-1.58,9.44-1.54,3.93.05,4.32,1.39,6.39,1.38l4.68-.65c1.17-.08,4.2.91,5.25,1.43.94.55,2.85,2.31,3.66,3.11,1.85,1.82,6.06,7.08,7.62,9.28.83,1.16,2.79,4.86,4.35,4.61,2.74-.44,1.17-4.59,2.25-6.88,1.42-3.01,4.22-.64,5.6-2.71.5-.75.16-1.98-.01-2.82-.37-1.9-.7-2.61-.09-4.53l5.97-12.47c.76-1.56,1.58-4.54,2.54-5.79,2.04-2.66,5.36-1.75,7.01-3.45,1.02-1.05.19-2.3.88-4.26.72-2.05,1.68-5.46,3.92-6.22,1.74-.59,2.97.68,4.77-.75,1.68-1.33,2.37-5.01,3.68-6.29,2.81-2.73,8.43-.01,11.52.86,1.8.51,6.07,2.23,7.57,3.26,1.49,1.02,1.87,2.44,3.66,3.12,3.29,1.26,6.04-1.84,8.47-3.56,2.39-1.69,5.15-3.45,8.2-2.82,1.03.21,1.42.52,2.31.84l.78.21c2.98.4.34-3.09,2.84-4.04,2.51-.96,4.7,2.8,6.93,2.19.94-.25,1.14-1,1.38-1.83l1.47-4.39,1.07-3.94,1.09-5.06.95-4.53,1.64-6.03c1.04-3.64,1.99-4.21,5.45-5.52,1.03-.39,2.24-.85,3.34-.88,1.45-.05,3.67.64,4.96.4,1.16-.21,2.05-.86,2.96-1.57l6.53-5.27c1.31-1.56.92-2.5,1.93-3.98.8-1.18,3.96-3.84,5.19-4.79,3.59-2.78,7.72-4.9,11.56-7.28l12.84-7.78,6.09-3.69,7.07-3.19c3.04-1.61,3.76-2.98,5.36-5.84.53-.95,1.24-2.22,1.59-3.23l1.12-3.08c.72-2.07.51-3.23,2.52-4.67,2.06-1.47,7.51-3.24,10.12-4.42l6.63-3.66c3.88-1.94,6.5-2.65,10.73-3.21,2.03-.27,5.62-.84,7.53-.77,3.09.12,7.59.9,10.52-.3,3.26-1.39,1.23-3.62,1.66-6.09.16-.62.46-1.2.72-1.77,1.29-2.82,2.25-3.58,5.23-4.65l6.65-1.67,4.72-1.82c1.41-.42,2.94-.53,4.26-1.17,2.04-.99,2.3-2,3.82-3.13,1.19-.88,4.31-2.15,5.8-2.19.73-.02,1.69.27,2.41.47,1.37.4,4.49,2.21,4.97,3.5.2.55.7,4.98.55,5.53-.49,1.79,18.45,2.9,20.81,10.27,2.72,8.48-4.8,19.27-12.6,23.56-5.51,3.03-12.82.54-18.79-1.4-.81-.26-1.4-.98-2.17-1.34-1.72-.81-5.42-1.85-5.42-1.85-2.48-.71-4.81-1.91-7.45-1.61-.82.09-2.28.36-2.75,1.11-.55.86.64,3.54.99,4.48,1.81,4.91,1.78,6.56,2.69,11.44.31,1.65.85,5.65.6,7.21-.25,1.59-.72,2.25-1.21,3.62l-.78,2.89-3.67,8.3c-.92,2.99.5,5.8-.97,7.32-.98,1.02-3.13,1.09-4.49,1.3-3.5.54-7.6,2.18-11.05,1.26l-1.84-.5-12.23-1.64c-2.38-.71-3.73-2.14-4.94-2.57-1.28-.46-4.34-.09-5.69.21-4.17.94-6.2,2.57-9.82,3.99l-11.34,3.37c-3.55,1.07-6.48,2.43-10.22,1.33-1.28-.38-2.98-1.43-4.11-1.44-1.32-.02-3.32.95-4.61,1.41-2.15.77-2.58.72-4.76.93-1.89.18-5.57.11-6.94,1.45-1.02,1-.24,2.27.11,3.4.75,2.45.68,4.72.72,7.24l-.26,20.5-.33,6.96c-.06,1.28-.02,2.91-.44,4.11l-1.5,3.82-3.26,8.41-2.53,5.51-1.41,8.07c-.65,1.78-3.15,4.41-4.34,6.15-1.03,1.51-1.78,3.42-3.36,4.39-1.48.91-6.27,2.17-7.98,1.73-2.84-.73-4.45-2.78-7.67-1.85-.7.2-1.49.52-2.06,1.01-1.03.95-.91,2.37-.99,3.66-.21,2.19-.32,3.96-1.81,5.71-3.93,4.62-7.37,5.18-12.5,7.9-3.44,1.82-2.97,2.63-4.89,3.97-1.12.78-2.15.85-3.3,1.68-2.47,1.77-2.36,5.6-5.69,6.01-1.6.2-5.35-.29-6.74-1.12-.99-.6-1.92-1.8-3.27-2.47-.85-.45-2.59-.64-3.67-1l-4.46-1.21c-2.04-.94-6.11-2.96-8.11-3.33-2.46-.45-5.88.71-8.08-.35-1.59-.77-3.95-2.72-5.09-4.07-1.55-1.83-3.4-4.41-6.06-4.66-1.88-.19-2.83,1.47-4.08,2.53-1.15.97-3.19,2.19-4.63,2.59-2.19.61-4.93.2-5.65,3.07-.39,1.55.34,2.95,1.13,4.23,1.53,2.46,4.12,4.85,5.11,7.61.62,1.73-.36,2.96-.82,4.57-.32,1.13-.53,2.36-1.22,3.33-1.25,1.76-3.68,2.58-5.5,4.14l-5.27,5.32c-1.56,1.01-6.76,2.12-8.86,2.73-3.85,1.12-6.84,2.98-10.97,3.04-3.24.04-3.73-.03-6.8-.88l-2.84-.95c-.91-.2-3.01-.71-3.77-.2-.9.6-.51,1.56-.23,2.39,1.16,3.51.75,3.58-.18,6.99-.61,2.25-45.27,11.37-67.82,8.2-23.06-3.24-41.87-21.09-64.34-27.18-23.96-6.49-49.7-3.82-73.84-9.6-22.59-5.41-44.74-13.24-65.69-23.29-5.94-2.85-12.66-5.26-16.8-10.38-4-4.93-7.41-15.92-6.44-17.93h0ZM568.67,630.53c-.79.21-1.13.3-1.47,1.12l-.57,2.1c-.38,1.34-1.94,3.78-.45,4.91.79.6,1.77-.01,2.47-.44,1.37-.82,2.51-1.56,4.19-1.32,3.33.48,6.88,5.55,9.89,7.14.91.48,2.05,1.15,3.09,1.05,2.64-.25,4.08-2.84,3.22-5.25-.78-2.2-2.04-3.08-4.17-3.67l-7.95-1.87c-1.26-.28-2.19-.2-3.47-.72-2.26-.92-2.53-2.82-4.79-3.05Z"/>
      <path class="st5" d="M687.1,466.4c.84.31,1.25.56,1.65,1.41.83,1.79-.59,2.84-1.78,3.93-.69.63-1.54,1.57-2.56,1.44-1.43-.18-2.04-1.9-1.61-3.14.58-1.7,2.48-3.63,4.31-3.64h0Z"/>
      <path class="st5" d="M686.19,456.27c3.02.42,3.42,3.71.67,3.73-2.41.02-4.06-3.04-.67-3.73Z"/>
      <path class="st5" d="M731.07,419.73c2.42.49,1.87,3.3-.11,3.46-1.28.11-2.17-1.2-1.76-2.23.34-.84,1.08-1.07,1.86-1.23Z"/>
      <path class="st5" d="M733.02,414.68c2.39.08,1.94,2.57.12,2.59-1.16.02-2.37-1.67-.12-2.59Z"/>
      <path class="st5" d="M94.72,232.4c-.26.54-.58,1.25-1.01,1.67-.31.3-.62.46-1.03.59-4.27,1.38-3.07-4.52.63-3.29.6.2.97.61,1.41,1.03h0Z"/>
      <path class="st5" d="M504.53,339.87l.26.07-.33.19.07-.26Z"/>
      <path class="st5" d="M776.38,410.61c3.21,1.47.68,4.65-1.38,4.04-1.33-.39-2.3-2.39-1.21-3.5.74-.76,1.64-.7,2.59-.54Z"/>
      <path class="st5" d="M773.55,404.44c3.23.62,1.18,4.4-.88,4.24-1.28-.1-2.12-1.7-1.55-2.82.5-1,1.4-1.32,2.43-1.42Z"/>
      <path class="st5" d="M122.54,222.29c2.87,1.88-2,4.88-3.46,4.49-1.22-.33-1.29-1.68-.64-2.59.93-1.3,2.55-1.98,4.1-1.9h0Z"/>
      <path class="st5" d="M708.73,374.49c3.65.23,1.99,6.1-.71,4.57-1.54-.87-1.95-3.8.71-4.57Z"/>
      <path class="st5" d="M101.27,174.1c3.01.42.82,3.81-.51,3.83-1.35.02-2.61-2.05-1.75-3.18.45-.59,1.58-.6,2.26-.65Z"/>
      <path class="st5" d="M384.01,172.65c1.71.9.35,3.13-.73,4.06-2.19,1.9-3.22.7-4.91,1.16-.93.26-1.78.95-2.77.88-.78-.06-4.5-2.26-2.88-3.27l1.97-.65,2.58-1.2c1.07-.36,2.11-.3,3.22-.45,1.2-.17,2.3-.58,3.52-.53h0Z"/>
      <path class="st5" d="M238.35,122.83c3.29.46,1.62,3.35-.35,3.35-1.34,0-2.11-1.5-1.38-2.56.46-.67,1.01-.7,1.73-.79Z"/>
      <path class="st5" d="M212.32,117.28c-.58-.26-2.16-.9-2.46-1.24-.67-.78-.04-3.37.99-3.65,1.72-.46,1.6,1.73,1.68,2.69.04.48.17.94,0,1.41-.03.46-.17.55-.21.79h0Z"/>
      <path class="st5" d="M301.77,134.17c1.88.21,2.24,1.23,3.59,2.34,1.06.87,2.51,1.49,2.54,3.09.02,1.25-1.95,3.64-3.28,2.72-.7-.48-1.34-2.07-1.49-2.89-.08-.43-.02-1.2-.29-1.54-.69-.87-1.95.71-3.24.14-.89-.39-1.09-1.46-.67-2.28.56-1.09,1.72-1.44,2.83-1.58h0Z"/>
      <path class="st5" d="M329.22,139.96c3.52.57,3.65,5.48-.49,4.92-3.28-.44-3.53-4.44.49-4.92Z"/>
      <path class="st5" d="M240.63,111.32c3.57.56,2.68,3.33,1.4,5.58-1.66,2.93-2.44,4.28-6.03,3.14-1.47-.47-2.71-2.05-1.69-3.53.42-.61,1.15-.79,1.45-1.35.29-.56-.03-1.24.23-1.88.6-1.46,3.24-1.94,4.63-1.97Z"/>
      <path class="st5" d="M355.65,140.48c2.68-.12,2.81,3.53,1.28,3.99-1.66.5-3.44-2.66-1.28-3.99Z"/>
      <path class="st5" d="M218.98,102.96c2.13.16,1.74,1.56.6,1.71-1.19.17-2.63-1.1-.6-1.71Z"/>
      <path class="st5" d="M361.76,140.74c2.11.13,2.62,3.59.77,4.04-2.24.55-3.09-2.89-.77-4.04Z"/>
      <path class="st5" d="M245.35,108.83c1.71.18,4.13,3.02,5.98,3.6,1.21.38,2.46-.31,3.25.33.99.8.39,3.16-1.43,3.33-1.55.14-2.44-1.4-3.44-1.85-1.29-.57-2.81.49-4.13-1.29-.8-1.08-1.64-3.29-.22-4.12h0Z"/>
      <path class="st5" d="M390.55,144.63c1.99.2,2.04,2.52.55,2.88-1.55.37-2.66-1.91-.55-2.88Z"/>
      <path class="st5" d="M222.36,89.62c1.23.21,1.32,1.19,1.44,2.32.2,1.96-.99,3.69-2.96,4.1-1.54.32-2.01-.63-1.7-1.99.36-1.53,1.77-3.81,3.22-4.43Z"/>
      <path class="st5" d="M268.72,98.25c1.05.45,1.88,2,1.2,3.11-.86,1.39-3.03.23-4.1.8-.83.44-.74,1.65-1.73,1.54-1.17-.14-1.63-1.59-1.15-2.53.65-1.25,2-1.01,3.09-1.53,1.21-.58,1.2-1.17,2.7-1.39Z"/>
      <path class="st5" d="M383.6,115.1c1.59-.04,2.42.88,1.8,2.46-.51,1.31-2.44,3.57-3.84,3.96-2.36.65-2.48-1.66-1.89-3.27.61-1.66,2.33-2.62,3.92-3.15h0Z"/>
      <path class="st5" d="M383.03,101.7c2.05-.09,3.39,1.54,1.86,2.08-.52.18-2.52.52-2.98.22-1.16-.76.39-2,1.12-2.3h0Z"/>
      <path class="st5" d="M322.7,77.08c.39.04.56-.07.96.26.48.26.58.77.34,1.27-.29.59-1.13,1.02-1.61,1.81l-1.39,3.85c-.18.5-.32,1.21-.87,1.45-.7.3-3.35-.41-2.76-2.16.19-.56.96-1.32,1.31-1.89l.76-1.48c.62-.97,2.22-2.57,3.26-3.1h0Z"/>
      <path class="st5" d="M365.53,87.25c1.29.32,2.11,1.09,2.39,2.45.24,1.18-.36,2.63-1.75,2.46l-1.31-.36c-1.42-.4-2.21-.22-3.58-1.33-.65-.53-1.16-1.35-.64-2.16.7-1.1,3.69-1.11,4.89-1.06Z"/>
      <path class="st5" d="M327.71,71.18c1.42.48.92,1.47.28,1.5-.69.03-1.51-1.07-.28-1.5Z"/>
    </g>
    <g id="Railroad">
      <path class="st1" d="M81.99,143.96s449.87,123.09,466.63,127.14c16.77,4.05,38.13,1.72,47.78.01,9.65-1.71,28.8-4.3,43.09-16.88,14.29-12.58,39.45-36.06,55.61-51.64,16.16-15.58,41.58-41.74,41.58-41.74"/>
      <path class="st1" d="M102.8,167.25l153.68,42.48"/>
      <path class="st1" d="M95.79,193.04l153.71,42.35"/>
      <path class="st1" d="M200.08,193.84l41.56,25.71"/>
      <path class="st1" d="M192.77,219.69l48.74-.18"/>
      <path class="st1" d="M99.15,180.67s393.86,107.22,411.63,112.05c17.77,4.82,31.63,5.66,48,3.54,16.38-2.12,28.13-5.27,40.07-12.05,11.94-6.78,36.28-25.68,36.28-25.68"/>
    </g>
    <g id="Concrete">
      <path class="st10" d="M547.19,386.33c1.43,0,4.26.95,5.77,1.36l56.41,15.34c.9.25,3.46.78,4,1.42.62.73.16,1.93-.06,2.75l-21.9,80.55c-.73,2.66-1.01,2.82-3.67,2.1l-60.09-16.33c-.9-.25-3.46-.78-4-1.42-.62-.73-.16-1.93.06-2.75l21.19-77.93c.25-.91.98-4.05,1.46-4.61.34-.4.42-.32.83-.48h0Z"/>
      <path class="st10" d="M311.86,319.89l58.78,15.98c.9.25,3.46.78,4,1.42.62.73.16,1.93-.06,2.75l-18.76,69.01-1.57-.43-5.71,20.99,1.58.43-7.7,28.34-.98,1.78-2.55-.2-31.49-8.56-6.06,22.3,4.46,1.21-5.35,19.68-33.06-8.99-1.45-.85.4-2.54.79.21,29.6-108.89-.79-.21,1.86-6.82,1.31.36,12.77-46.97Z"/>
      <path class="st10" d="M135.02,223.07c1.63-.09,4.92,1.05,6.63,1.52l66.91,18.19c2.18.64,2.6,2.22,3.68,4.1,1.26,2.2,1.61,2.34.96,4.77l-3.35,12.33c-.7,2.57-1.26,2.5-3.57,3.82-2.31,1.32-2.53,1.84-5.1,1.15l-71.11-19.33c-2.42-.67-2.55-1.74-3.75-3.84-1.32-2.31-1.84-2.52-1.15-5.1l3.35-12.33c.15-.55.33-1.34.66-1.79.71-1.01,4.61-3.06,5.85-3.48Z"/>
      <path class="st10" d="M285.7,260.65l-18.37-4.99c-3.08-.84-3.11-2.02-2.34-4.86l3.78-13.91c.41-1.5.89-4.38,2.15-5.3,1.38-1,3.7-.44,5.22-.03l170.55,46.37c.77.22,1.62.43,1.99,1.23.37.78-.01,1.85-.23,2.64l-5.14,18.89c-.33,1.11-.67,1.92-1.98,2.07-.79.09-2.86-.57-3.72-.8l-7.35-2c-1.02,3.75-.83,4.55-3.57,3.82l-13.91-3.78c-2.29-.64-2.23-1.1-1.65-3.27l.5-1.84-39.1-10.63c-.26.95-.78,3.73-1.59,4.19-.64.37-1.65,0-2.32-.18l-10.5-2.85c-.26.95-.78,3.73-1.59,4.19-.64.37-1.65,0-2.32-.19l-11.8-3.21c-2.14-1,.09-3.04-.62-4.58-.4-.87-1.47-1.05-2.3-1.28l-7.61-2.07c-.72-.2-1.66-.38-1.93-1.17-.24-.73.62-3.33.85-4.19l-26.24-7.13c-.28,1.04-.75,3.93-1.82,4.29-.57.19-1.52-.13-2.09-.28l-14.17-3.85c-2.51-.73-1.82-1.61-.82-5.29h0Z"/>
      <path class="st10" d="M317.71,205.11l-34.64-9.42c-.79-.23-1.4-.4-1.86-1.16-.69-1.13-.27-2.4.04-3.56l3.78-13.91c.41-1.5.89-4.38,2.15-5.3,1.38-1,3.7-.44,5.22-.03l170.55,46.37c.77.22,1.62.43,1.99,1.23.37.78-.01,1.85-.23,2.64l-4.99,18.37c-.77,2.82-1.56,2.95-4.27,2.22l-22.04-5.99-1.5,5.51,19.15,5.21c1.41.38,5.33.99,5.76,2.48.2.7-.13,1.7-.32,2.38l-4.99,18.37c-.77,2.82-1.56,2.95-4.27,2.22l-167.67-45.58c-1.06-.29-5.36-1.33-5.99-1.8-.43-.32-.68-.7-.85-1.21-.32-.98.04-2.04.3-3l3.78-13.91c.41-1.5.89-4.38,2.15-5.3,1.38-1,3.7-.44,5.22-.03l32.01,8.7,1.5-5.51ZM429.49,235.49l-107.84-29.32-1.5,5.51,107.84,29.32,1.5-5.51Z"/>
      <path class="st10" d="M475.01,164.75l5.76,1.28,1.57.88-.18,2.32-8.06,29.65-.88,1.57-2.32-.18-3.67-1-1.57-.88.2-2.31,8.34-30.68.8-.64Z"/>
      <path class="st10" d="M428.51,138.86c1.36-.13,4.34.86,5.76,1.28.56.16,1.26.33,1.57.88.37.64,0,1.65-.18,2.32l-11.56,42.51c-.17.62-.35,1.49-.95,1.83-.64.37-1.65,0-2.32-.18l-3.15-.86c-.67-.18-1.72-.38-2.09-1.02-.37-.64,0-1.65.18-2.32l11.2-41.2c.33-1.21.41-2.55,1.53-3.24h0Z"/>
    </g>
    <g id="Bunker_entr">
      <path class="st7" d="M196.62,406.91l3.15,6.78c.31.76,1,2.93,1.54,3.47.37.23,1.71.51,2.23.61l6.04,1.64,5.31,1.2c2.57.68,3.22-.44,5.23-1.96l4.38-3.32,1.36,1.21-6.38,8.97-20.2-5.49-1.93-.81-2.1-6.2-.75-3.3,2.14-2.8Z"/>
      <path class="st7" d="M109.63,380.72c-1.69,2.03-2.08,1.51-4.35,1.48l-3.12.09c-.96-.01-2.44.18-3.19-.52-.64-.6-2.04-4.65-2.44-5.72l-4.83-12.58c-.37-1-1.71-4.35-1.64-5.24.09-1.05,1.56-1.89,2.35-2.46l3.71-2.65c.51-.36,1.25-.95,1.89-.98.67-.03,1.2.45,1.7.83l-2.13,3.65-1.98,3.12,1,4.5,2.64,9.17,1.71,4.4,2.73,1.04,2.03.81,3.94,1.07Z"/>
      <path class="st7" d="M719.85,448.56l.91,1.94-1.24,2.76-3.12,5.92-9.5-.29-12.32-.29-2.84-6.13c-.78-1.63-1.44-2.4-.58-4.1l3.41,4.05,2.15,2.47,4.18.18,9.32-.08,4.47-.36,2.09-2.41,3.08-3.67Z"/>
      <path class="st7" d="M751.01,286.27c.09-.72.08-1.24.66-1.77.56-.51,1.95-.95,2.69-1.23,2.3-.89,4.42-2.4,6.81-1.22,1.48.73,4.17,4.94,5.29,6.45l5.76,7.82c1.2,1.63,2.35,2.21,1.63,4.33-.34,1-.65,1.18-1.01,1.98l-.9,2.57c-.88,1.53-2.61,2.14-4.23,2.52l2-7.35c.52-2.09-.39-2.74-1.64-4.35l-3.53-4.62c-.65-.85-2.91-4.07-3.68-4.39-.6-.25-2.49-.22-3.24-.24l-6.63-.49Z"/>
      <path class="st7" d="M299.43,142.76l78.72,21.4-3.18,11.71-8.66-2.35.29-1.05-16.27-4.42-.21.79-32.54-8.85.29-1.05-16.53-4.49-.29,1.05-4.72-1.28,3.11-11.44Z"/>
      <path class="st7" d="M212.58,119.15l75.57,20.54-3.11,11.44-75.57-20.54,3.11-11.44Z"/>
    </g>
    <g id="Buildings">
      <path class="st7" d="M434.44,645.35c1.92.22,1.85,1.66,2.42,3.27.7,2.36,1.8,4.08-1.33,4.89-.33.12-.71.22-1.12.22-2.07,0-2.58-2.99-3.02-4.62-.19-.71-.41-1.57-.08-2.27.5-1.04,2.09-1.35,3.12-1.5h0Z"/>
      <path class="st7" d="M447.45,630.65l-.18,11.22-14.7-.33.44-11.07,14.44.18Z"/>
      <path class="st7" d="M465.33,632.28c.51.07,1.04.08,1.39.52.36.44.33,1.5.35,2.06l.12,5.1c.03.78.16,2.25-.39,2.87-.43.5-1.32.42-1.93.45l-5.38.09c-1.96-.2-1.64-1.25-1.68-2.86-.06-2.4-.41-4.65.93-6.79.26-.42.62-.94,1.07-1.17.64-.33,4.58-.29,5.51-.28h0Z"/>
      <path class="st7" d="M403.23,612.79l3.51-.17s3.38-2.3,6.95-2.86c2.52-.27,4.43.22,6.81.88l3.82,1.5c1.28.32,4.06.11,4.06.11,0,0,.15,3.13.41,4.02.4,1.39,1.64,2.67,2.2,6.23.43,2.71-.08,4.83-.8,7.39l-1.1,2.97c-.25.99-.16,4.49-.16,4.49,0,0-1.83.3-2.84.36-1.22.07-3.34.92-3.74,2.17-.24,19.48-.25,20.78-.25,20.78l-19.44-.44.22-15.77.1-9.55c-.16-1.18-1.27-2.8-1.77-4.14-1.13-3.11-1.21-5.94-.33-9.11l.71-2.62c.46-1.15,1.35-2.38,1.55-3.53l.08-2.71Z"/>
      <path class="st7" d="M457.72,615.69l5.67-.11c.71,0,2.11-.09,2.71.23.81.43.68,1.55.71,2.35l.16,5.96c0,.65-.01,1.74-.59,2.17-.47.36-2.52.33-3.19.35-1.33.02-2.91.15-4.06-.62-1.77-1.19-1.61-2.89-1.64-4.76-.04-2.03-.27-3.57.23-5.57Z"/>
      <path class="st7" d="M322.78,518.14l10.23,2.78-3.28,12.07-10.23-2.78,3.28-12.07Z"/>
      <path class="st7" d="M192.9,460l8.13,2.21-1.85,6.82-8.13-2.21,1.85-6.82Z"/>
      <path class="st7" d="M22.43,406.05l10.76,2.92-2.85,10.5-10.76-2.92,2.85-10.5Z"/>
      <path class="st7" d="M304.7,483.07l6.99.21-.23,5.01-6.99-.21.23-5.01Z"/>
      <path class="st7" d="M307.39,451.4l47.76,12.98-3.21,11.81-15.74-4.28c-1.09-.3-4.28-1.5-5.14-.75-.45.4-.66,1.37-.82,1.95l-2.14,7.87-26.76-7.28,6.06-22.3Z"/>
      <path class="st7" d="M618.08,528.54l5.25,1.43-1.85,6.82-5.25-1.43,1.85-6.82Z"/>
      <path class="st7" d="M487.52,487.41l7.87,2.14-2.43,8.92-7.87-2.14,2.43-8.92Z"/>
      <path class="st7" d="M517.36,492.7l67.7,18.4-5.71,20.99-67.7-18.4,5.71-20.99Z"/>
      <path class="st7" d="M354.24,408.62l19.94,5.42-2.28,8.4c-.17.67-.4,1.41.11,2,.37.42,1.16.6,1.68.74l6.3,1.71-2.57,9.45-6.3-1.71c-1.23-.33-1.69-.56-2.65.41l-19.94-5.42,5.71-20.99Z"/>
      <path class="st7" d="M270.21,366.34l26.5,7.2-29.6,108.89-26.5-7.2,29.6-108.89Z"/>
      <path class="st7" d="M426.68,399.23c.55.04.8-.03,1.3.35.89.53,2.1,3.47,2.63,4.51l2.77,5.46c.34.72.78,1.58.43,2.39-.43.99-2.04,1.56-2.97,2.03-.66.33-1.46.81-2.2.86-1.93.12-3.24-3.92-3.99-5.38l-2.4-4.83c-.43-.89-.97-1.7-.43-2.7.43-.81,1.84-1.39,2.65-1.8.92-.46,1.2-.6,2.21-.89Z"/>
      <path class="st7" d="M536.58,427.2l6.04,1.64-2.71,9.97-6.04-1.64,2.71-9.97Z"/>
      <path class="st7" d="M410.44,392.62l6.82,1.86-3.78,13.91-6.82-1.85,3.78-13.91Z"/>
      <path class="st7" d="M758.9,461.43l7.08,1.93-2.14,7.87-7.09-1.93,2.14-7.87Z"/>
      <path class="st7" d="M631.54,422.02l22.04,5.99-18.48,67.96-22.04-5.99,18.48-67.96Z"/>
      <path class="st7" d="M463.43,365.61l32.27,8.77-2.14,7.87c-.2.73-.79,2.47-.57,3.14.29.86,1.43,1.04,2.19,1.25l17.32,4.71-11.2,41.2-14.43-3.92-2.5,9.18-52.48-14.27,8.92-32.8,6.04,1.64c.76.21,1.84.63,2.52.04.56-.49,1.03-2.72,1.24-3.52l2.28-8.4c4.75,1.29,5.83,2.19,6.61-.46l3.92-14.43Z"/>
      <path class="st7" d="M376.01,337.89l30.44,8.27-12.48,45.92-6.82-1.85c-.66-.17-1.41-.4-2,.11-.45.4-.66,1.37-.82,1.95l-2.28,8.4-18.11-4.92,2.28-8.4c.18-.67.55-1.68.18-2.32-.41-.73-2.09-1.02-2.88-1.23l12.48-45.92Z"/>
      <path class="st7" d="M278.54,310.83l33.32,9.06-12.77,46.97-33.32-9.06,12.77-46.97Z"/>
      <path class="st7" d="M654.82,396.51l8.4,2.28-3.07,11.28-8.4-2.28,3.07-11.28Z"/>
      <path class="st7" d="M74.19,236.4l7.35,2-2.14,7.87-7.35-2,2.14-7.87Z"/>
      <path class="st7" d="M476.25,322.6l49.33,13.41-5.85,21.52-49.33-13.41,5.85-21.52Z"/>
      <path class="st7" d="M233.06,254.23l17.58,4.78-3.28,12.07-17.58-4.78,3.28-12.07Z"/>
      <path class="st7" d="M357.62,285.28l4.46,1.21-1.28,4.72-4.46-1.21,1.28-4.72Z"/>
      <path class="st7" d="M584.82,335.77l57.73,15.69-2.64,9.71c-.42,1.66-.11,2.19,1.53,2.67l8.14,2.21-6.71,24.67-8.13-2.21c-.66-.17-1.41-.4-2,.11-.58.51-1.22,3.42-1.46,4.31l-7.87-2.14c.29-1.07,1.42-4.02.68-4.88-.4-.45-1.37-.66-1.95-.82l-26.76-7.28c-.56-.14-1.25-.35-1.79-.04-.64.37-.84,1.42-1.02,2.09l-.64,2.36-7.87-2.14c.29-1.07,1.42-4.02.68-4.88-.4-.45-1.37-.66-1.95-.82l-32.54-8.85,9.06-33.33,18.89,5.14c4.57,1.24,5.58,2.09,6.34-.53l.29-1.05Z"/>
      <path class="st7" d="M361.54,255.34l40.67,11.06-6.49,23.88-40.67-11.06,6.49-23.88Z"/>
      <path class="st7" d="M314.57,242.57l40.67,11.06-6.49,23.88-40.67-11.06,6.49-23.88Z"/>
      <path class="st7" d="M369.52,225.96l40.67,11.06-6.49,23.88-40.67-11.06,6.49-23.88Z"/>
      <path class="st7" d="M322.63,212.92l40.67,11.06-6.49,23.88-40.67-11.06,6.49-23.88Z"/>
      <path class="st7" d="M109.43,132.7l10.23,2.78-2.5,9.18-10.23-2.78,2.5-9.18Z"/>
      <path class="st7" d="M543.85,242.91l14.17,3.85-2.07,7.61-14.17-3.85,2.07-7.61Z"/>
      <path class="st7" d="M377.73,195.78l40.67,11.06-6.49,23.88-40.67-11.06,6.49-23.88Z"/>
      <path class="st7" d="M330.76,183.01l40.67,11.06-6.49,23.88-40.67-11.06,6.49-23.88Z"/>
      <path class="st7" d="M152.02,133.57l62.97,17.12-3.49,12.86c-.62,2.48.52,2.4,3.1,3.1l-1.28,4.72c-.82-.22-2.62-.89-3.37-.46-.64.37-.84,1.43-1.02,2.09l-1.57,5.77c-.14.52-.39,1.3-.21,1.83.25.73,1.01.91,1.67,1.1l6.04,1.64-3,11.02-6.04-1.64-1.79-.04-1.02,2.09-5.35,19.68-58.78-15.98,4.49-16.53c.3-1.12,1.58-4.54.82-5.41-.4-.46-1.37-.66-1.95-.82l-6.56-1.78,2.93-10.76,6.82,1.85c.62.16,1.46.45,2.06.11.64-.37.84-1.43,1.02-2.09l3.99-14.7c.51-1.89.74-2.57-1.39-3.19l-2.1-.57,3-11.02Z"/>
      <path class="st7" d="M554.76,222.49l9.45,2.57-1.47,4.39-9.18-2.5,1.21-4.46Z"/>
      <path class="st7" d="M532.39,200.07l22.04,5.99-3.64,13.38-22.04-5.99,3.64-13.38Z"/>
      <path class="st7" d="M500.11,191.29l22.04,5.99-3.64,13.38-22.04-5.99,3.64-13.38Z"/>
      <path class="st7" d="M680.54,233.01c2.17-.22,4.7,3.06,6.25,4.45.53.48,1.71,1.36,1.8,2.08.1.72-.48,1.4-.92,1.89-.75.83-3.66,4.16-4.45,4.38-.76.3-1.61-.21-2.2-.6l-4.27-4c-.59-.53-1.46-1.21-1.51-2.06-.05-.75.53-1.43,1-1.95.91-1,3.28-3.63,4.3-4.19h0Z"/>
      <path class="st7" d="M813.59,255.1l9.71,2.64-3,11.02-9.71-2.64,3-11.02Z"/>
      <path class="st7" d="M591.55,189.75l21.61,8.3-3.85,14.48-12.9-3.42-1.6,5.96-9.45-2.57,6.18-22.75Z"/>
      <path class="st7" d="M137.11,63.02l17.32,4.71-9.49,34.9-17.32-4.71,9.49-34.9Z"/>
      <path class="st7" d="M560.91,163.58l11.28,3.07-2.85,10.49-11.28-3.07,2.85-10.49Z"/>
      <path class="st7" d="M169.36,40.79l34.63,9.42-4.42,16.27-34.64-9.42,4.42-16.27Z"/>
      <path class="st7" d="M136.4,16.89l11.28,3.07-2.92,10.76-11.28-3.07,2.92-10.76Z"/>
      <path class="st7" d="M404.33,88.61l11.02,3-2.85,10.5-11.02-3,2.85-10.5Z"/>
      <path class="st7" d="M299.47,58.69l7.87,2.14-1.93,7.08-7.87-2.14,1.93-7.08Z"/>
    </g>
    <g id="Misc">
      <path class="st6" d="M427.75,507.23l7.08,1.93-1.14,4.2-7.08-1.93,1.14-4.2Z"/>
      <path class="st6" d="M390.53,488.65l3.41.93-2.35,8.66-3.41-.93,2.35-8.66Z"/>
      <path class="st6" d="M381.87,486.3l3.41.93-2.35,8.66-3.41-.93,2.35-8.66Z"/>
      <path class="st6" d="M423.42,493.09l3.67,1-3.78,13.91-3.67-1,3.78-13.91Z"/>
      <path class="st6" d="M417.91,491.59l3.67,1-3.78,13.91-3.67-1,3.78-13.91Z"/>
      <path class="st6" d="M412.4,490.09l3.67,1-3.78,13.91-3.67-1,3.78-13.91Z"/>
      <path class="st6" d="M394.24,475.01l3.41.93-2.35,8.66-3.41-.93,2.35-8.66Z"/>
      <path class="st6" d="M385.58,472.65l3.41.93-2.35,8.66-3.41-.93,2.35-8.66Z"/>
      <path class="st6" d="M433.67,485.45l7.08,1.93-1.14,4.2-7.08-1.93,1.14-4.2Z"/>
      <path class="st6" d="M313.14,421.96l6.06.52c.67.05,2,.08,2.43.66.88,1.18-.37,2.72-.61,3.8-.17.78.14,1.43-.27,3.28l-8.75-.97.12-4.17,1.02-3.13ZM311.45,430.24l6.06.52c.67.05,2,.08,2.43.66.46.62.09,2.36-.07,3.08l-8.75-.97.33-3.29Z"/>
      <path class="st6" d="M388.54,415.13l8.7.11-.33,3.29-8.7-.11.33-3.29Z"/>
      <path class="st6" d="M324.56,357.16l8.4,2.28-.86,3.16c.47.04,1.09.05,1.44.39.58.63.54,2.56-.27,2.99-.45.24-1.89.27-2.45.29-1.96.11-3.98.41-5.92-.01l.33-3.29,6.87-.39-8.4-2.28.86-3.15Z"/>
      <path class="st6" d="M332.58,339.05l2.54-5.79,1.18-1.93,2.95.8-3.33,8.11-3.34-1.19Z"/>
      <path class="st6" d="M341.01,329.79l3.15.86-2.28,8.4-3.15-.86,2.28-8.4Z"/>
      <path class="st6" d="M198.84,256.76l7.35,2-1.07,3.93-7.35-2,1.07-3.93Z"/>
      <path class="st6" d="M130.76,237.69l7.35,2-1.07,3.94-7.35-2,1.07-3.94Z"/>
      <path class="st6" d="M200.91,249.15l7.35,2-1.07,3.94-7.35-2,1.07-3.94Z"/>
      <path class="st6" d="M132.83,230.08l7.35,2-1.07,3.94-7.35-2,1.07-3.94Z"/>
      <path class="st6" d="M186.98,243.39l4.2,1.14-3.85,14.17-4.2-1.14,3.85-14.17Z"/>
      <path class="st6" d="M181.47,241.89l4.2,1.14-3.85,14.17-4.2-1.14,3.85-14.17Z"/>
      <path class="st6" d="M175.96,240.4l4.2,1.14-3.85,14.17-4.2-1.14,3.85-14.17Z"/>
      <path class="st6" d="M161.53,236.47l4.2,1.14-3.85,14.17-4.2-1.14,3.85-14.17Z"/>
      <path class="st6" d="M156.02,234.98l4.2,1.14-3.85,14.17-4.2-1.14,3.85-14.17Z"/>
      <path class="st6" d="M150.51,233.48l4.2,1.14-3.85,14.17-4.2-1.14,3.85-14.17Z"/>
      <path class="st6" d="M495.02,317.84l8.46,2.3c-.24.62-.51,1.47-.57,2.1.07,1.26.97,4.14,1.99,4.88.64.46,4.68,1.44,5.73,1.73l-.86,3.15-8.4-2.28c.65-2.38.91-2.6.06-5.06-.23-.67-.44-1.36-1.04-1.8-.61-.46-5.16-1.57-6.23-1.86l.86-3.15Z"/>
      <path class="st6" d="M437.55,224.46c1.59.05,2.34,2.08,1.7,2.98-.33.46-1.2.93-1.7,1.23-.96.56-3.64,2.19-4.58,2.36-1.68.31-2.62-2.1-1.96-3.01.63-.88,5.38-3.17,6.55-3.55Z"/>
      <path class="st6" d="M580.12,252.54c1.77.3,2.73,2.78,3.66,4.16.4.6.98,1.44,1.09,2.15.16,1.06-1.04,2.16-2.02,2.23-1.05.07-1.9-1.65-2.42-2.42l-1.39-2.15c-1.36-2.07-1.82-3.12,1.08-3.97h0Z"/>
      <path class="st6" d="M583.4,231.65c1.17.11,2.63,1.6,1.88,2.79-.32.51-1.33,1.06-1.85,1.4-.77.5-3.79,2.64-4.5,2.79-1.15.25-2.68-1.77-1.8-2.95.33-.43,1.52-1.16,2.01-1.48,1.29-.83,2.85-2.07,4.26-2.56h0Z"/>
      <path class="st6" d="M449.69,182.94l3.15.86-2.28,8.4-3.15-.86,2.28-8.4Z"/>
      <path class="st6" d="M452.05,174.28l3.15.86-2.28,8.4-3.15-.86,2.28-8.4Z"/>
      <path class="st6" d="M448.37,173.28l3.15.86-2.28,8.4-3.15-.86,2.28-8.4Z"/>
      <path class="st6" d="M456.86,161.78l3.15.86-2.28,8.4-3.15-.86,2.28-8.4Z"/>
      <path class="st6" d="M460.67,162.25l3.15.86-2.28,8.4-3.15-.86,2.28-8.4Z"/>
      <path class="st6" d="M463.84,146.39c1.55.6,1.05,2.9.37,3.27-.45.24-1.62.24-2.15.24l-5.05-.02c-1.6-.32-1.48-2.91-.42-3.32.63-.25,6.29-.24,7.27-.17h0Z"/>
      <path class="st6" d="M494.58,152.59l6.46.07c.02.8.17,2.91-.29,3.5-.54.7-3.57.58-4.48.55-.49,0-1.08,0-1.43-.39-.49-.57-.36-2.97-.27-3.73Z"/>
      <path class="st6" d="M463.79,142.43c1.55.6,1.05,2.9.37,3.27-.45.24-1.62.24-2.15.24l-5.05-.02c-1.6-.32-1.48-2.91-.42-3.32.63-.24,6.29-.24,7.27-.17h0Z"/>
    </g>
    <path id="Chopper" d="M574.02,428.36l2.45-3.28c.26-.69-.16-4.16-.25-5.14l-1.06-12.97c.05-.9.82-3.54,2.19-2.46.5.39.5,1.23.58,1.8l.46,4.35.45,4.35.6,6.93.53.14c.78-1.08,2.37-3.17,3.57-3.67,1.61-.69,4.24.87,4.62,2.53.21.92-.79,3.98-1.09,5.05,1.66-.3,3.09-1.32,4.53-2.15l7.34-4.2c.89-.51,3.61-2.37,4.56-1.54.26.23.32.57.3.9-.09,1.66-2.43,2.77-3.66,3.5l-3.41,2.17-7.82,4.64c-1.72,1.14-2.29,1.08-2.76,3.2-.1.44-.2.89-.08,1.35.31,1.17,2.48,1.98,3.53,2.56l4.97,2.47,5.9,3.18,3.42,1.87c.42.33.91.82.45,1.36-.23.27-.61.38-.94.45-2.04.45-3.01-.73-4.64-1.53l-5.95-2.98-4.52-2.05c-.92-.45-3-1.93-3.97-1.74-.98.19-2.31,3.15-2.39,4.09-.1,1.16.34,3.45.51,4.65l.44,4.35.57,4.1.42,4.06c0,.66-.17,1.39-1,1.3-1.66-.17-2.15-2.86-2.32-4.18l-1.29-8.52c-.27-1.66-.05-2.8-1.38-4.04l-4.15,7.04-3.09,5.08c.99.36,3.49,1.41,4.1,2.22.73.97-.15,2.72-1.3,2.88-.63.09-2.93-.63-3.68-.83-1.34-.36-2.16-.77-3.03.59-.2.31-.5.88-.54,1.25-.09.83.56,1.46.3,2-.21.43-.88.38-1.27.42-2.59.26-1.67.11-3.49-1.65-.29.44-.98,1.67-1.48,1.8-1.06.28-.56-1.33-.38-1.74l2.33-4.35c.52-.53,1.17-.29,1.21.33.09.42-.43,1.55-.55,2.02l.75.2,1.05-2.82c-.97-.67-4.18-3.27-4.6-4.22-.4-.91.41-2.56,1.43-2.66.89-.09,3.6,1.58,4.78,1.96l.95-2.56,2.52-6.92,1.55-3.81c-1.82.29-8.61,3.71-10.59,4.76l-2.63,1.39c-2.04.81-4.3.04-3.4-1.33.46-.7,3.26-1.96,4.12-2.38l9.18-4.76c2.44-1.33,2.48-1.44,3.7-3.77.22-.43.61-.99.61-1.49,0-1.23-3.21-2.75-4.22-3.35l-9.34-5.02c-1.44-.74-3.36-1.37-4.2-2.89-.49-.89-.15-1.78.94-1.67.71.07,3.13,1.45,3.99,1.83l14.56,7.59Z"/>
  </g>
</svg>