<?xml version="1.0" encoding="UTF-8"?>
<svg id="svg1" xmlns="http://www.w3.org/2000/svg" version="1.1" viewBox="0 0 827.29 761.16">
  <!-- Generator: Adobe Illustrator 30.2.1, SVG Export Plug-In . SVG Version: 2.1.1 Build 1)  -->
  <defs>
    <style>
      .st0 {
        fill: #70777f;
      }
    </style>
  </defs>
  <g id="Bunkers">
    <path class="st0" d="M584.78,335.84l57.72,15.69-3.28,11.81,10.3,2.78-6.71,24.67-10.76-2.92-11.06,40.67,6.3,1.71-.28,1.05,1.84.5,2.64-9.71,22.04,5.99-18.48,67.96-22.04-5.99,2.42-8.92-2.1-.57-.21.79-4.2-1.14-.36,1.31-4.99-1.36-1.78,6.56-4.46-1.21,1.78-6.56-4.72-1.29.21-.79-21.25-5.78-1,3.67-6.56-1.78-1.63,4.34-1.23-.05-1,3.67,22.83,6.2-.92,4.45,5.66,1.45-1.2,4.92-5.51-1.5-1.43,5.25-1.57-.43-1.14,4.2-1.31-.36-1,3.67,8.66,2.35-5.71,20.99-67.7-18.4,5.71-20.99,9.71,2.64,1.14-4.2-.79-.21,1.07-3.94-1.05-.29,1.28-4.72-13.91-3.78-5.42,19.94-3.41-.93-4.21,15.48-6.82-1.86-3.9,7.11,49.61,29.67-7.52,13.35-1.39-.96-11.21,20.28,58.72,37.08-4.99,8.93-18.26-11.35,2.87-4.45-7.94-5.06-2.39,3.66-13.66-8.01-2.66,4.12-12.14-7.52,1.95-3.15-5.14-3.19,2.59-4.08-1.15-.77-11.31,17.78,10.88,6.62-4.38,7.38-2.69-1.6-2.84,4.3-8.4-4.91-5.74,9.73,1.46,3.77-.13,4.76-1.36,3.86-2.18,2.79-.95,3.48-2.02.29-5.81-.31-1.66-3.99-3.11-3.44-3.17-1.08-6.18.23-.16,4.75-3.97.03-.33-5.99-16.65.4-.34,4.08-11.67-.16.21-9.51,9.9.15,1.96.8,28.7-1.49,3.83-4.02,4.15-2.27,5.75-9.42-3.68-2.18-1.64,2.23-9.46-6.07,5.11-7.87,7.25,4.34-.89,1.26,5.97,3.66,9.72-17.09-40.88-24.59,7.33-11.4,10.29,5.92,2.8-3.93,33.35,19.76,11.69-20.21-43.61-25.87,5.4-8.75-4.43-3.03,8-14.24,3.96,1,2.28-8.4.24-3.6,4.23-14.91-2.62-.71,1.21-4.46.79.21,1-3.67-.79-.21,10.84-39.89-11.02-3-1.28,4.72-23.09-6.28,5.71-20.99,23.09,6.28-2.57,9.45,11.28,3.07,2.5-9.18-2.1-.57,1.78-6.56,2.11.57,4.77-17.58-4.2-1.14,2.07-7.61,4.2,1.14,2-7.35-28.86-7.85,3.99-14.69-33.59-9.13,5.85-21.52,49.33,13.41-5.85,21.52-9.18-2.5-1.85,6.82,32.01,8.7-4.14,15.22,3.15.86,1.5-5.51,11.54,3.14-1.5,5.51,29.46,8.03,5.99-22.34-36.47-9.92,9.06-33.33,24.61,6.64.91-3.09ZM627.08,386.51l-34.37-9.35-6.06,22.3,34.37,9.35,6.06-22.3ZM541.28,395.31l-9.45-2.57-4.71,17.32,1.31.36,3.71-13.64,7.09,1.93-3.78,13.91-.79-.21-4.49,16.53,2.36.64,7.21-26.51,7.42,1.97.07-.48-7.87-2.14,1.93-7.08ZM591.14,408.86l-37-10.06-1.93,7.08-2.11-.56-.14.52,39.1,10.63,2.07-7.61ZM614.23,415.14l-16.79-4.57-2.92,10.76,10.49,2.85-.21.79,3.67,1,.21-.79,2.62.71,2.92-10.76ZM627.65,436.26l-1.31-.36-.21.79-4.98-1.36-10.49,38.57,4.2,1.14-.29,1.05,2.1.57,10.99-40.41ZM605.47,436.99l-5.77-1.57-7.49,27.55-14.69-3.99-.43,1.57-6.3-1.71-1.07,3.94,26.5,7.2,9.25-32.99ZM557.57,453.56l-38.57-10.49-8.13,29.91,18.89,5.14,1.5-5.51,21.26,5.78,2.42-8.92,3.67,1,3.78-13.91-5.25-1.43.43-1.58ZM573.25,499.53l-38.57-10.49-1,3.67-1.05-.29-1.14,4.2,40.67,11.06.66-3.48-.79-.21,1.21-4.46Z"/>
    <path class="st0" d="M316.38,110.43l65.07,17.69-33.39,122.8,17.66,4.77-9.42,34.31-16.01-4.35,6.92-25.12,8.66,2.35.29-1.05-11.36-3.06-8.7,32.01-15.22-4.14-8.92,32.8-33.06-8.99,8.92-32.8-15.48-4.21,11.77-43.29-30.44-8.27-.29,1.05,7.61,2.07-5.85,21.52-14.17-3.85-3.42,12.6,9.97,2.71-1.36,4.99-14.69-3.99,10.63-39.1,5.25,1.43.29-1.05-14.69-3.99,2.14-7.87,50.83,14.1,30.46-112.04Z"/>
  </g>
</svg>