<?xml version="1.0" encoding="UTF-8"?>
<svg id="svg1" xmlns="http://www.w3.org/2000/svg" version="1.1" viewBox="0 0 1559.57 1032.49">
  <!-- Generator: Adobe Illustrator 30.2.1, SVG Export Plug-In . SVG Version: 2.1.1 Build 1)  -->
  <defs>
    <style>
      .st0 {
        fill: #70777f;
      }

      .st1 {
        fill: gold;
      }
    </style>
  </defs>
  <g id="Underground_Level">
    <g id="Stairs-U">
      <g id="Stairs-U-A">
        <path class="st1" d="M769.38,259.34v-2.46h1.68v.26c0,.33,0,4.06,0,4.4v.26h-1.69v-2.46Z"/>
        <path class="st1" d="M741.17,259.34v-2.46h1.7v4.92h-1.7v-2.46Z"/>
        <path class="st1" d="M758.58,265.9v-1.06h2.11v2.12h-2.11v-1.06Z"/>
        <path class="st1" d="M751.55,265.9v-1.06h2.11v1.06s0,1.06,0,1.06h-2.11v-1.06Z"/>
        <path class="st1" d="M761.43,271.03v-.9h.28c.15,0,1.21,0,2.36,0h2.08s0,1.81,0,1.81h-4.72v-.9Z"/>
        <path class="st1" d="M746.1,271.03v-.91s2.08,0,2.08,0c1.14,0,2.21,0,2.36,0h.28v1.81h-4.73v-.91Z"/>
        <path class="st1" d="M757.27,277.91v-2.68h1.41v5.37h-1.41v-2.68Z"/>
        <path id="p1111" class="st1" d="M753.56,277.9v-2.69h1.4v2.69s0,2.69,0,2.69h-1.41v-2.69Z"/>
      </g>
      <g id="Stairs-U-W">
        <g id="Stairs-Common-W">
          <path class="st1" d="M705.12,331.94c0-.48,0-1.41,0-2.07v-1.2h-.01s-.01-.03-.01-.03h1.38v2.13h.49v-2.13h1.36v4.17h-3.18v-.87Z"/>
          <path class="st1" d="M711.61,316.02v-.71s.49,0,.49,0h.48v-1.52h1.42v.49c0,.27,0,.93,0,1.47v.98h-2.39v-.71Z"/>
          <path class="st1" d="M708.73,315.74c0-.54,0-1.2,0-1.47v-.48h1.42v1.52h.48s.48,0,.48,0v.71s0,.71,0,.71h-2.38v-.99Z"/>
          <path class="st1" d="M648.05,327.16v-2.24h2.95v4.48h-1.39v-.26c0-.14,0-.72,0-1.27v-1.02s-.18,0-.18,0v1.02c0,.56,0,1.13,0,1.27v.26h-1.38v-2.24Z"/>
        </g>
      </g>
    </g>
    <g id="Floors-U">
      <path id="Floor-U-A" class="st0" d="M759.22,252.21v3.4s0,3.4,0,3.4h.38v.29h-3.34v-.29h2.69v-6.79h-5.64v6.79h1.24v.29h-5.26v.46h-.37v-.46h-5.58v2.65h2.79s2.79,0,2.79,0v-.24s0-.24,0-.24h.37v.56h-.04v.19h-6.37v-.41h-1.7v.41h-.14v2.65h3.6s3.6-.01,3.6-.01v.14s0,.14,0,.14h-1.33v4.71h2.18s2.18,0,2.18,0v-2.35s0-2.35,0-2.35h-1.33v-.29h3.71v-3.15h2.46v.27h-2.17v4.71h4.36v-4.71h-.47v-.27h.76v3.15h6.31s6.3.02,6.3.02h.01s.01-.02.01-.02v-1.31s0-1.31,0-1.31h-.07s-.07,0-.07,0v-.41h-1.7v.41h-6.36v-.22h-.05v-.53h.37v.45h5.58v-2.61h-5.58v.46h-.37v-.46h-1.67v-.29h4.05v-3.4s0-3.4,0-3.4h-6.11ZM751.56,266.96v3.15h-.73v1.81h4.31v-.93l-.17-.17-.17-.17.1-.1.1-.1.21.21.21.21v2.36l-.22.22-.22.22-.1-.1-.1-.1.17-.17.17-.17v-.93h-1.58v.76h-.3v-.77h-6.33v6.41h6.33v-3.94h.3v.54h1.41v.03h.59v.16s0,.16,0,.16h-.17s-.17,0-.17,0v3h1.83v-3h-.17s-.17,0-.17,0v-.16s0-.16,0-.16h.59v-.03h1.41v-.54h.3v3.94h3.17s3.17,0,3.17,0v-6.4h-3.17s-3.17,0-3.17,0v.77h-.3v-.76h-1.58v.93l.17.17.17.17-.1.1-.1.1-.21-.21-.21-.21v-2.39l.21-.21.21-.21.1.1.1.1-.17.17-.17.17v.93h4.31v-.9s0-.9,0-.9h-.74v-3.15h-9.12Z"/>
      <path id="Floor-U-W" class="st0" d="M657.64,338v-3.15h-.02v-9.69h-.25v5.42h-4.27v-1.45h-.34v.25h.09v5.47h-7.86v-5.47h2.22s2.22.02,2.22.02v-2.55h.17v2.55h.78c.43,0,.81,0,.83,0h.04v-.25h-.02v-4.47h-3.19v-.82s0-.82,0-.82h4.66s4.66,0,4.66,0v.65h.25v-.65h38v6.36h4.15v-.25h-3.9v-6.11h3.06s3.06,0,3.06,0v3.05s0,3.05,0,3.05h-.73v.25h.97v-3.17s0-3.17,0-3.17h3.25s3.24,0,3.24,0v-6.07h5.51v-3.17h-.17c-.09-.01-.47-.01-.83-.01h-.66v1.52h-.97v1.42h-.49v-1.42h-.97v-1.52h-1.42v-1.58s0-1.58,0-1.58h4.46s4.46,0,4.46,0v1.02h.24v-.51s0-.51,0-.51h10.78s10.78,0,10.78,0v17.94h-12.36s-12.36,0-12.36,0v-8.69h4.83s4.84,0,4.84,0v-5.31h-4.24v.26h.78v4.79h-3.06v-4.79h.78v-.26h-.38s-.38,0-.38,0v-.33s0-.33,0-.33h-.24v.91h.02v4.84h-3.2v4.47s0,4.47,0,4.47h-3.08s-3.08,0-3.08,0v6.26h-.5v.25h.5v2.99h-3.26v-2.99h1.27v-.25h-1.85v.25h.34v3.24h3.5v2.86h-6.08v-6.1h.75v-.25h-7.36v6.34h-37.98v-3.15Z"/>
    </g>
  </g>
</svg>