<?xml version="1.0" encoding="UTF-8"?>
<svg id="svg1" xmlns="http://www.w3.org/2000/svg" version="1.1" viewBox="0 0 1559.57 1032.49">
  <!-- Generator: Adobe Illustrator 30.2.1, SVG Export Plug-In . SVG Version: 2.1.1 Build 1)  -->
  <defs>
    <style>
      .st0 {
        fill: #37414c;
      }

      .st1 {
        fill: #70777f;
      }

      .st2 {
        fill: gold;
      }
    </style>
  </defs>
  <g id="Second_Floor">
    <g id="Stairs-2">
      <g id="Stairs-2-E">
        <g id="Stairs-Common-E">
          <path class="st2" d="M801.05,316v-.71h.23c.13,0,.35,0,.49,0h.25s0-.76,0-.76v-.76s.71,0,.71,0h.7s0,2.95,0,2.95h-2.38v-.71Z"/>
          <path class="st2" d="M798.16,315.24v-1.48h.71s.71,0,.71,0v.76s0,.76,0,.76h.25c.14,0,.36,0,.49,0h.23v1.43h-2.4v-1.48Z"/>
          <path class="st2" d="M861.17,327.15v-2.24h2.95v4.48h-1.39v-2.54h-.18v2.54h-1.39v-2.24Z"/>
          <path class="st2" d="M803.86,330.7v-2.1h1.35v2.15h.49v-2.15h1.37v.02s-.01.95-.01,2.1v2.08h-3.19v-2.1Z"/>
        </g>
      </g>
      <g id="Stairs-2-A">
        <path class="st2" d="M754.44,280.56h-.74s0-.25,0-.25c0-.33,0-2.4,0-2.73v-.26h4.84v3.23h-.74c-.41,0-1.16,0-1.68,0-.52,0-1.28,0-1.68,0Z"/>
      </g>
      <g id="Stairs-2-W">
        <g id="Stairs-Common-W">
          <path class="st2" d="M705.12,331.94c0-.48,0-1.41,0-2.07v-1.2h-.01s-.01-.03-.01-.03h1.38v2.13h.49v-2.13h1.36v4.17h-3.18v-.87Z"/>
          <path class="st2" d="M711.61,316.02v-.71s.49,0,.49,0h.48v-1.52h1.42v.49c0,.27,0,.93,0,1.47v.98h-2.39v-.71Z"/>
          <path class="st2" d="M708.73,315.74c0-.54,0-1.2,0-1.47v-.48h1.42v1.52h.48s.48,0,.48,0v.71s0,.71,0,.71h-2.38v-.99Z"/>
          <path class="st2" d="M648.05,327.16v-2.24h2.95v4.48h-1.39v-.26c0-.14,0-.72,0-1.27v-1.02s-.18,0-.18,0v1.02c0,.56,0,1.13,0,1.27v.26h-1.38v-2.24Z"/>
        </g>
      </g>
    </g>
    <g id="Floors-2">
      <path id="Floor-2-E" class="st1" d="M785.21,309.36v1.52h.21v.25h-3.4v7.11h1.22v.25h-2.33s-2.33,0-2.33,0v-1.57c0-.86,0-1.65,0-1.75v-.18h.24v.18h.73v.24h-.72v2.86h2.93v-2.86h-.71v-.24h.72v-2.02s0-2.02,0-2.02h-1.41s-1.41,0-1.41,0v.06s0,.06,0,.06h-.06s-.06,0-.06,0v2.24h-.24v-2.24h-6.02v6.8h-21.28v3.26h21.28v.21h.62v.24h-.62v7.13h.27v.25h-.27v1.51h3.01s3.01,0,3.01,0v-.75s0-.75,0-.75h-.16s-.16,0-.16,0v-.12s0-.12,0-.12h3.51v-4.03h-1.43s-1.43,0-1.43,0v-1.55s0-1.54,0-1.54h-.65v-.24h1.81c1,0,2.61,0,3.58,0h1.77v.36h1.48v-.36s2.71,0,2.71,0v.1c0,.05,0,.13,0,.18v.08h1.47v-.08s.02-.12.02-.18v-.1h1.78c.98,0,2.58,0,3.56,0h1.79v.37h1.49v-.18s-.02-.18-.02-.18h1.44v3.62s0,3.62,0,3.62h1.34s1.34,0,1.34,0v.1h.68s.68,0,.68,0v.99s0,.99,0,.99h.47v-.99s0-.99,0-.99h.68s.68,0,.68,0h.01s.01.02.01.02h.21v3.81h.32v.18s-.02.18-.02.18h1.49v-.37h1.02v.88h.84c.47,0,.86,0,.87,0h.03v.24h-.03v2.64h-1.71v4.48h.26v.25h-.26v1.51s6.13,0,6.13,0v-1.52h-.43v-.24h.22c.12,0,.94,0,1.81,0h1.59v-4.03h-1.43s-1.42,0-1.42,0v-3.08h-.52v-.23h.39c.51-.02,5.58-.02,6.25,0h.52s0,.19,0,.19v.18s1.49,0,1.49,0v-.36h.61c.34,0,.95,0,1.36,0h.74v.24h-1.35v7.13h1.59c.87,0,1.67,0,1.78,0h.2v.24h-.38v1.52h6.13v-1.52h-4.26v-.24h1.07v-4.04h-2.85v-.48h.24v.12s0,.12,0,.12h1.3s1.3,0,1.3,0v-2.85h-2.61v1.11h-.24v-1.11h-.45v-.23h.33c.43-.02,5.7-.02,6.2,0h.38v.24h-.26s-.26,0-.26,0v.55s0,.55,0,.55h-.24v-1.11h-2.61v2.85h2.61v-.24h.24v.47h-2.85v4.05h1.59c.88,0,1.69,0,1.81,0h.22v.24h-.43v1.52h6.13v-1.52h-.26v-.24h.14c.08,0,.85,0,1.73,0h1.59v-4.03h-1.43s-1.43,0-1.43,0v-3.08h-.37v-.23h.28c.36-.02,5.61-.02,6.19,0h.45v.24h-.59v3.08h-2.85v4.05h1.59c.87,0,1.65,0,1.72,0h.13v.24h-.25v1.52h6.13v-1.52h-.19v-.24h.1c.06,0,.82,0,1.69,0h1.59s0-4.04,0-4.04h-2.85v-.47h.24v.11s0,.12,0,.12h1.3s1.3,0,1.3,0v-2.85h-1.3s-1.3,0-1.3,0v.55s0,.55,0,.55h-.24v-1.11h-.53v-.23h.53c.29-.01,1.9-.01,3.59,0h3.07s0,.59,0,.59v.58h.23v.12s0,.12,0,.12h-.11s-.11,0-.11,0v1.88h-3.56v4.05h1.05v.25h-2.12s-2.12-.01-2.12-.01v1.52h6.13v-1.51h-.39v-.25h3.58v-5.94h-.86v-.25h.93s.93,0,.93,0v.12s0,.12,0,.12h-.75v5.94h1.08v.25h-4.27v1.51h6.01v-1.51h-.13s-.13,0-.13,0v-.12s0-.12,0-.12h.26v-5.94h-.59v-.25h.59v-5.37h-2.22s-2.22.02-2.22.02v-2.55h-.18v2.55h-1.39v1.24h-1.59v-.12s0-.12,0-.12h.67s.67,0,.67,0v-5.71h3.18v-1.41h-6.13v7.11h.12v.25h-1.53v-.12s0-.23,0-.23h-1.48v.36h-7.16v-.36h-1.48v.36h-11.36v-.25h.65v-3.08h2.85v-4.03h-1.03v-.25h2.47v.25h-1.19v4.03h2.86v3.08h3.28v-7.11h-3.46v-.25h.26v-1.51h-6.13v1.51h.43v.25h-3.62v7.11h.57s.57,0,.57,0v.12s0,.12,0,.12h-2.47v-.37h-1.49v.37h-7.4v-.37h-1.49v.37h-2.47v-.12s0-.12,0-.12h.58s.58,0,.58,0v-7.11h-3.38v-.25h.18v-1.51h-6.01v1.51h.39v.25h-.39v.12h-.12v2.32h-.25v-2.32h-6.44v-4.3h-3.02s-3.02,0-3.02,0v-.25s0-.25,0-.25h.25v.25h5.8v-1.87h-5.8v.25h-.25v-.5h.53v-2.93h.22v-.02h.72s.72,0,.72,0v.76s0,.76,0,.76h.97v1.42h.49v-1.42h.97v-1.53h1.41v-2.64h-1.42v-.26h1.42v-1.51h-5.45v1.51h1.55v.26h-2.37s-2.37-.02-2.37-.02v7.38h-1.45v-.25h1.2v-7.11h-3.41v-.25h.23v-1.52h-6.13ZM786.91,310.87h2.72v.25h-1.22v4.03h2.85v.49h-.24v-.12s0-.12,0-.12h-1.3s-1.3,0-1.3,0v2.85h2.61v-1.11h.24v1.11h.6v.12s0,.12,0,.12h-3.55c-1.95,0-3.56,0-3.56,0,0,0,0-.06,0-.12v-.12h.58v-3.08h2.85v-4.03h-.62s-.62,0-.62,0v-.12s0-.12,0-.12ZM787.23,319.35l.15.15.15.14h1.89l.15-.14.15-.15.09.09.09.09-.18.18-.18.18h-2.08l-.18-.18-.18-.18.09-.09.09-.09ZM787.42,320.87h2.07l.18.18c.21.21.2.19.11.27l-.07.07h-.05l-.14-.14-.14-.14h-1.87l-.15.15-.15.15-.09-.09-.09-.09.19-.19.19-.19ZM774.67,321.51h2.11v.24h-1.15v7.12h1.15v.25h-2.47v-.25h1.07v-7.12h-.71v-.24ZM848.67,322.9v.12c-.01.07-.01.17,0,.24v.11h1.47v-.11c.01-.06.01-.17,0-.24v-.12h-1.47ZM852.62,322.9v.47h1.48v-.47h-1.48ZM855.08,322.9v.47h1.48v-.47h-1.48ZM812.1,323.01h2.47v.25h-1.27v4.03h2.85v3.08h.65v.25h-6.94v-3.44h.25v.12h.73v.23h-.36s-.36,0-.36,0v2.85h1.47s1.47,0,1.47,0v-2.86h-.72v-.23h.72v-4.04h-.47s-.47,0-.47,0v-.12s0-.12,0-.12ZM848.38,327.75v1.48h.06s.11,0,.19,0c.07,0,.15,0,.18,0h.05v-1.48h-.48ZM785.43,328.75v.47h1.48v-.06s0-.14,0-.24v-.18h-1.49ZM789.64,328.75v.08s-.02.11-.02.16,0,.11,0,.16v.08h1.47v-.11c.01-.06.01-.17,0-.24v-.12h-1.47ZM825.97,330.87c.4,0,.83.05,1.01.14.1.05.17.15.2.31l.02.1v.27s-.03.27-.03.27l.04.25c.02.14.04.3.05.37v.12s0,.1,0,.1c0,.05-.02.13-.03.16l-.02.06-.04.05c-.11.13-.26.15-.77.11l-.26-.02-.29.02c-.63.04-.79,0-.83-.18v-.05s0-.07,0-.07c.02-.09.07-.22.18-.47.05-.11.1-.24.12-.29l.03-.09v-.1s0-.1,0-.1l-.03-.07s-.05-.13-.08-.2c-.03-.07-.07-.17-.09-.21l-.03-.08v-.18s.03-.05.03-.05l.03-.05.06-.03c.13-.06.41-.09.72-.09h0ZM812.97,333.56c.06,0,.45,0,.86,0h.74v.24h-1.27v7.13h1.03v.23h-.77c-.43.01-.98.02-1.23.02h-.46v-.25h1.19v-7.13h-.2v-.23h.12ZM838,333.56c.39,0,1.05,0,1.48,0h.78v.24h-1.43v7.13h1.19v.24h-2.47v-.24h1.03v-7.13h-1.28v-.23h.7ZM850.81,333.56c.36,0,.97,0,1.36,0h.7v.24h-1.27v7.13h1.27v.24h-2.72v-.24h1.2v-7.13h-1.2v-.23h.66Z"/>
      <path id="Floor-2-A" class="st1" d="M744.93,260.52v1.68h-1.86s-1.86,0-1.86,0v2.23s0,2.02,0,2.02h1.4v2.15h.33v.29h-.33v3.2h-1.2v.23h-.14s-.14,0-.14,0v-.25s0-.26,0-.26h1.21v-2.37s0-2.7,0-2.7h-1.11v.07s0,.07,0,.07h-2.39v5.35h-2.84s-2.84,0-2.84,0v6.9s0,6.57,0,6.57h13.51v-1.73s0-1.73,0-1.73h-1.49c-.82,0-2.18,0-3.03,0h-1.55v-.71h.27v.21s0,.21,0,.21h1.4s1.4,0,1.4,0v-3.85h-2.8v1.7h-.27v-.85s0-.85,0-.85h-1.25s-1.25,0-1.25,0v-4.4h3.07v-.11s0-.11,0-.11h.14s.14,0,.14,0v4.35h2.51v4.13h6.28v.27h-3.27v3.46h.14v4.67h18.14v-4.67h.14v-1.01h.29v1.01h4.17v-3.45h-.14v-.29h.42v3.74h9.13v-7.51h-4.34s-4.25,0-4.25,0v-.17s0-.17,0-.17h.25v-1.56h.27v.81s0,.81,0,.81h3.99s4.08,0,4.08,0v-5.69h-5.76v-.14h-2.32v2.48h-.27v-2.48h-1.2v-.46h.29v.18h3.51v-4.93h-2.41v-.14h-1.1v3.51h-.29v-1.36h-.31v-.29h.31v-2.15h1.39v-4.26h-3.72v-1.68h-1.56v8.09h.94s.94,0,.94,0v.14s0,.14,0,.14h-1.89v1.89h1.67v5.03h-1.67v3.23h-7.2v1.52h-4.85v-1.52h-7.2v-3.23h-1.67v-5.03h1.67v-1.89h-1.86v-.29h1.86v-8.09h-1.56ZM739.97,267.06l.09.04c.1.05.18.11.45.35.24.21.33.29.43.33l.08.04h.14c.08,0,.22,0,.31,0s.23-.02.3-.02h.12l.08.04.08.04.03.05s.03.08.04.11l.02.07-.02.14c-.07.58-.47,1.55-.7,1.71-.03.02-.09.05-.14.06-.15.04-.26.02-.64-.12l-.23-.09-.14-.03c-.08-.02-.25-.05-.39-.07-.49-.08-.69-.17-.77-.34l-.03-.06v-.11s0-.11,0-.11l.03-.11c.02-.06.08-.25.15-.42l.12-.31.06-.24c.16-.66.21-.8.35-.9l.05-.04h.07s.07-.01.07-.01ZM753.69,276.01v1.32h4.85v-1.32h-4.85ZM768.33,277.85h.57v.34h-.27v3.79h.16v.29h-3.18v.73h-.29v-.75h-2.7v-.27h2.85s2.85,0,2.85,0v-2.06s0-2.06,0-2.06ZM774.23,280.43h.1l.08.04.08.04.06.07c.08.09.13.18.26.46l.11.24.11.16c.06.09.15.22.21.3.15.2.22.34.27.47l.04.12v.08c-.03.21-.16.32-.72.56-.29.12-.32.14-.64.33-.25.15-.49.27-.58.29-.14.03-.24.01-.31-.07l-.04-.05-.02-.07c-.03-.11-.05-.22-.06-.53-.03-.63-.04-.65-.47-1.01-.33-.28-.38-.42-.19-.62l.08-.08.16-.11c.47-.31,1.2-.6,1.5-.6h0ZM751.89,281.98h9.03v.27h-9.03v-.27Z"/>
      <path id="Floor-2-W" class="st1" d="M720.83,309.35v1.51h.24v.25h-3.44v7.11h1.21v.25h-1.45v-7.36h-.01s-1.95,0-4.33,0h-4.32v2.68h1.42v.25c0,.14,0,.48,0,.76v.51s.97,0,.97,0v1.42h.5v-1.42h.97v-1.52h.65c.35,0,.72,0,.82,0h.18v2.93h.53v2.34h-6.05v4.3h-6.43v2.15h-.37v1.49h.37v3.6h-6.94v-.24h.64v-1.15h.25v1.15h2.6v-2.85h-2.6v.21h-.12s-.12,0-.12,0v-.23s0-.23,0-.23h2.86v-4.03h-6.14v3.56s0,3.56,0,3.56h.58s.58,0,.58,0v.24h-2.47v-.24h1.05v-7.12h-1.05v-.25h4.26v-.75s0-.75,0-.75h-3.07s-3.07,0-3.07,0v1.51h.4v.25h-3.59v4.03h2.84v.46h-.24v-.21h-2.61v2.85h1.3s1.3,0,1.3,0v-.57s0-.57,0-.57h.24v.57s0,.57,0,.57h.37s.37,0,.37,0v.23h-1.86c-1.03,0-2.69,0-3.71,0h-1.84s0-.19,0-.19v-.18s-1.5,0-1.5,0v.18s.02.18.02.18h-2.47v-.1c0-.05,0-.13,0-.18v-.08h-1.47v.08s-.02.12-.02.18v.1s-1.81,0-1.81,0c-1,0-2.6,0-3.57,0h-1.76v-.1c0-.05,0-.13,0-.18v-.08h-1.47v.08s-.02.12-.02.18v.1h-2.7v-.1c0-.05,0-.13,0-.18v-.08h-1.49v.36h-1.76c-.97,0-3.24,0-5.06,0h-3.3v-.24h.03s.03,0,.03,0v-3.56s0-3.56,0-3.56h-6.14v1.41h3.19v2.79s0,2.92,0,2.92h.7s.7,0,.7,0v.24h-1.64v-1.21h-1.4v-2.59h-.17v2.59h-.63c-.35,0-.85,0-1.11,0h-.48v-.24h.59v-5.91h-2.82v3s0,2.9,0,2.9h.37s.37,0,.37,0v.24h-.75v5.33h.37s.37,0,.37,0v.12s0,.12,0,.12h-.75v5.94h2.82v-5.94h-.59v-.25h1.72v.25h-.88v5.94h3.6v.12s0,.12,0,.12h-.2s-.21,0-.21,0v.74c0,.41,0,.75,0,.75,0,0,1.39,0,3.07,0h3.06v-1.51h-.15s-.15,0-.15,0v-.12s0-.12,0-.12h3.49v-7.13h-1.26v-.24h.69c.38,0,.99,0,1.36,0h.67v.24h-1.21v7.13h6.13v-4.04h-2.85v-.49h.24v.12s0,.12,0,.12h1.3s1.3,0,1.3,0v-2.85h-1.3s-1.3,0-1.3,0v.55s0,.55,0,.55h-.24v-1.11h-.59v-.23h.45c.58-.02,5.81-.02,6.18,0h.29v.36h1.48v-.06s0-.11,0-.18v-.12s.78,0,.78,0c.43,0,1.1,0,1.48,0h.7v.36h1.48v-.06s0-.11,0-.17v-.12s.38,0,.38,0c.5-.01,5.75-.01,6.19,0h.34v.1c0,.05,0,.13,0,.18v.08h1.47v-.08s.02-.12.02-.18v-.1h.74c.41,0,1.01,0,1.35,0h.61v.24h-1.11v7.13h3.59v.12s0,.12,0,.12h-.2s-.2,0-.2,0v1.51h3.07s3.07,0,3.07,0v-.75s0-.75,0-.75h-.15s-.15,0-.15,0v-.12s0-.12,0-.12h3.5v-7.13h-1.27v-.23h.74c.41,0,.8,0,.87,0h.13v.24h-.21v7.13h1.2v.25h-4.4v.75s0,.75,0,.75h3.07s3.07,0,3.07,0v-1.51h-.26v-.25h.26v-4.47h-1.71v-2.66h-.04v-.23h.03s.41-.01.87-.01h.84v-.73h1.22v.25h-.97v2.16h2.87v2.25h-2.87v3.44h.22v.25h-.22v1.51h6.01v-1.51h-.34v-.25h.34v-7.85h-3.56v-.25h.12v-3.96h.1c.05-.01.41-.01.8-.01h.7s0,.98,0,.98v.98h.51v-.98s0-.98,0-.98h.66s.66,0,.66,0v-.11h2.68v-7.24h10.07v.24h-.58v1.07h-.25v-1.07h-1.3s-1.3,0-1.3,0v1.42s0,1.42,0,1.42h2.61v-.3h.25v.55h-2.86v4.03h1.21v.25h-2.47v-.25h1.01v-4.03h-2.84v-.55h.25v.3h2.61v-1.42s0-1.42,0-1.42h-1.3s-1.3,0-1.3,0v1.07h-.25v-1.07h-1.64s-1.64,0-1.64,0v3.5s0,3.5,0,3.5h3.32v.12h.32v.25h-.32v1.51h6.01v-1.51h-.25v-.25h3.44v-7.13h-1.21v-.24h2.7v.36h1.48v-.36h7.16v.36h1.48v-.06s0-.11,0-.18v-.12s1.98,0,1.98,0v.24h-.29s-.29,0-.29,0v3.56s0,3.56,0,3.56h2.83v-3.56s0-3.56,0-3.56h-.38s-.38,0-.38,0v-.24h.38s.38,0,.38,0v-.19h21.92v-3.26s-21.92,0-21.92,0v-6.82h-6.02v2.18h-.24v-2.18h-.13v-.13h-1.41s-1.41,0-1.41,0v2.02s0,2.02,0,2.02h1.47s1.47,0,1.47,0v-.12s0-.12,0-.12h.23v.25c.01.14.01.94.01,1.78v1.53s-2.31,0-2.31,0h-2.31s0-.25,0-.25h1.17v-7.11h-3.4v-.25h.21v-1.51h-6.13ZM722.55,310.86h2.72v.25h-1.25v4.03h2.85v3.08h.62v.25h-7.15v-.25h.59v-1.1h.24v1.1h2.61v-2.83h-2.61v.25h-.24v-.5h2.84v-4.03h-1.22v-.25ZM736.95,313.14l.06.04s.09.07.12.1l.06.07.07.14c.04.08.1.21.14.29l.07.15.09.13c.2.28.29.42.34.51l.05.1.02.08.02.08v.06c-.03.08-.06.12-.14.19l-.07.06-.14.07c-.08.04-.23.11-.34.15l-.19.08-.26.15c-.28.17-.41.24-.51.27h0s-.09.02-.12.03h-.06s-.05-.01-.05-.01c-.09-.03-.14-.1-.17-.25l-.02-.09v-.26c-.02-.14-.03-.32-.04-.38l-.02-.12-.03-.06c-.04-.08-.11-.16-.32-.33l-.16-.14-.05-.07c-.11-.14-.09-.25.05-.38.24-.22.84-.52,1.28-.64l.1-.03h.11s.11,0,.11,0ZM732.89,322.8v1.48h.06s.11,0,.19,0c.07,0,.15,0,.18,0h.05v-1.48h-.47ZM665.73,322.88h-.74s-.74,0-.74,0v.22c0,.12,0,.23,0,.24v.02h1.47v-.12c.01-.07.01-.18,0-.24v-.12ZM668.21,322.88v.12c-.01.07-.01.18,0,.24v.12h1.47v-.12c.01-.07.01-.18,0-.24v-.12h-1.47ZM670.68,322.88v.49h1.48v-.49h-1.48ZM676.11,322.88h-.74s-.74,0-.74,0v.22c0,.12,0,.23,0,.24v.02h1.47v-.12c.01-.07.01-.18,0-.24v-.12ZM711.92,324.81h.16c.09.01.25.03.36.04l.2.02h.36s.36-.01.36-.01h.11c.17.03.29.08.33.17l.02.03v.07c0,.11-.02.17-.19.51l-.15.32-.02.1-.03.1v.08s.05.14.07.21c.03.07.06.17.08.23.02.05.04.13.05.18v.08s0,.05,0,.05c-.03.1-.1.16-.25.19l-.08.02h-.32c-.39,0-.62-.01-.92-.08-.36-.08-.47-.18-.48-.46v-.1s.01-.18.01-.18c.03-.24.02-.38,0-.65-.01-.12-.03-.3-.03-.39v-.17s.02-.08.02-.08c.03-.09.06-.15.13-.2l.05-.04.09-.02.09-.02ZM663.46,327.74s-.08,0-.09,0h-.06v1.48h.47v-1.48h-.18s-.1,0-.14,0h0ZM676.07,327.74v.73c0,.4,0,.74,0,.74,0,0,.11,0,.24,0h.23s0-.74,0-.74v-.74s-.24,0-.24,0h-.24ZM727.5,328.74v.12c-.01.07-.01.18,0,.24v.11h1.47v-.11c.01-.06.01-.17,0-.24v-.12h-1.47ZM731.44,328.74v.47h1.48v-.47h-1.48ZM718.84,329.3s.02,0,.04.01l.05.02v.02s-.08.25-.17.53l-.16.51h-.06s-.06,0-.06,0l-.06-.35c-.07-.38-.07-.39-.09-.32-.07.27-.18.66-.19.66,0,0-.03,0-.06,0h-.05s-.06-.33-.06-.33c-.03-.18-.07-.33-.07-.33-.01-.01-.02.03-.09.33l-.07.32h-.06s-.06,0-.06,0c0,0-.19-.72-.2-.74v-.02s-.02.02-.02.02c0,.01-.04.17-.09.34s-.08.33-.09.36v.04h-.07c-.07,0-.06.03-.13-.35-.06-.3-.07-.35-.08-.33,0,0-.03.15-.07.34l-.07.33h-.06s-.06,0-.06,0c0-.07-.14-.64-.15-.63,0,0-.12.66-.12.69,0,.01,0,.01-.06,0-.02,0-.05-.01-.05-.01,0,0,.04-.24.09-.54l.09-.53h.12l.07.34c.06.28.09.4.09.36,0,0,.03-.16.08-.35l.07-.34h.12l.06.32c.08.39.07.37.09.37,0,0,.05-.16.1-.35l.09-.35h.12l.1.36c.1.38.1.39.12.36,0-.02.15-.7.15-.71,0,0,.03,0,.06,0h.06v.03s.04.17.07.34c.03.17.06.32.07.34v.02s.02-.01.02-.01c0,0,.05-.15.09-.32.05-.17.09-.33.1-.35v-.04s.07,0,.07,0c.07,0,.06-.03.12.37.03.2.06.36.07.36.01.01.02-.03.14-.39.1-.33.12-.39.15-.39h0ZM650.4,330.68s.16.04.53.15l.52.16v.06s0,.06,0,.06l-.34.06c-.32.06-.36.07-.34.08,0,0,.67.18.68.18,0,0,0,.03,0,.06v.06s-.28.06-.28.06c-.15.03-.3.06-.34.07l-.07.02h.02s.18.05.38.09l.36.07v.05s-.02.05-.02.06c0,.02-.04.01-.57-.1l-.51-.1v-.06s0-.06,0-.06l.36-.07c.39-.08.39-.08.33-.1-.03,0-.19-.05-.36-.1s-.32-.08-.32-.08c0,0,0-.03,0-.06v-.06h.03s.18-.04.36-.07c.18-.03.33-.06.34-.07.01-.01-.03-.02-.39-.13-.2-.06-.38-.11-.38-.12h-.01s.02-.06.02-.06c0-.02,0-.04.03-.04h0ZM694.92,330.8h.01s.69.21.99.3l.06.02v.12h-.03s-.16.04-.33.07c-.17.03-.32.06-.33.07h-.03s.02.02.02.02c.01,0,.14.04.3.08s.31.08.34.09l.06.02v.11l-.08.02s-.2.04-.34.07-.26.05-.26.06c0,0,0,.01.4.09l.28.06v.06s0,.06,0,.06l-.34.1c-.19.05-.36.1-.38.11h-.03s.01.02.01.02c0,0,.18.05.38.1l.37.09v.12l-.28.06c-.39.08-.39.08-.39.09,0,0,.15.04.34.08l.34.07v.06s0,.06,0,.06l-.31.07c-.17.04-.32.07-.32.08-.01.01.02.02.33.07.17.03.33.06.34.06h.03s0,.05,0,.05c0,.02-.01.05-.01.06h0s-.52-.07-.52-.07c-.29-.05-.53-.09-.53-.09s0-.03,0-.06v-.06h.02s.16-.04.33-.08c.17-.04.32-.07.33-.08h.02s-.03-.02-.03-.02c-.03,0-.66-.14-.67-.14,0,0,0-.03,0-.06v-.06h.03s.17-.04.34-.08c.17-.04.32-.07.32-.07.02-.02-.02-.02-.31-.1-.17-.04-.32-.08-.34-.08h-.03v-.13h.04c.29-.09.67-.2.67-.21.01-.01.01-.01-.36-.09l-.36-.07v-.06s0-.06,0-.06h.01s.7-.14.71-.15l-.36-.11-.36-.09v-.12l.36-.06c.2-.04.36-.07.37-.07h.01s-.08-.03-.08-.03c-.79-.24-.72-.21-.7-.28l.02-.05ZM656.01,333.55c.65,0,1.13,0,1.28,0h.54v.24h-.53v1.11h-.25v-1.11h-1.3s-1.3,0-1.3,0v1.42s0,1.42,0,1.42h2.61v-.25h.25v.49h-2.85v4.04h1.16v.25h-2.47v-.25h1.05v-2.02s0-2.02,0-2.02h-1.78s-1.78,0-1.78,0v-.47h.27v.26h3.27v-2.87h-3.27v1.36h-.27v-.17h-.21v-.25h.21v-.58s0-.58,0-.58h3.05c.84-.01,1.66-.01,2.31-.01h0ZM689.47,333.55c.66-.01,5.73-.01,6.25,0h.4v.24h-.53v1.11h-.25v-1.11h-2.61v2.85h2.61v-.25h.25v.49h-1.42s-1.43,0-1.43,0v2.02s0,2.02,0,2.02h1.16v.25h-2.47v-.25h1.05v-4.04h-2.84v-3.08h-.68v-.23h.51ZM682.46,334.9v1.48h.47v-1.48h-.47ZM670.68,340.8v.47h1.48v-.47h-1.48ZM683.52,340.8v.47h1.48v-.05s0-.11,0-.18,0-.15,0-.18v-.05h-1.48ZM704.03,340.92h2.47v.12s0,.12,0,.12h-1.23s-1.23,0-1.23,0v-.25Z"/>
      <g id="Floors-Locked-2">
        <path id="Floors-Locked-2-E" class="st0" d="M848.41,321.51v1.51h.25v-.12h1.49v.12h2.47v-.12h1.48v.12h.44v-1.51h-6.13ZM854.79,321.51v1.51h.3v-.12h1.5v.06s0,.06,0,.06h4.35v-1.51h-6.13ZM786.92,321.75v.12h-.74s-.74,0-.74,0v-.13h-.56v3.09h-2.85v4.03h3.4v-.12h1.5v.06s0,.06,0,.06h1.24v-7.13h-1.24ZM789.02,321.75h-.61v7.13h1.22v-.12h1.49v.12h3.41v-4.03h-2.85v-3.1h-.58v.12h-.74s-.74,0-.74,0v-.07s0-.07,0-.07h-.61ZM848.66,323.26h-1.72s-1.72,0-1.72,0v7.12h1.22v-.13h1.48v.13h.29s.29,0,.29,0v-.58s0-.58,0-.58h-.06s-.06,0-.06,0v-1.5h.12v-.45h2.85v-4.03h-.6s-.6,0-.6,0v.06s0,.06,0,.06h-1.5v-.06s0-.06,0-.06ZM851.6,323.26v4.03h2.84v1.54c0,.85,0,1.54,0,1.55,0,0,.15,0,.32,0h.31v-.13h.74s.74,0,.74,0v.12h1.16v-7.12h-1.15v.12h-1.49v-.12h-.98v.12h-1.48v-.12h-1.02ZM848.74,327.54v.2h.13v1.5h-.07s-.07,0-.07,0v1.14h2.61v-2.83h-2.61ZM786.92,329.12v.12h-.74s-.74,0-.74,0v-.12h-.21v1.51h6.13v-1.5h-.12s-.12,0-.12,0v.06s0,.06,0,.06h-1.5v-.06s0-.06,0-.06h-2.71Z"/>
        <path id="Floors-Locked-2-W" class="st0" d="M664.02,321.49v1.51h.24v-.12h1.49v.12h1.23c.68,0,1.23,0,1.23,0,0,0,0-.03,0-.06v-.07s1.49,0,1.49,0v.06s0,.06,0,.06h.23s.23,0,.23,0v-1.51h-6.14ZM670.39,321.49v1.51h.28v-.12h1.48v.12h2.47v-.12h1.49v.12h.41v-1.51h-6.14ZM726.75,321.73v.13h-1.48v-.13h-1.25v7.13h3.46v-.06s0-.06,0-.06h1.48v.13h.59s.59,0,.59,0v-4.03h-2.84v-1.54s0-1.54,0-1.54h-.28s-.28,0-.28,0ZM733.91,321.73h-.33s-.33,0-.33,0v.53s0,.53,0,.53h.13v1.48h-.13v.55h-2.85v4.03h1.04v-.13h1.48v.13h3.62v-3.56s0-3.56,0-3.56h-.57s-.57,0-.57,0v.12h-.74s-.74,0-.74,0v-.13ZM730.4,321.73v2.85h2.61v-.3h-.12v-1.48h.12v-.53s0-.53,0-.53h-1.3s-1.3,0-1.3,0ZM664.26,323.24h-1.72s-1.72,0-1.72,0v4.03h2.84v.46h.12v.74s0,.74,0,.74h-.13v1.15h.58v-.13h.74s.74,0,.74,0v.12h1.22v-7.12h-1.21v.12h-1.5v-.06s0-.06,0-.06ZM669.69,323.24v.06s0,.06,0,.06h-1.5v-.12h-1v7.12h1.25v-.07s0-.07,0-.07h.74s.74,0,.74,0v.12h.55v-3.09h2.86v-4.03h-1.19v.12h-1.48v-.12h-.49s-.5,0-.5,0ZM673.6,323.25v4.03h1.42s1.42,0,1.42,0v.22s0,.22,0,.22h.06s.06,0,.06,0v.74s0,.74,0,.74h-.12v1.15h.66v-.07s0-.07,0-.07h1.5v.07s0,.07,0,.07h.57s.57,0,.57,0v-3.56s0-3.56,0-3.56h-3.6v.12h-1.49v-.12h-1.03ZM660.81,327.53v1.41c0,.78,0,1.42,0,1.42,0,0,.59,0,1.3,0h1.3v-1.15h-.12v-.74s0-.74,0-.74h.12v-.1s0-.1,0-.1h-2.61ZM673.58,327.53v1.41c0,.78,0,1.42,0,1.42,0,0,.59,0,1.3,0h1.3v-1.15h-.12v-1.49h.12v-.2h-2.61ZM727.49,329.1h-.14s-.14,0-.14,0v1.51h6.13v-1.51h-.41v.12h-1.48v-.12h-1.24s-1.24,0-1.24,0v.06s0,.06,0,.06h-.74s-.74,0-.74,0v-.12ZM670.05,333.79v3.08h-1.42s-1.42,0-1.42,0v2.02s0,2.02,0,2.02h3.47v-.12h1.48v.12h1.19v-7.13h-1.43v.13h-1.48v-.13h-.38ZM673.6,333.79v7.13h6.13v-2.02s0-2.02,0-2.02h-1.42s-1.43,0-1.43,0v-3.08h-.51v.13h-1.48v-.13h-1.28ZM682.57,333.79h-1.3s-1.3,0-1.3,0v1.4c0,.77,0,1.41,0,1.42h0s2.59.01,2.59.01v-.12s0-.12,0-.12h-.12v-1.48h.12v-.56s0-.56,0-.56ZM682.82,333.79v1.11h.12v1.48h-.12v.49h-2.85v4.04h3.55v-.12h1.5v.06s0,.06,0,.06h1.1v-7.13h-1.34v.12h-1.48v-.12h-.46ZM670.68,341.16h-.14s-.14,0-.14,0v1.5h3.07s3.07,0,3.07,0v-.75s0-.75,0-.75h-4.38v.12h-1.48v-.12ZM685.01,341.16v.12h-.74s-.74,0-.74,0v-.12h-.36v1.51h6.13v-1.51h-2.14s-2.14,0-2.14,0Z"/>
      </g>
    </g>
  </g>
</svg>