<?xml version="1.0" encoding="UTF-8"?>
<svg id="svg1" xmlns="http://www.w3.org/2000/svg" version="1.1" viewBox="0 0 1559.57 1032.49">
  <!-- Generator: Adobe Illustrator 30.2.1, SVG Export Plug-In . SVG Version: 2.1.1 Build 1)  -->
  <defs>
    <style>
      .st0 {
        fill: #37414c;
      }

      .st1 {
        fill: #70777f;
      }

      .st2 {
        fill: gold;
      }
    </style>
  </defs>
  <g id="Third_Floor">
    <g id="Stairs-3">
      <g id="Stairs-3-E">
        <g id="Stairs-Common-E">
          <path class="st2" d="M801.05,316v-.71h.23c.13,0,.35,0,.49,0h.25s0-.76,0-.76v-.76s.71,0,.71,0h.7s0,2.95,0,2.95h-2.38v-.71Z"/>
          <path class="st2" d="M798.16,315.24v-1.48h.71s.71,0,.71,0v.76s0,.76,0,.76h.25c.14,0,.36,0,.49,0h.23v1.43h-2.4v-1.48Z"/>
          <path class="st2" d="M861.17,327.15v-2.24h2.95v4.48h-1.39v-2.54h-.18v2.54h-1.39v-2.24Z"/>
          <path class="st2" d="M803.86,330.7v-2.1h1.35v2.15h.49v-2.15h1.37v.02s-.01.95-.01,2.1v2.08h-3.19v-2.1Z"/>
        </g>
      </g>
      <g id="Stairs-3-W">
        <g id="Stairs-Common-W">
          <path class="st2" d="M705.12,331.94c0-.48,0-1.41,0-2.07v-1.2h-.01s-.01-.03-.01-.03h1.38v2.13h.49v-2.13h1.36v4.17h-3.18v-.87Z"/>
          <path class="st2" d="M711.61,316.02v-.71s.49,0,.49,0h.48v-1.52h1.42v.49c0,.27,0,.93,0,1.47v.98h-2.39v-.71Z"/>
          <path class="st2" d="M708.73,315.74c0-.54,0-1.2,0-1.47v-.48h1.42v1.52h.48s.48,0,.48,0v.71s0,.71,0,.71h-2.38v-.99Z"/>
          <path class="st2" d="M648.05,327.16v-2.24h2.95v4.48h-1.39v-.26c0-.14,0-.72,0-1.27v-1.02s-.18,0-.18,0v1.02c0,.56,0,1.13,0,1.27v.26h-1.38v-2.24Z"/>
        </g>
      </g>
    </g>
    <g id="Floors-3">
      <path id="Floor-3-E" class="st1" d="M778.94,309.37v1.51h.3v.24h-.29v.06s0,.06,0,.06h-.06s-.06,0-.06,0v2.24h-.24v-2.24h-6.02v10.27h.62v.37h1.49v-.37h2.11v.37h1.49v-.18s-.02-.18-.02-.18h1.81c1,0,2.61,0,3.58,0h1.77v.37h1.49v-.18s-.02-.18-.02-.18h2.72v.1c0,.05,0,.13,0,.18v.08h1.47v-.08s.02-.12.02-.18v-.1h1.76c.97,0,2.57,0,3.56,0h1.8v.36h1.48v-.06s0-.11,0-.18v-.12s1.43,0,1.43,0v3.62s0,3.62,0,3.62h1.34s1.36,0,1.36,0v.11h1.35v1.95h.47v-1.95h.64c.35,0,.7,0,.79,0h.17v3.93h.32v.12c0,.07,0,.15,0,.18v.06h1.48v-.36h1.02v.75h.84c.47,0,.86,0,.87,0h.03v.24h-.03v2.64h-1.71v4.48h2.94v-7.13h-.2v-.23h.12c.06,0,.45,0,.86,0h.74v.24h-1.27v7.13h1.03v.23h-.77c-.43.01-1.38.02-2.11.02h-1.34v1.51h6.13v-1.52h-.43v-.24h.98v.24h-.15s-.15,0-.15,0v.76s0,.76,0,.76h3.07s3.07,0,3.07,0v-1.51h-.19s-.19,0-.19,0v-.24h1.79s1.79,0,1.79,0v-3.56s0-3.56,0-3.56h-1.11v-.23h.61c.34,0,.95,0,1.36,0h.74v.36h1.48v-.35h.33c.43-.02,5.7-.02,6.2,0h.38v.37h1.49v-.18s-.02-.18-.02-.18h.71c.39,0,1.05,0,1.48,0h.78v.37h1.49v-.18s-.02-.18-.02-.18h.38c.21-.01,2.43-.01,4.93-.01s4.84,0,5.19,0h.63v.18s-.02.18-.02.18h1.49v-.36h.54c.29-.01,1.91-.01,3.59,0h3.05s0,.59,0,.59v.58h.23v.12s0,.25,0,.25h.74s.74,0,.74,0v-.18s0-.18,0-.18h.93s.93,0,.93,0v.18s0,.18,0,.18h1.48v-.37h.59v-5.36h-2.22s-2.22.02-2.22.02v-2.68h-.17v2.68h-1.4v1.23h-1.59v-.12s0-.12,0-.12h.67s.67,0,.67,0v-5.72h3.18v-1.39h-1.11v-.25h2.44v.25h-1.08v5.87h2.82v-5.87h-.13s-.13,0-.13,0v-.12s0-.12,0-.12h.26v-1.51h-6.01v1.51h.34v.25h-3.53v7.11h.12v.25h-1.53v-.24h1.16v-7.12h-1.16v-.25h4.35v-1.51h-6.13v1.51h.3v.25h-3.49v4.03h2.85v1.54s0,1.55,0,1.55h.32s.32,0,.32,0v.24h-7.16v-.24h.29s.29,0,.29,0v-.58s0-.58,0-.58h.24v1.15h2.61v-2.83h-2.61v.2h-.24v-.45h2.85v-4.03h-6.13v7.12h1.22v.24h-2.71v-.24h.62s.62,0,.62,0v-3.56s0-3.56,0-3.56h-6.14v4.03h2.86v3.09h.56v.24h-7.16v-.24h.65v-3.09h2.85v-4.03h-1.03v-.25h4.22v-1.51h-6.13v1.51h.43v.25h-3.62v3.56s0,3.56,0,3.56h.57s.57,0,.57,0v.24h-2.47v-.24h1.07v-7.12h-6.13v4.03h2.84v.45h-.24v-.2h-2.61v2.83h2.61v-1.15h.24v.58s0,.58,0,.58h.36s.36,0,.36,0v.24h-7.4v-.1c0-.05,0-.13,0-.18v-.08h-1.47v.08s-.01.12-.01.18v.1h-.44v2.93h.94c.52,0,1.17,0,1.46,0h.52v.24h-.69v1.11h-.25v-1.11h-1.3s-1.3,0-1.3,0v2.83h1.3s1.3,0,1.3,0v-.24h.25v.47h-2.85v4.04h1.06v.24h-2.47v-.24h.58s.58,0,.58,0v-4.03h-1.43s-1.43,0-1.43,0v-.47h.25v.24h1.3s1.3,0,1.3,0v-1.42s0-1.42,0-1.42h-2.61v1.11h-.25v-1.11h-.52v-.23h.39c.22-.01.83-.02,1.36-.02h.96v-2.93h-.5v-.36h-1.48v.36h-6.94v-3.44h.19s.19.02.19.02v-1.51h-.19s-.19.02-.19.02v-2.33h-6.44v-4.3h-3.02s-3.02,0-3.02,0v-.25s0-.25,0-.25h.25v.25h5.8v-1.87h-5.8v.25h-.25v-.5h.53v-2.93h.23v-.02h1.43v.25c0,.14,0,.48,0,.77v.51s.97,0,.97,0v1.42h.5v-1.42h.97v-1.53h1.41v-2.64h-1.42v-.26h1.42v-1.49h-5.45v1.49h1.55v.26h-2.37s-2.37-.02-2.37-.02v7.38h-1.45v-.18s.02-.18.02-.18h-1.51v.18s.02.18.02.18h-3.56s-3.56,0-3.56,0v-.12s0-.12,0-.12h.58v-3.08h2.84v-4.03h-3.46v-.25h.27v-1.51h-6.01ZM780.73,310.87h2.47v.12s0,.12,0,.12h-.59s-.59,0-.59,0v7.11h1.22v.25h-2.33c-1.28,0-2.33,0-2.34,0-.01-.01-.01-3.19,0-3.37v-.13h.24v.18h.74v.24h-.72v2.86h2.93v-2.86h-.71v-.24h.72v-2.02s0-2.02,0-2.02h-.51s-.51,0-.51,0v-.24ZM774.1,313.26h.08c.47,0,1.51.48,1.63.74l.02.05v.19l-.02.08s-.06.16-.1.26c-.11.26-.11.28-.17.55-.07.33-.11.49-.17.61l-.05.1-.05.05s-.07.05-.1.06c-.14.04-.3,0-.67-.16-.23-.1-.38-.16-.69-.24-.41-.11-.58-.21-.6-.36v-.04s0-.05,0-.05c0-.03.04-.09.07-.14l.06-.09.19-.2c.31-.32.36-.39.38-.55v-.09s0-.23,0-.23v-.23s0-.07,0-.07c.02-.12.06-.19.15-.22l.04-.02ZM795.27,319.35l.09.09.09.09-.18.18-.18.18h-2.08l-.19-.19-.19-.19.08-.08c.1-.1.08-.11.25.07l.15.15h1.86l.15-.15.15-.15ZM793,320.87h2.06l.19.19.19.19-.09.09-.09.09-.15-.15-.15-.15h-1.87l-.15.15-.15.15-.09-.09-.09-.09.19-.19.19-.19ZM791.71,322.82s-.08,0-.09,0h-.05v1.48h.47v-1.48h-.19c-.05,0-.1,0-.15,0h0ZM816.79,322.9v.47h1.48v-.47h-1.48ZM820.75,322.9v.12c-.01.07-.01.17,0,.24v.11h1.47v-.11c.01-.06.01-.17,0-.24v-.12h-1.47ZM822.85,327.75v1.48h.06s.14,0,.24,0h.18v-1.48h-.47ZM791.84,328.75v.47h1.48v-.47h-1.48ZM795.82,328.75v.12c-.01.07-.01.17,0,.24v.11h1.47v-.11c.01-.06.01-.17,0-.24v-.12h-1.47ZM827.16,340.81v.47h1.48v-.18c0-.1,0-.21,0-.24v-.06h-1.48ZM861.5,340.81v.06s0,.14,0,.24v.18h1.49v-.47h-1.48ZM865.42,340.81v.47h1.48v-.47h-1.48Z"/>
      <path id="Floor-3-W" class="st1" d="M708.75,309.33v.75s0,.75,0,.75h.72s.71,0,.71,0v.25h-1.43v2.69h1.4v1.52h.97v1.42h.51v-1.42h.97v-.76s0-.76,0-.76h.61c.34,0,.71,0,.83,0h.22v2.93h.53v2.32h-6.05v4.3h-6.43v2.32h-.25v-2.32h-.12v-.12h-.39v-.25h.39v-1.51h-6.02v1.51h.1s.1,0,.1,0v.12s0,.12,0,.12h-3.39v3.56s0,3.56,0,3.56h.58s.58,0,.58,0v.24h-2.47v-.24h1.05v-7.13h-1.05v-.25h4.26v-.75s0-.75,0-.75h-3.07s-3.07,0-3.07,0v1.51h.4v.25h-.98v-.25h.33v-1.51h-6.13v1.51h.36v.25h-3.55v7.12h1.64s1.64,0,1.64,0v-1.55s0-1.54,0-1.54h2.85v-4.03h-1.09v-.25h2.46v.25h-1.11v4.03h2.85v.45h-.24v-.2h-2.61v2.85h1.3s1.3,0,1.3,0v-.57s0-.57,0-.57h.24v.57s0,.57,0,.57h.37s.37,0,.37,0v.24h-2.98v2.94h.5v.37h1.49v-.36h.51c.66-.02,5.71-.02,6.24,0h.41v.24h-.53v3.08h-1.43s-1.43,0-1.43,0v2.02s0,2.02,0,2.02h6.14v-3.56s0-3.56,0-3.56h-.63s-.63,0-.63,0v-.23h.74c.41,0,.8,0,.87,0h.13v.24h-.21v7.13h2.94v-4.47h-1.71v-2.66h-.04v-.23h.03s.41-.01.87-.01h.84v-.88h1.02v.37h1.49v-.37h.31v-3.81h1.57v1.95h.51v-1.95h.68s.67,0,.67,0v-.12h2.68v-7.24h1.45v.37h1.49v-.18s-.02-.18-.02-.18h7.14v.36h1.48v-.36h2.72v.24h-1.25v7.12h6.13v-4.03h-2.84v-.53h.24v.28h2.61v-2.85h-1.3s-1.3,0-1.3,0v.54s0,.54,0,.54h-.24v-.54s0-.54,0-.54h-.28s-.28,0-.28,0v-.24h7.16v.24h-.33s-.33,0-.33,0v.54s0,.54,0,.54h-.24v-.54s0-.54,0-.54h-1.3s-1.3,0-1.3,0v2.85h2.61v-.28h.24v.53h-2.84v4.03h3.51v.25h-.32v1.51h6.02v-1.51h-.26v-.25h.26v-3.56s0-3.56,0-3.56h-.3s-.3,0-.3,0v-.24h.3s.3,0,.3,0v-5.13s0-5.13,0-5.13h-6.02v2.25h-.12c-.07,0-.15,0-.18,0h-.06v1.48h.35v.19c.01.11.01.89.01,1.75v1.56s-2.34,0-2.34,0h-2.33s0-.37,0-.37h-.74s-.74,0-.74,0v.18s0,.18,0,.18h-7.11v-.25h.59v-1.1h.24v1.1h2.61v-2.83h-2.61v.24h-.24v-.49h2.84v-4.03h-3.44v-.25h.25v-1.51h-6.14v1.51h.2v.23h-.15c-.08.01-.53.01-.99.01h-.84v-.25h1.55v-1.51h-5.47ZM727.51,310.72v.08s-.02.11-.02.16,0,.11,0,.16v.08h1.47v-.08s.02-.11.02-.16,0-.11,0-.16v-.08h-1.47ZM731.46,310.72v.06s0,.14,0,.24v.18h1.49v-.47h-1.48ZM716.14,310.84h2.72v.25h-1.21v7.11h1.21v.25h-1.45v-3.68s0-3.68,0-3.68h-.63s-.63,0-.63,0v-.24ZM731.15,315v.12c-.01.07-.01.17,0,.24v.12h1.49v-.47h-1.48ZM713.52,319.51h.07c.09,0,.19.03.49.14.14.05.29.1.33.11l.08.02h.07s.07-.01.07-.01l.23-.08c.12-.04.25-.08.29-.08h.07s.05,0,.05,0h.05s.04.06.04.06l.04.05.02.06c.03.09.05.25.06.43v.16s0,.17,0,.17c0,.09-.02.22-.04.28l-.02.11-.04.08-.04.08-.06.04-.06.04-.09.02-.09.02h-.28s-.28-.02-.28-.02l-.25.03c-.59.07-.74.04-.82-.15l-.03-.06v-.1c0-.05,0-.19,0-.3v-.21s-.01-.26-.01-.26l-.03-.26v-.09c.02-.13.06-.21.14-.25l.03-.02ZM657.4,321.48h-3.07s-3.07,0-3.07,0v.75s0,.75,0,.75h.41v.25h-3.6v1.45h3.19v2.68s0,2.99,0,2.99h.67s.67,0,.67,0v.24h-1.59v-1.18h-1.39v-2.68h-.17v2.68h-.6c-.33,0-.86,0-1.19,0h-.59v-.24h.72v-5.93h-1.07v-.25h4.27v-1.51h-6.02v1.51h.27v.25h-.27v2.93s0,3,0,3h.3s.3,0,.3,0v.24h-.6v5.31h.6v.25h-.6v5.94h2.82v-5.94h-.72v-.25h1.85v.38h1.49v-.38h.21v-.58s0-.58,0-.58h3.05c1.68-.02,3.29-.02,3.59-.01h.54v.24h-.53v1.13h-.12s-.12,0-.12,0v-.56s0-.56,0-.56h-1.3s-1.3,0-1.3,0v1.42s0,1.42,0,1.42h2.61v-.24h.25v.47h-2.85v4.04h3.38v.25h-.19v1.51h6.13v-1.51h-.25v-.25h3.44v-4.04h-2.85v-3.08h-.59v-.23h.45c.58-.02,5.81-.02,6.18,0h.29v.24h-.19s-.19,0-.19,0v1.54s0,1.54,0,1.54h-1.42s-1.42,0-1.42,0v2.02s0,2.02,0,2.02h1.24v.25h-4.43v1.51h3.07s3.07,0,3.07,0v-.75s0-.75,0-.75h-.21v-.25h3.4v-3.56s0-3.56,0-3.56h-.72s-.71,0-.71,0v-.24h2.96v.24h-1.28v7.12h3.5v.25h-.32v.75s0,.75,0,.75h3.07s3.07,0,3.07,0v-1.51h-.38v-.25h3.57v-7.12h-1.34v-.24h.68v-1.66h-1.49v-.64s0-.64,0-.64h-2.68s-2.68,0-2.68,0v-.24h.57s.57,0,.57,0v-3.56s0-3.56,0-3.56h-1.14v-.25h4.33v-1.51h-6.14v1.51h.32v.25h-.97v-.25h.41v-1.51h-6.14v1.51h.28v.25h-3.47v7.13h1.24v.24h-2.7v-.37h-1.49v.37h-2.91v2.94h.69v.24h-1.21v7.12h1.21v.12s0,.12,0,.12h-1.35s-1.35,0-1.35,0v-.25h1.26v-7.12h-1.26v-.24h.5v-1.47s0-1.47,0-1.47h-1.36s-1.36,0-1.36,0v-.24h.32s.32,0,.32,0v-1.54s0-1.54,0-1.54h2.85v-4.03h-3.49v-.25h.3v-1.51ZM735.41,321.48h2.12v.24h-.36s-.36,0-.36,0v3.56s0,3.56,0,3.56h1.08v.25h-1.22c-.67,0-1.23,0-1.23,0,0,0,0-.06,0-.12v-.12h1.14v-7.13h-1.14v-.24ZM720.15,322.79v1.48h.47v-1.48h-.47ZM653.16,322.98h2.47v.25h-1.16v7.12h1.16v.24h-1.53v-.24h.06s.06,0,.06,0v-3.56s0-3.56,0-3.56h-1.05v-.25ZM672.17,322.98h2.47v.25h-1.03v4.03h1.42s1.42,0,1.42,0v.22s0,.22,0,.22h-.25v-.2h-2.61v1.42s0,1.42,0,1.42h1.3s1.3,0,1.3,0v-1.15h.25v1.15h.65v.24h-1.68c-.92,0-1.77,0-1.88,0-.11,0-.96,0-1.89,0h-1.7v-.24h.55v-1.15h.25v1.15h2.6v-2.85h-2.6v.2h-.25v-.45h2.86v-4.03h-1.18v-.25ZM697.62,322.98h2.47v.25h-.95v4.04h2.94v-.12h.25v3.44h-1.54c-.85,0-1.62,0-1.72,0-.1,0-.97,0-1.93,0h-1.75v-.24h.64v-1.54s0-1.54,0-1.54h1.43s1.43,0,1.43,0v-4.03h-1.27v-.25ZM699.43,331.04h.23l.07.03c.12.05.18.12.21.25l.02.06v.18c-.01.1-.03.27-.04.37l-.03.18v.43s0,.43,0,.43l-.03.09-.03.1-.03.04s-.05.05-.06.06l-.03.02h-.06s-.06.01-.06.01l-.06-.02c-.09-.03-.18-.07-.43-.2-.13-.06-.27-.13-.33-.15l-.1-.03h-.08s-.08,0-.08,0l-.12.04c-.07.02-.2.07-.28.1l-.16.06h-.17s-.04-.02-.04-.02c-.09-.05-.13-.13-.16-.31l-.02-.12v-.3s.01-.3.01-.3l.02-.15c.04-.31.09-.52.16-.64l.04-.08.05-.03s.08-.04.11-.06l.06-.02h.1s.1-.01.1-.01l.19.02c.24.03.38.03.61,0l.18-.02h.23ZM679.88,333.52c1.43,0,2.84,0,3.06,0h.34v.24h-.45v1.13h-.12s-.12,0-.12,0v-.56s0-.56,0-.56h-1.3s-1.3,0-1.3,0v2.83h1.3s1.3,0,1.3,0v-.24h.25v.47h-2.85v4.04h1.08v.12s0,.12,0,.12h-1.23s-1.23,0-1.23,0v-.25h1.14v-2.02s0-2.02,0-2.02h-1.42s-1.43,0-1.43,0v-3.08h-.51v-.23h.39c.26-.01,1.69-.01,3.12-.01h0Z"/>
      <g id="Floors-Locked-3">
        <path id="Floors-Locked-3-E" class="st0" d="M816.48,321.51v1.51h.31v-.12h1.48v.12h2.47v-.12h1.49v.12h.39v-1.51h-6.14ZM789.62,321.75h-.61s-.61,0-.61,0v7.12h3.45v-.12h1.48v.12h1.2v-4.03h-2.85v-.53h-.12v-1.48h.12v-1.08h-.29s-.29,0-.29,0v.12h-.74s-.74,0-.74,0v-.07s0-.07,0-.07ZM794.52,321.75h-1.3s-1.3,0-1.3,0v.54s0,.54,0,.54h.13v1.48h-.13v.29h2.61v-2.85ZM799.71,321.75v.13h-1.48v-.13h-.6v1.54s0,1.54,0,1.54h-1.43s-1.42,0-1.42,0v4.03h1.03v-.12h1.49v.12h.3v-.12h1.66s1.66,0,1.66,0v-7h-.6s-.6,0-.6,0ZM820.74,323.26h-.53s-.53,0-.53,0v7.12h1.06s0-.06,0-.06v-.07s1.49,0,1.49,0v.07s0,.07,0,.07h.36s.36,0,.36,0v-.58s0-.58,0-.58h-.06s-.06,0-.06,0v-1.5h.11v-.22s0-.22,0-.22h1.42s1.43,0,1.43,0v-4.03h-3.58v.12h-1.5v-.06s0-.06,0-.06ZM813.29,323.26v4.03h2.85v1.54c0,.85,0,1.54,0,1.55,0,0,.15,0,.33,0h.32v-.13h1.48v.13h.58s.58,0,.58,0v-3.56s0-3.56,0-3.56h-1.16v.12h-1.48v-.12h-3.5ZM823.2,327.54v.2h.13v.74s0,.74,0,.74h-.12v1.14h2.61v-2.83h-2.61ZM795.81,329.12h-1.24s-1.24,0-1.24,0v.12h-1.48v-.12h-.26v1.51h6.01v-1.5h-.15s-.15,0-.15,0v.06s0,.06,0,.06h-1.5v-.06s0-.06,0-.06ZM803.84,333.04v7.89h6.01v-3.56h-2.87v-2.25h2.87v-2.08h-.77v.13h-.74s-.74,0-.74,0v-.12h-1.88s-1.88,0-1.88,0ZM826.06,333.8v7.13h1.1v-.12h1.48v.12h3.54v-4.04h-2.85v-3.08h-.45v.12h-1.48v-.12h-1.35ZM861.74,334.98h-.11s-.11,0-.11,0v1.88h-3.56v4.05h3.53v-.12h1.48v.12h.56s.56,0,.56,0v-2.97s0-2.97,0-2.97h-.88v.12h-1.5v-.06s0-.06,0-.06ZM864.34,334.99v5.94h1.08v-.12h1.5v.06s0,.06,0,.06h.26v-5.94h-.59v.12h-1.49v-.12h-.73ZM827.16,341.17h-2.15s-2.15,0-2.15,0v.74c0,.41,0,.75,0,.76v.02h6.14v-1.52h-.36v.13h-1.48v-.13ZM866.91,341.17v.12h-.74s-.74,0-.74,0v-.12h-2.44v.12h-1.48v-.12h-.34v1.51h6.01v-1.5h-.13s-.13,0-.13,0Z"/>
        <path id="Floors-Locked-3-W" class="st0" d="M727.22,309.33v1.51h.28v-.06s0-.06,0-.06h1.5v.12h2.47v-.12h1.48v.12h.3v-1.51h-6.01ZM731.46,311.08h-.52s-.52,0-.52,0v2.02s0,2.02,0,2.02h.73v-.07s0-.07,0-.07h1.49v.13h.36s.36,0,.36,0v-.09s0-.09,0-.09h-.13v-.74s0-.74,0-.74h.12v-2.25h-.13v-.13h-.3v.13h-1.48v-.13ZM727.5,311.08h-1.73s-1.73,0-1.73,0v4.03h2.85v3.08h.58v-.12h1.48v.12h1.22v-7.11h-.59s-.59,0-.59,0v.06s0,.06,0,.06h-1.5v-.06s0-.06,0-.06ZM730.41,315.36v2.86h2.94v-2.86h-.72v.13h-.74s-.74,0-.74,0v-.12h-.73ZM720.25,321.71h-1.3s-1.3,0-1.3,0v1.42s0,1.42,0,1.42h2.61v-.29h-.12v-1.48h.12v-1.08ZM720.5,321.71v1.08h.12v1.48h-.12v.53h-2.86v4.03h6.14v-7.13h-1.22v.13h-1.48v-.13h-.58Z"/>
      </g>
    </g>
  </g>
</svg>