<?xml version="1.0" encoding="UTF-8"?>
<svg id="svg235" xmlns="http://www.w3.org/2000/svg" version="1.1" viewBox="0 0 977.1 977.1">
  <!-- Generator: Adobe Illustrator 30.2.1, SVG Export Plug-In . SVG Version: 2.1.1 Build 1)  -->
  <defs>
    <style>
      .st0 {
        stroke-width: 7.11px;
      }

      .st0, .st1, .st2 {
        fill: gold;
        stroke: gold;
        stroke-miterlimit: 3.56;
      }

      .st3 {
        stroke-width: 12px;
      }

      .st3, .st4 {
        stroke: #888;
      }

      .st3, .st4, .st5, .st6, .st7 {
        fill: none;
      }

      .st4 {
        stroke-width: 8px;
      }

      .st5 {
        stroke: #000;
      }

      .st5, .st7 {
        stroke-width: 2px;
      }

      .st1 {
        stroke-width: 4.45px;
      }

      .st8 {
        fill: #1f5054;
      }

      .st9 {
        fill: #4a6b96;
      }

      .st10 {
        fill: #dcd5b6;
      }

      .st2 {
        stroke-width: 10.67px;
      }

      .st6 {
        stroke: #914833;
        stroke-dasharray: 6;
        stroke-width: 3px;
      }

      .st11 {
        fill: #1a2632;
      }

      .st12 {
        fill: #4b4b4b;
      }

      .st7 {
        stroke: #ffce00;
        stroke-dasharray: 6 6;
        stroke-miterlimit: 10;
      }

      .st13 {
        fill: #c6c2c2;
      }
    </style>
  </defs>
  <g id="Ground_Level">
    <g id="Base_Terrain">
      <path class="st8" d="M816.07,530.62l2.15,4.64,40.18.04.23,61.35,92.64,41.08.08,27.52,23.52,13.86.02,90.85-37.97,9.44-36.74,7.45-96.39,5.4-71.79,4.55-68.05,10.61-45.4,12.82-38.39,17.5-52.85,29.01-49.82,30.88-17.22,9.85-13.95,6.22-25.19,2.73-161.38.1.08-23.89,6.58-7.56,6.07-536.37-89.93,1.26-46.76-1.01-.44-22.53-5.93-21.96-7.45-11.21-18.05-13.67-33.26-24.12-31.74-32.27-23.79-38.61-11.67-43.72L1.8,28.49l32.11-13.68-.08-12.74,58.9-.1v12.8l10.64,8.55,139.57.92,10.32-9.64V2.18s80.46-.15,80.46-.15v12.28l10.63,9.6,294.44-2.69v22.03s-3.33,21.9-3.33,21.9l.68,27.58,37.9.08,15.31,15.37,55.16.03-.1-43.9,4.92-2.61,11.04-12.23,32.52-.08,49.23,2.21,17.59,17.41.2,145.26-32.4.13-11.55,11.46-.12,64.71,2.78,6.14.18,59.39-3.45,2.05.56,73.06,9.54,6.27.13,51.9-4.5.03-4.98,2.73-.02,38.47Z"/>
    </g>
    <g id="Water">
      <path class="st9" d="M190.21,334.2c3.41-.25,6.89-1.53,9.6-3.62,1.42-1.09,3.38-2.6,3.12-4.36-.43-2.9-5.16-3.06-6.99-5.36-1.19-1.5-2.01-3.36-2.37-5.24-.19-.98.35-2.02.12-2.99-.4-1.67-1.88-2.89-2.49-4.49-1.14-2.99-.68-6.5-2.12-9.36-.92-1.82-2.79-2.98-3.99-4.61-.84-1.14-.89-3.19-2.24-3.62-1.6-.5-3.29.97-4.62,2-2.3,1.77-4.33,4.15-5.36,6.86-.72,1.91-.75,4.1-.37,6.11.66,3.55,3.34,6.43,4.49,9.85.61,1.82.63,3.8,1.25,5.61,1.14,3.38,2.24,6.95,4.49,9.73.91,1.13,2.17,2.01,3.49,2.62,1.24.57,2.63.97,3.99.87h0Z"/>
      <path class="st9" d="M166.63,287.31c2.02-.04,3.85,1.67,5.86,1.5,1.5-.13,2.75-1.23,4.12-1.87,1.46-.69,2.8-1.7,4.37-2.12,2.26-.6,5.2,1,6.99-.5,1.31-1.1,1.8-3.37,1.25-4.99-.41-1.2-1.84-1.82-2.99-2.37-2.27-1.08-4.85-1.52-7.36-1.62-4.4-.19-9.22-.34-13.1,1.75-1.84.99-3.67,2.69-4.12,4.74-.34,1.57.55,3.24,1.37,4.61.36.61.81,1.32,1.5,1.5.71.18,1.38-.61,2.12-.62h0Z"/>
      <path class="st9" d="M143.49,251.85c-2.4-1.58-5.68-3.53-8.29-2.34-2.3,1.05-3.81,4.4-3.24,6.86.43,1.87,3.43,2.01,4.49,3.62,1.1,1.66.77,3.94,1.62,5.74.43.92.92,1.91,1.75,2.49,2.15,1.52,5.43.64,7.61,2.12,1.89,1.29,2.2,4.25,4.12,5.49,1.75,1.13,4.35,2.51,6.09,1.36,1.52-1,.46-3.63,1.01-5.36,1.12-3.45,5.36-6.3,4.62-9.85-.28-1.36-1.8-2.33-3.13-2.74-3.12-.97-6.71,2.4-9.73,1.17-3.4-1.38-3.85-6.54-6.91-8.56h0Z"/>
      <path class="st9" d="M195.07,238.66c-1.48.19-2.94,1.29-3.62,2.62-.42.81-.4,1.92,0,2.74.46.96,1.73,1.26,2.49,1.99,1.15,1.1,1.82,2.7,3.12,3.62.95.67,2.09,1.28,3.24,1.25.82-.02,1.73-.36,2.25-1,.62-.76.82-1.91.62-2.87-.35-1.66-2.47-2.5-2.99-4.12-.23-.71.42-1.63,0-2.24-1.03-1.51-3.3-2.23-5.11-2h0Z"/>
      <path class="st9" d="M148.91,235.58c-1.65-.14-3.75.6-4.51,2.07-.9,1.76.55,3.93,1.13,5.82.51,1.69.61,3.88,2.07,4.88,1.9,1.32,5.24,1.85,6.95.28,2.19-2.02,1.71-6.26.38-8.92-1.09-2.18-3.59-3.92-6.01-4.13h0Z"/>
      <path class="st9" d="M374.51,73.19c.01,2.04,1.08,4.3,2.76,5.46,1.58,1.09,4.11-.42,5.72.61.84.53.77,1.94,1.55,2.56,2.09,1.65,4.95,2.23,7.61,2.42.98.07,1.93-.63,2.9-.47.75.12,1.29,1.28,2.02,1.08,1.23-.34,2.01-2.02,1.95-3.3-.08-1.72-2.84-2.47-3.03-4.18-.11-.97.6-1.89,1.14-2.69.75-1.11,1.6-2.32,2.83-2.83,1.43-.59,3.17-.47,4.65,0,.81.26,1.29,1.19,2.09,1.48,1.02.37,2.15.27,3.23.27,3.58.01,7.57.91,10.71-.81.89-.49,1.91-1.42,1.82-2.42-.29-3.08-4.67-4.08-6.87-6.26-.63-.63-1.04-1.52-1.82-1.95-.88-.49-2.36.2-2.96-.61-.84-1.12-.26-2.91.34-4.18.72-1.54,1.95-3.38,3.64-3.57.84-.09,1.37,1.67,2.16,1.35,1.48-.6,1.46-3.08,1.14-4.65-.29-1.43-1.18-3.32-2.63-3.5-1.23-.15-2.1,1.4-2.9,2.36-.8.96-1.02,2.33-1.82,3.3-.63.78-1.3,1.76-2.29,1.95-1.02.2-1.96-.71-2.96-1.01-1.6-.48-3.28-1.85-4.85-1.28-1.47.54-1.72,2.61-2.69,3.84-1.09,1.37-2.14,2.81-3.5,3.91-1.23.98-2.67,1.67-4.11,2.29-1.64.71-3.33,1.67-5.12,1.62-1.37-.04-2.95-.44-3.84-1.48-.76-.89.22-2.77-.74-3.43-1.23-.85-3.28-.27-4.45.67-1.22.98-2.25,2.92-1.68,4.38.4,1.03,2.47.49,2.96,1.48.39.78-.2,1.74-.47,2.56-.59,1.78-2.5,3.17-2.49,5.05h0Z"/>
      <path class="st9" d="M438.36,52.77c-.64-.57-.62-1.79-.25-2.56,1.1-2.26,4-3.18,6.36-4.05,1.17-.43,2.47-.45,3.71-.5,2.42-.09,4.84.47,7.27.41,2.1-.05,4.19-.92,6.27-.66,1.02.13,2.36.19,2.89,1.07.35.57.05,1.38-.25,1.98-.82,1.68-2.89,2.44-3.96,3.96-.67.95-1.1,2.05-1.49,3.14-.32.91-.34,1.9-.66,2.81-.36,1.03-1.32,1.88-1.4,2.97-.12,1.57.34,3.31,1.32,4.54.53.66,1.72.56,2.23,1.24.45.61-.08,1.73.49,2.23.31.27.83.11,1.24.08.45-.03.89-.37,1.32-.25,1.26.36,2.15,1.57,2.89,2.64.6.88,1.48,1.96,1.16,2.97-.25.78-1.64.62-2.06,1.32-.47.78-.15,1.82-.25,2.72-.14,1.32.1,2.77-.49,3.96-.43.85-1.14,1.76-2.06,1.98-1.97.46-3.77-2-5.78-1.82-.59.05-.98.77-1.57.83-1.52.15-2.89-1.65-4.38-1.32-2.53.57-3.21,5.54-5.78,5.2-1.46-.19-1.09-3.02-2.39-3.71-1.07-.57-2.48.46-3.63.08-.76-.25-1.16-1.16-1.9-1.49-1.17-.52-3.27.51-3.8-.66-.94-2.1,1.68-4.65,3.63-5.86.78-.48,1.96.24,2.72-.25,1.71-1.1,2.67-3.29,3.05-5.28.11-.57-.34-1.16-.25-1.73.64-4,4.17-7.03,5.37-10.9.29-.93.75-1.98.41-2.89-.32-.86-1.23-1.44-2.06-1.82-1.14-.52-2.47-.42-3.71-.5-1.4-.08-3.16,1.02-4.21.08h0Z"/>
    </g>
    <g id="Structure">
      <path class="st12" d="M753.2,139.42h-143.31v10.71h-131.5v136.24h-7.97v272.83h7.92v117.7h-1.87v18.95h18.7v-2.25h114.87v13.03h143.29v-127.31h37.69l4.67-20.07v-273.1l-4.67-19.37h-37.83v-127.35h0Z"/>
    </g>
    <g id="Roads">
      <g id="Normal_Roads">
        <path class="st4" d="M297.99,792.23c14.51-25.83,42.63-30.62,61.46-51.12"/>
        <path class="st4" d="M379.82,716.48c.23,12.61-14.12,26.22-26.73,26.06-12.29-.16-24.7-11.96-24.48-26.06.21-13.06,10.3-24.77,24.07-24.92,14.6-.05,26.91,12.73,27.13,24.92Z"/>
        <path class="st4" d="M302,612.56c.2,11.49,12.64,26.26,26.81,26.58,12.85.29,30.38-12.7,31.5-22.74"/>
        <path class="st4" d="M359.94,691.11c1.32-372.34.97-539.18.95-545.51-.02-6.33.74-9.87,2.59-12.61,1.85-2.74,4.42-5.27,8.03-7.38,3.61-2.11,14.9-3.36,19.67-3.62,4.77-.26,13.58-1.08,68.1-1.17"/>
        <path class="st4" d="M665.64,704.86s.17,6.88-.98,9.99c-.96,2.69-1.99,5.19-4.79,7.14-2.93,2.04-10.86,2.58-10.86,2.58"/>
        <path class="st4" d="M649.46,724.66l-270.82.88"/>
        <path class="st4" d="M622.08,723.16c0,6.91.24,11.7.35,17.22.17,8.51.2,13.85.18,20.92-.28,5.23.65,10.98-5.13,14.5-28.25,16.08-62.4,30.41-91.5,45.51-8.95,4.45-22.02,12.08-30.26,14.52-7.48,2.22-14.42,1.8-22.22,1.85-20.11.12-38.31.23-60.13.15-18.71.04-42.61,1.85-48.87-3.13-6.48-5.55-9.34-12.79-10.32-22.7-.95-13.26-.48-23.84-.47-37.62,0-10.96.96-24.53.77-32.97"/>
        <path class="st4" d="M461.83,121.81s-.12,113.1-.43,141.11c-.05,4.42.28,7.6-1.2,10.89-1.39,3.08-4.26,5.04-5.58,7.93-1.21,2.66-1.67,6.67-1.66,9.79.12,43.48-.74,80.12-.89,120.18-.17,44.76-.34,89.71,0,134.28.03,3.37-.11,9.17.67,12.59.91,3.99,3.99,7.63,5.95,9.9,3.47,4.02,2.68,7.42,2.7,12.78.13,46.26-.24,140.57-.24,140.57"/>
        <path class="st4" d="M458.68,120.77c109.51.22,210.88-.52,320.67-.48"/>
        <path class="st4" d="M865.29,726.36s3.98-21.39.36-35.74c-3.62-14.34-14.9-21.1-30.91-23.38-13-1.85-44.16-1.46-44.16-1.46"/>
        <path class="st4" d="M804.11,666.93c-.17-48.59-.16-224.14-1.31-521.74-.58-9.27-6.13-24.87-23.61-24.89"/>
        <path class="st4" d="M928.61,788.66s-1.77-19.59-11.56-40.65c-3.03-6.02-8.54-12.66-14.34-16.09-9.28-5.48-21.34-4.8-32.03-4.46-17.85.57-41.11.45-50.89-2.11-11.83-3.1-15.23-13.36-15.43-22.46-.29-13.03-.22-29.37-.24-35.47"/>
        <path class="st4" d="M440.03,660.64h18.96"/>
        <path class="st4" d="M440.35,622.04h18.23"/>
        <path class="st4" d="M438.95,551.84h11.21"/>
        <path class="st4" d="M438.59,513.32h12.01"/>
        <path class="st4" d="M438.57,442.4h12.01"/>
        <path class="st4" d="M375.79,513.01h-13.28"/>
        <path class="st4" d="M375.79,551.48h-13.37"/>
        <path class="st4" d="M377,403.8h-14.67"/>
        <path class="st4" d="M438.77,333.37h12.01"/>
        <path class="st4" d="M439.21,294.27h11.56"/>
        <path class="st4" d="M377.73,293.95h-15.78"/>
        <path class="st4" d="M377.39,331.87h-15.78"/>
        <path class="st4" d="M440.38,225.01h18.51"/>
        <path class="st4" d="M360.53,147.08h100.14"/>
        <path class="st4" d="M557.87,121.85v23.99"/>
        <path class="st4" d="M540.51,721.92v-31.14"/>
        <path class="st4" d="M530.99,723.49v15.83"/>
        <path class="st4" d="M419.98,727.63v14.12"/>
        <path class="st4" d="M451.38,403.06h-12.01"/>
        <path class="st4" d="M790.79,176.22h15.23"/>
        <path class="st4" d="M462.99,236.6h18.51"/>
        <path class="st4" d="M454.28,377.18h18.51"/>
        <path class="st4" d="M454.56,467.17h18.51"/>
        <path class="st4" d="M462.36,621.98h18.51"/>
        <path class="st4" d="M772.17,109.12v8.94"/>
        <path class="st4" d="M829.67,81.78l.18,78.53"/>
        <path class="st4" d="M954.16,79.99l-153.02-.15"/>
        <path class="st4" d="M828.68,118.11c-17.28-.2-32.75-.32-33.91,6.06"/>
        <path class="st4" d="M1192.12,743.12s-48.74,1.16-73,3.29c-20.26,1.77-40.6,3.69-60.5,7.89-28.84,6.09-56.25,17.8-84.84,24.99-23.89,6.01-47.96,11.59-72.34,15.12-21.11,3.07-42.51,3.76-63.79,5.26-41.18,2.9-82.63,2.43-123.64,7.23-22.55,2.64-44.65,6.5-66.59,12.32-18.23,4.83-35.37,11.77-52.54,19.55-34.95,15.84-67.13,36.03-99.65,56.38-28.82,18.03-85.69,57.08-85.69,57.08"/>
        <path class="st4" d="M1060.73,753s2.48-254.86,3.26-383.25c.08-12.18-1.07-24.57-4.4-36.29-2.97-10.41-6.74-21.14-13.67-29.45-8.04-9.62-20.55-14.36-30.74-21.64-9.97-7.13-21.99-12.12-29.76-21.6-11.03-13.46-16.75-30.77-21.75-47.44-5.2-17.34-6.62-35.66-8.25-53.69-1.81-20.11-1.67-40.36-1.67-60.56,0-35.02-.65-93.39-.65-93.39"/>
      </g>
      <g id="Highways">
        <path class="st3" d="M404.62,40.01c-26.9,14.68-39.42,24.14-57.74,45.09-23.05,28.05-41.54,62.75-41.78,111.78"/>
        <path class="st3" d="M274.97,947.92c.15-153.39,2.96-330.32,4.83-484.74.94-77.21,3.19-196.88,3.74-274.03.56-77.15-.58-111.77-.51-188.47"/>
        <path class="st3" d="M185.31,39.76c28.25,16.23,32.59,20.03,55.31,42.65,24.09,28.66,44.2,64.64,42.85,114.47"/>
        <path class="st3" d="M297.21,947.95c0-153.4,3.69-367.17,5.57-521.63.94-77.23,1.73-154.46,2.28-231.56.55-77.1-.12-117.14-.12-193.84"/>
      </g>
    </g>
    <g id="Rocks">
      <path class="st10" d="M124.85,199.27c.9.97,2.48,1.57,3.77,1.26,1.81-.44,2.11-3.47,3.89-4.02.98-.3,2.01.81,3.01.63,1.22-.23,3.02-.77,3.14-2.01.14-1.44-1.9-2.26-3.14-3.01-1.02-.62-2.65-.2-3.39-1.13-.29-.36.28-1.16-.12-1.38-1.01-.54-1.87,1.57-3.01,1.63-.54.03-.98-.75-1.51-.63-1.85.43-3.32,2.43-3.77,4.27-.35,1.47.1,3.29,1.13,4.4h0Z"/>
      <path class="st10" d="M219.83,255.39c.23-.97,1.59-1.51,2.59-1.5.73,0,1.14,1.06,1.86,1.14.65.08,1.21-.59,1.87-.6.85-.02,1.9.02,2.47.66.4.46.37,1.21.24,1.8-.17.83-.65,1.65-1.32,2.17-.95.73-2.41,1.65-3.43,1.02-.69-.43.25-1.95-.42-2.41-.59-.4-1.45.7-2.1.42-.99-.42-1.99-1.66-1.74-2.71h0Z"/>
      <path class="st10" d="M219.65,297.13c-.41-.44-.22-1.3.12-1.8.59-.87,2.38-.44,2.83-1.38.23-.48-.64-1.11-.36-1.56.6-1,2.21-.86,3.37-.9.98-.04,2.44-.33,2.89.54.23.45-.55.88-.66,1.38-.17.78-.26,1.67.06,2.41.11.26.5.34.6.6.31.83.18,1.84-.18,2.65-.27.61-.77,1.19-1.38,1.44-.95.39-2.19.47-3.07-.06-.71-.43-1.04-1.36-1.2-2.17-.07-.36.36-.81.12-1.08-.69-.78-2.42.71-3.13-.06Z"/>
      <path class="st10" d="M571.34,40.74c.96-.6,2.41-.4,3.41.13,1.24.66,1.85,2.16,2.49,3.41.64,1.23,1.39,2.56,1.31,3.94-.06,1.15-.45,2.56-1.44,3.15-1.28.77-3.12.39-4.46-.26-.84-.41-1.4-1.28-1.84-2.1-.47-.88-1.11-1.94-.79-2.89.28-.83,1.74-.78,2.1-1.58.24-.52.29-1.32-.13-1.71-.39-.36-1.29.44-1.58,0-.42-.64.27-1.69.92-2.1Z"/>
      <path class="st10" d="M582.89,41.93c-.2.5.52,1.05.39,1.58-.27,1.08-1.68,1.53-2.23,2.49-.5.88-.89,1.88-.92,2.89-.05,1.9.68,3.77,1.44,5.51.29.67.57,1.44,1.18,1.84,1.04.67,2.9-.44,3.67.53.39.48-.45,1.31-.13,1.84.52.85,1.76,1.08,2.76,1.18.62.06,1.22-.32,1.84-.39,1.3-.16,2.77.46,3.94-.13.95-.48,1.84-1.44,1.97-2.49.21-1.77-1.89-3.11-2.23-4.86-.21-1.07.5-2.25.13-3.28-.58-1.6-1.89-3.04-3.41-3.81-.82-.42-1.91.11-2.76-.26-.48-.21-1-.56-1.18-1.05-.21-.58.67-1.37.26-1.84-.37-.43-1.19.24-1.71,0-.42-.19-.46-.98-.92-1.05-.82-.12-1.79.55-2.1,1.31h0Z"/>
      <path class="st10" d="M899.99,677.84c.77-1.03,1.86-2.25,3.15-2.23.44,0,.61.76,1.05.79.96.06,1.56-1.67,2.49-1.44.71.17,1.19,1.11,1.18,1.84,0,.79-.66,1.53-1.31,1.97-.56.37-1.38.08-1.97.39-.65.35-.88,1.3-1.58,1.58-1.22.48-3.19.95-3.94-.13-.55-.79.34-1.98.92-2.76h0Z"/>
    </g>
    <g id="Pavement">
      <g id="Outdoors">
        <path class="st13" d="M697.32,116.77l-23.97-23.93-38.2.06-2.15,4.55.06,19.38"/>
        <path class="st13" d="M750.02,84.08v26.18h40.76v-26.18h-40.76Z"/>
        <path class="st13" d="M753.2,266.77v-110h37.83v110h-37.83Z"/>
        <path class="st13" d="M836.62,108.94v-19.57h16.31v19.57h-16.31Z"/>
        <path class="st13" d="M833.33,147.55v-26.03h16.41v26.03h-16.41Z"/>
        <path class="st13" d="M827.27,171.6v-10.72h21.22v10.72h-21.22Z"/>
        <path class="st13" d="M826.88,191.16v-10.79h21.75v10.79h-21.75Z"/>
        <path class="st13" d="M500.33,739.08v55.96h35.57l52.99-24.78.17-31.19h-88.74Z"/>
        <path class="st13" d="M374.1,159.96v94.91h67.48v-94.91h-67.48,0ZM404.09,173.37c2.63.06,5.28.65,7.84,1.24,2.96.7,6.12,1.36,8.56,3.17,1.33.99,2.65,2.34,3.01,3.96.39,1.74-.46,3.57-1.11,5.23-.9,2.29-2.93,4.04-3.8,6.34-.81,2.11-1.15,4.4-1.27,6.66-.12,2.44.1,4.91.63,7.29.43,1.93,1.59,3.63,2.06,5.55.39,1.6,1.13,3.34.64,4.91-.49,1.57-2.03,2.63-3.33,3.65-1.94,1.51-4.55,1.99-6.5,3.49-1.72,1.32-3.03,3.11-4.44,4.76-1.73,2.04-2.78,4.73-4.91,6.34-2.14,1.62-4.82,3.53-7.45,3.01-2.68-.53-5.02-3.11-5.87-5.71-.86-2.65.08-5.8,1.43-8.24,1.75-3.18,5.94-4.36,8.08-7.29,1.81-2.48,3.13-5.4,3.8-8.4.64-2.84.68-5.86.16-8.72-.59-3.24-1.87-6.42-3.65-9.19-1.49-2.33-4.22-3.7-5.71-6.02-.92-1.44-2.13-3.06-1.9-4.76.22-1.64,1.69-2.96,3.01-3.96,2.31-1.75,5.22-2.79,8.09-3.17.87-.12,1.74-.16,2.62-.14h0Z"/>
        <path class="st13" d="M372.54,365.49v-103.13h68.64v103.13h-68.64Z"/>
        <path class="st13" d="M372.85,426.59v-53.68h68.82v53.68h-68.82,0Z"/>
        <path class="st13" d="M372.54,473.19v-37.99h68.98v37.99h-68.98Z"/>
        <path class="st13" d="M372.45,584.4v-104.09h69.22v104.09h-69.22Z"/>
        <path class="st13" d="M372.26,591.86v75.39l43.84,44.06h25.49v-119.44h-69.33Z"/>
        <path class="st13" d="M398.92,739.84v15.02l-3.08,2.31v43.46l3.08,2.77v8.9h70.47v-8.9l3.08-2.77v-43.46l-3.08-2.31v-15.02h-70.47Z"/>
        <path class="st13" d="M807.41,433.3v58.9h8.78l4.72-2.91h4.61s0-51.65,0-51.65l-9.32-4.35h-8.78Z"/>
        <path class="st13" d="M825.57,631.89v-95.45h31.73v95.45h-31.73Z"/>
        <path class="st13" d="M753.34,689.29v-109.97h37.69v109.97h-37.69Z"/>
        <path class="st13" d="M695,139.56v-15.55h-52.25l.12,15.55"/>
      </g>
      <g id="Garage">
        <path class="st13" d="M640.06,139.45l.31,147.74h-59.29v11.09h23.66v9.91h-34.89v-42.68h22.78v-115.4h-70.6v59.45l-6.41.13.06-10.44-3.87-.08.03-12.25-9.61-8.67h-23.79v124.96h16.53v54.31s-24.57,0-24.57,0v37.72h71.24v55.18h-71.24v38.15h66.33l-.33,103.9h-35.89v-9.51h11.13v-12.4h-33.28v74.3h34.14v48.65l53.26.15v-23.59h47.22v-97.23h24.86v-10.44h-24.86s-6.57,0-6.57,0v-2.86h-25.84v-12.11h22.82v1.04h-21.72v10.02l60.75.17v-12.37h.97s0,12.37,0,12.37h.29v147.84h51.79v-29.25h25.55v-18.66h32.29v-38.55h-56.49v-61.06h80.64v-.16h.43v-32.68h17.66v-59.12h-17.66v-18.94h17.66v-50.67h-17.66v-18.18h17.66v-58.99h-17.66v-35.58h-51.27v242.44h-83.19v11.77h-1.08s0-6.46,0-6.46h-22.28v-20.24h-5.35v-21.63h-47.06v-14.25l5.06-.15-.13-12.71-4.94-.04v-15.51h54.18v-49.98h-54.18l.03-63.07,45.78-.13v-7.11h60.7v-41.02h24.45v-60.78h54.56v-38.24h-31.85v-18.28h-24.78l-.18-29.8h-56.34ZM515.85,272.32h33.9v13.22h-33.9v-13.22Z"/>
        <path class="st13" d="M464.69,408.35h7.06v6.8h14.38v15.2h-14.48v7.16h-6.66l-.3-29.17h0Z"/>
      </g>
    </g>
    <g id="Ramps">
      <g id="Big_Ramps">
        <path class="st0" d="M789.46,162.35h-36.2"/>
        <path class="st0" d="M784.78,232.33v34.38"/>
        <path class="st0" d="M784.7,615.89v-38.35"/>
        <path class="st0" d="M789.54,682.92h-35.98"/>
      </g>
      <path class="st2" d="M583.3,508.08v-17.13"/>
      <path class="st1" d="M486.18,279.39h18.78"/>
      <path class="st1" d="M502.58,192.87h9.27"/>
      <path class="st1" d="M474.74,422.89h11.33"/>
      <path class="st1" d="M500.14,576.68h11.51"/>
      <path class="st1" d="M611.32,567.62h16.86"/>
      <path class="st1" d="M789.51,416.81v12.61"/>
      <path class="st1" d="M595.69,290.47h-9.07"/>
      <path class="st1" d="M595.94,553.75h-9.12"/>
    </g>
    <g id="Train_Tracks">
      <path class="st6" d="M2.54,776.15l70.97-6.72,34.68-13.43,29.82-25.4,21.63-32.58,7.14-38.78,3.37-309.83-3.88-21.64-10.66-23.6-20.35-23.01-17.62-15.65-29.11-26.28-16.03-20.7-9.23-21.2-4.09-25.75-.93-169.51"/>
      <path class="st6" d="M3.08,781.34l71.88-6.98,36.49-13.56,31.9-26.18,23.6-35.28,7.22-40.11,3.53-309.96-3.23-21.77-10.27-23.74-18.92-23.14-17.88-16.17-29.37-26.15-16.68-19.79-10-21.2-4.87-25.75-.15-169.51"/>
      <path class="st6" d="M3.69,922.7l1184.93,1.26"/>
      <path class="st6" d="M3.69,929.76l1184.93,1.26"/>
    </g>
    <g id="Buildings">
      <path class="st11" d="M823.9,190.24v6.42h-2.97v-6.42h2.97Z"/>
      <path class="st11" d="M823.8,182.72v6.96h-2.88v-6.96h2.88Z"/>
      <path class="st11" d="M856.19,168.38v5.78h-4.66v-5.78h4.66Z"/>
      <path class="st11" d="M799.82,85.96v2.98h-8.69v18.44h27.89v-16.22h.56v-5.2s-19.76,0-19.76,0Z"/>
      <path class="st11" d="M856.18,157.92v5.76h-4.58v-5.76h4.58Z"/>
      <path class="st11" d="M851.34,148.71v6.32h-6.02v-6.32h6.02Z"/>
      <path class="st11" d="M840.35,148.68v6.22h-6.03v-6.22h6.03Z"/>
      <path class="st11" d="M852.83,69.03v6.33h-6.26v-6.33h6.26Z"/>
      <path class="st11" d="M843.24,69.06v6.3h-6.46v-6.3h6.46Z"/>
      <path class="st11" d="M372.23,443l7.45-7.39,4.74,4.78-7.45,7.39-4.74-4.78Z"/>
      <path class="st11" d="M418.73,251.08h13.93v-9.24h-13.93v9.24Z"/>
      <path class="st11" d="M637.14,528.69h-10.46v3.73h10.46v-3.73Z"/>
      <path class="st11" d="M933.86,770.28l10.28-2.95-1.5-5.24-10.28,2.95,1.5,5.24Z"/>
      <path class="st11" d="M934.75,772.4l10.07-2.88,1.54,5.39-10.07,2.88-1.54-5.39Z"/>
      <path class="st11" d="M78.01,71.17v13.92h9.23v-13.92h-9.23Z"/>
      <path class="st11" d="M348.96,715.57v3.16l6.33,1.26v-5.66l-6.33,1.23Z"/>
      <path class="st11" d="M531.24,80.88l1.64-5.1-6.48-.74-.93,2.98,5.77,2.87Z"/>
      <path class="st11" d="M331.51,474.82v3.16l6.33,1.26v-5.66l-6.33,1.23Z"/>
    </g>
    <g id="Limit">
      <path class="st5" d="M816.07,530.62l2.15,4.64,40.18.04.23,61.35,92.64,41.08.08,27.52,23.52,13.86.02,90.85-37.97,9.44-36.74,7.45-96.39,5.4-71.79,4.55-68.05,10.61-45.4,12.82-38.39,17.5-52.85,29.01-49.82,30.88-17.22,9.85-13.95,6.22-25.19,2.73-161.38.1.08-23.89,6.58-7.56,6.07-536.37-89.93,1.26-46.76-1.01-.44-22.53-5.93-21.96-7.45-11.21-18.05-13.67-33.26-24.12-31.74-32.27-23.79-38.61-11.67-43.72L1.8,28.49l32.11-13.68-.08-12.74,58.9-.1v12.8l10.64,8.55,139.57.92,10.32-9.64V2.18s80.46-.15,80.46-.15v12.28l10.63,9.6,294.44-2.69v22.03s-3.33,21.9-3.33,21.9l.68,27.58,37.9.08,15.31,15.37,55.16.03-.1-43.9,4.92-2.61,11.04-12.23,32.52-.08,49.23,2.21,17.59,17.41.2,145.26-32.4.13-11.55,11.46-.12,64.71,2.78,6.14.18,59.39-3.45,2.05.56,73.06,9.54,6.27.13,51.9-4.5.03-4.98,2.73-.02,38.47Z"/>
    </g>
    <g id="Powerline_Towers">
      <path class="st11" d="M206.71,166.32l6.25.06-.06,6.19-6.25-.06.06-6.18Z"/>
      <path class="st11" d="M226.41,166.38h6.13v6.41h-6.13v-6.41Z"/>
      <path class="st11" d="M210.13,351.86h6.14v5.99h-6.14v-5.99Z"/>
      <path class="st11" d="M229.88,351.77h5.74v5.99h-5.74v-5.99Z"/>
      <path class="st11" d="M210.06,537.27h5.79v5.78h-5.79v-5.78Z"/>
      <path class="st11" d="M229.66,537.38h5.9v5.97h-5.9v-5.97Z"/>
      <path class="st11" d="M210.11,722.77h6.12v5.93h-6.12v-5.93Z"/>
      <path class="st11" d="M229.58,722.72h6.16v6.03h-6.16v-6.03Z"/>
      <path class="st11" d="M209.88,903.65h6.29v6.18h-6.29v-6.18Z"/>
      <path class="st11" d="M229.51,903.67h6.29v6.23h-6.29v-6.23Z"/>
      <path class="st11" d="M872.87,908.19l6.29-.52.52,6.27-6.29.52-.52-6.26Z"/>
      <path class="st11" d="M863.19,749.08l6.17-.41.41,6.17-6.17.41-.41-6.17Z"/>
      <path class="st11" d="M860.23,562.7l5.86-.29.28,5.76-5.86.29-.28-5.76Z"/>
      <path class="st11" d="M860.01,405.48l6.08-.25.24,5.89-6.08.25-.24-5.89Z"/>
      <path class="st11" d="M860.36,240.74l5.86-.31.3,5.8-5.86.31-.31-5.8Z"/>
      <path class="st11" d="M897.84,96.79h6.06v6.16h-6.06v-6.16Z"/>
      <path class="st11" d="M1034.99,96.75h6.22v6.07h-6.22v-6.07Z"/>
    </g>
    <g id="Powerlines">
      <path class="st7" d="M212.85,947.37v-40.42l-.16-181.37v-370.8l-3-185.8V0"/>
      <path class="st7" d="M232.64,946.55v-39.59l-.15-181.24v-370.99l-3.14-185.57V.33"/>
      <path class="st7" d="M844.64,98.64l56.35.86h292.18"/>
      <path class="st7" d="M837.24,185.53l26.39,57.83-.4,164.86v157.17l3.45,186.88,9.71,158.94v33.01"/>
    </g>
  </g>
</svg>