<?xml version="1.0" encoding="UTF-8"?>
<svg id="svg235" xmlns="http://www.w3.org/2000/svg" version="1.1" viewBox="0 0 977.1 977.1">
  <!-- Generator: Adobe Illustrator 30.2.1, SVG Export Plug-In . SVG Version: 2.1.1 Build 1)  -->
  <defs>
    <style>
      .st0 {
        fill: none;
        stroke: #fed700;
        stroke-miterlimit: 3.55;
        stroke-width: 4.44px;
      }

      .st1 {
        fill: #70777f;
      }

      .st2 {
        fill: #1a2632;
      }
    </style>
  </defs>
  <g id="Second_Floor">
    <g id="Structure-2">
      <path class="st2" d="M478.39,150.71v136.23h-7.94v272.69h8v134.16h245.51s0-133.82,0-133.82h54.99v-110.18h16.53v-53.27h-17.09v-109.73h-54.43v-136.08h-245.57ZM579.41,341.46h8.17l5.72,5.75v8.21l-5.72,5.75h-8.17l-5.72-5.75v-8.21l5.72-5.75ZM579.86,414.51h7.37l2.52,2.52h28.6l2.82,2.79v7.21l-2.88,2.88h-28.65l-2.59,2.59h-7.23l-2.59-2.59h-28.39l-2.96-2.96v-7.13l2.79-2.79h28.65l2.54-2.52ZM498.41,417.03h30.39l2.82,2.79v7.21l-2.88,2.88h-30.16l-2.96-2.96v-7.13l2.79-2.79h0ZM579.33,485.94h8.15l5.71,5.74v8.2l-5.71,5.74h-8.15l-5.71-5.74v-8.2l5.71-5.74Z"/>
    </g>
    <g id="Floor-2">
      <path class="st1" d="M492.62,288.9v7.78l-9.47,5.15v41.91h-1.72v-11.41l-9.36-.02v39.17h9.36v-13.15h1.72v14.87h-11.08v33.67h-7.74v5.13l-2.24,4.17v13.57l2.24,4.17v5.45h7.74v33.69h11.12v16.56h-1.72v-14.84h-9.4v39.06h9.4v-12.45h1.72v25.71h-1.72v-8.27h-9.4v40.22h18.55v-8.45l-9.15-5.03v-5.56h1.72v4.51l9.15,5.03v9.49h31.12v-11.67h5.45v1.72h-3.73v9.95h27.27v-9.95h-4.64v-1.72c28.77,0-39.66-.03,41.06-.03v11.7h9.89v-5.69h1.72v5.69h34.86v-3.34h1.72v3.34h23.35v-8.98h-7.91v3.18h3.96v1.72h-5.68v-4.89h-13.61v.84l-.11.5v1.58h-1.72v-2.08h-3.7v-8.95h-3.32v6.97h.84v1.72h-13.96v-1.72h9.92v-14.08h-6.88v12.45h-10.62v-12.45h-7.13v14.08h9.89v1.72h-9.89v.74h-1.72v-14.72l-45.94-.02v-1.72h5.95v-13.43h-14.42v13.43h5.62v1.72h-7.34v-34.76h8.31v1.72h-6.59v13.51h29.45v-4.68l-1.25-1.24,1.22-1.22,1.2,1.2h15.07l11.57-11.57h24.14v-9.92h4.64v1.72h-2.92v8.2h3.36v-4.6h-1.64v-1.72h4.99v1.72h-1.63v4.6h3.79v-8.2h-3.54v-1.72h3.54v-23.33h-2.68v-1.72h2.68v-83.08h-3.65v-1.72h3.65v-22.64h-2.85v-1.72h2.85v-8.06h-4.07v4.71h1.22v1.72h-3.99v-1.72h1.06v-4.71h-2.59v8.06h2.81v1.72h-4.53v-9.78h-3.55v.62h-1.72v-2h-20.1l-11.38-11.05h-12.49l-2.76,2.81-1.22-1.21.77-.77v-7.7h-29.55v14.76h7.52v1.72h-9.23v-34.89h7.32v1.72h-5.6v14.15h14.51v-14.15h-4.44v-1.72h44.6s0-14.97,0-14.97h1.72v1.65h9.3v1.72h-9.3l.04,15.39h7.07v-13.65h10.34v13.65h7.22v-15.39h-9.77v-1.72h13.97v1.72l-.6.03v6.94h3.3v-6.97h-.63v-1.72h3.96s0-1.65,0-1.65h1.72v2.51h22.49v-8.34h-7.11v2.92h4.09v1.72h-5.81v-4.64h-13.66v2.96h-1.72v-2.96h-34.9v2.96h-1.72v-2.96h-10.47v10.16h-34.13l-.5.12h-6.86v-1.72h5.42v-8.56h-26.81v8.56h16.94v1.72h-18.66v-10.28h-31.24,0ZM496.87,294.93h21.98v7.85h-21.98v-1.72h20.26v-4.41h-20.26v-1.72h0ZM495.08,309.11h10.35v1.72h-8.63v10.35h12.3v-11.47h4.54v11.47h12.97v-10.35h-8.61v-1.72h10.33v23.7h-1.72v-9.48h-9.57v5.93h-1.72v-5.93h-1.68v19.97h12.97v-6.85h1.72v21.62l-1.05.02h-18.18v-11.5h-12.3v9.61h7.72v1.72h-9.44v-20.73h1.72v6.55h12.3v-20.41h-12.3v8.94h-1.72v-23.15h0ZM518.97,327.3h1.72v12.54h3.28v1.72h-5v-14.26h0ZM515.31,332.26h1.72v8.45h-1.72v-8.45ZM568.24,340.88l1.22,1.22-2.49,2.49h-8.82s0-1.72,0-1.72h8.1l1.99-1.99h0ZM579.41,341.46h8.17l5.72,5.75v8.21l-5.72,5.75h-8.17l-5.72-5.75v-8.21l5.72-5.75ZM481.43,348.82h1.72v3.96h-1.72v-3.96ZM620.97,355.61h1.72v3.09h-21.57s-1.58,1.58-1.58,1.58l-1.22-1.21,2.08-2.09h20.57s0-1.37,0-1.37h0ZM543.25,358.45h23.16l10.31,9.98-.05,26.08h-1.72v-2.33h-28.49v15.05h7.03v1.72h-17.89v-1.72h7.6v-9.71h-21.06v9.71h6.46v1.72h-25.13s-1.91-1.91-1.91-1.91l1.22-1.22,1.41,1.41h11.79v-7.73h-.62v-1.72h.62v-24.45h-.62v-1.72l27.9-.02v-13.15h0ZM591.38,366.08l1.22,1.22-1.19,1.19v10.49l5.14-.06v-9.23h11.78v1.59h6.1v-1.59h8.22v6.61h-1.72v-4.89h-4.78v4.89h-1.72v-3.29h-6.1v3.29h-1.72v-4.89h-8.34v7.51h8.34v-.71h1.72v.71h6.1v-.71h1.72v.71h4.78v-.71h1.72v1.64h2.06v1.72h-2.06v17.23h-1.72v-16.38h-9.53v3.56l-.08.53h-1.69l-.1-.53h-2.59v14.52h2.69v-1.22h1.72v2.94h-4.41v5.04h13.97v-5.1h1.72v6.82h-32.95v-19.58h1.72v17.87h11.15v-24.83l-11.15.06v1.86h-1.72v-16.54l1.69-1.7h0ZM495.63,371.62h17.11v1.72h-.62v4.28h-1.72v-4.28h-1.92v4.28h-1.72v-4.28h-9.42v5.92h14.78s0,7.45,0,7.45h-1.72v-5.73h-1.92v5.73h-1.72v-5.73h-9.42v7.38h14.78s0,7,0,7h-1.72v-5.28h-1.92v5.28h-1.72v-5.28h-9.42v7.71h16.3v1.72h-16.3l.02.63,1.09,1.09-1.21,1.22-1.62-1.62v-29.2h0ZM609.64,388.73h1.72v8.9h-1.72v-8.9ZM574.95,397.63h1.72v11.32h-8.08s0-1.72,0-1.72h6.36v-9.6h0ZM559.16,407.24h3.84v1.72h-3.84v-1.72ZM579.86,414.51h7.37l2.52,2.52h28.6l2.82,2.79.03,1.54h-21.87v4.35l21.87.09-.03,1.23-2.88,2.88h-28.65l-2.59,2.59h-7.23l-2.59-2.59h-28.39l-2.96-2.96-.11-1.24h21.61v-4.36l-21.5-.08v-1.45l2.79-2.79h28.65l2.54-2.52ZM528.8,417.03l2.82,2.79v1.53h-21.38v4.44h21.38v1.24l-2.88,2.88h-30.16l-2.96-2.96v-7.13l2.79-2.79h30.39ZM503.46,437.44h50.02v1.72h-7.03v5h1.62v1.72h-1.62v8.65h2.51v-5.46h-1.37v-1.72h4.34v1.72h-1.25v5.46h2.58v-8.65h-3.15v-1.72h4.87v3.19h8.87v2.34h6.98v1.72h-6.98v1.53h-1.72v-3.87h-7.15v5.46h14.26v-2.14h1.72v2.14h4.27v-15.36h-7.02v-1.72h8.74v40.49l-9.72,9.89h-8.08v-1.72h7.36l8.72-8.88v-18.61h-6.84c0,15.68-.03-8.56-.03,14.55h-3.46v-1.72h2.4v-8.08h-2.79v4.59h1.21v1.72h-4.14v-1.72h1.21v-4.59h-2.92v8.08h3.23v1.72h-5.6v-5.69h-2.55v-1.72h2.55v-7.14h-13.41l-.02,7.14h7.87v1.72h-9.59v-3.61h-7.4v-5.24h-14.29v3.52h.83v1.72h-.83v9.21h9.26v1.72h-14.62v-1.72h1.12v-22.82h-19.61v6.34h9.96v-4.58h1.72v4.58h2.55v-4.58h1.72v6.3h-15.94v7.44h9.96v-5.19h1.72v5.19h2.55v-5.19h1.72v6.91h-15.94v5.6h9.96v-3.67h1.72v3.67h2.55v-3.67h1.72v5.39h-17.66v-28.45l1.52-1.52,1.22,1.22-1.02,1.02v1.48h7.82v-.69h1.72v.69h11.67v-2.94h-11.67l-.23.4h-1.48v-2.12h13.39v-4.71h-13.84l-1.41,1.41-1.22-1.22,1.91-1.91h0ZM559.16,437.44h3.28v1.72h-3.28v-1.72ZM589.43,437.44h33.63v6.98h-1.72v-5.26h-14.39v5.95h3.57v2.41h-1.72v-.69h-1.85v14.81h1.85v-.88h1.72v3.87h10.83v-16.43h1.72v16.43h1.56v1.72h-3.7v.77h-1.72v-.77h-2.93v2.32h-1.72v-2.32h-16.26v8.34h8.69v-4.99h1.72v4.99h5.85v-2.75h1.72v2.75h2.93v-4.99h1.72v6.71h-24.34v-10.06h-5.43v10.83l2.24,2.24-1.22,1.21-2.74-2.73v-15.59h1.72v2.33h5.43v-9.21h2.23v-3.61h1.72v3.61h1.55v1.72h-3.78v7.49h5.03v-11.96h-1.25v-1.72h1.25v-11.8h-12.19v18.85h-1.72v-20.57h0ZM608.8,449.58h1.72v8.94h-1.72v-8.94ZM523.72,462.14h8.6v1.72h-8.6v-1.72ZM535.42,473.07h9.14v13.03h8.92v1.72h-10.64v-13.03h-7.42v-1.72ZM579.33,485.94h8.15l5.71,5.74v8.2l-5.71,5.74h-8.15l-5.71-5.74v-8.2l5.71-5.74ZM599.51,485.79l1.47,1.47h20.98v3.29h-1.72v-1.57h-19.97l-1.97-1.97,1.21-1.22h0ZM513.25,488.33v11.54h14.23v2.49h-14.23v14.9h4.93v2.11h-1.72v-.4h-3.21v3.91h3.21v-2.04h1.72v2.04h7.67v-9.45h1.72v23.57h-10.25v-1.72h8.53v-9.36h-12.61v11.12h-3.43v-11.12h-13.01v9.36h8.04v1.72h-9.76v-22.98h1.72v8.86h13.01v-20.53h-2.66v10.84h1.24v1.72h-2.96v-12.56h-8.63v5.98h-1.72l.06-20h18.09ZM481.47,493.73h1.72v4.02h-1.72v-4.02ZM556.41,501.87h10.13l2.29,2.3-1.22,1.21-1.79-1.79h-9.41v-1.72h0ZM481.47,530.81h1.72v6.12h-1.72v-6.12ZM496.43,544.33h22.25v7.89h-22.25v-1.72h20.53v-4.46h-20.53v-1.72h0ZM532.32,547.36h9.98v1.72h-9.98v-1.72Z"/>
    </g>
    <g id="Ramps-2">
      <path class="st0" d="M496.58,298.84h20.56"/>
      <path class="st0" d="M531.76,423.57h-21.52"/>
      <path class="st0" d="M545.77,423.49h21.61"/>
      <path class="st0" d="M621.2,423.58h-21.87"/>
      <path class="st0" d="M496.64,548.29h20.33"/>
    </g>
  </g>
</svg>