<?xml version="1.0" encoding="UTF-8"?>
<svg id="svg235" xmlns="http://www.w3.org/2000/svg" version="1.1" viewBox="0 0 977.1 977.1">
  <!-- Generator: Adobe Illustrator 30.2.1, SVG Export Plug-In . SVG Version: 2.1.1 Build 1)  -->
  <defs>
    <style>
      .st0 {
        stroke-width: 10.67px;
      }

      .st0, .st1 {
        fill: none;
        stroke: gold;
        stroke-miterlimit: 3.56;
      }

      .st2 {
        fill: #70777f;
      }

      .st1 {
        stroke-width: 4.44px;
      }

      .st3 {
        fill: #1a2632;
      }

      .st4 {
        fill: #c6c2c2;
      }
    </style>
  </defs>
  <g id="First_Floor">
    <g id="Structure-1">
      <path class="st3" d="M609.97,139.45v10.95h-131.47v136.72h-7.95v272.5h7.93v134.08h131.53v12.82h143.39v-127.22h37.76l4.79-20.57v-272.83l-4.79-19.22h-37.82v-127.23h-143.37,0Z"/>
    </g>
    <g id="Pavament-1">
      <path class="st4" d="M778.52,559.3h-54.82v134.48h-112.43v11.49h140.89v-16.29h1.25v-11.79h-1.25v-99.15h26.53v1.25h11.49v-1.25l4.54-19.96v-108.6h-16.19v109.81h0Z"/>
      <path class="st4" d="M611.22,150.72h112.62v136.19h54.67v109.99h16.19v-110.84l-4.51-18.13v-1.25h-11.5v1.25h-26.6v-99h1.25v-12.05h-1.25v-16.19h-140.87v10.02h0Z"/>
    </g>
    <g id="Floor-1">
      <path class="st2" d="M708.12,150.72v1.25h-23.11v5.98h-1.72v-5.98h-27.92v5h-1.72v-5h-10.45v.54h-1.72v-.54h-4.17v8.42h-1.72v-8.42h-27.68v7.29h-1.72v-7.29h-17.2v1.29h-1.72v-1.29h-21.33v3.35h-1.72v-3.35h-13.95v6.35h-1.72v-6.35h-19.53v10.67h-1.72v-10.67h-16.66v.72h-1.72v-.72h-14.22v.72h-1.72v-.72h-12.5v21.63h9.88v-13.59h1.72v.83h8.97v-.83h1.72v2.55h-10.69v12.76h-11.6v2.23h21.96v4.5l1.63,3.96h11.57v1.72h-12.81l-1.92-4.84v20.31l1.94-4.35h12.79v1.72h-11.58l-1.62,3.45v3.97h-22.43v32.38h29.76v1.72h-28.53v10.4h2.48v-2.52h1.72v4.24h-4.21v2.97h6.44v-10h1.72v.81h10.81v1.72h-1.6v.66h-1.72v-.66h-7.5v13.6h7.5v-10.81h9.1v11.6h8.72v-14.38h-9.64v-1.72h9.64v-5.9h-.83v-1.72h2.55v15.46h5.18v3.53h-1.72v-1.81h-3.46v8.27h-10.45v6.76h13.91v-8.41h1.72v10.13h-8.79v3.36h-26.34v4.12h26.34v2.8h17.23v3.94h-37.58v7.91l-9.14,4.96v9.7h-1.72v-10.72l9.14-4.96v-6.88h-18.55v84.97h9.4v-.91h1.83l-.11,15.58h-1.72v-12.95h-5.33v6.24h-2.68v-1.72h.96v-4.52h-2.36v25.4h9.4v-7.88h1.72v7.88h2.22v13.89h2.83v1.72h-12.95v-1.72h8.41v-12.17h-11.62v5.63h-.02v.06h-6.73v3.36l-2.71,4.87v15l2.71,3.69v3.75h5.45l3.97-8.25h13.51v1.72h-12.4l-3.77,7.83v3.72h11.12v9.09h-1.72v-7.37h-9.4v25.72h9.4v-13.79h1.72v31.07h-1.72v-15.56h-9.4v42.11h9.4v-12.88h1.72v23.27h-1.72v-8.67h-9.4v41.34h18.55v-6.65l-9.14-5.75v-6.3h1.72v5.35l9.14,5.75v7.6h31.81v3.68l-24.34.04v7.16h16.46v1.72h-16.75v11.91h16.75v1.72h-16.46v5.35h-1.72v-.57h-9.03v7.59h-2.08v-1.72h.36v-5.87h-7.65v5.87h5.4v1.72h-5.4v1.77h1.89v1.72h-1.89v3.86h3.28v-4.72h1.72v4.72h4.13v-3.86h-1.84v-1.72h3.56v8.78h-1.72v-1.48h-9.13v7.55h9.13v-3.91h1.72v8.1h-1.72v-2.47h-9.13v8h9.13v-3.37h1.72v7.73h-1.72v-2.64h-9.13v6.51h9.13v-2.02h1.72v2.02h.49v1.72h-11.34v7.82h2.07v1.72h-2.07v32.84h4.48v.06h10.22v1.72h-4.09v4.22h-1.72v-4.22h-4.41v8.97h13.55v-8.97h-1.36v-1.72h3.08v12.42h-6.67v1.09h-1.72v-1.09h-6.88v.02h-4.48v4.73h11.36v-2h1.72v2h10.71v-15.39h1.72v15.39h154.02v-35.06h1.72v14.58h8.11v-14.58h1.72v14.58h7.65v-14.58h1.72v14.58h1.42v1.72h-20.61v18.76h61.36v-19.41l7-7.04-3.03-3.03-3.97,3.97v-2.73l7-7.04-3.03-3.03-3.97,3.97v-2.63l7-7.04-3.03-3.03-3.97,3.97v-2.82l7-7.04-3.03-3.03-3.97,3.97v-2.73l7-7.04-3.03-3.03-3.97,3.97v-2.73l7-7.04-3.03-3.03-3.97,3.97v-2.73l7-7.04-3.03-3.03-3.97,3.97v-2.73l7-7.04-3.03-3.03-3.97,3.97v-29.53h1.23v-9.96h-1.23v-3.86h-25.64v9.92h-1.72v-.7h-.92v-1.72h.92v-7.49h-3.45v7.49h.36v1.72h-.36v9.05h-20.73v.74h-1.72v-2.46h3.75v-.57h1.72v.57h3.76v-4.03h1.72v4.03h9.79v-7.33h-16.99v-6.04h1.72v4.32h15.27v-7.49h-9.79v4.73h-1.72v-4.73h-3.76v.56h-1.72v-.56h-11.85v3.18h-1.72v-3.18h-15v-1.51h-6.03v5.58h-26.08v4.04h26.08v5.48h-27.8v-15.1h-29.38v-2.33h.11v-.06h17.12v-.88h49.09v-.95h1.1v-10.95h1.72v2.8h7.1v1.72h-7.1v6.44h6.24v-2.99h-4.09v-1.72h5.81v4.71h1.79v-6.44h-.71v-1.72h.71v-7.48h7.54v-15.75h-4.17v-1.72h4.17v-14.01h-2.78v-1.72h3.29s2.6,0,2.6,0v50.76h53v-44.96h14.21v1.72h-12.49v12.99h24.42v-6.97h1.72v8.69h-26.14v28.51h38.18v1.23h8.43v-1.23h5.24v-109.81h3.57v1.27h9.75v-1.27h2.96v-16.42h-6.75v-3.22h1.06v2.01h5.69v-13.89h-5.69v8.22h-1.06v-9.68h6.75v-17.11h-2.96v-1.25h-9.75v1.25h-3.57v-109.99h-5.24v-1.26h-8.43v1.26h-38.02v28.65h25.98v8.55h-1.72v-6.83h-24.26v12.46h16.7v1.72h-18.42v-44.55h-54.58v49.63h-1.9v-15.01h-3.78v-1.72h3.78v-15.75h-7.62v-14.44h-2.21v4.41h-5.16v-1.72h3.44v-2.69h-6.48v5.65h7.64v1.72h-7.64v2.4h-1.72v-9.77h-13.01v-1.31h-34.13v1h-1.72l-.02-2.4h-28.95v-.06h0v-3.42h0v-.1h2.01v-3.28h1.72v3.28h19.1v-7.53h1.72v7.53h40v-7.53h1.72v7.53h17.57v-5.88h1.72v5.88h27.92v-5.88h1.72v5.88h37.59v-3.28h1.27v-8.71h-1.27v-31.65l3.82,3.82,3.03-3.03-6.85-6.89v-2.73l3.82,3.82,3.03-3.03-6.85-6.89v-2.73l3.82,3.82,3.03-3.03-6.85-6.89v-2.73l3.82,3.82,3.03-3.03-6.85-6.89v-2.73l3.82,3.82,3.03-3.03-6.85-6.89v-2.82l3.82,3.82,3.03-3.03-6.85-6.89v-2.63l3.82,3.82,3.03-3.03-6.85-6.89v-2.73l3.82,3.82,3.03-3.03-6.85-6.89v-21.06h-5.7v-1.25h-8.78,0ZM508.92,154.2h1.72v2.36h-7.88v1.2h-1.72v-1.2h-8.97v.64h-1.72v-2.36h18.57v-.64h0ZM518.59,156.34h5.92v6.3h-1.72v-4.58h-4.2v-1.72ZM587.27,157.2h1.72v7.22h17.2v-2.34h1.72v4.06h-35.41v-4.89h-8.28v-2.92h1.72v1.2h8.28v4.89h13.05v-7.22ZM515.67,161.13h1.72v16.83h-1.72v-16.83ZM683.29,161.13h1.72v2.06h-1.72v-2.06ZM683.29,166.01h1.72v8.38h12.38v87.89h-12.38v7.26h-1.72v-8.98h12.38v-84.45h-12.38v-10.1ZM653.64,166.64h1.72v102.89h-1.72v-20.21h-35.9v-1.72h35.9v-16.08h-10.51v-1.72h10.51v-63.16h0ZM624.11,171.09h13.05v43.82h-1.72v-12.01h-9.68v-1.72h9.68v-28.37h-11.33v-1.72h0ZM548.55,171.95h1.72v4.3h6.66v1.72h-6.66v1.94h-1.72v-7.96h0ZM610.56,173.6h6.15v1.72h-4.43v36.69h9.48v1.72h-9.48v25.62h-1.72v-25.62h-9.52v-1.72h9.52v-31.24h-8.86v-1.72h8.86v-5.45h0ZM564.08,176.26h6.92v2.8h23.46v1.72h-6.41v9.6h-1.72v-9.6h-15.33v9.6h-1.72v-12.4h-5.2v-1.72ZM530.87,177.39h4.16v3.77h-4.16v-3.77ZM569.28,195.54h1.72v7.98h30.04v1.72h-30.04v24.56h6.68v1.72h-6.68v16.08h30.04v1.72h-14.71v16.87h10.27v1.72h-11.99v-12.46l-3.81-6.13h-11.53v-53.78h0ZM531.03,204.61h4.16v3.75h-4.16v-3.75ZM503.72,231.79h4.2v3.82h-4.2v-3.82ZM547.95,249.7h1.72v7.13l8.62,7.35h14.73v3.74h-2.55v-2.09h-13.17l-9.35-8.08v-8.04h0ZM610.88,258.15h1.72v8.04h22.01v-7.48h1.72v7.48h5.7v1.72h-26.37v6.46h-1.72v-6.46h-9.95v-1.72h6.88v-8.04h0ZM530.93,259.12h4.14v3.74h-4.14v-3.74ZM683.29,273.42h1.72v2.25h-1.72v-2.25ZM548.56,282.82h5.07v5.28h-5.07v-5.28ZM550.28,284.54v1.84h1.63v-1.84h-1.63ZM480.47,291.03h1.72v2.28h-7.82v-1.72h6.1v-.56ZM635.26,294.42h1.72v1.35h5.9v32.55h17.55v9.44h-1.61v15.14h-22.91v-24.59h-44.75v4.84l2.12,2.12-1.14,1.08-2.42-2.42h-12.66l-2.42,2.42-1.3-1.38,1.81-1.82v-4.84h-30.9v15.12h15.76v1.72h-17.48l-.02-43.72h56.28v-6.72h1.72v1.05h9.95v1.72h-1.01v.62h-1.72v-.62h-7.22v3.8h5.01v1.72h-5.04v9.79h7.71v-12.83h10.36v12.83h7.18v-9.79h-4.87v-1.72h4.87v-3.8h-7v.62h-1.72v-.62h-.68v-1.72h13.2v1.72h-.78v7.19h4.6v-7.19h-2.37v-1.72h4.28v-1.35h0ZM647.63,303.11h1.72v.54h7.64v1.72h-.54v6.81h-3.06v-1.72h1.34v-5.09h-5.38v5.09h1.64v1.72h-1.64v1.94h-1.72v-11.01h0ZM493.97,305.34h11.1v1.72h-9.38v11.49h31.04v-11.49h-8.7v-1.72h10.42v53.11h-2.05v-1.72h.33v-10.01h-13.97v10.01h10.16v1.72l-28.94.05v-24.61s1.71,0,1.71,0v9.19h13.51v-21.32h-13.51v7.94h-1.72v-24.37h0ZM509.62,305.34h3.53v1.72h-3.53v-1.72h0ZM481.62,315.65h1.72v11.77h-1.72v-11.77ZM647.63,316.62h1.72v4.44h11.05v1.72h-12.77v-6.16ZM749.84,329.01h1.72v1.99h10.19v26.84h-1.72v-25.12h-10.19v-3.71ZM745.51,330.99h1.51v1.72h-1.51v-1.72ZM481.62,332.12h1.72l.11,16.42h-1.72l-.11-16.42h0ZM473.61,340.61h2.68v7.98h-2.68v-1.72h.96v-4.54h-.96v-1.72h0ZM582.38,344.62h4.22l3.37,3.37v6.77l-2.86,2.86h-5.76l-3.28-3.28,1.21-1.22,2.78,2.78h4.33l1.85-1.85v-5.34l-2.36-2.36h-3.51v-1.72h0ZM579.58,345.54l1.22,1.22-2.19,2.19-1.22-1.22,2.19-2.19ZM481.73,352.38h1.72v15.52h-1.72v-15.52ZM600.56,356.62h22.23v10.13h-1.72v-8.41h-19.8l-2.17,2.17-1.22-1.22,2.68-2.67ZM635.91,358.14h22.91l-.02,10.12h-1.72v-2.03h-19.44v1.67h-1.72l-.02-9.76ZM541.81,358.5h10.95v1.72h-9.23v2.3h-1.72v-4.02ZM555.79,358.5h10.62l5.44,5.45-1.22,1.21-4.94-4.94h-9.91v-1.72h0ZM760.04,363.42h1.72v17.42h-1.72v-17.42ZM541.81,365.18h1.72v7.28h31.52v-3.29l-1.88-1.89,1.22-1.22,2.39,2.39v31.74h-1.72v-8.1h-28.56v22.36h8.29v1.72h-18.68v-1.72h6.39v-22.36h-46.8v22.36h7.85v1.72h-9.57v-44.19h9.57v1.72h-7.85v15.94h30.69v-15.94h-7.91v-1.72h23.33v-6.82h0ZM591.78,366.12l1.18,1.26-2.01,1.88v7.84h30.13v-4.24h1.72l.02,37.21h-33.59v-8.82h1.72v7.08h11.7v-13.14h-13.44v-2.58h14.79v-11.77h-13.05v6.57h-1.72v-18.91l2.55-2.39h0ZM510.4,371.99h2.52v1.72h-2.52v-1.72ZM635.92,372.85h1.72v2.91h19.44v-2.91h1.72v29.11l-2.58,2.55-1.21-1.22,2.07-2.04v-1.21h-21.18l.02-27.19h0ZM760.04,386.87h1.72v13.55h-16.96v7.31h-1.72v-9.04h16.96v-11.83h0ZM575.06,406.16h1.72v10.02h-7.94v-1.72h6.22v-8.29ZM510.4,414.46h19.88v1.72h-19.88v-1.72ZM559.29,414.46h3.71v1.72h-3.71v-1.72ZM633.18,416.05l1.22,1.22-.99.99v7.09h.38v1.72h-2.1v-9.52l1.49-1.49h0ZM636.75,416.05l1.49,1.49v9.03h.99v3.47h-1.72v-2.98h-1.37v-1.72h.38v-7.09l-.99-.99,1.22-1.22ZM743.08,417.2h1.72v11.4h-1.72v-11.4ZM643.2,424.84h10.03v7.06h15.12v1.72h-16.84v-7.06h-8.31v-1.72h0ZM493.98,430.61h9.57v1.72h-7.85v9.08h-1.72v-10.8ZM510.4,430.61h19.08v1.72h-19.08v-1.72h0ZM535.58,430.61h17.75v1.72h-6.83v22.4h28.76v-8.41h1.72v19.48h-1.72v-8.45h-46.59v17.21l-10.39-.02v-1.72h7.95v-15.47h-30.53v15.47h7.85v1.72h-9.57v-28.22h1.72v8.41h47.44v-22.4h-7.57v-1.72h0ZM557.31,430.61h6.49v1.72h-6.49v-1.72ZM568.17,430.61h8.81v9.61h-1.72v-7.89h-7.09v-1.72ZM644.2,433.51h1.72v7.19h-1.72v-7.19ZM637.51,434.01h1.72v3.35h-1.72v-3.35ZM589.18,435.62h21.43v1.72h-3.66v28.45h14.21v-15.31h1.72v23.79h-1.72v-6.03h-30.26v9.64l2.85,2.85-1.22,1.22-3.35-3.35v-27.74h1.72v14.94h14.33v-28.45h-14.33v8.43h-1.72v-10.15h0ZM614.21,435.62h8.68v9.41h-1.72v-7.69h-6.96v-1.72h0ZM743.26,438.69h1.72v6.06h16.75v70.08h-10.18v2.31h-1.72v-2.31h-4.51v-1.72h14.69v-66.64h-16.75v-7.78ZM651.51,439.46h16.84v1.72h-15.12v6.65h5.59v3.93h-1.72v-2.21h-6.8v-1.72h1.21v-8.37h0ZM637.51,442.31h1.72v3.47h-1.72v-3.47ZM635.91,447.84h9.56v1.72h-7.84v2.21h-1.72v-3.93ZM635.91,456.3h1.72v1.48h19.47v-1.48h1.72v16.87h-8.89v3.31h7.82v1.72h-7.82v7.38h7.82v1.72h-4.4v5.14h4.4v1.72h-4.4v5.28h4.4v1.72h-4.4v6.15h5.96s2.44,0,2.44,0v1.72h-1.57v9.72h-17.09v31.21h-9.71v-8.66h-4.64v8.66h-3.32v-.02h-9.12v-1.72h9.12v-2.85h-4.75v-1.72h4.75v-9.41h-6.48v12.76h-11.52v-12.76h-6.48v9.41h4.42v1.72h-4.98v2.85h9.89v1.72h-9.89v.88h-1.72v-5.16h-1.8s-5.5,0-5.5,0v-1.72h5.35v-22.69h-54.9v-8.05h1.72v3.83h32.64v-4.62l-3.27-3.28,1.05-.96,3.24,3.51h12.04l3.95-4.15,1.05,1.03-1.05.93v1.77h5.23v3.3h-1.72v-1.58h-3.51v5.17h3.51v-1.34h1.72v1.34h37.47v-15.18h-6.5v-1.72h6.5v-44.93s0,0,0,0h0ZM575.26,470.96h1.72v7.11l-9.99,9.81h-7.96v-1.72h7.24l8.99-8.81v-6.4h0ZM508.53,472.82h4.49v1.72h-4.49v-1.72h0ZM535.58,472.82h7.96v13.35h9.79v1.72h-11.52v-13.35h-6.24v-1.72ZM621.16,478.61h1.72v10.28h-23.78l-3.1-3.1,1.22-1.22,2.6,2.6h21.35v-8.56ZM493.98,487.83h11.22v1.72h-9.5l-.13,9.54h30.82l.13-9.54h-8.79v-1.72h10.51v10.51h.03l-.02,32.75h-1.73v-3.01h-30.82v10.81h8.71v1.72h-10.43v-24.78h1.72v8.52h14.67v-21.57h-14.67v8.06h-1.72v-23.02h0ZM509.7,487.83h3.32v1.72h-3.32v-1.72h0ZM578.47,490.01h1.72v2.48l-1.26,1.26v6.96l-.87.87,1.62,1.62h7.11l1.13-1.13-1.99-1.99,1.7-1.69v-8.38h1.72v9.09l-.98.98,1.99,1.99-2.85,2.85h-8.53l-3.34-3.34,1.58-1.58v-6.96l1.26-1.26v-1.76h0s0,0,0,0ZM541.81,501.23h22.45v1.72h-20.73v3.93h-1.72v-5.65h0ZM599.84,501.23h24.89v1.72h-24.89v-1.72ZM648.57,523.03h12.26v1.72h-10.54v3.66h-1.72v-5.38h0ZM541.89,525.83h1.72v18.07h9.04v1.72h-10.76v-19.79h0ZM648.57,531.2h1.72v2.37h.64v1.72h-.64v4.95h4.09v-4.95h-1.07v-1.72h2.8v6.67h1.29v1.72h-7.1v.21h-1.72v-10.97h0ZM526.53,534.98h1.72v5.63h-10.52v-1.72h8.79v-3.91h0ZM509.3,538.89h4.1v1.72h-4.1v-1.72ZM567.51,543.94h6.32v1.72h-6.32v-1.72ZM659.36,567.62h1.72v11.65h-1.72v-11.65ZM672.93,572.8h1.72v3.32h-1.72v-3.32ZM695.09,575.54h1.72v98.24h-5.89v-1.72h4.17v-38h-5.16v-1.72h5.16v-46.43h-.92v-1.72h.92v-8.65ZM659.36,582.25h1.72v50.08h21.46v1.72h-2.27v15.19h-1.72v-15.19h-17.47v15.61h-1.72v-67.41h0ZM669.18,583.46h1.72v.72h21.1v1.72h-.36v3.03h-1.72v-3.03h-11.2v19.57h11.2v-14.26h1.72v29.61h-1.72v-13.63h-11.3v19.72h11.3v-3.69h1.72v5.41h-27.6s.02-35.49.02-35.49h1.72v12.28h11.22v-19.51h-11.22v4.71h-1.72v-6.43h5.12v-.72h0ZM527.23,588.39l1.21,1.22-6.79,6.79-1.22-1.22,6.79-6.79ZM498.23,592.57h1.72v3.02h-4.6v6.1h3.64v1.72h-3.64v5.39h3.64v1.72h-3.64v5.57h3.64v1.72h-3.64v5.57h3.64v1.72h-3.64v5.21h3.64v1.72h-3.64v.9h-2.39v-1.72h.67v-37.34h4.6v-1.3ZM513.82,601.98l1.22,1.22-1.68,1.68v31.23h-1.72v-31.94l2.18-2.18ZM685.1,632.33h2.13v1.72h-2.13v-1.72ZM669.19,638.66h1.72v10.58h-1.72v-10.58ZM484.6,640.74h10.49v5.49h16.54v-4.18h1.72v5.9h-8.01v25.95h-1.72v-5.44h-18.26v-22h1.72v6.7h6.29v-.76h1.72v4.01h.4v1.72h-2.12v-3.25h-6.29v11.87h16.54v-8.62h-5.71v-1.72h5.71v-8.46h-8.54v2.29h-1.72v-7.78h-6.29v.94h-1.72v-.94h-.76v-1.72h0ZM685.1,672.06h2.13v1.72h-2.13v-1.72Z"/>
    </g>
    <g id="Ramps-1">
      <path class="st0" d="M583.4,493.21v10.6"/>
      <path class="st1" d="M519.17,298.68h-13.17"/>
      <path class="st1" d="M580.27,290.75h11.91"/>
      <path class="st1" d="M515.72,279.73h-29.4"/>
      <path class="st1" d="M500.82,193.19h15.91"/>
      <path class="st1" d="M637.86,567.95h-25.72"/>
      <path class="st1" d="M499.71,576.85h16.31"/>
      <path class="st1" d="M519.07,548.08h-13.02"/>
      <path class="st1" d="M474.63,423.36h16.32"/>
      <path class="st1" d="M510.01,423.36h12.94"/>
      <path class="st1" d="M567.96,423.28h-13.02"/>
      <path class="st1" d="M599.03,423.36h13.19"/>
      <path class="st1" d="M789.51,417.12v12.61"/>
      <path class="st1" d="M580.76,553.95h12.51"/>
    </g>
  </g>
</svg>