<?xml version="1.0" encoding="UTF-8"?>
<svg id="svg283" xmlns="http://www.w3.org/2000/svg" version="1.1" viewBox="0 0 605.32 831.58">
  <!-- Generator: Adobe Illustrator 30.2.1, SVG Export Plug-In . SVG Version: 2.1.1 Build 1)  -->
  <defs>
    <style>
      .st0 {
        fill: #70777f;
      }

      .st1 {
        fill: gold;
      }
    </style>
  </defs>
  <g id="Third_Floor">
    <g id="Stairs-3">
      <path id="stairs-16" class="st1" d="M381.68,148.91v-1.55h3.26v3.1h-3.26v-1.55Z"/>
      <path id="stairs-17" class="st1" d="M280.45,177.43v-1.06h1.14v-.49h1.47v2.61h-2.61v-1.06Z"/>
      <path id="stairs-21" class="st1" d="M351.6,240.03l4.85.94-.74,4.86-4.97-.91.86-4.89Z"/>
      <path id="stairs-25" class="st1" d="M434.84,283.12l.3-1.69,1.64.33,1.64.34-.08.77-.09.77-.81-.14-.81-.14-.15.88-.16.88-.88-.16-.88-.15.3-1.69Z"/>
      <path id="stairs-26" class="st1" d="M492.16,293.85l.13-.72-.72-.13-.72-.13.14-.8.14-.8,1.45.26,1.44.26-.27,1.52-.27,1.52-.72-.13-.72-.13.13-.72Z"/>
      <path id="stairs-30" class="st1" d="M275.56,363.66v-.82h1.79v3.11h-1.79v-2.29Z"/>
      <path id="stairs-31" class="st1" d="M432.52,363.09l.35-2.01,1.77.31,1.77.31-.18,1.04-.18,1.04-.8-.14-.8-.14-.17.96-.17.96-.96-.17-.96-.17.35-2.01Z"/>
      <path id="stairs-32" class="st1" d="M272.47,364.39v-1.55h1.79v3.1h-1.79v-1.55Z"/>
      <path id="stairs-34" class="st1" d="M143.53,380.45v-1.47h2.12v1.63h-.98v1.3h-1.14v-1.47Z"/>
      <path id="stairs-36" class="st1" d="M438.05,395.53l.24-1.36-1.45-.26-1.44-.25.18-1.04.18-1.04,2.57.45,2.57.45-.42,2.41-.42,2.41-1.12-.2-1.12-.2.24-1.36Z"/>
      <path id="stairs-37" class="st1" d="M425.88,392.31l.42-2.41,2.57.45,2.57.45-.18,1.04-.18,1.04-1.45-.26-1.45-.26-.24,1.36-.24,1.36-1.12-.2-1.12-.2.42-2.41Z"/>
      <path id="stairs-40" class="st1" d="M408.64,427.46l.42-2.35,2.44.43,2.44.43-.42,2.35-.42,2.35-2.44-.43-2.44-.43.42-2.36Z"/>
      <path id="stairs-41" class="st1" d="M208.03,427.53l.68-1.67,1.65.68,1.36.55-.64,1.59-.64,1.59-1.51-.61-1.51-.61.61-1.51Z"/>
      <path id="stairs-42" class="st1" d="M275.56,429.76v-1.55h1.79v3.1h-1.79v-1.55Z"/>
      <path id="stairs-43" class="st1" d="M272.47,429.76v-1.55h1.79v3.1h-1.79v-1.55Z"/>
      <path id="stairs-44" class="st1" d="M218.98,430.58l.61-1.51,1.66.67,1.21.48-.55,1.37-.67,1.66-1.43-.58-1.44-.58.61-1.51Z"/>
      <path id="stairs-46" class="st1" d="M192.76,442.33l.62-1.51,1.66.67,1.36.55-.61,1.51-.61,1.51-1.51-.61-1.51-.61.61-1.51Z"/>
      <path id="stairs-47" class="st1" d="M371.77,449.96l.42-2.39,2.56.45,2.56.45-.42,2.39-.42,2.39-2.56-.45-2.56-.45.42-2.39Z"/>
      <path id="stairs-49" class="st1" d="M272.79,458.69v-1.47h3.1v1.47h-1.47v1.47h-1.63v-1.47Z"/>
      <path id="stairs-53" class="st1" d="M186.89,520.71v-.73h-1.47v-1.63h3.1v3.1h-1.63v-.73Z"/>
      <path id="stairs-54" class="st1" d="M276.7,521.93v-.82h1.47v1.63h-1.47v-.82Z"/>
      <path id="stairs-55" class="st1" d="M254.86,521.93v-.82h1.47v1.63h-1.47v-.82Z"/>
      <path id="stairs-56" class="st1" d="M280.29,522.66v-1.55h1.47v3.1h-1.47v-1.55Z"/>
      <path id="stairs-57" class="st1" d="M258.45,522.66v-1.55h1.47v3.1h-1.47v-1.55Z"/>
      <path id="stairs-64" class="st1" d="M461.51,569.16v-2.12h1.3v-1.47h1.47v4.41h-2.77v-.82Z"/>
      <path id="stairs-66" class="st1" d="M452.09,570.75v-1.22h1.3v2.45h-1.3v-1.22Z"/>
      <path id="stairs-68" class="st1" d="M417.21,573.77v-.82h1.3v-1.47h1.47v3.1h-2.77v-.82Z"/>
      <path id="stairs-69" class="st1" d="M407.59,573.03v-1.55h1.47v1.47h1.3v1.63h-2.77v-1.55Z"/>
      <path id="stairs-70" class="st1" d="M548.44,584.08l.32-.66.73.36.73.36.32-.66.32-.66.8.4.8.4-.65,1.32-.65,1.32-1.54-.76-1.54-.76.32-.66Z"/>
      <path id="stairs-73" class="st1" d="M427.97,592.43v-1.39h2.93v1.47h-1.3v1.3h-1.63v-1.39Z"/>
      <path id="stairs-75" class="st1" d="M467.98,597.54l-2.08-1.43.77-1.23.83-1.23,1.95,1.16,1.89,1.16-.84,1.6-.69,1.13-1.83-1.16Z"/>
      <path id="stairs-88" class="st1" d="M122.83,696.26v-.73h-1.47v-1.63h3.1v3.1h-1.63v-.73Z"/>
      <path id="stairs-89" class="st1" d="M62.85,695.45v-1.55h3.1v1.63h-1.47v1.47h-1.63v-1.55Z"/>
      <path id="cinema-1" class="st1" d="M485.34,690.31v-2.28h5.05v3.1h-2.45v1.47h-2.61v-2.28Z"/>
      <path id="cinema-2" class="st1" d="M485.34,708.73v-2.28h2.61v1.47h2.45v3.1h-5.05v-2.28Z"/>
      <path id="cinema-3" class="st1" d="M499.2,681.37h3.1v1.79h-3.1v-1.79Z"/>
      <path id="cinema-4" class="st1" d="M499.2,716.75v-.98h3.1v1.96h-3.1v-.98Z"/>
      <path class="st1" d="M434.31,401.79l5.12.84-.85,5.17-5.12-.84.85-5.17Z"/>
      <path class="st1" d="M429.36,428.01l5.71.88-.83,5.39-5.71-.88.83-5.39Z"/>
      <path class="st1" d="M502.3,717.72h-2.65v2.29h2.65v-2.29Z"/>
      <path class="st1" d="M502.3,678.86h-2.65v2.29h2.65v-2.29Z"/>
    </g>
    <g id="Floor-3">
      <path class="st0" d="M381.79,146.22v-1.14h2.93v2.28h-2.93v-1.14Z"/>
      <path class="st0" d="M372.34,151.76v-2.12h3.91v-.98h.98v-.33h-.98v-1.14h-.33v2.12h-3.59v-3.42h3.56l.1.2.1.2.1-.2.1-.2h.62v-.33h-4.57v-2.77h6.2v2.77h-.65v.33h.65v.82h2.93v1.63h-.65v.33h.65v2.61h.33v-.82h2.93v3.42h-2.93v-1.63h-.33v1.63h-2.28v-5.22h.65v-.33h-1.63v.33h.65v5.22h-6.52v-2.12Z"/>
      <path class="st0" d="M279.46,177.51v-2.77h-1.79v-.82h-5.21v6.2h-2.93v-6.2h-1.47v-14.35h-.33v1.47h-1.63v.33h1.63v2.61h-4.24v-2.61h1.3v-.33h-1.63v9.78h-11.9v-10.43h7.66v-.33h-7.66v-7.5h9.78v7.5h-.81v.33h1.14v-3.42h4.08v-.33h-.81v-2.12h3.1v2.12h-.98v.33h.98v1.3h.33v-18.1h2.61v31.62h13.2v8.48h-4.4v-2.77ZM283.05,177.18v-1.3h-1.47v.49h-1.14v2.12h2.61v-1.3Z"/>
      <path class="st0" d="M251.26,177.51v-2.77h7.17v-.33h-.65v-.98h-.33v.98h-6.2v-3.26h6.2v.98h.33v-.98h2.61v3.26h-.65v.33h.65v3.75h.33v-3.75h3.59v5.54h-3.59v-.49h-.33v.49h-9.13v-2.77Z"/>
      <path class="st0" d="M344.3,218.29c-.92,5.06-1.85,10.13-2.77,15.19.28-.02.55-.04.83-.07.11.07.25.12.3.24-.04.04-.14,0-.21.02-.3,0-.6,0-.9,0-.08.2-.18.4-.21.62-.29,1.4-.53,2.81-.78,4.22l-.8,4.58c2.7.51,5.4,1.01,8.09,1.54.21.04.42.09.63.14.54.1,1.08.16,1.62.21.36-2.2.72-4.39,1.08-6.59.07.01.14.02.21.04-.02.3-.04.6-.05.9,1.4.24,2.8.51,4.21.71.24.04.49.03.74.03l.55-3.25c.07.02.17.01.21.05l-.64,3.6c-1.61-.26-3.22-.53-4.83-.78-.12-.02-.23-.03-.35-.04-.28,1.7-.55,3.4-.83,5.09.07.17.13.33.2.5.3.05.6.1.9.16.13-.15.28-.29.34-.48.13-.28.12-.6.3-.86.05-.05.11-.1.19-.06.51.1,1.02.19,1.53.29.05-.42.11-.85.16-1.27.17-.19.35-.38.52-.57.22.1.45.2.67.3.24-.05.48-.1.72-.14-.03-.07-.06-.14-.08-.22.1.06.18.14.26.22-.21,1.19-.44,2.38-.61,3.59.18-.03.37-.1.56-.08.17.01.36.03.54.05,1.13.14,2.25.35,3.38.53.08.01.15.03.23.04.19-1.28.39-2.56.58-3.84.1.02.2.04.3.05-.21,1.21-.42,2.43-.64,3.65.19.08.37.19.58.22,1.13.23,2.27.41,3.4.6,1.83.3,3.67.6,5.51.85.24.03.48.07.72.08.06,0,.1-.04.12-.09.11-.39.18-.79.26-1.18.5-2.54.94-5.1,1.4-7.65.07-.38.14-.76.21-1.15-1.27-.19-2.53-.38-3.8-.57.03-.08.06-.16.09-.24,1.25.19,2.51.38,3.76.57.58-3.3,1.16-6.59,1.74-9.89-.37-.04-.73-.07-1.09-.15-.1-.02-.2-.04-.31-.07.02-.08.03-.17.04-.25.15.02.3.05.44.08.26-1.45.52-2.91.78-4.36-.31-.11-.61-.23-.93-.29-1.32-.29-2.66-.48-3.99-.71-.03.16-.06.32-.09.48-.33-.06-.67-.12-1-.18-.15.18-.34.33-.44.54-.07.15.04.3.17.36.31.16.65.24.98.36.11,0,.09.08.07.16-.16.89-.32,1.79-.47,2.68.91.18,1.83.36,2.74.56l-.14.24c-2.29-.44-4.59-.88-6.88-1.32-.13.22-.26.43-.39.65-.08-.05-.15-.09-.23-.14l.33-.73c-.29.04-.59.08-.88.12-.22-.1-.44-.2-.65-.29.04-.04.05-.15.11-.15.43.06.87.11,1.3.14.25-1.41.5-2.83.75-4.24-1.59-.28-3.17-.56-4.76-.84-.22,1.35-.45,2.71-.65,4.06-.01.11-.02.22-.03.33.51.06,1.02.13,1.53.19-.05.12-.11.24-.16.35-.47-.13-.94-.22-1.43-.26-.06,0-.17-.03-.21,0,.03.17.06.33.1.5-.09.02-.17.03-.26.05.24-1.67.52-3.33.76-5,.01-.09,0-.18.01-.27-5.08-.87-10.17-1.73-15.25-2.6,0,.04-.02.08-.02.12h0ZM353.76,223.64c.08,0,.14.03.1.12-.14,1.02-.31,2.04-.47,3.06-.13.83-.27,1.65-.38,2.49l-.02.3c1.52.2,3.05.41,4.56.67l.5.08c.08-.65.16-1.3.24-1.96.12-.14.21-.34.4-.41.06.02,0,.14,0,.2l-.29,2.15c1.14.17,2.29.35,3.43.52.3.03.6.1.89.01.22-.06.33-.29.37-.5.11-.5.2-1,.31-1.5.06,0,.15-.04.2-.02.02.22.04.44.05.66,1.47.27,2.94.53,4.4.85.22.05.43.1.65.15.16-.07.33-.13.49-.19.07-.37.13-.74.2-1.11.43-.01.86.01,1.28.08l.42.07c-.02.33-.09.66-.13.99-.11.72-.24,1.43-.36,2.15-.35-.03-.7-.1-1.05-.15-3.74-.59-7.48-1.23-11.23-1.78-.08-.02-.05.12-.08.17-.21,1.06-.43,2.12-.64,3.19-.05-.01-.19.07-.17,0,.16-1.12.37-2.23.56-3.34-1.62-.23-3.24-.46-4.86-.69-.11.08-.22.15-.32.23l-.4,2.24c-.09,0-.18,0-.27,0,.5-2.91,1.01-5.83,1.51-8.74.04,0,.07.01.11.02ZM347.73,234.5c1.24.22,2.48.46,3.72.67l.37.04c-.02-.27-.04-.55-.06-.82.1.04.19.07.28.11-.09.65-.18,1.3-.27,1.96-.11-.02-.22-.04-.33-.06.09-.24.18-.48.27-.72-.32-.11-.62-.25-.95-.31-1.6-.36-3.22-.62-4.84-.92-.54-.1-1.07-.2-1.61-.3.02-.09.03-.18.05-.26,1.12.21,2.24.41,3.37.62h0ZM362.26,236.35c.67.03,1.33.16,1.99.29.54.12,1.1.25,1.61.46.06.03.13.06.19.1-.02.07-.14,0-.2,0-1.09-.2-2.18-.4-3.27-.59-.15.06-.3.12-.45.18-.15,1.07-.31,2.15-.46,3.22-.1-.02-.2-.04-.3-.05l.53-3.55c.12-.06.25-.06.37-.06h0Z"/>
      <path class="st0" d="M438.29,262.59c-.25,1.54-.5,3.08-.75,4.62l6.54,1.06c.12-.41.25-.83.37-1.24.07.06.14.13.21.19-.46,2.65-.91,5.3-1.37,7.95-.06,0-.14.1-.17.02-.07-.06-.05-.14-.03-.21.27-1.68.57-3.35.8-5.03.05-.39.12-.79.13-1.18,0-.1-.09-.16-.13-.24l-6.14-1.02c-.12.14-.25.26-.35.41-.47,2.75-.94,5.51-1.41,8.26,2.33.37,4.67.74,7.01,1.12-.15.82-.29,1.64-.44,2.47-.08-.01-.16-.03-.24-.04.11-.72.21-1.45.3-2.18-2.23-.37-4.46-.75-6.7-1.1-.24,1.42-.48,2.84-.72,4.26,2.18.37,4.37.73,6.55,1.1.06-.07.12-.13.18-.2.09.06.19.11.28.17-.02.13-.05.27-.07.4-1.27-.23-2.55-.45-3.83-.67-.1.56-.18,1.12-.31,1.68-.48-.12-.95-.25-1.43-.37-.1.55-.19,1.11-.29,1.66-.4-.03-.78-.14-1.17-.23-.13-.03-.25-.06-.38-.09-.16.49-.34.99-.34,1.51,0,.11,0,.22-.01.32,1.68.27,3.36.53,5.04.8.4.05.81.13,1.22.09.22-.02.43-.16.51-.37.12-.32.14-.67.21-1.01.08-.43.16-.86.24-1.28h.25c-.18.99-.35,1.99-.53,2.99-.07.04-.13.1-.2.13-2.28-.36-4.55-.73-6.83-1.08-.25,1.4-.49,2.81-.74,4.21.19.07.38.16.58.18,2.27.42,4.54.82,6.81,1.22,8.76,1.55,17.52,3.06,26.29,4.61,8.51,1.5,17.02,3,25.53,4.5l.62-4.11c-1.02-.21-2.04-.38-3.06-.57-1-.18-1.99-.36-2.99-.53l-.28-.25.39-2.85c.07.04.15.09.22.13.02.34-.01.67-.06,1-.09.56-.22,1.11-.25,1.68l5.96,1.08c.13-.34.28-.67.3-1.04.02-.2-.02-.4-.03-.6-.52-.13-1.02-.31-1.53-.43.11-.48.24-.95.26-1.44-.54-.05-1.08-.11-1.63-.16.05-.56.21-1.1.33-1.65.06-.1-.04-.09-.11-.1-1.05-.14-2.09-.29-3.14-.43.11-.65.2-1.3.26-1.95.04-.28.09-.56.22-.82l.23.04c-.15.81-.3,1.62-.41,2.44,1.77.28,3.54.58,5.32.82.24.02.49.09.73.04.09,0,.14-.02.13-.12.21-1.36.44-2.71.63-4.07.01-.11.02-.21.02-.32-2.1-.32-4.2-.65-6.31-.89-.05-.25.01-.5.04-.75.29-2.24.66-4.47.98-6.7.16-1.09.32-2.18.43-3.27.1-.98.22-1.97.29-2.95,0-.14.02-.29-.05-.41,0-.09-.1-.08-.17-.1-8.45-1.51-16.9-3.02-25.35-4.53-6.51-1.16-13.02-2.32-19.54-3.48-.09.48-.17.97-.26,1.45-.08-.02-.17-.03-.25-.04.05-.48.18-.95.29-1.42-1.84-.35-3.68-.74-5.53-1.04-.39-.06-.79-.09-1.18-.14l-.02.11ZM458.84,270.54c-.03.46-.1.91-.16,1.36-.15.99-.3,1.97-.51,2.95,0,.08-.11,0-.17.01-.11.02-.08-.07-.06-.15.21-1.27.44-2.54.61-3.81.02-.12.03-.24.05-.36l.23-.04.02.04ZM461.72,271.19c.81.08,1.63.2,2.44.32,1.52.23,3.05.51,4.58.77,1.31.23,2.62.45,3.93.67.06.11,0,.23,0,.35-.17,1.26-.37,2.54-.57,3.8-.55,3.47-1.13,6.94-1.69,10.41-.24,1.45-.47,2.9-.7,4.36-.15.04-.31-.02-.46-.03-2.08-.33-4.15-.7-6.22-1.05-1.66-.28-3.31-.57-4.97-.85.11-.75.25-1.49.38-2.24.97-5.5,1.95-10.99,2.95-16.49.11-.01.22-.04.33-.02h0ZM475.54,273.43c.08,0,.16.02.11.12-.21,1.26-.42,2.51-.65,3.76-.02.08-.03.16-.05.24-.06-.02-.16-.01-.2-.05.22-1.36.45-2.73.67-4.09.04,0,.08.01.12.02ZM457.7,276.9c.05.04.18.02.14.12-.4,2.32-.8,4.64-1.2,6.95-.05,0-.19.07-.18,0,.12-.87.27-1.74.41-2.61.24-1.5.49-3,.73-4.5.03.01.07.03.1.04ZM474.46,279.46s.13.03.11.1c0,.35-.08.7-.12,1.05-.33,2.03-.66,4.07-.99,6.1-.07-.01-.14-.02-.22-.04.04-.37.11-.75.17-1.12.33-2.04.66-4.08,1-6.12.02.01.04.02.05.03ZM456.15,286.03c.06.02.19,0,.14.09-.21,1.24-.42,2.48-.63,3.72-.07-.01-.15-.03-.22-.04.19-1.26.37-2.53.56-3.79l.15.02ZM472.78,290.6c-.1.63-.2,1.27-.31,1.9l-.24-.04c.19-1.24.4-2.48.6-3.72h.25c-.1.62-.2,1.25-.3,1.87Z"/>
      <path class="st0" d="M272.41,361.48v-1.39h4.89v2.77h-4.89v-1.38Z"/>
      <path class="st0" d="M275.67,363.68v-.65h1.63v1.3h-1.63v-.65Z"/>
      <path class="st0" d="M220.03,427.77l.58-1.44,1.51.61,1.51.61-.58,1.43-.58,1.44-1.51-.61-1.51-.61.58-1.44Z"/>
      <path class="st0" d="M210.04,427.25l.34-.83.6.24.6.24-.34.83-.34.83-.6-.24-.6-.24.34-.83Z"/>
      <path class="st0" d="M220.26,432l.24-.6.68.27.68.27-.24.61-.24.6-.68-.27-.68-.27.24-.61Z"/>
      <path class="st0" d="M211.07,428.64l.67-1.66,1.21.49,1.21.49-.67,1.66-.67,1.66-1.21-.49-1.21-.49.67-1.66Z"/>
      <path class="st0" d="M206.69,426.86l.67-1.66.76.3.76.31-.67,1.66-.67,1.66-.76-.3-.76-.31.67-1.66Z"/>
      <path class="st0" d="M217.99,432.84l.31-.76,1.51.61,1.51.61-.3.76-.3.76-1.51-.61-1.51-.61.3-.76Z"/>
      <path class="st0" d="M423.85,348.2c-.44,2.41-.88,4.83-1.32,7.24.07.1.14.2.21.3,1.13.18,2.26.36,3.39.55.17-.1.35-.2.52-.3.01-.32.02-.64.03-.96.22-.04.44-.08.66-.12.12.09.24.19.36.28-.16.1-.36.04-.54.04-.06.02-.19-.05-.19.05-.22,1.38-.44,2.76-.66,4.14-1.13-.16-2.26-.34-3.39-.51-1.62-.25-3.24-.5-4.86-.76-.36.76-.75,1.52-1.07,2.3-.26.62-.59,1.21-.89,1.8.12.11.24.23.4.28.3.11.63.17.95.24-.19.29-.27.63-.36.96l-.1.44c-.11.02-.23,0-.34-.01.1-.26.2-.52.3-.77-.07-.16-.14-.31-.21-.46-1.37-.25-2.74-.49-4.11-.74-.13.67-.28,1.33-.38,2-.05.38-.08.8.13,1.14.21.34.61.48.98.58.75.19,1.52.26,2.28.36.3.03.6.07.9.1-.07-.17-.14-.35-.21-.52.09-.2.18-.4.27-.6.05.04.17.05.15.12-.05.39-.1.78-.14,1.17-.21.03-.43.08-.64.11-1.17-.24-2.34-.47-3.51-.71-.21.07-.42.15-.63.22-.26,1.36-.51,2.72-.76,4.09.1.08.18.2.31.21.71.17,1.42.29,2.14.42,1.26.22,2.52.43,3.79.61.47-2.68.95-5.37,1.42-8.05-.09-.09-.23-.15-.23-.3,0-.05-.01-.17.04-.17,1.04.2,2.07.41,3.11.61.08.07.16.14.24.21-.05.04-.09.16-.16.11-.25-.11-.5-.22-.75-.33-.3,1.48-.57,2.96-.86,4.44l-.75,3.9c.28,0,.55,0,.83-.01.02.08.03.17.05.25-.07.05-.17.01-.26.02-.75-.07-1.5-.23-2.25-.35-.06,0-.18-.07-.2,0-.92,5.18-1.83,10.37-2.75,15.55.91.18,1.81.36,2.72.54-.02.08-.03.17-.04.25-.81-.11-1.6-.29-2.4-.44-.16-.03-.32-.06-.48-.09-.16.76-.29,1.53-.58,2.26-.04.1-.1.19-.15.29-.86-.15-1.72-.3-2.57-.45-.12.34-.25.69-.32,1.05-.15.65-.23,1.31-.33,1.97.08.11.16.23.24.34,1.71.33,3.42.67,5.13.99.82.15,1.65.27,2.47.45.35.09.73.18.98.45.24.27.24.65.23.99-.05.7-.19,1.39-.31,2.08-.18,1-.36,1.99-.52,2.99,1.45.24,2.89.48,4.34.72.14-.64.27-1.28.42-1.91,1.35.2,2.69.4,4.04.56.3.05.63.07.92.2.08.03.13.11.09.19,0,.1-.12.02-.18.03-1.54-.21-3.07-.46-4.62-.6-.07,0-.18-.05-.16.06-.36,2.08-.71,4.16-1.07,6.24.15.13.3.28.46.4.91.18,1.82.33,2.71.55.1.02.19.05.28.1.24.04.45-.11.67-.18.18-.06.39-.08.57-.02.08.01.16.03.24.04.02-.11.04-.21.06-.32.26.07.53.02.78-.05.52-.07,1.05-.07,1.58-.07.55,0,1.09,0,1.63.01.65.19,1.32.33,1.93.62.17.1.31.26.52.26.4.07.75.31,1.08.54.84.63,1.55,1.41,2.2,2.23.62.78,1.16,1.62,1.61,2.51.11.2.21.4.32.6-.03.17-.09.38.05.52.04.04.1.06.15.07.12.78.26,1.56.3,2.36.03.61.02,1.23-.05,1.83-.13,1.19-.47,2.39-1.07,3.44-.33.57-.73,1.11-1.12,1.64-.3.38-.59.78-.93,1.13-.12.1-.25.2-.38.3-.14,1.27-.33,2.53-.53,3.79-.03.18-.06.37-.09.55-.27-.05-.55-.09-.83-.14,0,.26-.01.51-.05.77-.16,1.34-.38,2.67-.48,4.01,0,.16-.04.34.05.49.03.06.03.16.12.15.76.11,1.53.22,2.29.33.13-.99.27-1.98.4-2.96.08.05.16.1.24.15-.1.78-.26,1.55-.4,2.33.16.22.31.44.47.67.24.04.48.08.72.13.36-.25.7-.52,1.02-.8.54-.48,1.09-.95,1.64-1.42.39-.34.76-.7,1.13-1.07.17-.17.36-.33.57-.48.47-.37.88-.82,1.35-1.2.28-.19.52-.43.77-.65.29-.27.58-.53.84-.83.07-.11.05-.24.09-.36-.01-.04-.13.04-.19.05-.08.03-.17.08-.26.06-.86-.08-1.72-.2-2.58-.32-1.49-.21-2.97-.44-4.45-.69-.14.93-.27,1.86-.41,2.79-.06.02-.12.05-.18.07-.04-.26,0-.52.03-.78.09-.75.19-1.5.29-2.25.11-.06.24-.01.36-.01,1.52.16,3.04.4,4.55.62.92.13,1.84.27,2.77.38.04-.46.06-.92.06-1.39.03-2.59.03-5.18.03-7.77,0-3.43,0-6.86-.05-10.29-.01-.39,0-.77-.05-1.16-.05-.73-.06-1.5-.07-2.24,0-.75,0-1.49,0-2.23-1.95-.32-3.89-.64-5.83-.95-.11-.02-.21-.03-.32-.05.02.24.08.48.05.72-.1,1.22-.3,2.45-.43,3.68-.02.27-.06.54-.05.81.04.07,0,.1-.07.13-.1.05-.2.12-.3.16-1.53-.25-3.07-.5-4.6-.75-.06-.12-.02-.26-.02-.39.06-.85.18-1.7.27-2.55.1-.83.17-1.67.29-2.5-.93-.12-1.87-.24-2.8-.36-.02-.07-.08-.14-.07-.2.09-.04.2-.01.29-.01.8.07,1.6.2,2.39.31.73.1,1.45.21,2.17.32.16-.08.32-.17.47-.25.25-1.49.49-2.98.74-4.48.2-1.14.43-2.28.66-3.42,0-.17-.18-.26-.3-.33-.09-.05-.19-.09-.29-.13.07-.38.13-.75.2-1.13-1.93-.34-3.86-.65-5.79-.98-1.6-.27-3.2-.54-4.8-.83-1.47-.28-2.94-.6-4.42-.84l-2.09-.35c-.05-.07-.1-.14-.15-.21.05-.04.09-.15.17-.1.99.26,1.99.47,3,.6.18.02.38.07.55-.02.08-.02.15-.05.14-.14.89-5.1,1.78-10.2,2.67-15.31-.08-.11-.15-.21-.22-.32-1.49-.26-2.97-.52-4.46-.78.01-.07.02-.14.04-.21.47.05.94.15,1.39.28.08.04.05-.11.08-.16.52-2.65,1.05-5.29,1.57-7.93-.48-.08-.97-.17-1.45-.26.02-.08.03-.16.04-.24.84.12,1.68.29,2.51.43,1.34.24,2.69.49,4.03.73.45-2.93.9-5.87,1.39-8.79.04-.22.07-.43.12-.64,1.12.17,2.23.36,3.36.51.13-.69.25-1.38.38-2.07.04-.16.07-.37.26-.41.29-.05.58.02.86.05.77.11,1.55.21,2.32.32-.25,1.3-.51,2.6-.76,3.9-.23,1.28-.47,2.56-.7,3.84l-1.55-.32c-.12.71-.24,1.42-.37,2.13-.55-.1-1.1-.2-1.65-.3-.11.73-.23,1.47-.34,2.2,3.07.61,6.13,1.23,9.2,1.85,0,.06.08.13.05.18-.11.1-.23.19-.33.3-.23,1.14-.44,2.29-.71,3.42-.06.24-.13.5-.19.75.12.1.24.22.37.32,2.7.53,5.4,1.05,8.09,1.61.48.1.95.2,1.42.31.51-2.79,1.01-5.58,1.52-8.37-1.52-.29-3.04-.62-4.56-.94-.25,1.12-.43,2.26-.64,3.39-.16.05-.33.11-.49.15-1.12-.24-2.23-.47-3.35-.71.95-5.19,1.9-10.37,2.84-15.55-.55-.14-1.12-.22-1.68-.33-4.92-.9-9.85-1.79-14.77-2.69-.15.69-.27,1.38-.36,2.07-.18,1.26-.36,2.53-.6,3.79-.04.17-.06.36-.16.51-.29-.05-.59-.1-.88-.15.01-.08.03-.15.04-.23.26-.02.51-.04.77-.06.11-.91.23-1.82.37-2.72.16-1.08.33-2.16.5-3.24-2.19-.4-4.38-.8-6.57-1.2,0,.04-.02.08-.02.12h0ZM422.61,395.43c.51.1,1.02.2,1.54.3.02.1.04.2.06.3-.09.07-.21.03-.32.04-.71-.06-1.41-.22-2.11-.38l-.73-.17c.02-.13.05-.26.07-.39l1.49.29h0ZM427.1,396.44c.48.08.95.17,1.43.25-.04.13-.08.26-.13.39-.97-.17-1.93-.34-2.9-.51.04-.13.09-.26.13-.39.49.09.98.17,1.47.26h0ZM429.55,400.59c.08,0,.15.02.14.12,0,.06.08.2-.03.15-.12-.02-.25-.04-.37-.07.04-.08.09-.15.14-.23.04,0,.08.02.12.02h0ZM430.78,400.86c-.02.05,0,.18-.06.19l-.31-.05c.07-.15.23-.26.39-.28,0,.05-.02.09-.02.14h0Z"/>
      <path class="st0" d="M429.94,407.03c-.27.09-.55.2-.85.18-.31-.05-.62.03-.93.09-.46.1-.91.26-1.38.34-.21.02-.38.16-.54.27-.05.05-.16.07-.15.16-.76,4.48-1.51,8.96-2.27,13.45-.08-.02-.17-.02-.24-.07.24-1.56.5-3.12.75-4.67-.32,0-.64.03-.96,0-.36-.03-.73-.08-1.09-.14-.43-.06-.87-.13-1.31-.14-.14.01-.28.02-.42.03-.04.41-.07.82-.19,1.21-1.12-.23-2.24-.5-3.36-.77-1.39-.31-2.81-.52-4.22-.73-.62-.1-1.24-.24-1.86-.33-.09-.02-.18,0-.25.07-.07.03-.1.08-.1.16-.39,2.08-.79,4.15-1.16,6.23-.14.79-.28,1.57-.43,2.36.06.12.12.24.17.37.93.21,1.85.42,2.78.62.71.13,1.42.26,2.12.38.08-.79.17-1.59.24-2.38.07.02.16.01.2.05.05.3,0,.6-.02.9-.07.64-.19,1.29-.32,1.93.1.09.19.2.33.22.76.2,1.52.34,2.29.49.91.18,1.83.35,2.73.58.12.03.23.09.35.13,0,.15-.16.23-.27.29-.12.06-.24.12-.36.18.03.37,0,.74.1,1.1.02.1.1.19.21.2.45.12.91.23,1.36.35.09-.49.17-.98.26-1.47l-.41-.45c.08-.03.17-.08.25-.1.45.11.9.21,1.36.32.18-.83.3-1.67.45-2.51.12-.71.24-1.43.36-2.14.09.04.18.07.28.11-.45,2.81-.9,5.62-1.35,8.43.26.09.52.18.79.23,1.54.3,3.09.56,4.64.81.34.05.68.11,1.02.13.28-1.83.55-3.65.83-5.48,1.32.19,2.64.42,3.96.63.59.1,1.17.19,1.76.29.12-.08.24-.16.35-.25.18-1.27.37-2.54.52-3.81.38-.4.76-.8,1.1-1.23.28-.36.58-.72.81-1.12.17-.32.38-.62.56-.94.22-.38.43-.77.63-1.16.24-1.19.48-2.38.73-3.56-.11-.02-.21-.04-.32-.06.05-.29.1-.57.15-.86-.24-.75-.46-1.51-.72-2.24-.31-.86-.84-1.61-1.34-2.36-.7-1.04-1.57-1.98-2.6-2.7-.62-.43-1.27-.84-2-1.05-.84-.25-1.7-.36-2.56-.51-.15-.02-.3-.06-.44-.07h-.01s0,0,0,0ZM428.3,412.13c.04.08.1.15.12.23-.36,2.38-.72,4.76-1.08,7.13-.67-.11-1.35-.19-2.02-.26.05-.14.09-.27.14-.41.49.06.99.12,1.48.18.36-2.19.7-4.38,1.02-6.57.02-.15.05-.3.07-.45.06,0,.15-.05.19,0,.03.05.06.11.09.16h0Z"/>
      <path class="st0" d="M278.44,429.05v-1.47h-.33v.65h-7.99v-2.61h7.99v.65h.33v-35.7h-.33v3.75h-3.59v2.93h-4.4v-5.38h5.87v-1.47h-.33v1.14h-5.54v-8.31h5.54v5.87h.33v-3.42h2.12v3.58h.33v-21.19h-.33v.49h-7.99v-2.61h7.99v.49h.33v-.49h2.77v24.94h.33v-4.08h.81v-.33h-.81v-2.45h3.75v2.45h-1.63v.33h1.96v-2.77h6.03v5.21h-7.83v1.79h.33v-1.47h7.5v3.75h-7.5v-.98h-.33v2.12h.33v-.82h7.5v7.5h-7.5v-5.38h-.33v1.96h-2.28v-5.54h-.33v38.31h-2.77v-1.47ZM280.89,398.89v-2.45h-2.12v4.89h2.12v-2.44Z"/>
      <path class="st0" d="M275.67,430.52v-.65h1.63v1.3h-1.63v-.65Z"/>
      <path class="st0" d="M272.41,432.72v-1.39h4.89v2.77h-4.89v-1.39Z"/>
      <path class="st0" d="M195.6,443.5l.64-1.59,5.29,2.14,5.29,2.14-.64,1.59-.64,1.59-5.29-2.14-5.29-2.14.64-1.59Z"/>
      <path class="st0" d="M193.9,443.78l.3-.76.6.24.61.24-.31.76-.31.76-.6-.24-.6-.24.31-.76Z"/>
      <path class="st0" d="M191.37,441.79l.64-1.59.68.27.68.27-.64,1.59-.64,1.59-.68-.27-.68-.27.64-1.59Z"/>
      <path class="st0" d="M376.1,457.72l-.03-1.16.15.09.15.09v1.06s0,1.07,0,1.07h-.23l-.03-1.16Z"/>
      <path class="st0" d="M406.92,430.11c-.27,1.52-.57,3.02-.87,4.54-.79,3.95-1.59,7.89-2.38,11.83.8.11,1.6.21,2.4.35.27.05.56.1.82.19.05.04.17.05.18.12-.02.05,0,.19-.09.15-1.51-.27-3.02-.54-4.54-.81-.16.07-.32.13-.48.19-.73,3.72-1.45,7.45-2.23,11.17-.12.53-.22,1.06-.36,1.58-.58-.07-1.16-.17-1.74-.27-2.2-.37-4.39-.79-6.58-1.19-4.11-.76-8.21-1.52-12.32-2.31-.85-.17-1.7-.33-2.55-.52-.09,0-.01-.11-.02-.17.13-.56.21-1.13.32-1.69-.73-.17-1.46-.28-2.2-.42-.97-.17-1.94-.34-2.92-.52.07-.25.08-.52.15-.77.11-.51.21-1.02.32-1.53-2.16-.4-4.32-.8-6.48-1.23-.42,1.9-.85,3.81-1.27,5.71-.32,1.79-.64,3.59-.96,5.38.68.07,1.35.14,2.03.24,3.3.46,6.6.96,9.89,1.46l.67-3.77c.08-.09.17-.18.25-.27,8.89,1.64,17.78,3.3,26.68,4.92,1.3.24,2.61.48,3.91.71.59-3.3,1.18-6.6,1.77-9.9.05-.06.11-.12.17-.19.93.18,1.87.37,2.8.55.35-1.54.62-3.09,1.02-4.62.05-.23.14-.43.24-.64.01-.06.1-.16.06-.19-1.18-.21-2.36-.42-3.55-.62.01-.08.03-.16.04-.24.91.15,1.83.29,2.74.46.18.03.38.1.57.15.18-.54.36-1.07.54-1.61.91-4.88,1.81-9.76,2.71-14.64-1.23-.23-2.45-.48-3.68-.67.03-.18.07-.37.11-.55l-2-.4c-.04.18-.07.36-.1.54-1.01-.2-2.03-.4-3.04-.6l-.02.12Z"/>
      <path class="st0" d="M184.54,516.67v-1.71h3.91v3.42h-3.91v-1.71Z"/>
      <path class="st0" d="M254.8,519.44v-1.71h5.05v3.42h-5.05v-1.71Z"/>
      <path class="st0" d="M276.65,524.74v-1.96h1.47v1.47h3.59v2.45h-5.05v-1.96Z"/>
      <path class="st0" d="M271.11,531.58v-4.56h1.63v-.33h-3.42v-1.63h3.26v-.65h-.16c-.09,0-.16.07-.16.16v.16h-2.93v-7.01h2.93v5.54h.33v-1.28l.2-.09.2-.1-.2-.09-.2-.09v-3.89h1.47v-.33h-.98v-1.3h6.52v-12.88h2.12v14.18h-.82v.33h.82v3.42h-5.05v-3.42h.81v-.33h-2.45v.33h1.3v3.91h-2.61v.16c0,.09.07.16.16.16h.16v.65h.33v-.65h1.96v2.93h-1.96v-1.47h-.33v2.12h.16c.09,0,.16-.07.16-.16v-.16h1.96v1.47h-1.93l-.07-.2-.07-.2-.27.27c-.15.15-.27.31-.27.36v.09h2.61v9.13h-5.22v-4.57Z"/>
      <path class="st0" d="M262.14,532.64v-3.51h3.26v-.33h-3.42v-.49h-.33v.49h-13.2v-1.79h7.17v-.33h-.82v-3.91h1.47v1.47h3.59v2.45h-.81v.33h2.61v.49h.33v-.49h1.47v-.33h-3.26v-8.97h4.56v8.97h-.16c-.09,0-.16.07-.16.16v.16h4.27l-.04,1.02c-.02.56-.02,1.29-.01,1.63l.02.61h2.12v5.87h-3.75v-7.01h.16c.09,0,.16-.07.16-.16v-.16h-.98v.16c0,.09.07.16.16.16h.16v7.01h-4.56v-3.5Z"/>
      <path class="st0" d="M184.71,531.42v-4.73h1.63v-.33h-6.03v-2.61h5.05v-3.75h1.47v1.47h1.63v2.28h2.77v-.33h-2.45v-8.48h5.22v8.48h-1.63v.33h3.75v-.33h-1.79v-8.48h4.73v8.48h-1.63v.33h.82v2.61h-.82v.33h1.63v9.29h-4.4v-9.29h1.47v-.33h-3.59v.33h1.79v9.29h-5.05v-9.29h1.79v-.33h-3.42v.33h1.3v9.46h-4.24v-4.73ZM198.02,519.77v-1.49s-1.16,0-1.16,0h-1.17s-.01,1.49-.01,1.49v1.49s1.16,0,1.16,0h1.17s.01-1.49.01-1.49Z"/>
      <path class="st0" d="M461.51,569.4v-.65h2.77v1.3h-2.77v-.65Z"/>
      <path class="st0" d="M407.55,569.48v-2.04h2.77v4.08h-2.77v-2.04Z"/>
      <path class="st0" d="M417.17,572.34v-.65h1.3v1.3h-1.3v-.65Z"/>
      <path class="st0" d="M409.02,572.34v-.65h1.3v1.3h-1.3v-.65Z"/>
      <path class="st0" d="M426.46,592.47v-1.39h1.47v2.77h-1.47v-1.39Z"/>
      <path class="st0" d="M466.59,596.75l-.37-.18.08-.2.08-.2-.31-.28-.31-.28-.1.26-.1.25-1.49-.89c-.82-.49-1.59-.95-1.71-1.02l-.21-.13.5-1.1.5-1.1.15.09.15.09.19-.35.19-.35-.16-.1-.16-.1.4-.82c.22-.45.52-1.1.66-1.44l.26-.63-.23-.15c-.36-.23-.45-.18-.72.34l-.25.49h-10.26v.33h7.83v4.57h-13.86v-4.57h5.05v-.33h-19.07v4.89h-3.75v-1.3h1.47v-1.79h-4.56v-5.05h-.33v1.47h-5.87v-1.47h-.33v2.93h-2.45v-.98h-.33v.98h-9.62v-4.4h.65v-.33h-.65v-9.29h2.77v1.3h-.49v7.99h-.49v.33h7.83v2.45h.33v-10.76h-.33v-1.3h2.77v4.73h.33v-10.11h-.33v2.28h-2.77v-5.38h2.77v1.96h.33v-1.96h1.47v15.65h-1.47v-1.3h-.33v4.08h.33v-1.3h5.87v1.3h.33v-2.93h10.43v4.89h15.49v-.33h-4.89v-4.56h10.43v4.56h-4.56v.33h7.01v-.33h-2.12v-4.56h1.96v-.33h-1.14v-5.71h1.14v-.33h-2.77v-3.75h-.33v3.75h-5.05v-11.41h5.05v6.36h.33v-6.36h6.85v1.79h-1.47v1.47h-1.63v3.26h3.1v4.89h-2.77v.33h1.14v5.71h-1.14v.33h5.69l-.41.83-.42.82.09.23.09.23h.49l.45-.9.45-.9,6.93,4.01c3.81,2.21,7.01,4.1,7.12,4.2l.19.18-.52.85c-.64,1.05-.29,1.11-3.23-.54-4.37-2.45-8.84-4.98-9.38-5.3l-.52-.31-.3.33c-.16.18-1.03,1.68-1.93,3.34l-1.63,3.02-.22-.04-.22-.04-.18.29-.18.29.41.32c.23.17.48.3.57.28.09-.02.58.2,1.09.49l.93.53-.27.47-.27.47.22.26c.3.36.38.33.7-.23.31-.54.43-.58.84-.28l.29.21-.58.96c-.32.53-.58,1.02-.58,1.09,0,.17-.15.15-.62-.07h0ZM465.75,586.51l.39-.83-.17-.27c-.09-.15-.25-.29-.34-.32l-.18-.06-.19.58-.19.58h-3.72v.33h3.44l-.12.19-.12.19.3.22c.44.32.47.3.9-.61h0Z"/>
      <path class="st0" d="M471.74,599.75l-1.89-1.11.34-.54.35-.54-.5-.42-.5-.42.13-.35c.07-.19.2-.4.29-.45l.16-.1.77.33.77.33-.22.28-.22.28.24-.18.24-.18,1.67.92c1.95,1.07,1.84.83.97,2.18l-.7,1.09-1.89-1.11Z"/>
      <path class="st0" d="M124.39,695.49v-1.55h.98v3.1h-.98v-1.55Z"/>
      <path class="st0" d="M61.79,695.49v-1.55h.98v3.1h-.98v-1.55Z"/>
      <path class="st0" d="M82.17,710.82v-3.5h4.4v-1.14h-.33v.82h-4.08v-2.77h4.08v.98h.33v-1.96h-.33v.65h-27.88v-2.12h6.85v-.33h-1.79v-2.61h4.73v2.61h-1.63v.33h4.73v-6.03h.49v-.33h-.49v-.49h-.33v1.14h-2.61v.98h-3.91v-1.47h1.47v-1.79h-4.08v-.49h9.13v.49h.33v-.49h1.96v2.12h-.49v.33h.49v6.03h13.04v.65h.33v-3.59h.65v-.33h-.65v-5.22h7.5v5.22h-5.87v.33h.65v.82h.33v-.82h4.89v2.61h-4.89v-.82h-.33v1.14h9.78v-.33h-1.3v-.82h-.33v.82h-2.61v-2.61h2.61v.82h.33v-.82h1.63v-.33h-4.56v-5.22h6.85v5.22h-1.3v.33h4.89v-.33h-3.26v-5.22h5.38v5.22h-.65v.33h1.79v-.33h-.82v-5.22h6.36v5.22h-4.73v.33h.65v.98h.33v-.98h3.75v2.61h-3.75v-.82h-.33v.82h-1.63v.33h6.03v-6.03h.49v-.33h-.49v-2.12h1.96v.49h.33v-.49h9.13v.49h-4.07v1.79h1.47v1.47h-3.91v-.98h-2.61v-1.3h-.33v.65h-.49v.33h.49v6.03h4.73v-.33h-1.63v-2.61h4.73v2.61h-1.79v.33h6.85v2.12h-24.29v-2.12h2.44v-.33h-7.01v.33h1.3v.65h.33v-.65h2.61v2.12h-2.61v-.65h-.33v.65h-4.07v.33h2.12v.82h.33v-.82h5.54v10.11h-5.54v-8.31h-.33v8.31h-5.54v-10.11h1.96v-.33h-6.19v10.43h-7.34v-3.51Z"/>
      <path class="st0" d="M495.09,678.86v4.08h.82v.33h-5.13v15.73h-.38v-7.82h-2.41v2.12h-2.62v12.55h2.62v2.12h2.41v-7.82h.38v15.32h5.13v.33h-.82v4.24h4.57v-1.79h-.77v-2.45h-1.02v-.33h2.77v-4.65l-.98-4.01v-14.77l.98-4v-4.77h-2.77v-.33h1.02v-2.28h.77v-1.79h-4.57ZM486.29,693.78h.98v2.61h-.98v-2.61ZM486.29,697.7h.98v2.61h-.98v-2.61ZM486.29,702.91h.98v2.61h-.98v-2.61Z"/>
    </g>
  </g>
</svg>