<?xml version="1.0" encoding="UTF-8"?>
<svg id="svg283" xmlns="http://www.w3.org/2000/svg" version="1.1" viewBox="0 0 605.32 831.58">
  <!-- Generator: Adobe Illustrator 30.2.1, SVG Export Plug-In . SVG Version: 2.1.1 Build 1)  -->
  <defs>
    <style>
      .st0 {
        fill: #70777f;
      }

      .st1 {
        fill: gold;
      }
    </style>
  </defs>
  <g id="Second_Floor">
    <g id="Stairs-2">
      <path id="stairs-16" class="st1" d="M381.68,148.91v-1.55h3.26v3.1h-3.26v-1.55Z"/>
      <path id="stairs-17" class="st1" d="M280.45,177.43v-1.06h1.14v-.49h1.47v2.61h-2.61v-1.06Z"/>
      <path id="stairs-19" class="st1" d="M365.57,220.14l.5-2.81,2.09.37,2.09.37-.49,2.81-.5,2.81-2.09-.37-2.09-.37.49-2.81Z"/>
      <path id="stairs-20" class="st1" d="M477.9,232.94l.23-1.29-1.12-.2-1.12-.2.21-1.2.21-1.2,2.17.38,2.17.38-.44,2.49-.44,2.49-1.04-.18-1.04-.18.23-1.28Z"/>
      <path id="stairs-21" class="st1" d="M351.6,240.03l4.85.94-.74,4.86-4.97-.91.86-4.89Z"/>
      <path id="stairs-22" class="st1" d="M429.2,261.09l-1.52-2.05,1.59-1.11,1.59-1.11,1.52,1.9.91,1.21-1.71,1.25-1.56,1.09-.82-1.18Z"/>
      <path id="stairs-23" class="st1" d="M402.04,272.67l.43-2.35,4.65.83-.41,2.31-.43,2.35-2.34-.39-2.34-.39.43-2.35Z"/>
      <path id="stairs-24" class="st1" d="M196.83,282.08v-.73h.49v-1.14h2.12v2.61h-2.61v-.73Z"/>
      <path id="stairs-25" class="st1" d="M434.84,283.12l.3-1.69,1.64.33,1.64.34-.08.77-.09.77-.81-.14-.81-.14-.15.88-.16.88-.88-.16-.88-.15.3-1.69Z"/>
      <path id="stairs-26" class="st1" d="M492.16,293.85l.13-.72-.72-.13-.72-.13.14-.8.14-.8,1.45.26,1.44.26-.27,1.52-.27,1.52-.72-.13-.72-.13.13-.72Z"/>
      <path id="stairs-28" class="st1" d="M367.37,350.58l.18-1.04,1.85.33,1.85.33-.18,1.04-.18,1.04-1.85-.33-1.85-.33.18-1.04Z"/>
      <path id="stairs-29" class="st1" d="M72.95,357.46v-2.45h4.24v2.61h-.49v2.28h-3.75v-2.45Z"/>
      <path id="stairs-30" class="st1" d="M275.56,363.66v-.82h1.79v3.11h-1.79v-2.29Z"/>
      <path id="stairs-31" class="st1" d="M432.52,363.09l.35-2.01,1.77.31,1.77.31-.18,1.04-.18,1.04-.8-.14-.8-.14-.17.96-.17.96-.96-.17-.96-.17.35-2.01Z"/>
      <path id="stairs-32" class="st1" d="M272.47,364.39v-1.55h1.79v3.1h-1.79v-1.55Z"/>
      <path id="stairs-34" class="st1" d="M143.53,380.45v-1.47h2.12v1.63h-.98v1.3h-1.14v-1.47Z"/>
      <path id="stairs-36" class="st1" d="M438.05,395.53l.24-1.36-1.45-.26-1.44-.25.18-1.04.18-1.04,2.57.45,2.57.45-.42,2.41-.42,2.41-1.12-.2-1.12-.2.24-1.36Z"/>
      <path id="stairs-37" class="st1" d="M425.88,392.31l.42-2.41,2.57.45,2.57.45-.18,1.04-.18,1.04-1.45-.26-1.45-.26-.24,1.36-.24,1.36-1.12-.2-1.12-.2.42-2.41Z"/>
      <path id="stairs-38" class="st1" d="M110.44,401.88v-1.55h3.59v1.63h-1.79v1.47h-1.79v-1.55Z"/>
      <path id="stairs-39" class="st1" d="M132.77,415.25v-1.39h1.63v1.3h.98v1.47h-2.61v-1.39Z"/>
      <path id="stairs-40" class="st1" d="M408.64,427.46l.42-2.35,2.44.43,2.44.43-.42,2.35-.42,2.35-2.44-.43-2.44-.43.42-2.36Z"/>
      <path id="stairs-41" class="st1" d="M208.03,427.53l.68-1.67,1.65.68,1.36.55-.64,1.59-.64,1.59-1.51-.61-1.51-.61.61-1.51Z"/>
      <path id="stairs-42" class="st1" d="M275.56,429.76v-1.55h1.79v3.1h-1.79v-1.55Z"/>
      <path id="stairs-43" class="st1" d="M272.47,429.76v-1.55h1.79v3.1h-1.79v-1.55Z"/>
      <path id="stairs-44" class="st1" d="M218.98,430.58l.61-1.51,1.66.67,1.21.48-.55,1.37-.67,1.66-1.43-.58-1.44-.58.61-1.51Z"/>
      <path id="stairs-45" class="st1" d="M239.21,433.02v-1.55h3.1v3.1s-1.47,0-1.47,0h-1.63v-1.55Z"/>
      <path id="stairs-46" class="st1" d="M192.76,442.33l.62-1.51,1.66.67,1.36.55-.61,1.51-.61,1.51-1.51-.61-1.51-.61.61-1.51Z"/>
      <path id="stairs-47" class="st1" d="M371.77,449.96l.42-2.39,2.56.45,2.56.45-.42,2.39-.42,2.39-2.56-.45-2.56-.45.42-2.39Z"/>
      <path id="stairs-49" class="st1" d="M272.79,458.69v-1.47h3.1v1.47h-1.47v1.47h-1.63v-1.47Z"/>
      <path id="stairs-50" class="st1" d="M103.76,474.91v-2.96h1.63v3.37h3.1v1.3h-4.73v-1.71Z"/>
      <path id="stairs-52" class="st1" d="M216.39,520.71v-.73h-1.47v-1.63h3.1v3.1h-1.63v-.73Z"/>
      <path id="stairs-53" class="st1" d="M186.89,520.71v-.73h-1.47v-1.63h3.1v3.1h-1.63v-.73Z"/>
      <path id="stairs-54" class="st1" d="M276.7,521.93v-.82h1.47v1.63h-1.47v-.82Z"/>
      <path id="stairs-55" class="st1" d="M254.86,521.93v-.82h1.47v1.63h-1.47v-.82Z"/>
      <path id="stairs-56" class="st1" d="M280.29,522.66v-1.55h1.47v3.1h-1.47v-1.55Z"/>
      <path id="stairs-57" class="st1" d="M258.45,522.66v-1.55h1.47v3.1h-1.47v-1.55Z"/>
      <path id="stairs-59" class="st1" d="M502.79,526.41v-1.55h1.47v3.1h-1.47v-1.55Z"/>
      <path id="stairs-62" class="st1" d="M519.61,545.52c.08-.74.29-1.47.62-2.14.32-.63.76-1.21,1.27-1.7.46-.45.94-.96,1.56-1.13.81-.22,1.7,0,2.51.23.68.19,1.9.94,1.9.94l-.47.95-.47.95s-1.48-.83-2.3-.86c-.36-.02-1.05.3-1.05.3l4.36,1.91-.84,1.64-.83,1.69-4.14-2.31s.11.81.35,1.13c.5.65,2.07,1.34,2.07,1.34l-.43.88-.43.88s-1.33-.53-1.9-.94c-.62-.44-1.3-.92-1.62-1.6-.3-.65-.25-1.43-.17-2.14h0Z"/>
      <path id="stairs-64" class="st1" d="M461.51,569.16v-2.12h1.3v-1.47h1.47v4.41h-2.77v-.82Z"/>
      <path id="stairs-65" class="st1" d="M498.86,568.92l.72-1.46,1.61.79,1.61.79-.36.73-.36.73-.8-.4-.8-.4-.36.73-.36.73-.8-.4-.8-.4.72-1.46Z"/>
      <path id="stairs-66" class="st1" d="M452.09,570.75v-1.22h1.3v2.45h-1.3v-1.22Z"/>
      <path id="stairs-67" class="st1" d="M221.77,572.71v-1.55h2.61v1.47h2.45v1.63h-5.05v-1.55Z"/>
      <path id="stairs-68" class="st1" d="M417.21,573.77v-.82h1.3v-1.47h1.47v3.1h-2.77v-.82Z"/>
      <path id="stairs-69" class="st1" d="M407.59,573.03v-1.55h1.47v1.47h1.3v1.63h-2.77v-1.55Z"/>
      <path id="stairs-70" class="st1" d="M548.44,584.08l.32-.66.73.36.73.36.32-.66.32-.66.8.4.8.4-.65,1.32-.65,1.32-1.54-.76-1.54-.76.32-.66Z"/>
      <path id="stairs-71" class="st1" d="M212.97,585.75v-1.55h3.1v1.47h-1.47v1.63h-1.63v-1.55Z"/>
      <path id="stairs-72" class="st1" d="M110.44,592.18v-1.3h2.93v1.47h-1.47v1.14h-1.47v-1.3Z"/>
      <path id="stairs-73" class="st1" d="M427.97,592.43v-1.39h2.93v1.47h-1.3v1.3h-1.63v-1.39Z"/>
      <path id="stairs-74" class="st1" d="M493.21,594.01l1.58-3.22,2.41,1.19,2.41,1.19-.05.11-.05.11-1.18,1.01-1.18,1.01-.32-.28c-.11-.09-.2-.21-.32-.28-.14-.09-.3-.14-.45-.2-.13-.05-.26-.12-.39-.12-.16,0-.32.05-.46.11-.15.06-.3.13-.41.24-.17.18-.24.44-.35.66-.12.24-.35.72-.35.72l1.17.58,1.17.58-.43.88-.6,1.1-1.98-.97-1.97-.97,1.75-3.44Z"/>
      <path id="stairs-75" class="st1" d="M467.98,597.54l-2.08-1.43.77-1.23.83-1.23,1.95,1.16,1.89,1.16-.84,1.6-.69,1.13-1.83-1.16Z"/>
      <path id="stairs-77" class="st1" d="M263.5,603.1v-2.72h1.63v-1.02h1.79v5.05h-3.42v-1.3Z"/>
      <path id="stairs-78" class="st1" d="M221.94,612.48v-1.71h5.05v1.79h-2.45v1.63h-2.61v-1.71Z"/>
      <path id="stairs-79" class="st1" d="M258.29,632.07v-1.55h3.1v1.63h-1.47v1.47h-1.63v-1.55Z"/>
      <path id="stairs-81" class="st1" d="M171.9,665.13v-1.55h1.63v1.47h1.47v1.63h-3.1v-1.55Z"/>
      <path id="stairs-82" class="st1" d="M60.89,671.32v-.73h-1.47v-1.63h3.1v3.1h-1.63v-.73Z"/>
      <path id="stairs-88" class="st1" d="M122.83,696.26v-.73h-1.47v-1.63h3.1v3.1h-1.63v-.73Z"/>
      <path id="stairs-89" class="st1" d="M62.85,695.45v-1.55h3.1v1.63h-1.47v1.47h-1.63v-1.55Z"/>
      <path id="stairs-94" class="st1" d="M184.53,751.78l-.49-.85,1.62-.94,1.62-.94.49.85.49.85-1.62.94-1.62.94-.49-.85Z"/>
      <path id="stairs-95" class="st1" d="M501.48,761.79v-1.55h1.47v1.47h1.47v1.63h-2.93v-1.55Z"/>
      <path id="stairs-96" class="st1" d="M492.84,785.01v-2.28h1.3v4.56h-1.3v-2.28Z"/>
      <path class="st1" d="M512.41,673.15v-1.71h5.54v3.42h-5.54v-1.71Z"/>
      <path class="st1" d="M503.45,673.15v-1.71h7.66v3.42h-7.66v-1.71Z"/>
      <path id="cinema-1" class="st1" d="M485.34,690.31v-2.28h5.05v3.1h-2.45v1.47h-2.61v-2.28Z"/>
      <path id="cinema-2" class="st1" d="M485.34,708.73v-2.28h2.61v1.47h2.45v3.1h-5.05v-2.28Z"/>
      <path id="cinema-3" class="st1" d="M499.2,681.37h3.1v1.79h-3.1v-1.79Z"/>
      <path id="cinema-4" class="st1" d="M499.2,716.75v-.98h3.1v1.96h-3.1v-.98Z"/>
      <path class="st1" d="M515.84,714.23v-1.22h1.79v2.45h-1.79v-1.22Z"/>
      <path class="st1" d="M515.84,684.73v-1.22h1.79v2.45h-1.79v-1.22Z"/>
      <path class="st1" d="M480.3,727.11v-3.02h6.68v6.03h-6.68v-3.02Z"/>
      <path class="st1" d="M447.65,692.94h4.54v13.19h-4.54v-13.19Z"/>
      <path id="stairs-97" class="st1" d="M375.84,755.42v3.76h3.88v-1.65h-2.11v-2.11h-1.77Z"/>
    </g>
    <g id="Floor-2">
      <path class="st0" d="M381.82,146.24v-1.14h2.93v2.28h-2.93v-1.14Z"/>
      <path class="st0" d="M381.82,152.19v-1.71h2.93v.82h.33v-2.61h.49v-.33h-.49v-1.63h.49v-.33h-.49v-3.1h2.77v3.1h-1.3v.33h1.63v-1.3h.65v-.33h-.65v-1.79h6.19v1.79h-4.56v.33h.65v.98h.33v-.98h3.59v2.93h-3.59v-.98h-.33v.98h-.81v.33h4.73v5.22h-6.52v-5.22h.82v-.33h-2.12v.33h.98v5.22h-2.45v-1.63h-.33v1.63h-2.93v-1.71Z"/>
      <path class="st0" d="M279.45,177.54v-2.77h-1.79v-.82h-5.22v6.2h-2.93v-6.2h-1.47v-33.74h2.61v23.47h.33v-6.19h.98v-.33h-.98v-4.4h4.57v4.4h-2.28v.33h2.61v-4.73h7.99v7.01h-9.94v3.1h.33v-2.77h9.62v6.85h-8.64v.33h8.64v4.24h-9.62v-7.34h-.33v4.24h-.82v.33h.82v2.77h-2.93v-2.77h.82v-.33h-.82v-3.42h-.33v6.85h13.2v8.48h-4.4v-2.77ZM283.03,177.21v-1.3h-1.47v.49h-1.14v2.12h2.61v-1.3Z"/>
      <path class="st0" d="M364.41,216.99c-.14.45-.2.92-.3,1.38-.27,1.42-.54,2.84-.8,4.26.5.08,1,.15,1.5.23.17-.23.34-.46.51-.69.29-1.65.58-3.29.87-4.94-.58-.12-1.17-.23-1.75-.34-.01.04-.02.07-.03.11Z"/>
      <path class="st0" d="M367.86,213.29c.03.2.06.39.03.59-.06.89-.26,1.76-.3,2.65-.02.22.04.43.07.65,2.48.43,4.95.86,7.42,1.29-.07.62-.14,1.24-.22,1.86-.07-.01-.14-.02-.21-.04-.02-.22-.03-.45-.05-.67l.25-.28c-.04-.21-.08-.41-.12-.62-1.6-.29-3.19-.57-4.78-.86-.3,1.86-.6,3.73-.89,5.59.04.13.2.13.31.16,1.09.23,2.19.38,3.29.55.38.06.75.12,1.13.17.08-.49.17-.97.26-1.46.05,0,.17-.11.17-.02.03.23,0,.46-.01.68-.03.33-.07.66-.11.99-.29.06-.57,0-.86-.03-.99-.12-1.97-.31-2.96-.47-.17,1.08-.35,2.15-.5,3.24-.03.3-.09.61-.02.91.05.2.25.31.43.37.29.09.6.13.9.19,2.18.4,4.37.78,6.56,1.14.34.05.68.11,1.02.15.09-.74.2-1.47.32-2.2.65-4.05,1.33-8.1,1.99-12.15-.07-.1-.14-.2-.2-.29-4.12-.72-8.24-1.44-12.37-2.15-.19-.04-.38-.06-.57-.08,0,.05.01.1.02.15h0Z"/>
      <path class="st0" d="M427.23,258.71l-.17-.28.26-.23c.14-.13.32-.27.4-.31s.76-.49,1.52-1.01l1.38-.94.23.36.23.36-1.73,1.2q-1.86,1.29-2.11.87h0Z"/>
      <path class="st0" d="M344.61,219.29l-.02.12c-.42,2.14-.81,4.29-1.21,6.43-.45,2.44-.9,4.88-1.36,7.32l.25.36c3.13.58,6.27,1.15,9.4,1.73.13-.29.26-.58.39-.86-.02-.24-.03-.47-.05-.71.08.01.16.03.24.04,0,.26.01.51-.01.76-.03.34-.08.64-.14.97-.24,1.36-.46,2.72-.69,4.08,1.45.25,2.89.51,4.34.76.13-.97.27-1.94.4-2.91.09.02.17.03.26.05-.14.98-.24,1.97-.38,2.95-.02.13-.04.27-.11.39-.2-.04-.41-.07-.61-.11-.13.21-.24.43-.32.67-.08.21-.14.43-.2.65-.56-.07-1.12-.13-1.68-.2-.08.35-.17.7-.2,1.07-.07.24-.24.43-.39.62l-1.56-.27c-.11.65-.23,1.3-.34,1.94,1.53.25,3.05.51,4.58.76-.02.1-.03.19-.05.29-1.37-.25-2.74-.5-4.11-.75-.17.07-.33.13-.49.2-.17.86-.35,1.72-.52,2.58-.09.62-.23,1.23-.3,1.85-.02.27-.05.58.15.79.21.21.52.25.79.3.62.1,1.24.21,1.87.33.4.07.8.15,1.2.23-.01.07-.03.14-.04.22-.54-.07-1.08-.18-1.63-.27-.85-.15-1.69-.31-2.54-.47-.26,1.61-.52,3.22-.77,4.83,2.51.41,5.02.84,7.54,1.21.35.05.7.09,1.05.13.2-1.22.41-2.44.61-3.66.06-.02.15-.09.14.02.03.19.07.37.09.56-.43,2.26-.84,4.52-1.28,6.77-.03.05-.11.02-.16.02-.11.01-.11-.05-.08-.14.21-1.05.42-2.11.62-3.16-2.76-.5-5.52-1-8.29-1.5-.12.14-.25.26-.36.4-.18,1.15-.36,2.3-.55,3.45-.04.29-.1.6,0,.89.1.25.39.35.64.4.54.11,1.09.19,1.64.29.47.09.94.17,1.41.26.01.07.03.15.04.22-.68-.09-1.35-.21-2.02-.33-.65-.11-1.29-.23-1.94-.34l-.64,3.87c.2.09.39.19.6.23,1.52.35,3.05.61,4.58.91,1.05.2,3.15.62,3.15.62,0,0,.39-1.94.53-2.92.01-.07.01-.14.02-.22.16.03.2.21.25.34-.16.94-.47,2.83-.47,2.83l10.74,1.95s.39-2.01.57-3.01c.02-.1.04-.2.05-.3.09-.01.11.06.11.14.03.18.09.55.09.55l-.51,2.6.07.16,3.46.68s3.83.63,5.74,1c.09-.42.16-.83.24-1.24l.35.07-.22,1.15,7.72,1.48,1.73-9.02-7.72-1.48-1.15,5.99-.35-.07c0-.05.02-.1.03-.16.06-.36.12-.72.16-1.08-.21-.02-.42-.02-.62-.06-1.19-.19-2.37-.42-3.55-.64.02-.08.03-.17.04-.25.93.13,1.85.31,2.76.48.4.08.8.15,1.2.23.11-.26.24-.51.28-.79.06-.33.11-.67.06-1.01-.02-.09-.08-.17-.07-.26,0-.24.06-.47.1-.71-.27-.42-.55-.84-.82-1.26-1.41-.27-2.82-.51-4.22-.82-.33-.08-.68-.14-1-.26-.6-.24-1.21-.47-1.79-.76-.22-.1-.43-.22-.67-.29-.07-.01-.14-.03-.22-.04-.13.95-.25,1.89-.38,2.84-.06-.04-.13-.06-.18-.11-.03-.21.02-.42.04-.63.17-1.12.36-2.23.55-3.35l.51-3.05c.06.02.17,0,.19.06.05.29-.03.58-.06.87-.15.98-.36,1.96-.55,2.94,3.01.5,6.02,1.01,9.03,1.48.08,0,.17.03.25.03.12-.06.12-.21.16-.32.25-1.08.42-2.19.61-3.28.05-.29.1-.58.15-.88-.07-.1-.14-.21-.22-.31-1.23-.21-2.46-.42-3.69-.63-.03-.08-.06-.15-.09-.23.06-.04.11-.1.18-.06,1.28.23,2.56.46,3.84.69.13-.37.19-.76.27-1.14.24-1.21.46-2.43.7-3.64-.3-.11-.6-.23-.91-.29-1-.23-2.02-.37-3.02-.54.02-.11.04-.21.06-.32,1.22.22,2.44.46,3.66.66.09,0,.19.02.28.03.3-1.63.59-3.26.89-4.88-1.38-.24-2.75-.49-4.13-.73.02-.08.03-.16.04-.25.67.08,1.33.21,1.99.32.71.13,1.43.26,2.15.38.25-1.45.51-2.89.76-4.34-.31-.11-.61-.23-.93-.29-1.05-.23-2.11-.38-3.17-.55.03-.08.07-.17.1-.25,1.25.2,2.5.42,3.76.6.12.01.23.02.35.03.29-1.66.59-3.32.88-4.99-.15-.08-.3-.17-.48-.19-1.17-.25-2.35-.45-3.52-.66-1.76-.31-3.51-.61-5.27-.92-.52,2.64-1.04,5.28-1.56,7.92l-.24-.04c.49-2.65.98-5.31,1.46-7.96-3.6-.66-7.2-1.32-10.8-1.97-.17.74-.29,1.5-.43,2.25-.31,1.71-.61,3.42-.92,5.13-.09-.04-.18-.07-.27-.1.44-2.44.87-4.88,1.31-7.32l-1.17-.21c-.14.1-.27.19-.41.29-.55-.07-1.1-.15-1.65-.22l-.66-.71c-.19.04-.38.07-.56.11-.14.91-.27,1.83-.41,2.74-.07.02-.15.07-.21.08,0-.41.06-.82.11-1.23.05-.39.14-.78.14-1.17,0-.21-.1-.43-.29-.52-.31-.16-.66-.21-1-.28-.83-.16-1.65-.33-2.48-.49-.18.07-.36.14-.53.21.04.21.08.43.12.64-.09.2-.18.4-.27.6-.04-.04-.16-.05-.14-.12.52-3.65,1.01-7.31,1.43-10.97-3.07-.54-6.15-1.08-9.22-1.63h0ZM366.63,239.76c.17.07.33.15.5.22.73.31,1.41.8,1.82,1.49.18.28.29.6.42.91,0,.5.03,1.01-.02,1.51-.04.43-.15.87-.32,1.26-.3.69-.86,1.27-1.56,1.57-.57.26-1.21.34-1.84.32-.29,0-.58,0-.87.02-.07,0-.13-.02-.18-.07-.24-.18-.54-.23-.79-.4-.22-.13-.45-.31-.64-.5-.45-.45-.78-1.01-.96-1.62-.03-.12-.1-.23-.11-.35.01-.6.02-1.19.03-1.79.24-.45.47-.9.79-1.31.19-.27.44-.48.67-.71.43-.18.86-.35,1.3-.53.59,0,1.17,0,1.76-.01h0ZM360,242.61s.02,0,.04.01c.01,0,.02.01.03.02.05.04.16.05.12.14-.48,2.66-.95,5.31-1.43,7.97-.08-.07-.16-.13-.24-.2.48-2.59.95-5.19,1.45-7.78.02-.03.01-.13.04-.15h0ZM370.96,245.3s.07.01.11.02c.11-.01.11.05.08.14-.44,2.5-.88,5-1.33,7.51-.06-.03-.19,0-.19-.07-.02-.29.04-.57.08-.85.3-1.85.64-3.7.99-5.54.08-.4.15-.81.25-1.2ZM363.49,252.12l.66.18c.36.1.73.17,1.06.36.32.19.55.49.81.74.05.06.14.1.09.18-.07.27-.03.58.15.8.05.06.09.12.06.2-.23,1.36-.45,2.73-.68,4.09-.3-.05-.61-.12-.91-.12.19-1.39.38-2.78.57-4.16-.2-.29-.41-.58-.61-.87l-1.15-.35c-.24.13-.48.24-.67.43-.2.18-.35.4-.51.6-.48,2.82-.95,5.64-1.43,8.46.16.27.31.55.54.78.23.26.52.45.8.66.38-.14.75-.27,1.13-.41.17-.31.36-.63.52-.94.15-.86.3-1.73.46-2.59.24-.02.48-.03.71-.05.08.17.17.34.25.5-.19.96-.38,1.92-.58,2.88l-.74,1.04c-.41.15-.82.31-1.23.46-.48-.05-.96-.1-1.43-.15-.37-.39-.74-.77-1.11-1.16-.11-.35-.22-.7-.33-1.05.51-2.98,1.02-5.96,1.53-8.94.3-.4.56-.85.99-1.13.32-.22.69-.33,1.05-.45h0Z"/>
      <path class="st0" d="M191.26,280.24v-2.93h1.14v-22.01h-8.48v-7.01h-6.52v-3.26h6.52v-19.24h2.45v16.3h.33v-1.47h1.3v-.16c0-.09-.07-.16-.16-.16h-.16v-2.93h3.42v2.93h-1.79v.33h2.32l-.1-.26c-.05-.14-.1-1.06-.1-2.04v-1.78h-.32v.49h-3.42v-4.24h3.42v2.45h.32v-2.45h8.48v7.5h-7.04l.1.26c.05.14.1.73.1,1.3v1.04h.32v-2.28h6.52v10.6h-9.78v-6.19h1.79v-.33h-2.93v.33h.82v2.93h-3.1v-2.93h.98v-.33h-.98v-1.3h-.33v9.62h8.48v8.48h7.5v.82h.32v-.82h.65v-.33h-2.93v-1.3h-.33v1.3h-4.89v-3.59h4.89v.98h.33v-2.61h-.33v1.3h-4.89v-4.24h4.89v1.63h.33v-2.93h4.89v9.46h-.65v.33h2.77v-.33h-1.79v-9.46h11.57v9.46h-7.82v.33h1.96v.65h.33v-.65h2.28v2.61h-2.28v-.65h-.33v2.28h.33v-1.3h4.24v-.33h-1.63v-2.61h4.07v2.61h-1.14v.33h1.14v3.75h-6.68v-1.14h-.33v4.24h7.01v3.26h-.49v.33h2.61v-.33h-1.79v-3.26h1.79v-.33h-1.79v-2.45h4.73v2.45h-1.63v.33h1.63v3.26h-1.63v.33h1.63v8.31h-7.5v-8.31h.65v-.33h-6.52v.33h5.54v8.31h-7.82v-8.31h.98v-.33h-1.63v.16c0,.09.07.16.16.16h.16v8.31h-4.73v-8.31h3.02l-.05-1.79-.05-1.79h2.15v-1.14h-.33v.82h-4.73v-2.77h4.73v.65h.33v-4.4h-1.96v.33h1.63v3.1h-4.73v-3.1h1.79v-.33h-1.79v-.81h-.32v.81h-7.5v4.57h6.52v3.42h-6.52v4.73h1.47v2.28h6.03v3.75h-11.09v-2.93ZM199.41,281.54v-1.3h-2.12v1.14h-.49v1.47h2.61v-1.3Z"/>
      <path class="st0" d="M353.35,226.06c-.11.76-.2,1.53-.31,2.29-.06.4-.17.82-.25,1.23-.04.21-.04.46.14.6.23.17.52.21.79.27,1.18.22,2.36.41,3.53.67.41.1.84.18,1.22.37.06.03.14.07.08.15-.04.09-.08.19-.11.28.22.06.44.13.67.15.09.04.04-.1.06-.15.01-.12-.02-.26.06-.36.02-.1.11-.06.18-.05.04.03,0,.12,0,.18,0,.12-.15.23-.08.35.03.05.11.06.16.09.17.08.36.1.54.16.07-.21.16-.42.18-.64.05-.02.14.02.21.02,5.12.96,10.26,1.89,15.39,2.82,5.82,1.06,11.64,2.11,17.46,3.16.06.06.09.14.08.23-.02.48-.11.98-.18,1.47-.24,1.55-.5,3.1-.75,4.66,3.13.53,6.25,1.07,9.38,1.6.04.07.1.12.13.19-.77,4.63-1.55,9.26-2.36,13.89-.05.09.08.08.13.12.26.1.52.2.78.3-.03.05,0,.2-.07.18l-12.95-2.34c-.19.93-.36,1.86-.55,2.78-.75,3.89-1.51,7.78-2.3,11.67,4.76.86,9.52,1.7,14.29,2.53.25.05.51.09.77.11.19-1.18.38-2.36.57-3.55.08-.03.12.07.18.11.09.04.05.13.04.2-.16,1.02-.32,2.04-.48,3.06.08.11.15.22.23.33,1.99.34,3.98.68,5.96,1.02.13-.14.26-.29.39-.43.04-.44.07-.87.11-1.31-.46-.08-.92-.16-1.39-.24.11-.6.22-1.2.33-1.8-.49-.1-.99-.19-1.48-.31-.14-.04-.3-.08-.44-.15-.09-.04-.06-.12-.04-.19.11-.45.21-.89.32-1.34-.95-.18-1.9-.38-2.86-.51-.1-.01-.2-.02-.29-.03.02-.09.03-.18.05-.27.44.03.88.12,1.3.25.09.05.13.02.12-.08.2-1.37.4-2.74.6-4.1.1.02.21.04.31.05-.21,1.18-.44,2.35-.6,3.54-.03.2,0,.4,0,.6,5.79,1.02,11.58,2.03,17.38,3.04-.02.08-.03.16-.04.24-3.95-.67-7.89-1.36-11.84-2.02-.13-.02-.26-.05-.39-.06-.12.05-.12.2-.16.31-.28,1.18-.47,2.38-.68,3.58-.08.44-.15.88-.23,1.31,5.92.99,11.85,1.98,17.77,2.96-.22,1.38-.41,2.76-.55,4.14,0,.16-.05.32,0,.48.11.11.28.12.42.16,1.02.2,2.06.35,3.09.5,2.24.33,4.48.63,6.72.94.1-.07.21-.16.31-.21-.02.14.08.26.21.29.25.1.53.11.79.17,1,.18,1.99.36,2.99.53,1.04.17,2.07.34,3.11.49.08,0,.15.01.23.02.11-.72.2-1.45.34-2.17.11-.04.21-.07.32-.11-.14.79-.24,1.59-.36,2.38-.07.08-.14.16-.21.24-2.4-.4-4.8-.8-7.2-1.2-.24,1.43-.49,2.85-.72,4.28-.01.1-.02.2-.03.3,13.16,2.29,26.31,4.58,39.47,6.86,1.04.18,2.08.37,3.12.54.11.01.21.02.32.04l.73-4.15c-.09-.13-.18-.26-.27-.39-1.94-.39-3.89-.77-5.83-1.14.1-.72.24-1.43.36-2.14.63-3.45,1.26-6.9,1.89-10.35.42-2.33.84-4.66,1.27-6.98.49.06.98.15,1.48.23,1.6.26,3.2.54,4.81.81-.11.82-.26,1.62-.4,2.43-.08.46-.17.93-.26,1.39-.06.03-.13,0-.19,0,.13-.86.26-1.72.41-2.57.04-.27.09-.59-.09-.83-.19-.23-.51-.3-.79-.36-.69-.14-1.39-.25-2.09-.38-.78-.14-1.57-.28-2.35-.42-.11.08-.22.15-.33.23-.28,1.49-.57,2.98-.85,4.47.09.08.17.18.3.2.74.18,1.48.32,2.23.46,1.09.21,2.17.4,3.26.65.1.02.19.06.28.1-.34,1.91-.68,3.83-1.02,5.74-.24,0-.46-.09-.7-.13-1.65-.32-3.31-.62-4.97-.91-.16-.03-.32-.04-.49-.05l-1.44,8.02c.15.09.3.2.48.24.98.26,1.98.42,2.96.63.77.15,1.54.32,2.31.48.08-.25.18-.49.23-.75.37-1.82.66-3.65.98-5.48.03-.19.07-.39.1-.58l.25.1c-.66,3.75-1.32,7.49-1.98,11.24.09.12.17.24.26.37,2.86.53,5.72,1.07,8.58,1.59,2.27.41,4.55.8,6.84,1.16.16-1.04.3-2.08.48-3.12.05-.31.12-.65.02-.96-.1-.28-.39-.42-.66-.5-.58-.17-1.17-.26-1.76-.38-1.24-.24-2.49-.48-3.72-.76-.07-.02-.14-.04-.21-.05.04-.53.12-1.05.2-1.58.07-.41.13-.82.23-1.22.08.02.17.03.25.04-.15.86-.3,1.71-.45,2.57,2.1.39,4.19.81,6.28,1.21.09-.49.19-.98.28-1.46-.46-.09-.95-.13-1.38-.33-.06-.04-.14-.07-.18-.12.08-.46.16-.92.24-1.39-.53-.06-1.06-.12-1.59-.18-.04-.11-.1-.22-.12-.33.13-.47.27-.94.4-1.42-1.14-.18-2.28-.36-3.42-.54-.04-.28.03-.55.06-.82.18-1.3.41-2.6.61-3.9.15-.95.3-1.9.44-2.85.08.03.16.06.24.09-.36,2.38-.73,4.76-1.09,7.14,2.1.42,4.2.83,6.3,1.24.45-2.87.92-5.73,1.33-8.61.04-.23.06-.47.07-.71-1.99-.35-3.99-.71-5.98-1.06-.18-.1-.37-.19-.55-.29.44-2.54.84-5.09,1.23-7.64.09-.6.19-1.2.26-1.8-2.19-.37-4.38-.73-6.56-1.1-1.36-.23-2.71-.49-4.07-.72-.11-.02-.23-.02-.34-.01-.04-.22-.05-.44-.04-.66.02-.51.09-1.02.16-1.53.03-.31.09-.63,0-.93-.08-.24-.33-.36-.54-.45-.13-.06-.27-.11-.4-.17.04-.3.07-.6.15-.89.34-1.39.68-2.79.99-4.19.04-.16.07-.32.11-.48.16-.07.33-.13.51-.13.27,0,.54.07.81.11-.04-.23-.11-.45-.08-.68.05-1.11.26-2.21.3-3.32.02-.45-.04-.91-.2-1.34-.12-.31-.25-.62-.38-.93-.05-.02-.2,0-.18-.05.08-.11.17-.21.25-.32l2.8.57c0-.5.05-1,0-1.5-.01-.12-.03-.25-.1-.35-.09-.44-.04-.9-.04-1.35v-.32c-1-.18-2-.38-3.01-.59-1.27-.27-2.54-.53-3.8-.83-.12-.03-.23-.06-.35-.09.27-1.43.52-2.85.79-4.28.58.08,1.16.16,1.73.26.21.03.47.03.61-.16.18-.24.23-.56.3-.84.18-.94.35-1.88.54-2.82.08-.45.17-.9.26-1.35-.69-.15-1.38-.29-2.07-.44-.23,1.17-.45,2.34-.63,3.52-.07-.01-.15-.03-.22-.04-.02-.24,0-.47.03-.71.11-.8.36-1.59.41-2.4,0-.18-.04-.35-.05-.52-.31,0-.62.01-.93.02.02-.08.03-.16.04-.24.27,0,.55-.02.82.02.24.02.48.07.72.04.14-.03.13-.2.17-.31.23-.95.42-1.92.61-2.88.08-.46.18-.92.2-1.38-.86-.2-1.72-.4-2.58-.57-.57-.11-1.13-.24-1.7-.34-.5-.08-.99-.15-1.5-.16h-.58c-.21,1.08-.42,2.14-.61,3.2-.08.47-.17.94-.26,1.4.93.24,1.87.4,2.8.58,0,.09,0,.18,0,.27-1.81-.33-3.63-.66-5.44-.99-.28,1.55-.59,3.09-.9,4.64-.14.05-.28.12-.42.16-1.03-.17-2.05-.34-3.08-.51-.12.09-.26.17-.32.31-.21.41-.33.85-.47,1.29-.18.57-.31,1.15-.54,1.7-.07.11-.17.2-.25.3.49.11.99.19,1.47.35.13.05.26.1.39.14.06.63.11,1.27.23,1.89.1.73.14,1.48.19,2.22.01.18.02.36.04.54.36.06.72.13,1.08.19-.63,3.73-1.26,7.46-1.89,11.19-.17.09-.35.17-.53.26-1.12-.2-2.24-.45-3.37-.6-.19-.01-.39-.07-.56.02-.06.03-.15.04-.14.12l-.68,3.47c-.08.12-.17.24-.26.36-4.77-.86-9.53-1.72-14.3-2.58.04.22.08.44.13.66-.08.15-.15.3-.23.45-.09-.02-.17-.03-.26-.05.11-.35.16-.71.19-1.07-1.15-.21-2.3-.42-3.44-.62l-1.73-.23c-.09.29-.17.57-.26.86-.09,0-.17,0-.26,0,.25-1.54.52-3.07.73-4.62.05-.4.12-.8.13-1.2,0-.1-.09-.16-.13-.24-1.12-.17-2.24-.34-3.35-.51-1.58-2.16-3.14-4.33-4.72-6.49-.41-.54-.81-1.1-1.24-1.62-.05-.05-.12-.13-.19-.08-.26.13-.5.31-.74.48-1.91,1.31-3.79,2.65-5.67,3.99-1.51,1.08-3.02,2.15-4.5,3.26-.16.13-.33.24-.48.39-.07.08.02.19.06.27.67,1.14,1.44,2.21,2.14,3.33.16.27.35.55.43.85.03.08,0,.17-.08.2-1.59-2.35-3.14-4.71-4.7-7.08-.16.06-.32.13-.49.19.03.24.06.47.1.71-.09.16-.17.33-.26.49l-.23-.04c.13-.51.26-1.03.39-1.54-.06-.33-.11-.67-.26-.98-.1-.23-.27-.41-.41-.61-1.52-.28-3.03-.56-4.55-.84-1.65-.25-3.31-.52-4.97-.72-.41-.04-.82-.1-1.23-.08-.08,0-.16.02-.24.03.68-3.91,1.33-7.82,1.98-11.73.39-2.34.78-4.67,1.16-7.01.01-.08.02-.15.03-.23-1.2-.2-2.41-.4-3.61-.59-.22,1.26-.44,2.51-.66,3.76-8.88-1.58-17.76-3.15-26.64-4.73-8.07-1.45-16.15-2.9-24.22-4.35,0,.04-.01.09-.02.13h0ZM397.38,238.45c.2.04.39.08.58.12.09.1.19.21.28.31-.03.16-.05.31-.08.47-.25.04-.51.11-.76.12-.27-.12-.55-.2-.83-.3l-.11-.32c.39.13.8.2,1.2.29.06,0-.07-.11-.08-.15-.09-.13-.18-.26-.27-.39-.29.06-.58.11-.86.21-.05-.08,0-.13.06-.18.1-.1.21-.2.31-.3.19.04.37.08.56.12h0ZM396.39,238.83c-.1.05-.1-.06,0,0ZM401.51,239.18c.4,0,.81.08,1.22.13.11.15.22.31.33.47-.13.16-.25.32-.38.49-.47-.1-.96-.16-1.41-.34-.05-.04-.16-.06-.12-.14.03-.18.06-.37.1-.55.08-.04.17-.05.26-.05h0ZM402.4,239.44c-.29.01-.58-.02-.86.06-.1.03-.15.16-.07.23.11.1.28.1.42.12.26.03.53.05.8.08-.07-.17-.13-.33-.2-.5-.03,0-.06,0-.08,0h0ZM468.85,252.11c.73.04,1.47.14,2.2.23.33.04.65.09.98.13,0,.23-.01.47-.02.7.8.1,1.61.21,2.41.33.04-.21.08-.43.11-.64l.25.04c-.08.72-.23,1.43-.37,2.14-.43,2.17-.93,4.33-1.36,6.5-.03.27-.15.53-.33.74-.03.09-.11.06-.19.04-.96-.18-1.92-.35-2.89-.53.04-.2.07-.4.11-.6-.83-.14-1.66-.29-2.49-.44-.05.28-.1.56-.15.84-.05,0-.15.1-.16.02-.03-.2-.07-.39-.09-.59.57-2.97,1.14-5.94,1.67-8.92.11,0,.21-.01.32-.01h0ZM476.06,252.45c.11.05.22.1.33.15-.08.62-.16,1.25-.24,1.87-.13.15-.23.34-.4.46-.1.06-.19-.06-.26-.11-.11-.11-.22-.22-.33-.33.14-.66.23-1.33.46-1.96.04-.08.08-.15.11-.22.1.05.2.1.31.14h0ZM404.84,254.8c-.02.43-.09.86-.14,1.29-.08.6-.18,1.18-.26,1.77-.08.62-.03,1.29.3,1.84.35.59.95.97,1.57,1.24.99.43,2.05.66,3.1.87,1.99.38,4.01.63,6.02.89.29-1.62.54-3.25.86-4.86.05-.25.09-.49.17-.74.03-.05.03-.18.11-.11.1.02.1.09.07.17-.3,1.79-.61,3.58-.91,5.37.07.11.15.21.22.32,2.52.43,5.03.88,7.55,1.3.24.04.48.07.72.11-.3-.43-.63-.85-.92-1.3-.06-.11-.15-.23-.15-.36.07-.05.17-.04.25-.06.47.71.94,1.42,1.41,2.13.73-.56,1.44-1.13,2.14-1.73.42-.37.86-.72,1.29-1.08.17-.14.33-.29.49-.43-.61-.86-1.25-1.7-1.83-2.58-.07-.11-.13-.23-.2-.34,1.34-.91,2.68-1.82,4.04-2.68.17.08.34.16.47.3.48.48.89,1.03,1.3,1.57.31.45.68.85,1.01,1.28.2.25.39.49.59.74-.05.07-.13.12-.2.18-.1-.1-.2-.18-.3-.27-.75.54-1.5,1.08-2.22,1.66-.5.39-.97.8-1.45,1.21.26.45.52.91.77,1.36.21.05.41.09.62.14.58-.48,1.13-.98,1.73-1.42.46-.34.94-.65,1.34-1.07l.3-.29c-.08-.17-.17-.34-.25-.51.06-.05.13-.1.19-.16.05.09.08.2.18.25.07.04.13.09.09.18-.06.55-.17,1.09-.25,1.64-.17,1.09-.34,2.17-.51,3.26.27.11.53.25.82.31,1.3.31,2.63.51,3.95.74.08.01.16.03.24.04.11-.45.19-.9.33-1.34.03-.04.04-.17.1-.12.05.04.11.08.14.13-.08.48-.17.96-.25,1.43.61.06,1.22.1,1.82.17,1.04.16,2.08.33,3.13.44.11.01.23.02.33-.04.08-.02.13-.06.12-.15.05-.33.09-.66.14-.98.09.02.18.03.27.05-.28,1.55-.57,3.1-.85,4.65-.07-.02-.17-.01-.21-.05.17-1.01.34-2.03.51-3.04-1.24-.21-2.48-.44-3.72-.65-.36-.05-.71-.12-1.07-.1-.18.04-.36.03-.54.04-.27,1.51-.53,3.02-.8,4.53.71.07,1.42.13,2.12.2,1.14.18,2.27.35,3.4.53.05.12.12.23.15.35-.3,1.74-.62,3.47-.92,5.21-.25,1.47-.5,2.94-.75,4.41-1.46-.26-2.92-.52-4.37-.79-.11.53-.23,1.06-.31,1.6-.47-.12-.93-.24-1.4-.36-.11.46-.22.92-.27,1.39-.01.13-.02.25-.04.38-.35-.05-.7-.08-1.04-.17-.21-.05-.43-.11-.64-.16-.03.11-.04.12-.01,0,.5-2.84,1-5.68,1.51-8.52-4.58-.79-9.16-1.59-13.73-2.38.03-.06,0-.18.06-.2.34.04.68.1,1.02.16,4.13.69,8.26,1.41,12.39,2.11.1-.07.21-.14.31-.22.14-.84.27-1.68.41-2.52.13-.54.46-1.01.78-1.45.42-.57.9-1.09,1.26-1.7.14-.23.24-.49.27-.76.1-.58.2-1.17.31-1.75-.45-.14-.91-.2-1.37-.29-1.69-.32-3.38-.63-5.07-.94l-1.79,1.26c-.2-.04-.4-.07-.61-.11-.3-.32-.6-.65-.89-.97-.42-.14-.84-.29-1.26-.43-.77.18-1.54.35-2.3.53-.01.08-.03.15-.04.23-.23-.18-.39-.43-.56-.66-.3-.44-.6-.88-.89-1.32-3.17-.57-6.35-1.13-9.52-1.7-3.57-.66-7.13-1.32-10.7-1.99-.11.18-.23.36-.28.57-.12.39-.19.79-.28,1.19-.05-.01-.19.07-.18,0,.07-.6.15-1.2.24-1.79-.44-.14-.88-.23-1.33-.33.04-.05.05-.13.1-.16.44.05.88.1,1.31.15.31-1.89.62-3.79.92-5.68.07-.02.14-.06.2-.07h0ZM475.25,257.55c.06.04.14.07.18.12.04.24.05.49.02.73-.03.36-.1.71-.15,1.06-.14.05-.28.14-.44.13-.12,0-.24-.02-.37-.04-.06-.21-.05-.43-.03-.64.04-.39.12-.77.18-1.16.14-.1.29-.2.43-.3.05.03.11.07.16.1h0ZM474.41,262.33c.14.05.3.13.36.27-.25,1.54-.47,3.08-.76,4.62-.07.31-.11.64-.21.95-.04.05-.05.17-.11.18-.14-.02-.27-.05-.41-.07-.09-.16-.18-.31-.27-.47.28-1.78.57-3.57.85-5.35.11-.07.23-.13.35-.2.07.02.14.05.21.07h0ZM427.98,267.13c.27.01.55.03.82.05.31.24.65.46.87.8.02.06.13.14.02.18-.62.42-1.22.89-1.89,1.23-.09.04-.19.06-.28.09l-1.17-1.82.81-.57c.27.02.55.03.82.05h0ZM456.54,269.51l3.02.53c.04.06.1.12.12.18-1.12,6.47-2.24,12.94-3.37,19.41-.39-.02-.78-.1-1.16-.16-1.33-.22-2.67-.46-4-.73-.43-.09-.87-.18-1.3-.28.2-1.15.4-2.3.61-3.44l.25.04c-.08.59-.19,1.16-.3,1.74-.09.49-.19.97-.28,1.46,1.98.36,3.96.74,5.94,1.13.29-1.59.57-3.17.85-4.76-2.04-.37-4.07-.73-6.11-1.1l.94-5.48c.11.08.22.17.34.24,1.92.35,3.83.7,5.75,1.05.32-1.84.63-3.69.96-5.53.13-.76.3-1.52.38-2.28.03-.34.06-.72-.12-1.02-.18-.29-.53-.39-.84-.45-.63-.13-1.28-.2-1.91-.32-.82-.15-1.64-.3-2.46-.45-.1.07-.2.14-.29.21-.43,2.44-.86,4.87-1.29,7.31-.12-.09-.17-.24-.25-.37.46-2.46.92-4.91,1.37-7.37.07-.04.13-.13.21-.09l2.95.52ZM477.68,268.98c.07.02,0,.12-.04.06-.02-.03,0-.07.04-.06ZM478.66,269.15c-.07.02-.09-.02,0,0ZM462.21,270.33c.61.07,1.22.2,1.83.3,2.4.43,4.8.89,7.18,1.38.43.09.86.17,1.28.28-.14,1-.32,2-.48,3-.81,4.8-1.67,9.59-2.5,14.38-.12.71-.25,1.42-.38,2.13-2.19-.38-4.37-.77-6.55-1.19-.22-.04-.44-.12-.66-.16-1.12-.24-2.25-.45-3.38-.67,0-.24.01-.48.06-.72.32-2.02.7-4.04,1.08-6.05.79-4.22,1.56-8.45,2.34-12.67.06,0,.12-.01.18-.01h0Z"/>
      <path class="st0" d="M77.14,358.65v-1.3h-.49v-2.28h2.28v-6.2h-.33v5.87h-5.71v-7.17h5.71v.49h.33v-.49h.65v-.33l-2.57-.02c-1.41-.01-2.92,0-3.34.01l-.77.04v-1.5h1.3v.81h.33v-.81h6.52v1.47h-.49v.33h.49v12.39h-3.91v-1.3Z"/>
      <path class="st0" d="M272.44,361.5v-1.39h4.89v2.77h-4.89v-1.39Z"/>
      <path class="st0" d="M275.7,363.7v-.65h1.63v1.3h-1.63v-.65Z"/>
      <path class="st0" d="M431.24,362.84l.38-2.17.72.13.72.13-.38,2.17-.38,2.17-.72-.13-.72-.13.38-2.17Z"/>
      <path class="st0" d="M370.58,352.06l.4-2.25.72.13.72.13-.4,2.25-.4,2.25-.72-.13-.72-.13.4-2.25Z"/>
      <path class="st0" d="M142.19,380.49v-1.47h1.3v2.93h-1.3v-1.47Z"/>
      <path class="st0" d="M129.64,378.54v-3.42h7.34v-.33h-.49v-.65h-.33v.65h-6.52v-6.36h6.52v4.24h.33v-5.38h-.33v.81h-6.52v-6.85h5.54v2.28h.98v2.28h.33v-2.28h.49v-.33h-1.47v-2.77h3.75v2.77h-.82v.33h.82v8.48h.98v-.33h-.65v-18.1h-.32v3.42h-1.14v.33h1.14v2.77h-3.75v-2.77h1.14v-.33h-1.14v-.49h-.33v4.4h-5.54v-6.36h5.54v.49h.33v-.49h.98v-2.45h-.33v2.12h-6.52v-6.36h6.52v2.77h.33v-.65h.65v-.33h-.65v-1.79h2.77v1.79h-.65v.33h.65v2.12h.32v-4.24h2.93l.04,10.39.04,10.39,1.43.05,1.43.05v-.34h1.79v.33h1.96v8.97h-.65v.33h.65v3.91h-4.56v-1.3h.98v-1.63h.65v-.98h.49v-.33h-.49v-6.03h-4.56v.33h1.96v.65h.33v-.65h1.96v2.77h-1.96v-.65h-.33v.65h-5.22v.33h.82v6.85h-9.62v-3.42Z"/>
      <path class="st0" d="M432.01,383.83l1.54-8.75.32.06.32.06.03-.16.03-.16-.32-.06-.32-.06.69-3.93.7-3.93.88.15.88.16.1-.56.1-.56-.8-.14-.8-.14.38-2.17.38-2.17.96.17.96.17.67-3.77.67-3.77-1.61-.28-1.61-.28-.21,1.2-.21,1.2-.56-.1-.56-.1-.03.16-.03.16.56.1.56.1-.4,2.25-.4,2.25-1.61-.28-1.61-.28.4-2.25.4-2.25.48.08.48.08.03-.16.03-.16-.64-.11-.64-.11-.83,4.74-.83,4.74-5.62-.99-5.62-.99-.79,4.49-.79,4.5-3.53-.62-3.53-.62.42-2.41.43-2.41,2.33.41,2.33.41.13-.72.13-.72-.16-.03-.16-.03-.1.56-.1.56-2.17-.38-2.17-.38.25-1.44.26-1.45,2.17.38,2.17.38-.04.24-.04.24.16.03.16.03.04-.24.04-.24.4.07.4.07.08-.48.08-.48-13.08-2.31-13.08-2.31-.09.48-.08.48.4.07.4.07-.28,1.61-.28,1.61,2.33.41,2.33.41-.42,2.41-.42,2.41-3.45-.61-3.45-.61.79-4.5.79-4.49-7.71-1.36-7.7-1.36-.79,4.49-.79,4.49-2.73-.48-2.73-.48.42-2.41.42-2.41,1.36.24,1.36.24.07-.4.07-.4-.16-.03-.16-.03-.04.24-.04.24-1.93-.34-1.93-.34.26-1.45.25-1.45,1.93.34,1.93.34-.14.8-.14.8.16.03.16.03.14-.8.14-.8.64.11.64.11.08-.48.09-.48-.64-.11-.64-.11.82-4.65.82-4.66-1.44-.26-1.45-.26.14-.8.14-.8-1.68-.3-1.69-.3-.57,3.21-.57,3.21.72.13.72.13-.4,2.25-.4,2.25-1.76-.31-1.76-.31-.74-1.93-.75-1.93.95-5.4.95-5.39,7.46,1.32,7.46,1.32-.95,5.38-.95,5.38,6.58,1.16,6.58,1.16.08-.48.09-.48-.48-.09-.48-.08.06-.32.06-.32-.16-.03-.16-.03-.06.32-.06.32-2.01-.35-2.01-.35.21-1.2.21-1.2,2.01.35,2.01.35-.08.48-.09.48.16.03.16.03.11-.64.11-.64-2.17-.38-2.17-.38.78-4.42.78-4.42,3.45.61,3.45.61-1.1,6.26-1.1,6.26.16.03.16.03,1.17-6.66,1.17-6.66,2.17.38,2.17.38-.2,1.12-.2,1.12,1.2.21,1.2.21-.65,3.69-.65,3.69-2.01-.35-2.01-.35-.11.64-.11.64.16.03.16.03.09-.48.08-.48,1.85.33,1.85.33-.21,1.2-.21,1.2-1.85-.33-1.85-.33.06-.32.06-.32-.16-.03-.16-.03-.06.32-.06.32-.48-.08-.48-.09-.09.48-.08.48,5.54.98,5.54.98.08-.48.09-.48-.4-.07-.4-.07.24-1.36.24-1.36-2.49-.44-2.49-.44.65-3.69.65-3.69,3.69.65,3.69.65-.98,5.54-.98,5.54,9.95,1.76,9.95,1.75.48-2.73.48-2.73,1.29.23,1.28.23.48-2.73.48-2.73,8.43,1.48,8.43,1.49-1.36,7.71-1.36,7.7-.96-.17-.96-.17-.39,2.21-.39,2.21-.85,1.67-.85,1.67-1.47-.21-1.47-.21-.03.15-.03.16.32.06.32.06-1.54,8.75-1.54,8.75-2.41-.42-2.41-.42,1.54-8.75Z"/>
      <path class="st0" d="M278.47,382.29v-14.18h-.33v.49h-7.99v-2.61h7.99v.49h.33v-.49h2.77v30.48h-2.77v-14.18Z"/>
      <path class="st0" d="M110.4,404.78v-1.47h1.79v-1.47h1.79v4.4h-3.59v-1.47Z"/>
      <path class="st0" d="M129.8,415.3v-1.39h2.93v2.77h-2.93v-1.39Z"/>
      <path class="st0" d="M210.01,427.28l.34-.83.6.24.6.24-.34.83-.34.83-.6-.24-.6-.24.34-.83Z"/>
      <path class="st0" d="M220.22,432.02l.24-.6.68.27.68.27-.24.61-.24.6-.68-.27-.68-.27.25-.61Z"/>
      <path class="st0" d="M211.03,428.66l.67-1.66.83.34.83.33-.67,1.66-.67,1.66-.83-.34-.83-.33.67-1.66Z"/>
      <path class="st0" d="M217.95,432.86l.3-.76,1.51.61,1.51.61-.31.76-.31.76-1.51-.61-1.51-.61.31-.76Z"/>
      <path class="st0" d="M137.46,419.78v-4.24h-.33v1.14h-1.79v-1.47h-.98v-1.3h1.3v-.33h-5.87v-22.17h3.1v10.43h.33v-1.3h5.87v.65h.33v-.65h3.1v3.91h-3.1v-2.28h-.33v2.28h-5.87v-1.63h-.33v7.5h4.24v1.14h.33v-2.12h5.05v4.24h-5.05v-1.14h-.33v1.14h-.49v.33h.49v.65h.33v-.65h5.05v10.11h-5.05v-4.24Z"/>
      <path class="st0" d="M211.77,434.67l.64-1.59,1.59.64,1.59.64.06-.15.06-.15-1.59-.64-1.59-.64,1.68-4.15,1.68-4.16,1.21.49,1.21.49-.82,2.04-.82,2.04.15.06.15.06.82-2.04.82-2.04.83.34.83.33-.31.76-.3.76.15.06.15.06.3-.76.3-.76,1.51.61,1.51.61-.58,1.44-.58,1.44-1.51-.61-1.51-.61.06-.15c.03-.08,0-.18-.09-.21l-.15-.06-1.16,2.86-1.15,2.86h-.22s-.23.02-.23.02l.15.16.15.17-.64,1.57-.64,1.58-2.19-.89-2.19-.89.64-1.59Z"/>
      <path class="st0" d="M196.77,428.26l1.07-2.65,2.57,1.04,2.57,1.04-.58,1.44-.58,1.43.53.21.53.21.06-.15.06-.15-.38-.15-.38-.15.73-1.81.73-1.81-.15-.06-.15-.06-.15.38-.15.38-2.57-1.04-2.57-1.04.43-1.06.43-1.06,2.57,1.04,2.57,1.04-.09.23-.09.23.15.06.15.06.4-.98.4-.98-.15-.06-.15-.06-.24.61-.24.6-2.57-1.04-2.57-1.04,1.28-3.17,1.28-3.17,2.57,1.04,2.57,1.04-.85,2.12-.85,2.11.15.06.15.06.24-.6.24-.61,1.13.46,1.13.46-.85,2.11-.86,2.12.15.06.15.06.37-.91.37-.91.76.3.76.31-.67,1.66-.67,1.66-.76-.31-.76-.31.12-.3.12-.3-.15-.06-.15-.06-.7,1.74-.7,1.74-.3-.12-.3-.12-.06.15-.06.15.3.12.3.12-.49,1.21-.49,1.21-3.85-1.56-3.85-1.56,1.07-2.64Z"/>
      <path class="st0" d="M270.15,426.95v-1.3h7.99v2.61h-7.99v-1.3Z"/>
      <path class="st0" d="M275.7,430.54v-.65h1.63v1.3h-1.63v-.65Z"/>
      <path class="st0" d="M272.44,432.74v-1.39h4.89v2.77h-4.89v-1.38Z"/>
      <path class="st0" d="M239.34,433.88v-.73h1.3v1.47h-1.3v-.73Z"/>
      <path class="st0" d="M236.74,433.07v-1.55h2.45v3.1h-2.45v-1.55Z"/>
      <path class="st0" d="M193.88,443.7l.3-.76.6.24.6.24-.3.76-.31.76-.6-.24-.6-.24.31-.76Z"/>
      <path class="st0" d="M191.34,441.71l.64-1.59.68.27.68.27-.64,1.59-.64,1.59-.68-.27-.68-.27.64-1.59Z"/>
      <path class="st0" d="M236.74,441.62v-2.28h3.26v-.33h-3.26v-1.79h5.54v-2.26l.2-.09.2-.1-.2-.1-.2-.1v-3.07h1.96v3.07l-.2.1-.2.1.2.1.2.09v1.11h.33v-5.05h4.89v7.99h-4.89v-1.96h-.33v1.96h-.49v.33h5.71v4.56h-7.01v-4.56h.16c.09,0,.16-.07.16-.16v-.16h-1.79v.33h1.14v4.56h-5.38v-2.28Z"/>
      <path class="st0" d="M105.35,427.03v-16.87h-1.63v-8.96h6.36v5.38h4.24v-6.85h-.33v.49h-3.59v-2.28h3.59v.65h.33v-.65h8.64v5.71h-4.73v.33h4.73v5.38h-4.73v.33h4.73v6.03h-8.8v-6.03h2.93v-.16c0-.09-.07-.16-.16-.16h-.16v-5.38h.16c.09,0,.16-.07.16-.16v-.16h-.65v5.71h-7.17v15.65h.33v-8.97h7.82v10.92h-7.82v-.98h-.33v10.11h.33v-8.8h7.82v10.92h-7.82v-1.14h-.33v6.85h-3.91v-16.87Z"/>
      <path class="st0" d="M188.65,451l.46-1.13,2.19.89,2.19.89.06-.15c.04-.08,0-.18-.09-.21l-.15-.06.24-.61.24-.6-.15-.06-.15-.06-.24.6-.24.61-1.89-.76-1.89-.76.55-1.36.55-1.36,1.89.76,1.89.77-.12.3-.12.3.15.06.15.06.27-.68.27-.68-.15-.06-.15-.06-.09.23-.09.23-1.89-.76-1.89-.76.52-1.28.52-1.29,1.89.76,1.89.76-.24.6-.24.61.15.06.15.06.24-.61.24-.6.15.06c.08.03.18,0,.21-.09l.06-.15-.53-.21-.53-.21.64-1.59.64-1.59,5.29,2.14,5.29,2.14-.64,1.59-.64,1.59-4.38-1.77-4.38-1.77-.06.15c-.03.08,0,.18.09.21l.15.06-.49,1.21-.49,1.21.15.06.15.06.09-.23.09-.23.68.27.68.27-.34.83-.34.83-.68-.27-.68-.27.09-.23.09-.23-.15-.06-.15-.06-.27.68-.27.68.15.06.15.06.12-.3.12-.3.68.27.68.27-.34.83-.34.83-.67-.27-.67-.27v-.21s.03-.21.03-.21l-.35.15c-.19.08-.37.19-.39.24l-.04.09.98.4.98.4-.46,1.13-.46,1.13-3.55-1.43-3.55-1.43.46-1.13Z"/>
      <path class="st0" d="M274.39,459.48v-.73h1.47v-1.47h.65v-.33h-.49v-3.91h-.33v3.91h-5.54v-5.87h5.54v.98h.33v-1.79h-.33v.49h-5.54v-3.75h5.54v2.28h.33v-.49h.49v-.33h-.49v-1.47h2.12v1.47h-.65v.33h.65v.49h.33v-2.28h12.71v3.91h-1.47v2.12h-11.25v-2.77h-.33v4.24h.33v-1.14h2.47l.71.77.71.77v1.02s.01,1.02.01,1.02h-3.91v-1.47h-.33v1.47h-.65v.33h.65v2.93h-3.75v-.73Z"/>
      <path class="st0" d="M270.15,458.74v-1.47h2.61v2.93h-2.61v-1.47Z"/>
      <path class="st0" d="M92.63,471.62v-4.08h18.09v7.66h-5.05v-3.26h-1.96v-1.3h-.33v5.05h-10.76v-4.08ZM101.76,471.29v-.16h-7.34v.33h7.34v-.16Z"/>
      <path class="st0" d="M184.57,516.69v-1.71h3.91v3.42h-3.91v-1.71Z"/>
      <path class="st0" d="M276.67,519.46v-1.71h.82v-.33h-4.4v-1.3h6.52v-13.2h.49v-.33h-1.3v-.49h-.33v.49h-5.38v-4.4h5.38v2.93h.33v-.49h.98v-.33h-.98v-2.12h2.93v2.12h-1.14v.33h2.93v.49h.33v-2.93h7.17v4.4h-7.17v-.49h-.33v.49h-.16c-.09,0-.16.07-.16.16v.16h7.82v4.56h-8.96v-4.56h.16c.09,0,.16-.07.16-.16v-.16h-1.14v.33h.49v14.51h-.82v.33h.82v3.42h-5.05v-1.71Z"/>
      <path class="st0" d="M254.83,519.46v-1.71h5.05v3.42h-5.05v-1.71Z"/>
      <path class="st0" d="M214.89,519.87v-1.47h-.81v-3.42h4.07v6.36h-3.26v-1.47ZM215.54,521.01v-.16h-.49v.33h.49v-.16ZM216.36,521.01v-.16h-.49v.33h.49v-.16ZM217.17,521.01v-.16h-.49v.33h.49v-.16ZM217.99,521.01v-.16h-.49v.33h.49v-.16Z"/>
      <path class="st0" d="M185.39,521.5v-1.47h1.47v1.47h1.63v1.47h-3.1v-1.47Z"/>
      <path class="st0" d="M276.67,524.76v-1.96h1.47v1.47h3.58v2.45h-5.05v-1.96Z"/>
      <path class="st0" d="M485.5,524.92v-6.68h7.01v10.92h.33v-.65h2.28v-.33h-2.28v-9.95h9.62v9.95h-6.19v.33h6.19v.65h.33v-.65h1.47v-3.26h-1.47v-2.28h2.93v5.54h1.3v-.33h-.98v-9.95h6.19v9.95h-4.08v.33h4.08v3.1h-9.45v-1.3h-.33v1.3h-9.62v-1.3h-.33v1.3h-7.01v-6.68Z"/>
      <path class="st0" d="M189.3,531.36v-4.65h1.79v-.33h-13.53v-1.79h-.33v1.79h-10.11v-4.73h10.11v1.79h.33v-11.9h2.45v12.23h5.38v-.49h3.1v.49h7.66v-.33h-1.79v-8.48h4.73v8.48h-1.63v.33h3.88l.08.2.08.2v-.2s.02-.2.02-.2h14.35v-.33h-.98v-.82h3.26v.82h-.82v.33h.98v2.61h-.98v.33h1.3v9.13h-4.56v-2.45h-.33v2.45h-1.04c-.57,0-1.6.05-2.28.11l-1.25.1v-9.34h4.56v3.91h.33v-3.91h1.79v-.33h-14.32l-.08-.2-.08-.2v.2s-.02.2-.02.2h-8.8v.33h1.79v9.29h-5.05v-4.65ZM201.47,525.38l-.09-.21v.31s-.02.31-.02.31l.1-.1.1-.1-.09-.21ZM201.47,524.57l-.09-.21v.31s-.02.31-.02.31l.1-.1.1-.1-.09-.21ZM186.2,523.62v-.16h-.65v.33h.65v-.16ZM187.18,523.62v-.16h-.65v.33h.65v-.16ZM188.16,523.62v-.16h-.65v.33h.65v-.16ZM215.54,522.97v-.16h-.49v.33h.49v-.16ZM216.36,522.97v-.16h-.49v.33h.49v-.16ZM217.17,522.97v-.16h-.49v.33h.49v-.16ZM217.99,522.97v-.16h-.49v.33h.49v-.16Z"/>
      <path class="st0" d="M247.66,534.46v-1.71h2.28v-1.14h-.33v.81h-1.96v-3.26h1.96v1.3h.33v-.56c0-.31.04-.67.1-.82l.1-.26h-1.67v-1.79h7.17v-.33h-.82v-3.91h1.47v1.47h3.59v2.45h-.81v.33h2.61v1.79h-10.43v.33h.49v1.3h.32v-1.3h4.89v1.3h.33v-1.3h4.56v7.01h-4.56v-4.56h-.33v4.56h-4.89v-4.56h-.32v4.56h-4.08v-1.71Z"/>
      <path class="st0" d="M517.39,557.76l.79-1.61-2.93-1.44-2.93-1.44,4.39-8.91,4.39-8.91,1.98-.06c1.09-.03,2.71-.1,3.59-.15l1.61-.09,3.6,1.77,3.6,1.77-5.94,12.07-5.94,12.07-3.51-1.73-3.51-1.73.79-1.61ZM525.07,545.49l2.18-4.44-1.08-.47-1.08-.47h-.74s-.74-.01-.74-.01l-.9.29-.9.28-.42.47-.42.47-.83,1.69-.83,1.69.09.85.09.85.4.71.4.71.54.51.53.51.76.39.76.39,2.18-4.44Z"/>
      <path class="st0" d="M461.53,569.43v-.65h2.77v1.3h-2.77v-.65Z"/>
      <path class="st0" d="M497.37,568.28l.76-1.54.88.43.88.43-.76,1.54-.76,1.53-.88-.43-.88-.43.76-1.53Z"/>
      <path class="st0" d="M220.92,572.77v-1.55h.82v3.1h-.82v-1.55Z"/>
      <path class="st0" d="M452.08,569.59v-5.71h12.23v1.79h-1.47v1.47h-1.63v3.26h3.1v4.89h-12.23v-5.7Z"/>
      <path class="st0" d="M417.19,575.3v-.65h2.77v1.3h-2.77v-.65Z"/>
      <path class="st0" d="M407.58,575.3v-.65h2.77v1.3h-2.77v-.65Z"/>
      <path class="st0" d="M212.94,584.02v-.24h3.1v.49h-3.1v-.24Z"/>
      <path class="st0" d="M553.18,583.66l-.88-.43.22-.44.22-.44-.15-.07-.15-.07-.22.44-.22.44-1.54-.76-1.54-.76-.07.15-.07.15,1.02.5,1.03.5-.32.66-.32.66-.66-.32-.66-.32-.32.66-.32.66-1.1-.54-1.1-.54.65-1.32.65-1.32.22.11.22.11.07-.15.07-.15-.22-.11-.22-.11.14-.29.15-.29-.15-.07-.15-.07-.14.29-.14.29-3.29-1.62-3.29-1.62,1.26-2.56,1.26-2.56,3.29,1.62,3.29,1.62-.86,1.76-.86,1.76.15.07.15.07,1.15-2.34,1.15-2.34-.15-.07-.15-.07-.22.44-.22.44-3.29-1.62-3.29-1.62.72-1.46.72-1.46,3.29,1.62,3.29,1.62-.25.51-.25.51.15.07.15.07.25-.51.25-.51,1.17.58,1.17.58-1.37,2.78-1.37,2.78.29.14.29.15.07-.15c.04-.08,0-.18-.08-.22l-.15-.07,1.29-2.63,1.3-2.63,1.97.97,1.97.97-1.29,2.63-1.3,2.63-1.32-.65-1.32-.65-.07.15-.07.15.29.14.29.15-.22.44-.22.44.15.07.15.07.22-.44.22-.44.88.43.88.43-.68,1.39-.68,1.39-.88-.43Z"/>
      <path class="st0" d="M551.81,586.62l-.8-.4.65-1.32.65-1.32.8.4.8.4-.65,1.32-.65,1.32-.8-.4Z"/>
      <path class="st0" d="M214.57,586.46v-.75h1.5s0-1.92,0-1.92h.3s0,3.24,0,3.24h-1.79v-.57Z"/>
      <path class="st0" d="M194.19,587.36v-3.59h10.43v5.22h.33v-1.3h2.61v-.33h-2.61v-3.59h4.56v3.59h-.82v.33h2.12v-.33h-.98v-3.59h2.77v3.59h-.98v.33h1.3v-.33h3.42v3.59h-11.41v-.98h-.33v.98h-10.43v-3.59Z"/>
      <path class="st0" d="M111.87,592.98v-.57h1.14v1.14h-1.14v-.57Z"/>
      <path class="st0" d="M426.48,592.49v-1.39h1.47v2.77h-1.47v-1.38Z"/>
      <path class="st0" d="M466.24,596.47l-.36-.26.16-.27c.09-.15.45-.73.81-1.28l.64-1.02.38.24c.87.54.89.55.05,1.9-.81,1.29-.76,1.37-1.69.69Z"/>
      <path class="st0" d="M496.07,598.62l.36-.73.73.36.73.36.14-.28c.07-.15.21-.76.31-1.35l.17-1.08-.12-.94-.12-.94-.44-.73-.45-.73-.89-.72c-.49-.4-1.11-.83-1.39-.97l-.5-.25.08-.37.07-.37,3.18-6.47,3.18-6.47,4.24,2.09,4.24,2.09.07-.15.07-.15-1.9-.94-1.9-.93.83-1.68.83-1.68-1.61-.79-1.61-.79-.83,1.68-.83,1.68-3.95-1.94-3.95-1.94.83-1.68.83-1.68,1.61.79,1.61.79.43-.88.43-.88.66.32.66.32.4-.8.4-.8,4.24,2.09,4.24,2.09-.83,1.68-.83,1.68,3.22,1.58,3.22,1.58-.83,1.68-.83,1.68-1.61-.79-1.61-.79-.07.15-.07.15,1.61.79,1.61.79-4.97,10.09-4.97,10.09-4.24-2.09-4.24-2.09.36-.73Z"/>
      <path class="st0" d="M263.63,605.13v-.65h3.1v1.3h-3.1v-.65Z"/>
      <path class="st0" d="M116.55,607.47l-1.1-1.08v-.94h-5.05v-11.57h2.93v-2.93h-2.93v-3.59h5.22v-1.07l1.02-1.01,1.02-1.02h4.07s4.07.03,4.07.03l1.18,1.36,1.18,1.36v.84h2.93v2.77h.45s.45.03.45.03l1.02,1.2,1.02,1.2v7.16l-1.1,1.07-1.1,1.08h-.53s-.53,0-.53,0v2.93h-2.93v1.38l-.93.94-.93.94h-4.16s-4.16,0-4.16,0l-1.1-1.07Z"/>
      <path class="st0" d="M226.79,612.47v-1.63l-2.98-.05-2.98-.05,3.14-.04,3.14-.04v-4.89h-.32v4.57h-5.87v-6.85h5.87v1.3h.32v-1.63h-6.19v-5.22h-1.96v-1.14h1.96v-22.33h5.87v-3.26h1.79v42.87h-1.79v-1.63Z"/>
      <path class="st0" d="M220.92,612.55v-1.55h.82v3.1h-.82v-1.55Z"/>
      <path class="st0" d="M253.69,619.15v-5.22h1.96v-.33h-1.96v-13.2h5.38v13.2h-2.28v.33h2.61v-13.53h.98v-.33h-1.79v-22.01h-2.53l.11-2.65c.06-1.46.11-3.36.12-4.22l.02-1.58.5-.81.72-.68.83-.34.88-.16,1.7.05,1.77.15,2.15,1.02c1.18.56,3.23,1.54,4.55,2.17l2.41,1.15,1.07,1.03,1.07,1.03.56.99c.31.55.7,1.42.88,1.94l.33.95v3.82l-.49,1.2c-.76,1.83-1.75,3.39-3.33,5.21-.27.32-.76.9-1.07,1.29-.31.39-1.45,1.79-2.53,3.09-1.08,1.31-2.23,2.76-2.57,3.22l-.61.83v3.62h-1.47v-.33h-2.28v.33h1.96v23.96h-9.62v-5.22ZM264.13,591.96c.13-.16.83-1.02,1.54-1.91.72-.89,1.34-1.66,1.39-1.71.05-.04.67-.82,1.39-1.71.72-.9,1.44-1.78,1.6-1.96.17-.18.63-.77,1.04-1.3l.74-.98.38-.86.38-.86v-.77s0-.77,0-.77l-.23-.87-.23-.87-.77-1.14-.77-1.14-1.56-.74-1.56-.74-1.5-.46-1.5-.46-.78.16c-.43.09-.87.24-.99.33l-.2.16v17.96l.44.46.44.46h.52l.24-.29Z"/>
      <path class="st0" d="M257.3,632.09v-1.55h.98v3.1h-.98v-1.55Z"/>
      <path class="st0" d="M257.28,643.6v-4.24h5.71v-.33h-.82v-4.89h.82v-.33h-1.63v-1.63h-1.47v-1.63h9.46v3.26h-1.63v.33h1.63v4.89h-3.91v-4.89h1.3v-.33h-2.77v.33h1.14v4.89h-1.14v.33h5.38v8.48h-12.06v-4.24Z"/>
      <path class="st0" d="M171.86,667.24v-.49h3.1v.98h-3.1v-.49Z"/>
      <path class="st0" d="M59.38,668.54v-.49h3.1v.98h-3.1v-.49Z"/>
      <path class="st0" d="M44.38,669.44v-1.55h7.17v3.1h-7.17v-1.55Z"/>
      <path class="st0" d="M511.09,673.19v-1.71h1.31v3.42h-1.3v-1.71Z"/>
      <path class="st0" d="M182.78,675.47v-2.53h2.28v-.33h-2.28v-1.79h-.33v.49h-1.96v-7.83h-.33v2.45h-2.28v-4.73h2.28v1.47h.33v-4.4h-6.2v-.65h-.32v.65h-.49v.33h.49v2.61h.98v3.91h-1.47v-1.47h-1.79v4.08h-.49v-9.13h1.3v-.33h-1.3v-2.28h2.77v.65h.32v-.65h5.87v-1.14h.65v-.33h-.65v-3.26h-1.14v.33h.82v4.08h-2.77v-4.08h.98v-.33h-1.3v4.4h-5.54v-6.52h8.96v-2.28h-.32v1.96h-8.64v-7.17h8.64v4.4h.32v-1.3h.65v-.33h-.65v-2.77h2.28v2.77h-.82v.33h.82v.16c0,.09.07.16.16.16h.16v-3.42h8.8v5.05h-8.8v-.82h-.33v8.64h-.82v.3l.37.05.37.05.03.65c.01.36.03,3.68.04,7.38v6.72h.34v-.49h.98v-.33h-.98v-1.3h2.45v1.3h-.16c-.09,0-.16.07-.16.16v.16h.65v-1.63h6.03v5.05h-5.38v.33h5.38v5.05h-8.8v-2.53Z"/>
      <path class="st0" d="M48.78,649.3v2.61h.49v.33h-.49v3.1h3.1v.98h-.33v-.65h-2.77v2.28h2.77v-.82h.33v7.15l.2.09.2.09-.2.09-.2.1v13.34h-.33v-3.91h-.98v-.33h.98v-2.45h-3.75v2.45h1.63v.33h-.65v1.3h-.33v-1.3h-.98v-2.77h-3.1v6.03h4.08v-.82h.33v2.77h-.33v-1.63h-4.08v5.05h4.08v-2.28h.33v2.28h.65v.33h-5.05v5.54h7.17v-5.54h-.98v-.33h.98v-3.75h.33v1.47h.49v.33h-.49v7.83h.49v.33h-7.99v4.08h7.97v.27h-.49v3.65h1.96v-3.65h-.46v-.27h.47v-4.08h-.49v-.33h.49v-2.93h.33v.65h.49v.33h-.49v6.36h1.12v.27h-1.12v3.65h3.19v-3.65h-1.12v-.27h6.9v-6.36h-7.5v-.33h7.5v-6.2h-6.52v4.08h-.81v-.33h.49v-3.75h-2.12v3.75h.65v.33h-.65v.49h-.33v-3.91h-.49v-.33h.49v-.65h6.19v-.65h.33v.65h2.77v-2.28h-1.3v-.33h1.3v-9.13h-.49v4.08h-1.79v-1.47h-1.47v3.91h.98v2.61h.49v.33h-.49v.65h-.33v-.65h-6.19v-4.4h.33v1.47h2.28v-4.73h-2.28v2.12h-.33v-7.34h-.49v-.33h.49v-1.79h.33v5.22h8.97v-6.52h-1.96v-.33h1.96v-5.71h-8.97v5.71h6.03v.33h-6.03v.16c0,.09-.07.16-.16.16h-.16v-7.5h.33v.82h8.97v-5.54h-8.97v3.75h-.33v-.82h-.81v-.33h.81v-2.61h-2.61v2.61h.82v.33h-1.79v-.33h.65v-2.61h-2.12Z"/>
      <path class="st0" d="M124.42,695.52v-1.55h.98v3.1h-.98v-1.55Z"/>
      <path class="st0" d="M118.88,696.58v-.49h-2.61v-2.77h9.13v.49h-4.07v1.79h1.47v1.47h-3.91v-.49Z"/>
      <path class="st0" d="M64.43,696.34v-.73h1.47v-1.79h-4.08v-.49h9.13v2.77h-2.61v.98h-3.91v-.73Z"/>
      <path class="st0" d="M61.82,695.52v-1.55h.98v3.1h-.98v-1.55Z"/>
      <path class="st0" d="M452.24,703.75v-4.08h1.96v-.33h-1.96v-8.15h3.26v-.49h1.14v.49h.98v8.15h-1.96v.33h1.96v8.15h-5.38v-4.08Z"/>
      <path class="st0" d="M517.61,714.17v-1.32l-.32-1.58c-.17-.86-.45-2.78-.6-4.26l-.29-2.69v-3.99s0-3.99,0-3.99l.29-2.93c.16-1.61.4-3.67.54-4.56.14-.9.29-2.46.33-3.47l.08-1.83h1.76v31.95h-1.79v-1.32Z"/>
      <path class="st0" d="M479.1,724.02l-1.26-.07v-14.98h-13.37v-3.42h-6.52v-12.06h6.52v-3.42h13.37v-14.84h40.1v-3.75h2.93v7.5h-6.85v.33h6.52v5.71h-.82v-1.79h-4.11l.1.26c.05.14.1.77.1,1.39v1.13h1.3v.12c0,.07-.11.75-.24,1.51-.27,1.57-.64,5.23-.92,8.97l-.19,2.53.1,2.77c.16,4.42.81,10.02,1.26,10.86l.16.31h-1.48v1.13c0,.62-.04,1.24-.1,1.39l-.1.26h4.76v4.08h-6.36v.33h6.85v3.75h-17.82c-9.8,0-18.92.03-20.25.06-1.34.03-3,.03-3.69,0h0ZM502.61,720.05v-.16h-3.07l-.1-.2-.1-.2-.1.2-.1.2h-4.05v-4.08h.65v-.82h-.49v.33h-9.95v-4.24h8.15v-22.98h-8.15v-4.4h9.95v14.02h11.9v-.33h-11.41v-14.18h-.65v-3.91h4.05l.1.2.1.2.1-.2.1-.2h3.07v-.33h-7.82l-.05,2.16-.05,2.16-4.85.04-4.85.04v8.56l-2.16.58-2.16.58-.05.92-.05.92h.51v-.33h3.91v.16c0,.09.07.16.16.16h.16v-2.28h2.61v-1.47h2.45v-2.77h2.77v22.33h-2.77v-2.77h-2.45v-1.47h-2.61v-2.12h-4.75l.11.77c.14.99,0,.9,2.31,1.43l2,.46v8.58h9.78v4.56h7.83v-.16ZM512.23,720.05v-.16h-6.85v-1.3h-.33v1.3h-.65v.33h7.83v-.16ZM499.52,719.08c0-.09-.07-.16-.16-.16s-.16.07-.16.16.07.16.16.16.16-.07.16-.16ZM499.52,718.42c0-.09-.07-.16-.16-.16s-.16.07-.16.16.07.16.16.16.16-.07.16-.16ZM502.29,716.96v-1.14h2.77v1.47h.33v-1.47h8.48v-.33h-15.81v.33h1.14v2.28h3.1v-1.14ZM496.42,715.65c0-.09-.07-.16-.16-.16s-.16.07-.16.16.07.16.16.16.16-.07.16-.16ZM497.07,715.65c0-.09-.07-.16-.16-.16s-.16.07-.16.16.07.16.16.16.16-.07.16-.16ZM497.72,715.65c0-.09-.07-.16-.16-.16s-.16.07-.16.16.07.16.16.16.16-.07.16-.16ZM495.77,706.61v-6.93h11.41v-.33h-11.9v14.18h.49v-6.93ZM494.95,705.55v-1.3h-.98v2.61h.98v-1.3ZM481.1,703.67v-.41h-.33v.82h.33v-.41ZM485.33,703.67v-.41h-.33v.82h.33v-.41ZM494.95,702.77v-1.3h-.98v2.61h.98v-1.3ZM481.1,702.53v-.41h-.33v.82h.33v-.41ZM485.33,702.53v-.41h-.33v.82h.33v-.41ZM481.1,701.39v-.41h-.33v.82h.33v-.41ZM485.33,701.39v-.41h-.33v.82h.33v-.41ZM474.33,701.2l1.55-.43v-2.69l-.24-.09-.24-.09v-4.58h-2.45v3.75h-3.5l-1.51.5-1.51.5v2.7l1.35.42,1.35.42,1.83.02h1.84s1.55-.41,1.55-.41ZM481.1,700.25v-.41h-.33v.81h.33v-.41ZM485.33,700.25v-.41h-.33v.81h.33v-.41ZM464.3,699.43v-.57h-.49v.65h-5.21v-1.96h-.49v2.45h6.19v-.57ZM481.1,699.11v-.41h-.33v.82h.33v-.41ZM485.33,699.11v-.41h-.33v.82h.33v-.41ZM495.6,699.03c0-.09-.07-.16-.16-.16s-.16.07-.16.16.07.16.16.16.16-.07.16-.16ZM500.17,699.03c0-.09-.07-.16-.16-.16s-.16.07-.16.16.07.16.16.16.16-.07.16-.16ZM495.6,698.54c0-.09-.07-.16-.16-.16s-.16.07-.16.16.07.16.16.16.16-.07.16-.16ZM500.17,698.54c0-.09-.07-.16-.16-.16s-.16.07-.16.16.07.16.16.16.16-.07.16-.16ZM481.1,697.97v-.41h-.33v.82h.33v-.41ZM485.33,697.97v-.41h-.33v.82h.33v-.41ZM495.6,698.05c0-.09-.07-.16-.16-.16s-.16.07-.16.16.07.16.16.16.16-.07.16-.16ZM500.17,698.05c0-.09-.07-.16-.16-.16s-.16.07-.16.16.07.16.16.16.16-.07.16-.16ZM464.3,697.8v-.24h-4.89v.49h4.89v-.24ZM481.1,696.82v-.41h-.33v.81h.33v-.41ZM485.33,696.82v-.41h-.33v.81h.33v-.41ZM481.1,695.68v-.41h-.33v.82h.33v-.41ZM485.33,695.68v-.41h-.33v.82h.33v-.41ZM492.99,692.67v-.49h-2.61v.98h2.61v-.49ZM496.42,683.38c0-.09-.07-.16-.16-.16s-.16.07-.16.16.07.16.16.16.16-.07.16-.16ZM497.07,683.38c0-.09-.07-.16-.16-.16s-.16.07-.16.16.07.16.16.16.16-.07.16-.16ZM497.72,683.38c0-.09-.07-.16-.16-.16s-.16.07-.16.16.07.16.16.16.16-.07.16-.16ZM513.86,683.38v-.16h-8.48v-1.14h-.33v1.14h-2.77v-2.12h-3.1v2.12h-1.14v.33h15.81v-.16ZM499.52,680.77c0-.09-.07-.16-.16-.16s-.16.07-.16.16.07.16.16.16.16-.07.16-.16ZM505.38,680.03v-.73h6.85v-.33h-7.83v.33h.65v1.47h.33v-.73ZM499.52,680.11c0-.09-.07-.16-.16-.16s-.16.07-.16.16.07.16.16.16.16-.07.16-.16Z"/>
      <path class="st0" d="M482.1,733.07l-.71-.35-.41-.62-.41-.62-.09-.66-.09-.66h6.44l-.09.66-.09.66-.41.62-.41.62-.71.35-.71.34h-1.61l-.71-.35Z"/>
      <path class="st0" d="M187.55,738.68c-4.87,2.79-9.73,5.59-14.6,8.38,1.24,2.18,2.46,4.38,3.68,6.58.36-.21.72-.41,1.08-.62.04.1.07.2.1.3-.33.2-.66.4-.99.6.76,1.38,1.51,2.75,2.27,4.12.16.04.32.09.49.13.99-.55,1.98-1.1,2.98-1.65l-2.47-4.4c-.38.19-.77.38-1.11.64-.06-.11-.13-.22-.19-.33.47-.22.93-.45,1.4-.67.86,1.49,1.72,2.98,2.58,4.47.21-.07.43-.12.63-.23,1.26-.66,2.49-1.36,3.73-2.06,1.71-.96,3.42-1.94,5.14-2.88.16-.08.32-.15.48-.25.51-.3,1.02-.63,1.52-.96-.41-.64-.82-1.28-1.23-1.91-2.28,1.28-4.55,2.57-6.85,3.81-.37.19-.73.4-1.11.56-.05,0-.15.06-.17,0-.2-.41-.4-.81-.64-1.2l-.19-.28c-.51.3-1.02.6-1.53.91-.54-.86-1.02-1.74-1.52-2.62-.55-.98-1.1-1.96-1.62-2.96-.03-.08-.12-.18-.09-.28,3.15-1.79,6.29-3.59,9.44-5.38-.36-.63-.72-1.25-1.09-1.88-.04.02-.07.04-.1.06h0Z"/>
      <path class="st0" d="M501.47,764.47v-1.06h2.93v2.12h-2.93v-1.06Z"/>
      <path class="st0" d="M508.48,766.67v-3.26h3.75v6.52h-3.75v-3.26Z"/>
      <path class="st0" d="M504.73,766.67v-3.26h1.14v-.33h-1.14v-3.75h-.33v.98h-2.93v-2.77h2.93v.65h.33v-.65h.98v-.33h-3.42v-1.63h-.33v1.63h-4.08v-4.4h4.08v1.63h.33v-1.63h5.05v4.4h-.49v.33h1.47v-.33h-.65v-4.4h4.56v4.4h-2.77v.33h2.77v5.54h-5.22v.33h1.14v6.52h-3.42v-3.26Z"/>
      <path class="st0" d="M488.43,787.22v-1.96h2.28v.16c0,.09.07.16.16.16h.16v-.98h-.16c-.09,0-.16.07-.16.16v.16h-2.28v-4.08h2.28v2.61h.33v-.49h1.47v4.73h.16c.09,0,.16-.07.16-.16v-.16h1.3v1.79h-3.1v-2.45h-.33v2.45h-2.28v-1.96Z"/>
      <path class="st0" d="M379.67,751.05v5.04h.36v.57h-.31v2.88h-8.8v.41h-.52v-8.91h-5.04v10.71h5.04v-.72h.52v.72h10.76v-5.09h-.36v-.57h3.24v-5.04h-4.89Z"/>
    </g>
  </g>
</svg>