<?xml version="1.0" encoding="UTF-8"?>
<svg id="svg283" xmlns="http://www.w3.org/2000/svg" version="1.1" viewBox="0 0 605.32 831.58">
  <!-- Generator: Adobe Illustrator 30.2.1, SVG Export Plug-In . SVG Version: 2.1.1 Build 1)  -->
  <defs>
    <style>
      .st0 {
        fill: #70777f;
      }

      .st1 {
        fill: gold;
      }
    </style>
  </defs>
  <g id="Fourth_Floor">
    <g id="Stairs-4">
      <path id="stairs-30" class="st1" d="M275.56,363.66v-.82h1.79v3.11h-1.79v-2.29Z"/>
      <path id="stairs-32" class="st1" d="M272.47,364.39v-1.55h1.79v3.1h-1.79v-1.55Z"/>
      <path id="stairs-34" class="st1" d="M143.53,380.45v-1.47h2.12v1.63h-.98v1.3h-1.14v-1.47Z"/>
      <path id="stairs-42" class="st1" d="M275.56,429.76v-1.55h1.79v3.1h-1.79v-1.55Z"/>
      <path id="stairs-43" class="st1" d="M272.47,429.76v-1.55h1.79v3.1h-1.79v-1.55Z"/>
      <path id="stairs-46" class="st1" d="M192.76,442.33l.62-1.51,1.66.67,1.36.55-.61,1.51-.61,1.51-1.51-.61-1.51-.61.61-1.51Z"/>
      <path id="stairs-49" class="st1" d="M272.79,458.69v-1.47h3.1v1.47h-1.47v1.47h-1.63v-1.47Z"/>
      <path id="stairs-64" class="st1" d="M461.51,569.16v-2.12h1.3v-1.47h1.47v4.41h-2.77v-.82Z"/>
      <path id="stairs-70" class="st1" d="M548.44,584.08l.32-.66.73.36.73.36.32-.66.32-.66.8.4.8.4-.65,1.32-.65,1.32-1.54-.76-1.54-.76.32-.66Z"/>
      <path id="stairs-54" class="st1" d="M276.7,521.93v-.82h1.47v1.63h-1.47v-.82Z"/>
      <path id="stairs-55" class="st1" d="M254.86,521.93v-.82h1.47v1.63h-1.47v-.82Z"/>
      <path id="stairs-56" class="st1" d="M280.29,522.66v-1.55h1.47v3.1h-1.47v-1.55Z"/>
      <path id="stairs-57" class="st1" d="M258.45,522.66v-1.55h1.47v3.1h-1.47v-1.55Z"/>
    </g>
    <g id="Floor-4">
      <path class="st0" d="M272.41,361.43v-1.39h4.89v2.77h-4.89v-1.39Z"/>
      <path class="st0" d="M139.7,347.91l-.03,18.92h.66v.37h-.66v4.4h6.64v5.99h.62v.43h-.65v.98h-.65v1.63h-.98v1.3h4.57v-3.91h-.64v-.43h.64v-8.82l-6.51-.02v-1.56h-.51v-.37h.51v-18.92h-3.01Z"/>
      <path class="st0" d="M142.2,380.46v-1.47h1.3v2.93h-1.3v-1.47Z"/>
      <path class="st0" d="M278.44,429v-1.47h-.33v.65h-7.99v-2.61h7.99v.65h.33v-58.2h-.33v.49h-7.99v-2.61h7.99v.49h.33v-.49h2.77v24.94h.33v-4.08h4.08v-2.77h6.03v5.22h-7.83v1.79h.33v-1.47h7.5v3.75h-7.5v-.98h-.33v2.12h.33v-.82h7.5v7.5h-7.5v-5.38h-.33v1.96h-2.28v-5.54h-.33v38.31h-2.77v-1.47Z"/>
      <path class="st0" d="M275.67,430.47v-.65h1.63v1.3h-1.63v-.65Z"/>
      <path class="st0" d="M276.26,456.88h-.26v-3.26h-.33v3.26h-5.54v-9.95h3.59v2.12h.33v-2.12h.2v-.33s-4.11,0-4.11,0v-12.23h4.08v-.33h-1.79v-2.77h4.89v2.77h-1.79v.33h2.61v12.23h-2.61v.33h2.61v2.12h.33v-2.12h12.71v3.91h-3.42v1.79h-2.77v.33h3.1v-1.79h1.63v5.71h-7.17v-3.91h1.47v-.33h-5.54v-2.45h-.33v4.4h.33v-1.63h3.75v3.91h-3.75v-1.14h-.33v1.14h-.31l-.13.28-.15-.28h-.3l-.15.28-.18-.28h-.32l-.16.28-.15-.28Z"/>
      <path class="st0" d="M274.37,459.4v-.73h1.47v-1.47h2.28v2.93h-3.75v-.73Z"/>
      <path class="st0" d="M270.13,458.67v-1.47h2.61v2.93h-2.61v-1.47Z"/>
      <path class="st0" d="M461.51,569.36v-.65h2.77v1.3h-2.77v-.65Z"/>
      <path class="st0" d="M452.05,569.52v-5.71h5.05v6.03h.33v-6.03h6.85v1.79h-1.47v1.47h-1.63v3.26h3.1v4.89h-6.85v-2.61h-.33v2.61h-5.05v-5.71Z"/>
      <path class="st0" d="M551.78,584.93l.65-1.32.8.4.8.4-.65,1.32-.65,1.32-.8-.4-.8-.4.65-1.32Z"/>
      <path class="st0" d="M546.8,582.48l.65-1.32.22.11.22.11.07-.15.07-.15-.22-.11-.22-.11.14-.29.15-.29-.15-.07-.15-.07-.14.29-.14.29-3.29-1.62-3.29-1.62,1.26-2.56,1.26-2.56,3.29,1.62,3.29,1.62-.86,1.76-.86,1.75.15.07.15.07,1.66-3.36,1.66-3.36,1.17.58,1.17.58-1.37,2.78-1.37,2.78.29.14.29.14.07-.15c.04-.08,0-.18-.08-.22l-.15-.07,1.3-2.63,1.3-2.63,1.97.97,1.97.97-1.3,2.63-1.3,2.63-1.32-.65-1.32-.65-.07.15-.07.15.29.14.29.15-.22.44-.22.44.15.07.15.07.22-.44.22-.44.88.43.88.43-.68,1.39-.68,1.39-.88-.43-.88-.43.22-.44.22-.44-.15-.07-.15-.07-.22.44-.22.44-1.54-.76-1.54-.76-.07.15-.07.15,1.03.5,1.02.5-.32.66-.32.66-.66-.32-.66-.32-.32.66-.32.66-1.1-.54-1.1-.54.65-1.32Z"/>
      <path class="st0" d="M279.58,503.22v12.88h-6.52v1.3h.98v.33h-1.47v3.92h.2v.34h-.2v1.29h-.33v-5.54h-2.93v7.01h2.93v-.33h.33v.65h-3.26v.28h-.27v-7.61h-4.56v8.97h2.71v.33h-5.22v.49h-.33v-.49h-2.61v-.33h.81v-2.45h-3.58v-1.47h-1.47v3.91h.82v.33h-7.17v1.79h13.2v-.49h.33v.49h3.42v.33h-3.26v7.01h4.56v-7.01h-.33v-.16s0-.16,0-.16h.98v.33s-.33,0-.33,0v7.01h3.75v-5.87h-2.12l-.02-.61v-1.41h.27v1.71h1.89v-2.94h-1.89v.41h-.23v-.42s-.5,0-.5,0v-.33h.16s.71,0,.71,0v-.31h.27v.31h3.42v.33h-1.63v9.13h5.22v-9.13h-2.61v-.32s.33-.01.33-.01v-.41s.33,0,.33,0l.02.42h1.93v-1.47h-1.96v.33s-.33,0-.33,0v-2.12h.33v1.47h1.96v-2.93h-1.96v.65h-.33v-.65h-.32v-.16s0-.16,0-.16h2.61v-3.91h-1.3v-.33h2.45v.33h-.82v3.42h5.05v-3.42h-.82v-.33h.82v-14.18h-2.12Z"/>
    </g>
  </g>
</svg>