<?xml version="1.0" encoding="UTF-8"?>
<svg id="svg283" xmlns="http://www.w3.org/2000/svg" version="1.1" viewBox="0 0 605.32 831.58">
  <!-- Generator: Adobe Illustrator 30.2.1, SVG Export Plug-In . SVG Version: 2.1.1 Build 1)  -->
  <defs>
    <style>
      .st0 {
        fill: #70777f;
      }

      .st1 {
        fill: gold;
      }
    </style>
  </defs>
  <g id="Underground_Level">
    <g id="Stairs-U">
      <path id="stairs-80" class="st1" d="M112.07,641.98v-1.55h3.1v1.63h-1.47v1.47h-1.63v-1.55Z"/>
      <path id="stairs-81" class="st1" d="M171.9,665.13v-1.55h1.63v1.47h1.47v1.63h-3.1v-1.55Z"/>
      <path id="stairs-82" class="st1" d="M60.89,671.32v-.73h-1.47v-1.63h3.1v3.1h-1.63v-.73Z"/>
      <path id="stairs-88" class="st1" d="M122.83,696.26v-.73h-1.47v-1.63h3.1v3.1h-1.63v-.73Z"/>
      <path id="stairs-89" class="st1" d="M62.85,695.45v-1.55h3.1v1.63h-1.47v1.47h-1.63v-1.55Z"/>
      <path class="st1" d="M297.51,278.56h-5.04v3.56h5.04v-3.56Z"/>
      <path class="st1" d="M294.76,321.39h-5.01v3.42h5.01v-3.42Z"/>
      <path class="st1" d="M335.39,327.93l.72-3.45,4.96,1.04-.72,3.45-4.96-1.04Z"/>
      <path class="st1" d="M333.71,289.31l-.68,3.48,4.98.96.68-3.48-4.98-.96Z"/>
    </g>
    <g id="Floor-U">
      <path class="st0" d="M328.04,326.51h-5.75s-5.83-.02-5.83-.02v-2.61h-3.42v2.61h-2.45v-2.61h-3.42v2.61h-8.15v-1.68h-4.22v-3.42h4.22v-39.24h-1.46v-3.59h30.48v9.53l5.65,1.2-.62,3.52-5.04-1.02v30.9l8.01,1.76-.59,3.54-7.42-1.49ZM304.24,319.99v-.82h-1.63v1.63h1.63v-.81ZM324.13,319.99v-.82h-1.63v1.63h1.63v-.81ZM319.08,312.41v-7.74h-11.25v15.49h11.25v-7.74ZM304.24,314.28v-.82h-1.63v1.63h1.63v-.82ZM324.13,314.28v-.82h-1.63v1.63h1.63v-.82ZM304.24,308.57v-.81h-1.63v1.63h1.63v-.82ZM324.13,308.57v-.81h-1.63v1.63h1.63v-.82ZM304.24,302.87v-.82h-1.63v1.63h1.63v-.81ZM324.13,302.87v-.82h-1.63v1.63h1.63v-.81ZM319.08,291.54v-7.74h-11.25v15.48h11.25v-7.74ZM304.24,297.16v-.82h-1.63v1.63h1.63v-.82ZM324.13,297.16v-.82h-1.63v1.63h1.63v-.82ZM304.24,291.46v-.82h-1.63v1.63h1.63v-.82ZM324.13,291.46v-.82h-1.63v1.63h1.63v-.82ZM304.24,285.75v-.82h-1.63v1.63h1.63v-.81ZM324.13,285.75v-.82h-1.63v1.63h1.63v-.81Z"/>
      <path class="st0" d="M171.87,666.96v-.24h3.1v-1.63h-1.47v-1.47h-1.63v-2.28h3.75v5.87h-3.75v-.24Z"/>
      <path class="st0" d="M110.58,709.1v-3.75h1.3v-.33h-1.3v-6.03h-.33v9.94h-7.17v-9.94h-.33v6.36h-39.61v-3.1h7.99v-9.13h-7.5v.33h3.26v4.08h-5.87v-4.08h.98v-.33h-13.53v-22.98h5.22v6.85h9.29v-7.01h-.33v4.08h-3.91v-6.03h4.24v-8.64h4.89v-1.3h.98v-.33h-1.3v1.3h-4.56v-6.68h7.99v5.38h-.98v.33h1.3v-5.71h38.8v-5.7h5.54v-5.38h-.32v3.75h-3.59v-5.87h3.59v.98h.32v-.98h5.71v13.2h44.01v5.54h4.24v-.33h-3.91v-5.22h5.87v5.22h-.82v.33h.82v6.85h.32v1.47h-.32v21.19h-45.16v5.38h-.81v.33h.81v3.75h-1.96v-2.93h-3.1v1.63h1.47v1.3h-2.28v-3.75h3.59v-.33h-5.87v9.94h3.42v2.28h-8.15v.33h8.15v7.5h-11.08v-3.75ZM64.45,696.3v-.73h1.47v-1.63h-3.1v3.1h1.63v-.73ZM127.53,669.82v-5.87h-11.57v11.74h11.57v-5.87ZM165.52,669.73v-5.46h-5.71v10.92h5.71v-5.46ZM62.49,670.55v-1.55h-3.1v1.63h1.47v1.47h1.63v-1.55ZM113.68,642.84v-.73h1.47v-1.63h-3.1v3.1h1.63v-.73Z"/>
    </g>
  </g>
</svg>