<?xml version="1.0" encoding="UTF-8"?>
<svg id="svg283" xmlns="http://www.w3.org/2000/svg" version="1.1" viewBox="0 0 605.32 831.58">
  <!-- Generator: Adobe Illustrator 30.2.1, SVG Export Plug-In . SVG Version: 2.1.1 Build 1)  -->
  <defs>
    <style>
      .st0 {
        fill: #70777f;
      }

      .st1 {
        fill: gold;
      }
    </style>
  </defs>
  <g id="Fifth_Floor">
    <g id="Stairs-5">
      <path id="stairs-46" class="st1" d="M192.76,442.33l.62-1.51,1.66.67,1.36.55-.61,1.51-.61,1.51-1.51-.61-1.51-.61.61-1.51Z"/>
      <path id="stairs-34" class="st1" d="M143.53,380.45v-1.47h2.12v1.63h-.98v1.3h-1.14v-1.47Z"/>
    </g>
    <g id="Floor-5">
      <path class="st0" d="M189.51,438.27l.56-1.39.59.24.6.24-.56,1.39-.56,1.39-.6-.24-.59-.24.56-1.39ZM191.73,440.01l.27-.66.53.21.53.21-.27.66-.27.66-.53-.21-.53-.21.27-.66ZM193.21,439.76l.56-1.39,1.32.53,1.32.53.05-.13c.03-.07,0-.15-.08-.18l-.13-.05.4-.99.4-.99.66.27.66.27-.08.2-.08.2.13.05.13.05.08-.2.08-.2.2.08.2.08.05-.13.05-.13-.2-.08-.2-.08.35-.86.35-.86.66.27.66.27-.35.86-.35.86-.13-.05c-.07-.03-.16,0-.19.08l-.05.13.26.11.26.11.64-1.58.64-1.58.13.05c.07.03.16,0,.19-.08l.05-.13-.93-.37-.92-.37.48-1.19.48-1.19,2.64,1.07,2.64,1.07-.48,1.19-.48,1.19-1.39-.56-1.39-.56-.05.13c-.03.07,0,.16.08.18l.13.05-.61,1.52-.61,1.52.13.05.13.05.08-.2.08-.2,1.12.45,1.12.45-.51,1.26-.51,1.26-1.12-.45-1.12-.45.27-.66.27-.66-.13-.05-.13-.05-.27.66-.27.66-.53-.21-.53-.21-.05.13-.05.13,1.78.72,1.78.72-.56,1.39-.56,1.39-2.64-1.07-2.64-1.07.56-1.39.56-1.39.46.19.46.19.05-.13.05-.13-.46-.19-.46-.19.08-.2.08-.2-.13-.05-.13-.05-.08.19-.08.19h-.2s-.2.02-.2.02l.13.14.13.14-.56,1.38-.55,1.38-1.85-.75-1.85-.75.56-1.39Z"/>
      <path class="st0" d="M148.65,385.37v-.57h.85v-1.42h.57v-.86h2.56v3.42h-3.99v-.57Z"/>
      <path class="st0" d="M146.51,384.66v-1.28h1.14v2.56h-1.14v-1.28Z"/>
    </g>
  </g>
</svg>