<?xml version="1.0" encoding="UTF-8"?>
<svg id="Layer_1" xmlns="http://www.w3.org/2000/svg" version="1.1" xmlns:xlink="http://www.w3.org/1999/xlink" viewBox="0 0 940.38 860.89">
  <!-- Generator: Adobe Illustrator 30.2.1, SVG Export Plug-In . SVG Version: 2.1.1 Build 1)  -->
  <defs>
    <pattern id="New_Pattern_Swatch_1" data-name="New Pattern Swatch 1" x="0" y="0" width="24" height="24" patternTransform="translate(-26.14 -16208) scale(1 -1)" patternUnits="userSpaceOnUse" viewBox="0 0 24 24">
      <g>
        <rect width="24" height="24" style="fill: none;"/>
        <g>
          <rect width="24" height="24" style="fill: none;"/>
          <polygon points="1.93 0 0 0 0 2.03 21.95 24 24 24 24 22.07 1.93 0" style="fill: #fcc;"/>
          <polygon points="5.84 0 1.93 0 24 22.07 24 18.16 5.84 0" style="fill: red;"/>
          <polygon points="0 6.12 0 10.07 13.93 24 17.88 24 0 6.12" style="fill: #fcc;"/>
          <polygon points="0 2.03 0 6.12 17.88 24 21.95 24 0 2.03" style="fill: red;"/>
          <polygon points="0 14.16 0 18.05 5.99 24 9.84 24 0 14.16" style="fill: #fcc;"/>
          <polygon points="0 10.07 0 14.16 9.84 24 13.93 24 0 10.07" style="fill: red;"/>
          <polygon points="0 22.07 0 24 1.93 24 0 22.07" style="fill: #fcc;"/>
          <polygon points="0 18.05 0 22.07 1.93 24 5.99 24 0 18.05" style="fill: red;"/>
          <polygon points="9.88 0 5.84 0 24 18.16 24 14.2 9.88 0" style="fill: #fcc;"/>
          <polygon points="13.85 0 9.88 0 24 14.2 24 10.13 13.85 0" style="fill: red;"/>
          <polygon points="17.8 0 13.85 0 24 10.13 24 6.2 17.8 0" style="fill: #fcc;"/>
          <polygon points="21.8 0 17.8 0 24 6.2 24 2.2 21.8 0" style="fill: red;"/>
          <polygon points="21.8 0 24 2.2 24 0 21.8 0" style="fill: #fcc;"/>
        </g>
      </g>
    </pattern>
  </defs>
  <path id="Walls" d="M690.29,861.45l.24-78.84,41.4-.75-.29-97.68-12.15-.32.16-14.84c-28.31.5-55.04-9.33-75.89-27.93l13.77-15.93c-18.12-12.9-30.25-45.05-27.86-62.96,0,0-1.33-3.1-1.33-3.1v52l-58.37.09-.19,70.4-248.96.2.36-53.32,20.09-14.77-.05-2.59c-24.03-1.27-44.43,34-44.29,47.49,0,.27.33,69.28.32,69.57l2.58,1.92h10.84l-.1,49.17h-38.64l-.06-8.83-42.07-.08.08,4.58-88.04-.18.03,36.42h-41.42v.88H23.77v-56.85l-24.08-.03v-25.43l35.08.17.09-59.58,20.56-.07-.12-56.93,38.25-.13v.23l36.31-.12.12,57.02,11.88.13v.06l44.56-.19.38,51.35c-21.03-.06-63.55-.11-84.47-.09l-.07,8.33,38.59.09v-.93l88.63.36.17,15.74,36.21.07-.09-98.98c1.05-3.38,3.53-10.8,4.97-13.98l-8.9-2.79-1.41,7.66-71.25.44-.33-107.05c-10.72-.46-27.98-1.28-39.12-7.45-29.24-21.39-39.75-36.59-43.03-63.82-1.78-21.05-1.67-223.78-1.25-242.04h-31.26v2h27.49l.37,86h-23.98l-.67-64.25-22.7-.09v-68.19l89.99,1.07.2,43.13h-16.23l.02,1.36,89.35.83.2,29.37-84-1.67c1.55,14.72-2.79,220.12,5.36,227.57,11.33,18.19,25.09,26.65,49.29,26.6v-22.95h-27.36c.15-33.65.44-109.04.42-141.97l46.97.29c-.4-13.1,3.74-26.89,8.29-39.03,3.64-7.63,11.73-16.43,17.69-22.33,13.97-12.14,22.76-19.19,42.27-18.69l.05-35.67h1.99c.27-6.15-.94-52.71,1.84-57.25.98-2.88,3.55-8.49,5-11.18l-31.77-8.38-11.84,42.75-95.94-26.57,20.58-74.31,95.94,26.57-2.34,8.46,37.62,8.79c2.05-3.77,9.02-17.76,11.9-20.57,22.75-24.01,48.9-49.03,72.22-72.72,3.23-3.46,3.77-4.24,1.35-7.82,0,0-28.09-29.39-28.09-29.39l18.01-17.18c8.94,11.36,38.93,33.95,37.1,49.96,2.29,18.34-50.96,59.06-60.9,72.22l32.88,32.88,14.66-14.56,3.68,3.68,28.04-27.29,4.54,4.66,53.35-53.35-9.49-9.49,9.28-9.27-7.04-7.07,14.78-14.78,7.04,7.07,9.26-9.27,38.21,38.2-33.33,33.33-13.75-13.75-53.55,53.56,10.72,11.01,8.95-9.19,11.64,11.87-103.78,102.89-13-12.45,11.77-11.42-29.79-30.62,16.27-15.83-3.28-3.27,7.91-7.86-32.83-32.83c-6.13,6.43-21.58,37.28-25.86,45.11-3.76,7.04-1.3,46.53-1.93,54.76l2.88.02.11,24.21h19.34l.07,38.55c-9.25.48-51.13-1.68-59.07,2.48-9.08,4.54-19.52,11.33-23.06,21.32l31.24,7.85v-1.37c1.05.42,112.58-.62,113.38.61-5.55-32.19,20.11-76.99,56.23-83.72l.11-5.43h57.2v.33l49.73.12v.76l49.44.19.18,53.03h1.69l.17-17.71h36.69l-.27,17.33h30.22l.04,20.17c.92-.53,54.15.19,55.11.01l.33,37.9h.32l-.17-14.58h50.02l.37,59.02-50.02-.38v-17.89h-.32l.14,26.4c68.5-6.93,119.57,33.29,112.68,110l35.09-.16.17,7.34,14.07-.04v-159.27l51.17-.19v181.68h-49.93l-.17-6.9-15.37-.36.17,15.62-19.2-.17v20.61l-14.67.17v8.07l-33.64-.4c-.27-21.66-.54-75.99-.8-96.89-1.49-20.62-22.55-47.72-51.2-45.08-8.87.18-32.25.15-40.85.06v126.12l-52.77-.24c-.78,16.96.27,37.43,15.64,50.47l11.7-12.29,49.12,26.28,24.8,1.82.19,31.04,27.39-.2v.64l36.05.52v32.38l-35.78.26v180.65h-100.9v-.03Z"/>
  <path id="Floor" d="M892.36,350.78v159.28l-20,.06-.17-7.33-35.16.16c6.42-83.71-44.29-116.02-112.67-110l-.17-32.5,6.33.17v17.83l44,.33-.33-53h-44l.17,14.67-6.33-.17-.33-37.83-48.33-.17-.17,67.17-6.5-.17-.17-87h-43.33l-.16-6.36,13.33-.14.17-10.83h-30.67l-.17,17.67-20.33.17v-4.41l12.67-.09-.17-48.67-43.5-.17.17,48.83,15.5-.17.06,4.78h-37.22l-.11-4.56,15.78-.06-.11-49.61-46.11-.11v18.11h-3.53l-.08-18.44h-51.28l-.11,5.39c-34.47,3.11-61.07,48.43-56.39,77.78,5.96.02,11.93.04,17.89.06l-.06,7.22-17.67.06.2,43.39-7.36.06.16-45.22-106.33-.17-.06,10.44-3.32.11.1-9.16-30.28-7.61-1.16,5.55-4.92-.12c.66-4.46,2.61-10.31,4.53-14.38,5.4-7.92,14.2-14.43,22.83-18.44,8.51-4.33,47.54-2.23,57.17-2.67l-.06-32.55h-19.33l-.11-24.23-7.95-.05.06-4.13,5,.02c.66-9.27-1.97-46.78,2.17-54.78,5.67-10,19.94-40.52,28.61-48.17l37.08,37.08-7.91,7.86,3.3,3.29-16.3,15.86,29.79,30.62-11.69,11.35,8.64,8.28,99.59-98.73-7.4-7.55-8.96,9.2-14.93-15.34,57.76-57.77,13.75,13.75,29.09-29.09-33.97-33.96-9.27,9.27-7.04-7.07-10.54,10.54,7.04,7.07-9.27,9.27,9.49,9.49-57.62,57.62-4.57-4.69-28.01,27.26-3.66-3.66-14.66,14.56-37.12-37.12c9.36-12.61,63.97-55,62.14-72.22,1.14-15.32-25.96-35.05-34.2-45.72l-13.67,13.04c5.96,7.96,27.97,25.21,28.28,33.18-21.3,28.4-51.97,51.51-75.68,78.61-2.76,2.58-10.71,18.63-12.65,22.1l-42.91-10.02,2.37-8.58-90.16-24.97-18.98,68.53,90.16,24.97,11.83-42.72,38.19,10.08c-1.59,3.13-5.41,10.74-6.44,14-2.59,3.87-1.48,49.81-1.73,55.22l5.89.02-.05,4.15h-7.84l-.05,35.67c-20.7-.77-28.25,4.83-43.22,17.88-5.69,5.67-13.5,14.08-17,21.39-4.9,12.64-8.71,27.12-8.06,40.79l-46.94-.29-.06,48.61,16.72.06-.05,5.94-16.28.06-.72,81.28h61.11l-.03,7.64h-33.75v21.41c-26.77.36-42.58-8.1-54.81-28.07-9.06-7.98-4.13-217.13-5.86-232.26l84,1.67-.16-23.34-89.34-.83-.08-7.34h16.25l-.17-37.16-84-1v62.17l22.67.09.67,64.24h18l-.34-80h-27.5v-8h37.32c-.51,20.75-.6,220.86,1.17,244.67,2.96,26.38,14.14,41.63,41.62,61.61,11.56,6.33,30.69,6.7,40.56,7.14v49.41h16.5l.08,6.25-16.33.09.08,51.16,65.75-.41,1.57-8.55,15.39,4.83c-2.21,4.02-4.71,11.94-6.12,16.3,0,0-.17,35-.17,35h7.25v6.42l-7.25.08.25,54h5.83l.09,11.75h-4v-5.75l-44.08-.08-.17-15.75-82.67-.33v6.21l-5.33-.04v-5.25l-71.85-.17-.07-4,32.67.08.08-10.33h39.58l-.08-29.25h4.67l-.08,29.25,40.33.08-.33-45.33-40.08.17v7.52l-4.5.06v-7.67l-22.83-.25-.09-4.67,11.03.03-.11-52.22-33.33.11.33,52.78,12.08.22v3.64l-27.42.1-.1-4.19,11.76.11.33-52.89-32.22.11.11,52.56,10.22.11-.11,4.22-30.67.11-.08,55.53,17.5-.08-.09,4.25-52.49-.25v19.42l38,.04v4.33l-13.92.04v52.46h34.42l-.04-52.5-12.08-.04v-4.33l28.96-.08.04,4.5-13.25-.14-.08,52.59h32.75l.04-52.62-10.33-.04v-4.17h25.08l-.08,4.21-11.25.17.04,51.58h37.92l-.04-51.67h-18.08l.04-4.29,18.12-.04.04-6,5.04.08v25.5l82.83.17-.08-4.58,43.42.08v-5.75h4.64l.11,14.58h32.67l.08-43.17h-8.83l-4.58-3.42v-41.42l-2.58-.08-.08-6.42h2.42s-.06-22.89-.06-22.89c-.22-17.84,24.95-54.73,50.22-50.67l.13,6.98-20.13,14.79-.33,48.78,48.33-.33v-2.5h5.25l-.08,2.67,50.92.25-.75-37.66,7.08.16.03,37.83,50.89-.41v-3h5.91l.09,3.16,75.26-.33-.26-62.96-10.79-.04.04-6h11.21l-.04-9.71,5.62.08.04,8.21,52.75-.08v-46.17l-13.17-.17.17-5.67h13.5l-.33-44.58-15.84.04.04-7.25,27.29-.04-.04,7.33h-4.46c1.25,38.34-8.56,86.12,29.34,113.17-4.61,5.33-9.22,10.67-13.83,16,16.41,17.2,59.26,28.02,74.67,25.17l-.17,15,12.11.32.45,150.52h-4.89l.22-46.89-36.89.67-.22,72.89h37.33l-.22-13.11,4.67-.22v13.33h53.11v-185.11h5.33v4.44l30.44-.22v-26.44l-30.67-.44v12.67h-5.11l-.23-13.32-28.66.2.22,30.89,3.11,3.11.22,104h-2.67l.22-104.44h-5.94c.38-5.86-.05-30.82-.11-37.16l6.17-.17-.17-27.5-22.67-1.67-47.67-25.5-12.17,12.78c-22.52-17.69-18.79-45.63-18.67-68.78l4.67-.11.11,11.22,47.89.22v-120.67l-4.23.17.23-5.67c11.35.17,35.35.15,46.83,0,31.06-2.63,53.06,24.23,55.22,48,.31,22.01.51,71.33.78,94l27.67.33v-8l14.67-.17v-20.67l19.17.17-.17-15.67,21.33.5.17,6.83h44v-175.67s-45.19.15-45.19.18ZM427.3,311.45h17.31v-35.92l5.5.08.08,14.42,3.5-.08.08,21.5,46.92.43-.08-52.26h3.75l-.17,19.08,17,.08.08,3.33h-16.92l-.02,29.58,31.6-.08v7l-31.61.08v7.33h-4.39l-.17-7.66-49.75-.26.08,8.08h-5.67v-7.84l-17.14.26v-7.16h.02ZM505.08,440.45h-5.78l-.22-46.56h-13.78v-6.67h13.56v-43h5.56l.67,96.22h-.01ZM427.3,387.22h16.67l.11-42.89,5.78-.11.11,43h16.11v6.67h-38.78v-6.67h0ZM371.08,387.22l38.56.11v6.55h-38.67l.11-6.67h0ZM413.75,452.23l13.56,12.3-7.65,7-11.13-11.08-52.5-.67-.17-7.55h57.89ZM314.8,387.45l15.84-.06.05-45.89h5.73l.02,45.53,16.59.08v6.67l-38.23.11v-6.44h0ZM337.18,558.82l-6.24.13-.2-26.84-13.11.11v-79.66l19.89-.45.16,7.84-13.83-.34.17,68.67h14.83l.17,8.5h-2.5l.66,22.04h0ZM298.44,481.61l-17.14.06v11.22l17.03-.11-.03,8.1-31.66-.21.22,27.33,33.72.22.03,5.81h-45.5l-.08,8.33h-5.42c-.07-17.74.13-58.64.25-76.75h5.61l-.05,10.28,43-.44.02,6.16h0ZM200.69,393.22l.06-5.88h47.5l-12.33-48.45,1.51-13.94h5.35l-1.17,7.9,34.58,8.86.08-6.39h3.37l.05,52.34,16.17-.06-.06,6.45h-40.5l.12,50.89-6.67.05-.11-51.61-47.95-.17h0ZM221.03,583.61l-.09-6.5h28.56l.04-13.33h5.32l.08,13.33,9.57-.06.1,6.31s-43.58.25-43.58.25ZM361.52,615.7l-.08-6h46l-.08,6.25-29.75-.17-.08,41.67h-5.67l-.08-41.83s-10.26.08-10.26.08ZM407.41,593.07l-6.77.04v-8c-39.02,1.09-87.08-8.43-114.45,27.02l-14.57-9.78,18.12-15.75.03-3h-3.12l-.03-5.83,44.47-.33-.07-9.34,6.18.17v9h37.35s-.35-40.17-.35-40.17h-18.33l.17-8.88c23.9,0,75.67-.34,99.91-.55l.02-20.57-13.54-13.82,5.67-5.82,15.67,14.82.1,25.9,24.16-.17.25,6.92-5.02-.33c-3.16,25.26-16.45,43.18-40.1,48.88-4.46,2.23-30.68.93-35.84,1.37-.02.06.15,8.18.09,8.22ZM491.19,616.36l.17,41.08h-5.83v-41l-50.58-.42-.07,6.25h-6.76l.08-12.59,106.5.17.08,6.58-43.58-.08h0ZM590.08,561.78h-17.67v17.33l-5.33.09-.11-43.2-59.11-.11v-8.11l59.11-.33v-23.33h22.33v6.89l-16.88.11.22,44.89,17.44.22v5.56h0ZM600.52,440.45h-30.33l.33,41.83-25.33-41.83h-13.67v-6.5h34.44v-21h6.39l.17,20.83h28v6.67ZM573.65,380.45l.1,14.67h-7.78v-34.45h7.55l.07,10.89,44.15.22.22-53.56-44.89-.22.22,31.22h-7.33v-37.44l69.11.22v6l-10.44.22v62.44l-50.98-.22h0ZM665.86,456.11c-3.44-.66-1.74,64-2.17,66h-4.92l-.24-11.67-4.83-.17v-5.83h5l.83-41.5-38-20.5,2.67-4.5,36,19.67,3-7.16,4.5,1.8-1.83,3.86h-.01ZM689.52,426.11h-15.17l-.17,7.33h-6.5l.17-41.1h7.17l-.17,28.11,14.67.17v5.5h0Z" style="fill: #70777f;"/>
  <g id="Hazards">
    <polygon points="226.86 771.95 144.02 771.78 143.86 732.11 226.52 732.45 226.86 771.95" style="fill: url(#New_Pattern_Swatch_1); isolation: isolate; opacity: .35;"/>
    <polygon points="734.92 777.3 734.77 707.53 760.36 707.28 760.21 777.53 734.92 777.3" style="fill: url(#New_Pattern_Swatch_1); isolation: isolate; opacity: .35;"/>
    <polygon points="572.64 556 572.42 511.11 588.3 511.01 588.21 556.2 572.64 556" style="fill: url(#New_Pattern_Swatch_1); isolation: isolate; opacity: .35;"/>
    <path d="M561.84,481.85c-5.64-9.53-19.31-32.41-25.23-41.4h8.58l22.67,37.25-6.02,4.15Z" style="fill: url(#New_Pattern_Swatch_1); isolation: isolate; opacity: .35;"/>
    <rect x="356.86" y="584.67" width="42.22" height="8" style="fill: url(#New_Pattern_Swatch_1); isolation: isolate; opacity: .35;"/>
    <path d="M302.19,182.95l-19.91-1c.03-2.2-.22-10.8.62-12.75l19.79,1.82c-.38,2.96-.61,8.94-.5,11.93Z" style="fill: url(#New_Pattern_Swatch_1); isolation: isolate; opacity: .35;"/>
    <rect x="572.42" y="379.56" width="50.44" height="13.11" style="fill: url(#New_Pattern_Swatch_1); isolation: isolate; opacity: .35;"/>
    <rect x="429.86" y="345.03" width="14.17" height="42.19" style="fill: url(#New_Pattern_Swatch_1); isolation: isolate; opacity: .35;"/>
    <rect x="571.52" y="300.45" width="56.67" height="11.33" style="fill: url(#New_Pattern_Swatch_1); isolation: isolate; opacity: .35;"/>
    <rect x="507.86" y="345.56" width="12.89" height="47.11" style="fill: url(#New_Pattern_Swatch_1); isolation: isolate; opacity: .35;"/>
    <rect x="359.52" y="440.45" width="51.11" height="11.78" style="fill: url(#New_Pattern_Swatch_1); isolation: isolate; opacity: .35;"/>
    <rect x="237.3" y="490.45" width="11.11" height="48" style="fill: url(#New_Pattern_Swatch_1); isolation: isolate; opacity: .35;"/>
    <rect x="417.3" y="642.28" width="9.78" height="35.56" style="fill: url(#New_Pattern_Swatch_1); isolation: isolate; opacity: .35;"/>
    <rect x="893.3" y="444" width="12" height="48.44" style="fill: url(#New_Pattern_Swatch_1); isolation: isolate; opacity: .35;"/>
    <polygon points="131.95 384.97 108.61 384.97 108.43 339.78 131.7 339.78 131.95 384.97" style="fill: url(#New_Pattern_Swatch_1); isolation: isolate; opacity: .35;"/>
  </g>
</svg>